<svg xmlns="http://www.w3.org/2000/svg" width="auto" height="auto" viewBox="0 0 46 45" fill="none">
   <path
      d="M38.5483 11.6046H38.3139C38.0389 11.6033 37.7652 11.5655 37.5001 11.4921C37.4165 11.4686 37.3304 11.457 37.2444 11.4571C37.2113 11.4571 37.1782 11.459 37.1452 11.4625C37.0986 11.4676 37.0522 11.4762 37.0066 11.4883C36.8447 11.5312 36.6972 11.6167 36.5794 11.7358L22.2353 26.0649C22.1047 26.1957 21.9497 26.2993 21.7789 26.3701C21.6082 26.4408 21.4254 26.4772 21.2406 26.4772C21.1606 26.4772 21.081 26.4703 21.0025 26.4569C20.8997 26.4392 20.799 26.4101 20.7022 26.3701C20.6087 26.3313 20.5199 26.2827 20.4372 26.2251C20.4121 26.2076 20.3875 26.1893 20.3636 26.1702C20.3225 26.1373 20.2832 26.1023 20.2458 26.0649L18.9183 24.7374C18.655 24.4737 18.507 24.1163 18.507 23.7436C18.507 23.371 18.655 23.0135 18.9183 22.7499L33.1856 8.49944C33.3097 8.3756 33.3965 8.21947 33.4362 8.04882C33.476 7.87811 33.4671 7.6997 33.4106 7.53381C33.2683 7.12151 33.2141 6.68395 33.2513 6.24938C33.2923 5.77935 33.4365 5.32421 33.6733 4.91619C33.9102 4.50817 34.2341 4.15734 34.6219 3.88866L39.6845 0.372979C40.0847 0.094353 40.5699 -0.0347974 41.0556 0.00804931C41.5412 0.050896 41.9964 0.262993 42.3415 0.607354L44.4004 2.65868C44.7506 3.01434 44.962 3.48357 44.9964 3.9815C45.0307 4.47948 44.8858 4.97332 44.5879 5.37371L40.8978 10.3108C40.6219 10.6824 40.2693 10.9902 39.8639 11.2135C39.4585 11.4368 39.0099 11.5701 38.5483 11.6046Z"
      fill="url(#paint0_linear_799_282196)" />
   <path
      d="M12.8141 23.2042C13.0428 23.3025 13.2497 23.4453 13.4227 23.6244L21.3748 31.5784C21.5489 31.7527 21.687 31.9595 21.7812 32.187C21.8189 32.2784 21.8493 32.3723 21.8722 32.468C21.8867 32.5286 21.8982 32.5898 21.9066 32.6516C21.9179 32.7353 21.9237 32.8199 21.9237 32.9048C21.9236 33.151 21.875 33.3949 21.7807 33.6224C21.6864 33.8498 21.5481 34.0566 21.3739 34.2307C21.1997 34.4048 20.9929 34.5428 20.7654 34.637C20.5378 34.7312 20.2939 34.7797 20.0476 34.7795C19.8012 34.7794 19.5575 34.7308 19.3299 34.6365C19.1024 34.5422 18.8957 34.4039 18.7216 34.2297L18.0598 33.5679C17.8839 33.3921 17.6455 33.2933 17.3969 33.2933C17.1483 33.2933 16.9099 33.3921 16.7341 33.5679L6.40256 43.8994C6.05527 44.2496 5.64194 44.5272 5.18649 44.7162C4.73093 44.9051 4.2424 45.0016 3.74936 45.0001C3.00827 44.9991 2.28415 44.7788 1.6683 44.3666C1.05234 43.9545 0.572479 43.3691 0.28891 42.6844C0.00546277 41.9997 -0.068756 41.2465 0.0755311 40.5196C0.21994 39.7927 0.576264 39.125 1.09982 38.6005L11.4333 28.2633C11.6091 28.0875 11.7079 27.8491 11.7079 27.6005C11.7079 27.3519 11.6091 27.1135 11.4333 26.9376L10.7715 26.2757C10.5924 26.1028 10.4494 25.8959 10.3512 25.6671C10.2529 25.4383 10.2013 25.1923 10.1991 24.9434C10.1969 24.6943 10.2444 24.4475 10.3386 24.217C10.4328 23.9866 10.5721 23.7772 10.7481 23.6012C10.9242 23.4252 11.1335 23.2859 11.364 23.1916C11.5945 23.0974 11.8414 23.0499 12.0903 23.0521C12.3393 23.0542 12.5853 23.1059 12.8141 23.2042Z"
      fill="url(#paint1_linear_799_282196)" />
   <path
      d="M34.1439 28.4108C33.9846 28.4536 33.8167 28.4536 33.6574 28.4109C33.498 28.368 33.3528 28.2839 33.2364 28.1671L29.0362 23.9669C28.8568 23.7982 28.6197 23.7042 28.3734 23.7042C28.127 23.7042 27.89 23.7982 27.7105 23.9669L23.7336 27.9364C23.5578 28.1122 23.4591 28.3507 23.4591 28.5992C23.4591 28.8479 23.5578 29.0863 23.7336 29.2621L27.9337 33.4641C28.0503 33.5807 28.134 33.7261 28.1765 33.8854C28.1881 33.9288 28.1965 33.973 28.2018 34.0174C28.2101 34.0885 28.2102 34.1604 28.2021 34.2316C28.1969 34.2787 28.1881 34.3254 28.1756 34.3716C27.7955 35.8021 27.7978 37.3072 28.1825 38.7366C28.567 40.1659 29.3203 41.469 30.3669 42.5156C31.4135 43.5621 32.7166 44.3154 34.146 44.7001C35.5752 45.0846 37.0804 45.087 38.511 44.7069C38.6701 44.6647 38.8155 44.581 38.9322 44.4647C39.0489 44.3484 39.1328 44.2034 39.1756 44.0442C39.2184 43.885 39.2185 43.7174 39.1759 43.5582C39.1333 43.399 39.0494 43.254 38.9328 43.1374L36.1202 40.3362C35.9702 40.1841 35.8757 39.986 35.852 39.7737L35.5202 36.7904C35.5046 36.6506 35.5208 36.509 35.5675 36.3762C35.6141 36.2435 35.69 36.1229 35.7896 36.0236C35.8893 35.9241 36.01 35.8484 36.1428 35.802C36.2756 35.7555 36.4172 35.7396 36.5571 35.7554L39.5384 36.0873C39.7511 36.1099 39.9496 36.2046 40.1009 36.3555L42.9135 39.168C43.03 39.2842 43.175 39.3675 43.334 39.4099C43.4929 39.4523 43.6601 39.452 43.8191 39.4093C43.9148 39.3835 44.0053 39.3429 44.0876 39.2892C44.1419 39.2538 44.1927 39.2126 44.2389 39.1664C44.2942 39.1111 44.342 39.0493 44.3816 38.9827C44.4251 38.909 44.4587 38.8295 44.481 38.7461C44.8648 37.3153 44.8651 35.8086 44.4818 34.3776C44.0985 32.9466 43.3452 31.6417 42.2977 30.5942C41.2501 29.5467 39.9453 28.7934 38.5143 28.4101C37.0833 28.0268 35.5766 28.0271 34.1457 28.4108H34.1439Z"
      fill="url(#paint2_linear_799_282196)" />
   <path
      d="M11.1097 16.8253C10.9504 16.7826 10.7826 16.7826 10.6233 16.8254C9.19235 17.2091 7.68564 17.2093 6.25473 16.826C4.8237 16.4427 3.51889 15.6894 2.47128 14.642C1.4238 13.5945 0.670502 12.2895 0.287201 10.8586C-0.0959777 9.4276 -0.0957335 7.92095 0.287933 6.49004C0.330414 6.33117 0.41391 6.18621 0.530121 6.06982C0.646332 5.95342 0.791107 5.86962 0.950043 5.8269C1.10886 5.78417 1.27609 5.78393 1.43503 5.82629C1.59396 5.86865 1.73898 5.95208 1.85544 6.06817L4.65488 8.87139C4.69785 8.91412 4.74448 8.95232 4.79416 8.98565C4.92001 9.07006 5.06503 9.12328 5.2175 9.13952L8.20065 9.47143C8.3403 9.48687 8.48178 9.47076 8.61435 9.42419C8.74692 9.37768 8.8674 9.30187 8.96677 9.20251C9.06613 9.10314 9.14194 8.98266 9.18845 8.85009C9.23508 8.71746 9.25119 8.57604 9.23569 8.43639L8.90573 5.46441C8.88254 5.25158 8.78732 5.05309 8.63571 4.90191L5.83249 2.08929C5.7164 1.97283 5.6329 1.82781 5.59055 1.66888C5.56516 1.57372 5.55502 1.47558 5.56027 1.37804C5.56369 1.31268 5.57407 1.24755 5.59116 1.18383C5.63388 1.02502 5.71774 0.880181 5.83408 0.76397C5.95053 0.647759 6.09543 0.564263 6.25436 0.521782C7.68539 0.137627 9.19223 0.137078 10.6235 0.520195C12.0548 0.903252 13.36 1.65649 14.4077 2.70409C15.4555 3.7517 16.209 5.05669 16.5924 6.48791C16.9757 7.91912 16.9754 9.42602 16.5915 10.857C16.5484 11.0162 16.5482 11.184 16.5907 11.3433C16.6331 11.5027 16.7169 11.6479 16.8335 11.7646L21.0335 15.9665C21.2093 16.1424 21.3081 16.3809 21.3081 16.6294C21.3081 16.878 21.2093 17.1164 21.0335 17.2922L17.0566 21.2693C16.8807 21.4451 16.6423 21.5438 16.3938 21.5438C16.1451 21.5438 15.9067 21.4451 15.7309 21.2693L11.5307 17.0691C11.4143 16.9523 11.2691 16.8682 11.1097 16.8253Z"
      fill="url(#paint3_linear_799_282196)" />
   <defs>
      <linearGradient id="paint0_linear_799_282196" x1="22.5007" y1="0" x2="22.5007" y2="45.0001"
         gradientUnits="userSpaceOnUse">
         <stop stop-color="#F17401" />
         <stop offset="1" stop-color="#E65F14" />
      </linearGradient>
      <linearGradient id="paint1_linear_799_282196" x1="22.5007" y1="0" x2="22.5007" y2="45.0001"
         gradientUnits="userSpaceOnUse">
         <stop stop-color="#F17401" />
         <stop offset="1" stop-color="#E65F14" />
      </linearGradient>
      <linearGradient id="paint2_linear_799_282196" x1="22.5007" y1="0" x2="22.5007" y2="45.0001"
         gradientUnits="userSpaceOnUse">
         <stop stop-color="#F17401" />
         <stop offset="1" stop-color="#E65F14" />
      </linearGradient>
      <linearGradient id="paint3_linear_799_282196" x1="22.5007" y1="0" x2="22.5007" y2="45.0001"
         gradientUnits="userSpaceOnUse">
         <stop stop-color="#F17401" />
         <stop offset="1" stop-color="#E65F14" />
      </linearGradient>
   </defs>
</svg>