<svg width="auto" height="auto" viewBox="0 0 80 80" fill="none" xmlns="http://www.w3.org/2000/svg">
<path fill-rule="evenodd" clip-rule="evenodd" d="M60.6632 0H76.6661C77.5503 0 78.3983 0.351392 79.0235 0.976873C79.6488 1.60235 80 2.45069 80 3.33525V19.3211C79.9995 19.9802 79.8039 20.6243 79.4378 21.1722C79.0717 21.72 78.5515 22.1472 77.943 22.3996C77.5381 22.5674 77.1044 22.6546 76.6661 22.6564C76.2264 22.6572 75.7909 22.5709 75.3846 22.4026C74.9784 22.2344 74.6094 21.9873 74.299 21.6758L69.8515 17.2232L50.1814 36.8812C49.2436 37.8198 47.9717 38.3472 46.6452 38.3475C45.3188 38.3478 44.0466 37.821 43.1084 36.8829C42.1703 35.9448 41.6431 34.6723 41.6427 33.3454C41.6424 32.0184 42.1691 30.7457 43.1068 29.8072L62.7769 10.1492L58.3295 5.69328C57.8647 5.22825 57.5478 4.63616 57.4184 3.99144C57.2891 3.34672 57.3532 2.67813 57.6026 2.06973C57.8519 1.46132 58.2756 0.940238 58.8201 0.571981C59.3647 0.203725 60.0059 0.00472648 60.6632 0ZM54.5184 52.0736C55.5298 52.4928 56.4487 53.1071 57.2227 53.8816L64.2873 60.9557C65.8488 62.5192 66.7259 64.6389 66.7259 66.8491C66.7259 69.0593 65.8488 71.179 64.2873 72.7425L60.4032 76.6281C58.4889 78.5036 55.9936 79.6717 53.3276 79.9403C50.6616 80.2088 47.9836 79.5618 45.734 78.1056C28.3528 66.5605 13.4567 51.6528 1.92281 34.2604C0.448943 32.0164 -0.209296 29.3338 0.058372 26.6621C0.32604 23.9905 1.50335 21.492 3.39307 19.5852L7.27043 15.7063C8.04448 14.9313 8.96361 14.3165 9.97529 13.8971C10.987 13.4776 12.0714 13.2617 13.1665 13.2617C14.2616 13.2617 15.346 13.4776 16.3577 13.8971C17.3694 14.3165 18.2885 14.9313 19.0625 15.7063L26.1371 22.7804C27.6997 24.344 28.5775 26.4645 28.5775 28.6755C28.5775 30.8864 27.6997 33.0069 26.1371 34.5705L24.8502 35.8546C30.7087 42.8421 37.1666 49.3038 44.1503 55.1657L45.4339 53.8816C46.2079 53.1071 47.1268 52.4928 48.1382 52.0736C49.1496 51.6544 50.2336 51.4387 51.3283 51.4387C52.423 51.4387 53.507 51.6544 54.5184 52.0736Z" fill="#B5C5CE"/>
</svg>
