<svg xmlns="http://www.w3.org/2000/svg" width="auto" height="auto" viewBox="0 0 52 45" fill="none">
   <path
      d="M49.9928 37.5582L42.1739 29.7415C42.0899 29.6569 42.0366 29.5466 42.0223 29.4282C42.0079 29.3099 42.0335 29.1902 42.0948 29.088C43.8987 26.1099 44.8516 22.6942 44.85 19.2124C44.8478 14.6118 43.1956 10.1647 40.1935 6.6786C37.1914 3.19257 33.0386 0.898871 28.4893 0.214118C23.94 -0.470574 19.296 0.499091 15.4008 2.94703C11.5056 5.39497 8.61755 9.15876 7.26123 13.5548C7.21167 13.7135 7.19989 13.8815 7.22668 14.0454C7.25348 14.2095 7.31818 14.365 7.41565 14.4995C7.51312 14.6342 7.64069 14.7441 7.78809 14.8207C7.93555 14.8973 8.09888 14.9385 8.26501 14.9409H10.5182C10.7405 14.9424 10.9578 14.8745 11.1396 14.7466C11.3215 14.6188 11.4589 14.4373 11.5327 14.2275C12.6893 10.937 14.9582 8.15333 17.9478 6.3567C20.9374 4.56 24.4603 3.8631 27.9088 4.38612C31.3574 4.90913 34.5152 6.61927 36.8376 9.22156C39.1601 11.8239 40.5015 15.1552 40.6305 18.6406C40.7595 22.1262 39.668 25.5475 37.5443 28.3143C35.4205 31.0812 32.3977 33.02 28.9973 33.7965C25.5969 34.573 22.032 34.1384 18.9178 32.5676C15.8036 30.9968 13.3352 28.3884 11.9385 25.1924C11.8552 25.0017 11.7181 24.8395 11.544 24.7257C11.3698 24.6118 11.1662 24.5514 10.9582 24.5516H8.64948C8.47656 24.5515 8.30621 24.5934 8.15308 24.6736C7.99994 24.7539 7.86853 24.8701 7.77026 25.0123C7.67194 25.1545 7.60962 25.3185 7.58868 25.4901C7.56769 25.6617 7.58875 25.8358 7.64996 25.9976C9.03082 29.6499 11.4902 32.7957 14.7015 35.017C17.9127 37.2383 21.7238 38.4301 25.6284 38.4338C29.1033 38.4403 32.5128 37.4894 35.4827 35.6852C35.5852 35.6237 35.7053 35.598 35.824 35.6123C35.9427 35.6266 36.0533 35.6801 36.1383 35.7643L43.9764 43.6023C44.3657 44.0304 44.838 44.375 45.3644 44.615C45.8909 44.8551 46.4606 44.9857 47.0391 44.9989C47.6176 45.0121 48.1927 44.9076 48.7296 44.6919C49.2665 44.4761 49.7539 44.1535 50.1624 43.7435C50.5707 43.3337 50.8917 42.8451 51.1055 42.3075C51.3194 41.7699 51.4218 41.1943 51.4066 40.616C51.3913 40.0375 51.2587 39.4683 51.0168 38.9426C50.7748 38.417 50.4286 37.9461 49.9992 37.5582H49.9928Z"
      fill="url(#paint0_linear_799_282195)" />
   <path
      d="M17.4318 20.0859L18.7623 17.5936C18.7686 17.5819 18.7753 17.5704 18.7824 17.5592C18.8321 17.481 18.9015 17.4169 18.9838 17.3734C18.9956 17.3672 19.0076 17.3613 19.0197 17.3561C19.1047 17.319 19.1981 17.3047 19.2906 17.3147C19.3965 17.3262 19.4965 17.369 19.5778 17.4377C19.6588 17.5062 19.7175 17.5972 19.7465 17.6992L19.7469 17.7004L21.8698 25.278C22.0431 25.938 22.4144 26.5293 22.9336 26.9722C23.4528 27.415 24.0952 27.6884 24.7744 27.7554C24.8709 27.765 24.9678 27.7693 25.0648 27.7682C25.7056 27.7614 26.331 27.5711 26.8669 27.2197C27.403 26.8685 27.827 26.371 28.0891 25.7863L30.6647 20.1287C30.6901 20.0732 30.7247 20.0227 30.7668 19.9791C30.7916 19.9535 30.819 19.9303 30.8486 19.91C30.8787 19.8895 30.9105 19.8721 30.9438 19.8582C30.9992 19.835 31.0584 19.8212 31.1189 19.8176C31.2075 19.8124 31.2957 19.8292 31.3759 19.8666C31.3834 19.8701 31.3909 19.8738 31.3983 19.8777C31.4425 19.9009 31.4832 19.9302 31.519 19.9644C31.5223 19.9674 31.5255 19.9706 31.5286 19.9738C31.5583 20.0035 31.5845 20.0369 31.6066 20.0731L32.8688 22.1533C33.0143 22.3932 33.2057 22.6019 33.4319 22.7678C33.6582 22.9336 33.9149 23.0532 34.1874 23.1199C34.4599 23.1865 34.7429 23.1989 35.0201 23.1561C35.2974 23.1134 35.5635 23.0165 35.8032 22.871C35.8182 22.8618 35.8331 22.8525 35.8478 22.8431C36.069 22.7014 36.2622 22.5199 36.4177 22.3077C36.5835 22.0815 36.7032 21.8248 36.7698 21.5524C36.7781 21.5183 36.7856 21.484 36.7922 21.4497C36.8387 21.2092 36.8434 20.9623 36.806 20.7196C36.7633 20.4424 36.6664 20.1763 36.5209 19.9365L33.7871 15.4323C33.4791 14.9104 33.0327 14.4839 32.4973 14.2C31.9619 13.916 31.3583 13.7858 30.7535 13.8236C30.7158 13.8259 30.678 13.829 30.6404 13.8326C30.0768 13.8875 29.5363 14.0872 29.0717 14.4132L29.0702 14.4142C28.6053 14.7409 28.2336 15.182 27.9907 15.6941C27.9745 15.7283 27.9588 15.7627 27.9438 15.7975L25.8892 20.3124C25.8655 20.3639 25.8338 20.4109 25.7957 20.452C25.7603 20.4901 25.7194 20.5232 25.674 20.5498C25.5797 20.6052 25.4707 20.6304 25.3617 20.6221C25.3549 20.6216 25.3481 20.6209 25.3413 20.6201C25.2396 20.6086 25.1432 20.5679 25.064 20.5027L25.0604 20.4996C25.0258 20.4707 24.9953 20.4377 24.9695 20.4015C24.9334 20.351 24.9063 20.2941 24.8897 20.2334L22.8629 13.0018C22.8522 12.9618 22.8408 12.9219 22.8286 12.8823C22.6462 12.2891 22.303 11.757 21.8359 11.3458C21.3376 10.9072 20.7208 10.6259 20.063 10.5372C20.0211 10.532 19.9791 10.5276 19.9372 10.5239C19.308 10.4699 18.6757 10.5989 18.1168 10.8967C17.5208 11.2145 17.0375 11.7087 16.7334 12.312L13.9078 17.6128H2.13574C1.56982 17.6128 1.0271 17.8374 0.626709 18.2372L0.625549 18.2384C0.225037 18.6389 0 19.1821 0 19.7485C0 20.3149 0.225037 20.8582 0.625549 21.2587C1.02606 21.6593 1.56927 21.8843 2.13574 21.8843H14.5016C15.1076 21.8806 15.7011 21.7112 16.2177 21.3942C16.2822 21.3545 16.3453 21.3127 16.4067 21.269C16.837 20.9628 17.1888 20.5574 17.4318 20.0859Z"
      fill="url(#paint1_linear_799_282195)" />
   <defs>
      <linearGradient id="paint0_linear_799_282195" x1="25.704" y1="0" x2="25.704" y2="45"
         gradientUnits="userSpaceOnUse">
         <stop offset="0.145833" stop-color="#28D2FF" />
         <stop offset="1" stop-color="#1AAFFF" />
      </linearGradient>
      <linearGradient id="paint1_linear_799_282195" x1="25.704" y1="0" x2="25.704" y2="45"
         gradientUnits="userSpaceOnUse">
         <stop offset="0.145833" stop-color="#28D2FF" />
         <stop offset="1" stop-color="#1AAFFF" />
      </linearGradient>
   </defs>
</svg>