<svg xmlns="http://www.w3.org/2000/svg" width="auto" height="auto" viewBox="0 0 45 45" fill="none">
   <path fill-rule="evenodd" clip-rule="evenodd"
      d="M37.4199 19.0054C37.502 18.9624 37.5953 18.9446 37.688 18.9547C37.6947 18.9555 37.7013 18.9563 37.7078 18.9573C37.8063 18.9723 37.8976 19.0184 37.9683 19.089L41.7782 22.8989C41.9523 23.0729 42.159 23.2109 42.3865 23.3051C42.4149 23.3168 42.4436 23.3279 42.4725 23.3383C42.6749 23.4105 42.8884 23.4475 43.1038 23.4475C43.1192 23.4475 43.1346 23.4473 43.1499 23.4469C43.3804 23.4412 43.6079 23.393 43.8211 23.3046C43.8353 23.2987 43.8495 23.2926 43.8635 23.2864C44.0742 23.1929 44.2659 23.0613 44.429 22.898C44.6033 22.7239 44.7413 22.5172 44.8352 22.2897C44.9295 22.0623 44.9779 21.8185 44.9776 21.5724C44.9778 21.3262 44.9292 21.0825 44.8347 20.8551C44.7787 20.7201 44.7072 20.5923 44.622 20.4745C44.5637 20.3938 44.4989 20.3179 44.4281 20.2472L40.6182 16.4391C40.5431 16.3637 40.4957 16.2648 40.4839 16.1588C40.4725 16.0529 40.4974 15.9462 40.5544 15.8562C40.7249 15.5881 40.8823 15.3135 41.0264 15.033C41.8908 13.3502 42.2759 11.4612 42.1394 9.57435C42.1167 9.2599 42.0795 8.94545 42.0275 8.63203C41.6122 6.12501 40.2864 3.85951 38.3041 2.26948C36.3217 0.679637 33.8216 -0.123342 31.2842 0.0153911C28.7466 0.154429 26.3485 1.22517 24.5514 3.02223C22.7543 4.81935 21.6837 7.21644 21.5446 9.75416C21.4056 12.2918 22.208 14.7915 23.7981 16.7742C23.9968 17.022 24.2061 17.2597 24.4252 17.4865C25.9583 19.0742 27.9673 20.1348 30.1612 20.4983C30.4746 20.5502 30.7891 20.5875 31.1035 20.6102C33.3049 20.7695 35.509 20.2186 37.3854 19.0253C37.3967 19.0181 37.4082 19.0115 37.4199 19.0054ZM25.2997 10.3296C25.2997 9.03236 25.6843 7.76423 26.4051 6.68556C26.4951 6.55073 26.59 6.41963 26.6893 6.29243C27.3846 5.40211 28.3 4.70411 29.3488 4.26972C29.4986 4.20765 29.6503 4.15132 29.8035 4.10078C30.8763 3.74684 32.0251 3.675 33.1385 3.89649C33.218 3.9123 33.2971 3.92964 33.3758 3.94831C34.5559 4.22889 35.6369 4.83161 36.4969 5.6916C36.6115 5.80628 36.7216 5.92481 36.827 6.04707C37.5646 6.90266 38.0706 7.93672 38.292 9.05C38.3236 9.20906 38.3493 9.36885 38.369 9.529C38.5069 10.6503 38.3531 11.791 37.9187 12.8397C37.4225 14.0376 36.5824 15.0615 35.5045 15.7824L35.5029 15.7835C34.4243 16.5042 33.1561 16.8888 31.8588 16.8888C30.1197 16.8888 28.4517 16.198 27.2217 14.9685L27.2208 14.9677C25.9907 13.7376 25.2997 12.0692 25.2997 10.3296Z"
      fill="url(#paint0_linear_799_282198)" />
   <path
      d="M19.3196 6.46565C18.9344 7.71754 18.7392 9.02015 18.7405 10.33C18.7408 12.4783 19.2686 14.5936 20.2777 16.4901C21.2867 18.3867 22.7461 20.0064 24.5276 21.2069C24.6168 21.2665 24.6826 21.3549 24.7141 21.4574C24.7343 21.5234 24.7395 21.5928 24.7297 21.6603C24.7243 21.6974 24.7144 21.734 24.7 21.7692C24.1299 23.129 23.3142 24.3723 22.2938 25.4368C22.2627 25.4708 22.2368 25.5094 22.2169 25.551C21.855 26.7095 21.8187 27.9452 22.112 29.1229C22.2544 29.6065 22.4399 29.8258 22.5655 29.8726L23.9504 30.3711C28.5363 32.0034 33.733 33.8532 33.733 41.2518V44.063C33.733 44.3114 33.6343 44.5498 33.4585 44.7255C33.2828 44.9013 33.0445 45 32.796 45H0.937042C0.688507 45 0.450165 44.9013 0.274445 44.7255C0.0987244 44.5498 0 44.3114 0 44.063V41.2518C0 33.8344 5.17615 32.0015 9.73572 30.3899L10.0401 30.2814C10.2073 30.2218 10.3745 30.1624 10.5413 30.1025C10.7499 30.0278 10.9581 29.9526 11.1656 29.8764C11.2912 29.8258 11.4767 29.6065 11.6191 29.1267C11.9169 27.944 11.878 26.7015 11.5067 25.5398C11.4876 25.4996 11.463 25.4624 11.4336 25.4292C9.67386 23.4877 7.95535 21.0682 7.95535 15.0995C7.84805 13.8771 8.00061 12.6458 8.40302 11.4866C8.80545 10.3273 9.44861 9.26637 10.2903 8.37336C11.1319 7.48042 12.153 6.77564 13.2864 6.30537C14.4198 5.83509 15.6399 5.61 16.8665 5.64485C17.5747 5.64375 18.2809 5.71913 18.9729 5.8697C19.0361 5.88392 19.0956 5.91102 19.1478 5.94929C19.2 5.98756 19.2437 6.03614 19.2762 6.09211C19.3088 6.14802 19.3294 6.21009 19.3369 6.27436C19.3444 6.33863 19.3385 6.40376 19.3196 6.46565Z"
      fill="url(#paint1_linear_799_282198)" />
   <path
      d="M38.7993 23.9539C38.8226 24.0186 38.8314 24.0877 38.8251 24.1563C38.7498 26.5187 37.8172 28.773 36.2014 30.4981C36.1576 30.5469 36.1244 30.6044 36.1039 30.6668C35.9076 31.4253 35.8864 32.2188 36.0421 32.9868C36.0714 33.1159 36.1141 33.2415 36.1695 33.3616C36.1955 33.4179 36.2324 33.4684 36.2781 33.5101C36.3238 33.552 36.3773 33.5844 36.4356 33.6052L37.3539 33.9369C40.9278 35.2094 44.9776 36.6543 44.9776 42.4639V44.0624C44.9776 44.3109 44.8789 44.5493 44.7032 44.725C44.5274 44.9008 44.2891 44.9995 44.0406 44.9995H36.9979C36.9319 44.9993 36.8667 44.9854 36.8065 44.9584C36.7463 44.9314 36.6925 44.8921 36.6485 44.8429C36.6257 44.8175 36.6058 44.7897 36.5891 44.76C36.5736 44.7324 36.5609 44.7034 36.5511 44.6732C36.5309 44.6104 36.5241 44.5441 36.5312 44.4785C36.5463 44.3403 36.5538 44.2014 36.5537 44.0624V41.2514C36.5537 32.6139 30.6129 29.8196 26.0496 28.1329C25.9894 28.1132 25.9337 28.0814 25.886 28.0396C25.8384 27.9977 25.7997 27.9465 25.7723 27.8894C25.5823 27.4529 25.4244 27.0032 25.3 26.5438C25.2816 26.474 25.2793 26.401 25.2933 26.3302C25.3072 26.2594 25.3371 26.1928 25.3806 26.1353C26.1134 25.192 26.7231 24.1592 27.1947 23.0618C27.2405 22.9542 27.3251 22.8679 27.4318 22.82C27.5384 22.772 27.6592 22.766 27.77 22.8032C30.7686 23.7791 34.0179 23.646 36.9267 22.4284C37.0124 22.3926 37.1068 22.3832 37.1978 22.4013C37.2889 22.4192 37.3726 22.4639 37.4383 22.5296L38.6901 23.7814C38.7387 23.8302 38.7759 23.889 38.7993 23.9539Z"
      fill="url(#paint2_linear_799_282198)" />
   <defs>
      <linearGradient id="paint0_linear_799_282198" x1="22.4888" y1="0" x2="22.4888" y2="45"
         gradientUnits="userSpaceOnUse">
         <stop stop-color="#DB2492" />
         <stop offset="1" stop-color="#DC24D3" />
      </linearGradient>
      <linearGradient id="paint1_linear_799_282198" x1="22.4888" y1="0" x2="22.4888" y2="45"
         gradientUnits="userSpaceOnUse">
         <stop stop-color="#DB2492" />
         <stop offset="1" stop-color="#DC24D3" />
      </linearGradient>
      <linearGradient id="paint2_linear_799_282198" x1="22.4888" y1="0" x2="22.4888" y2="45"
         gradientUnits="userSpaceOnUse">
         <stop stop-color="#DB2492" />
         <stop offset="1" stop-color="#DC24D3" />
      </linearGradient>
   </defs>
</svg>