<svg width="auto" height="auto" viewBox="0 0 92 80" fill="none" xmlns="http://www.w3.org/2000/svg">
<path fill-rule="evenodd" clip-rule="evenodd" d="M66.2789 59.5976C67.782 61.8104 68.5812 64.4259 68.5715 67.101V78.0952C68.5715 78.6004 68.3709 79.0849 68.0136 79.4421C67.6564 79.7993 67.172 80 66.6668 80H1.90484C1.39967 80 0.915186 79.7993 0.557974 79.4421C0.200761 79.0849 8.16685e-05 78.6004 8.16685e-05 78.0952V67.1314C-0.0092889 64.4604 0.78792 61.8488 2.28737 59.6384C3.78683 57.4279 5.91867 55.7217 8.4039 54.7429L24.1601 48.4686C24.3377 48.3989 24.4901 48.2772 24.5974 48.1196C24.7048 47.9619 24.7622 47.7755 24.762 47.5848V41.6762C24.7612 41.522 24.7234 41.3703 24.6518 41.2337C24.5802 41.0972 24.4769 40.9798 24.3506 40.8914C22.7351 39.6672 21.423 38.0876 20.516 36.2749C19.609 34.4622 19.1313 32.465 19.1201 30.4381C19.1092 30.3027 19.0696 30.1712 19.0039 30.0523C18.9382 29.9334 18.848 29.8299 18.7391 29.7486C18.0357 29.1319 17.4843 28.3609 17.1281 27.4959C16.7719 26.6308 16.6205 25.6951 16.6858 24.7619C16.6705 23.53 16.9625 22.3136 17.5353 21.2229C17.7452 20.8322 18.0109 20.4742 18.3239 20.16C18.4436 20.0408 18.5296 19.8919 18.5731 19.7286C18.6166 19.5654 18.6161 19.3935 18.5715 19.2305C17.5925 15.7714 16.2363 10.1181 18.9525 7.18857C19.4771 6.64269 20.111 6.21362 20.8127 5.92938C21.5144 5.64515 22.2682 5.51214 23.0249 5.53905C23.1811 5.53602 23.3343 5.49487 23.4711 5.41919C23.6078 5.3435 23.724 5.23557 23.8096 5.10476C26.2477 1.37905 32.221 0 37.143 0C42.8801 0 50.0534 1.87429 51.3715 7.15048C52.0065 11.2236 51.5652 15.392 50.0915 19.2419C50.0405 19.4056 50.0344 19.5801 50.0739 19.747C50.1135 19.9139 50.1972 20.0671 50.3163 20.1905C51.4098 21.4546 51.9722 23.0926 51.8858 24.7619C51.9511 25.6951 51.7997 26.6308 51.4435 27.4959C51.0873 28.3609 50.5359 29.1319 49.8325 29.7486C49.7237 29.8299 49.6334 29.9334 49.5677 30.0523C49.502 30.1712 49.4624 30.3027 49.4515 30.4381C49.4403 32.465 48.9627 34.4622 48.0556 36.2749C47.1486 38.0876 45.8366 39.6672 44.2211 40.8914C44.094 40.9791 43.9902 41.0963 43.9185 41.233C43.8468 41.3698 43.8095 41.5218 43.8096 41.6762V47.581C43.8095 47.7717 43.8668 47.9581 43.9742 48.1158C44.0815 48.2734 44.234 48.395 44.4115 48.4648L60.1487 54.701C62.639 55.6779 64.7758 57.3847 66.2789 59.5976ZM74.8505 54.2513L85.7763 59.1008C87.4601 59.8498 88.8905 61.0712 89.894 62.617C90.8975 64.1627 91.4309 65.9665 91.4296 67.8094V78.0951C91.4296 78.6003 91.2289 79.0848 90.8717 79.442C90.5145 79.7992 90.03 79.9999 89.5248 79.9999H75.1896C75.0555 80.0007 74.9228 79.9731 74.8001 79.9189C74.6775 79.8647 74.5677 79.7852 74.4781 79.6854C74.3885 79.5857 74.321 79.4682 74.2801 79.3405C74.2393 79.2128 74.2259 79.0779 74.241 78.9446C74.2717 78.6625 74.287 78.3789 74.2867 78.0951V67.1008C74.3017 63.2813 73.1621 59.5465 71.0173 56.386C68.8725 53.2256 65.8226 50.7871 62.2677 49.3903L53.6734 45.9846C53.553 45.9375 53.4435 45.8662 53.3518 45.7752C53.2601 45.6841 53.188 45.5751 53.14 45.4551C52.5944 44.0392 52.247 42.5547 52.1077 41.0437C52.085 40.8368 52.1305 40.6281 52.2372 40.4494C53.6037 38.14 54.5093 35.5874 54.9039 32.9332C54.9286 32.7732 54.9942 32.6223 55.0943 32.4951C56.7698 30.2695 57.6523 27.5471 57.601 24.7618C57.6263 22.7911 57.2057 20.8402 56.3705 19.0551C56.2711 18.85 56.2494 18.6159 56.3096 18.396C56.3601 18.1761 56.4141 17.9513 56.4692 17.7218C56.5429 17.4149 56.6186 17.0997 56.6905 16.777C56.7272 16.6129 56.8069 16.4615 56.9214 16.3384C57.0358 16.2152 57.181 16.1247 57.342 16.076C59.7959 15.3676 62.3579 15.1094 64.9039 15.3141C70.6943 14.857 77.8296 16.8951 79.1782 22.396C79.7609 24.5906 79.5505 26.9205 78.5839 28.9751C78.5082 29.1385 78.4802 29.3199 78.5032 29.4985C78.5261 29.6771 78.5989 29.8456 78.7134 29.9846C79.5512 31.0935 79.978 32.4589 79.921 33.8475C79.9653 34.8297 79.8061 35.8105 79.4534 36.7282C79.1007 37.646 78.5621 38.481 77.8715 39.1808C77.7732 39.2649 77.6929 39.368 77.6353 39.4839C77.5777 39.5997 77.544 39.726 77.5362 39.8551C77.6262 42.9556 76.5696 45.9803 74.5686 48.3503C74.479 48.4382 74.408 48.5432 74.3595 48.659C74.3111 48.7748 74.2864 48.8991 74.2867 49.0246V53.3789C74.2871 53.5631 74.3405 53.7433 74.4405 53.8979C74.5404 54.0526 74.6828 54.1753 74.8505 54.2513Z" fill="#B5C5CE"/>
</svg>
