<svg width="auto" height="auto" viewBox="0 0 83 80" fill="none" xmlns="http://www.w3.org/2000/svg">
<path d="M82.0962 11.9724C82.0962 8.7971 80.8348 5.75188 78.5895 3.50663C76.3443 1.26137 73.2991 4.07087e-06 70.1238 4.07087e-06H11.9724C10.3843 -0.00130789 8.81199 0.314505 7.34762 0.92892C5.88324 1.54334 4.5563 2.44398 3.44462 3.57803C3.25251 3.71207 3.09151 3.8859 2.97257 4.08771C1.05436 6.26609 -0.00265855 9.0698 5.02169e-06 11.9724V56.4411C0.125783 59.7132 1.28939 62.8603 3.32243 65.4271C5.35547 67.9939 8.1525 69.8473 11.3088 70.719L49.48 79.6846C50.344 79.8913 51.229 79.997 52.1174 79.9993C54.2438 80.0247 56.315 79.3223 57.9873 78.0085C59.15 77.0576 60.0781 75.8518 60.6998 74.4845C61.3215 73.1172 61.62 71.6251 61.5721 70.1238V61.5722V36.9672C61.5677 33.7856 60.5227 30.6927 58.5963 28.1605C56.67 25.6283 53.9681 23.7957 50.903 22.9425L13.8743 12.7318C13.5497 12.6419 13.246 12.489 12.9806 12.2818C12.7151 12.0746 12.493 11.8172 12.3271 11.5241C12.1611 11.2311 12.0545 10.9083 12.0133 10.574C11.9721 10.2398 11.9971 9.90074 12.087 9.57618C12.1768 9.25163 12.3297 8.94795 12.5369 8.68248C12.7441 8.41702 13.0016 8.19496 13.2946 8.02899C13.5876 7.86303 13.9104 7.7564 14.2447 7.7152C14.5789 7.674 14.918 7.69904 15.2425 7.78888C15.2425 7.78888 26.0142 10.7649 27.2149 11.0933C27.2872 11.1138 27.362 11.1241 27.4372 11.124H70.1204C70.8008 11.124 71.4533 11.3943 71.9345 11.8755C72.4156 12.3566 72.6859 13.0091 72.6859 13.6895C72.6859 14.37 72.4156 15.0225 71.9345 15.5036C71.4533 15.9848 70.8008 16.2551 70.1204 16.2551H52.2166C52.0095 16.2546 51.8093 16.3293 51.6531 16.4653C51.497 16.6014 51.3955 16.7894 51.3675 16.9946C51.3395 17.1998 51.3869 17.4082 51.5009 17.581C51.6149 17.7539 51.7878 17.8795 51.9874 17.9346L52.2816 18.0133C56.1774 19.0959 59.6427 21.3578 62.2015 24.4886C62.2843 24.5897 62.3888 24.6707 62.5073 24.7258C62.6257 24.7809 62.7551 24.8086 62.8857 24.8067H70.1238C70.8042 24.8067 71.4568 25.077 71.9379 25.5582C72.419 26.0393 72.6893 26.6918 72.6893 27.3722C72.6893 28.0527 72.419 28.7052 71.9379 29.1863C71.4568 29.6675 70.8042 29.9378 70.1238 29.9378H66.5732C66.4405 29.9383 66.3097 29.9694 66.1911 30.0288C66.0724 30.0881 65.969 30.174 65.889 30.2798C65.8096 30.3888 65.7573 30.5152 65.7365 30.6485C65.7157 30.7817 65.7269 30.918 65.7693 31.0461C66.3979 32.9561 66.7222 34.953 66.7305 36.9638V60.7136C66.7305 60.9404 66.8206 61.1579 66.981 61.3183C67.1413 61.4786 67.3589 61.5687 67.5857 61.5687H70.1238C73.2991 61.5687 76.3443 60.3074 78.5895 58.0621C80.8348 55.8169 82.0962 52.7716 82.0962 49.5964V11.9724ZM53.0204 51.3101C53.0204 52.6632 52.6192 53.9859 51.8675 55.111C51.1157 56.236 50.0473 57.1129 48.7972 57.6307C47.5471 58.1485 46.1715 58.284 44.8444 58.02C43.5173 57.7561 42.2983 57.1045 41.3415 56.1477C40.3848 55.1909 39.7332 53.9719 39.4692 52.6448C39.2052 51.3177 39.3407 49.9422 39.8585 48.6921C40.3763 47.442 41.2532 46.3735 42.3783 45.6218C43.5033 44.87 44.826 44.4688 46.1791 44.4688C47.9935 44.4688 49.7337 45.1896 51.0167 46.4726C52.2997 47.7556 53.0204 49.4957 53.0204 51.3101Z" fill="#B5C5CE"/>
</svg>
