<svg xmlns="http://www.w3.org/2000/svg" width="auto" height="auto" viewBox="0 0 41 45" fill="none">
   <path
      d="M18.4131 24.4439C18.4055 22.6976 19.813 21.2748 21.5593 21.2634C23.3117 21.2634 24.7354 22.6779 24.7468 24.4303C24.7467 26.1766 23.3331 27.5933 21.5867 27.5971C19.8404 27.6008 18.4206 26.1902 18.4131 24.4439Z"
      fill="url(#paint0_linear_799_282197)" />
   <path fill-rule="evenodd" clip-rule="evenodd"
      d="M28.8472 4.08375C28.5961 3.9869 28.3987 3.78679 28.3053 3.53438C27.5166 1.41098 25.4911 0.00158027 23.2259 0H19.8922C17.5332 0.000963505 15.4454 1.52697 14.7284 3.77438C14.6446 4.03844 14.4483 4.25191 14.1922 4.3575C8.37644 6.45469 4.379 11.8269 4.04092 18C4.0204 18.543 3.88289 19.0751 3.63779 19.56C3.38136 20.0641 3.03891 20.6657 2.74332 21.1849L2.67779 21.3L2.63647 21.3729C1.33403 23.6705 -0.133194 26.2588 0.00966798 28.3313V28.5881C-0.0241658 29.0779 0.100049 29.5655 0.364043 29.9794C0.783933 30.567 1.45179 30.9275 2.17342 30.9563C2.49779 30.9694 2.85592 30.975 3.20654 30.975C3.72431 30.975 4.14404 31.3947 4.14404 31.9125V35.625C4.14404 38.2138 6.24271 40.3125 8.83154 40.3125H11.644C12.1618 40.3125 12.5815 40.7322 12.5815 41.25V44.0625C12.5815 44.5803 13.0013 45 13.519 45H32.269C32.7868 45 33.2065 44.5803 33.2065 44.0625V37.11C33.2061 36.7982 33.3607 36.5065 33.619 36.3319C38.3234 33.1631 40.7065 28.2431 40.7065 21.6806C40.805 13.9173 36.0799 6.90625 28.8472 4.08375ZM22.1875 31.8524C21.8022 31.8841 21.4361 32.0341 21.1394 32.2818C19.0628 34.0737 16.6365 35.4145 14.0144 36.2193C13.816 36.2748 13.6413 36.394 13.5175 36.5587C13.0751 37.1491 12.3803 37.4965 11.6425 37.4962H10.705C9.41058 37.4962 8.36125 36.4469 8.36125 35.1524C8.36125 33.858 9.41058 32.8087 10.705 32.8087H11.6425C12.1155 32.8079 12.5774 32.9518 12.9663 33.2212C13.2081 33.388 13.5142 33.4317 13.7931 33.3393C15.1162 32.8877 16.3739 32.2636 17.5338 31.4831C17.6666 31.3966 17.7467 31.2488 17.7467 31.0902C17.7467 30.9317 17.6666 30.7839 17.5338 30.6974C15.3392 29.3185 14.0277 26.8903 14.078 24.2989C14.1283 21.7076 15.5329 19.3321 17.7794 18.0393C18.0661 17.8711 18.2423 17.5636 18.2425 17.2312V5.40743C18.2456 4.49652 18.9816 3.75797 19.8925 3.75181H23.2262C24.143 3.74869 24.889 4.48881 24.8931 5.40556V17.2368C24.8937 17.5696 25.0707 17.8772 25.3581 18.0449C28.1746 19.6731 29.5997 22.948 28.8715 26.1187C28.1433 29.2895 25.4322 31.6144 22.1875 31.8506V31.8524Z"
      fill="url(#paint1_linear_799_282197)" />
   <defs>
      <linearGradient id="paint0_linear_799_282197" x1="20.354" y1="0" x2="20.354" y2="45"
         gradientUnits="userSpaceOnUse">
         <stop stop-color="#0AD873" />
         <stop offset="1" stop-color="#0ED9C2" />
      </linearGradient>
      <linearGradient id="paint1_linear_799_282197" x1="20.354" y1="0" x2="20.354" y2="45"
         gradientUnits="userSpaceOnUse">
         <stop stop-color="#0AD873" />
         <stop offset="1" stop-color="#0ED9C2" />
      </linearGradient>
   </defs>
</svg>