<svg width="auto" height="auto" viewBox="0 0 200 30" fill="none" xmlns="http://www.w3.org/2000/svg">
<path d="M31.6141 24.3897V5.12109H34.7797V24.3897H31.6141ZM33.7887 24.3897V21.4994H43.8635V24.3897H33.7887Z" fill="white"/>
<path d="M51.4212 24.665C50.3018 24.665 49.3016 24.4172 48.4208 23.9218C47.5583 23.4263 46.8793 22.7473 46.3838 21.8848C45.9067 21.0039 45.6681 19.9946 45.6681 18.8569V11.1769H48.696V18.7192C48.696 19.3615 48.797 19.9121 48.9988 20.3708C49.219 20.8113 49.531 21.1508 49.9347 21.3893C50.3568 21.6279 50.8523 21.7472 51.4212 21.7472C52.302 21.7472 52.9718 21.4903 53.4306 20.9764C53.9077 20.4442 54.1463 19.6918 54.1463 18.7192V11.1769H57.1742V18.8569C57.1742 20.013 56.9265 21.0315 56.431 21.9123C55.9539 22.7748 55.2841 23.4538 54.4216 23.9493C53.5591 24.4264 52.5589 24.665 51.4212 24.665Z" fill="white"/>
<path d="M59.8817 24.3897V11.1769H62.9096V24.3897H59.8817ZM68.6626 24.3897V16.5171C68.6626 15.6363 68.3874 14.9573 67.8368 14.4801C67.2863 13.9847 66.6073 13.7369 65.7999 13.7369C65.2493 13.7369 64.7539 13.847 64.3134 14.0672C63.8914 14.2875 63.5519 14.6086 63.295 15.0307C63.038 15.4344 62.9096 15.9299 62.9096 16.5171L61.7259 15.8565C61.7259 14.8472 61.9462 13.9755 62.3866 13.2414C62.827 12.5074 63.4234 11.9385 64.1758 11.5348C64.9282 11.1127 65.7724 10.9017 66.7083 10.9017C67.6442 10.9017 68.4883 11.1035 69.2407 11.5073C69.9931 11.911 70.5895 12.4799 71.0299 13.2139C71.4704 13.948 71.6906 14.8288 71.6906 15.8565V24.3897H68.6626ZM77.4436 24.3897V16.5171C77.4436 15.6363 77.1684 14.9573 76.6178 14.4801C76.0673 13.9847 75.3883 13.7369 74.5809 13.7369C74.4847 13.7369 74.0975 13.7462 73.7475 13.8352C71.5736 14.3879 71.6841 16.5065 71.6841 16.5065C71.1737 16.1744 71.0969 13.6833 70.5787 13.5404C70.5787 13.5404 71.6906 12.0113 72.8263 11.5073C73.7659 11.0164 74.4157 10.9017 75.3516 10.9017C76.3059 10.9017 77.1684 11.1035 77.9391 11.5073C78.7099 11.911 79.3246 12.4799 79.7834 13.2139C80.2422 13.948 80.4716 14.8288 80.4716 15.8565V24.3897H77.4436Z" fill="white"/>
<path d="M83.2816 24.3897V11.1769H86.3095V24.3897H83.2816ZM84.7955 8.75461C84.2817 8.75461 83.8504 8.58027 83.5018 8.2316C83.1715 7.88293 83.0063 7.45168 83.0063 6.93785C83.0063 6.42402 83.1715 5.99277 83.5018 5.6441C83.8504 5.29543 84.2817 5.12109 84.7955 5.12109C85.3277 5.12109 85.759 5.29543 86.0893 5.6441C86.4196 5.99277 86.5848 6.42402 86.5848 6.93785C86.5848 7.45168 86.4196 7.88293 86.0893 8.2316C85.759 8.58027 85.3277 8.75461 84.7955 8.75461Z" fill="white"/>
<path d="M98.4248 24.3897V16.7649C98.4248 15.884 98.1403 15.1591 97.5715 14.5902C97.0209 14.0214 96.3052 13.7369 95.4244 13.7369C94.8371 13.7369 94.3141 13.8654 93.8554 14.1223C93.3966 14.3792 93.0387 14.7371 92.7818 15.1958C92.5249 15.6546 92.3965 16.1776 92.3965 16.7649L91.2128 16.1042C91.2128 15.0949 91.433 14.2049 91.8734 13.4341C92.3139 12.645 92.9195 12.0303 93.6902 11.5898C94.4793 11.1311 95.3601 10.9017 96.3328 10.9017C97.3237 10.9017 98.2046 11.1586 98.9753 11.6724C99.7461 12.1679 100.352 12.8194 100.792 13.6268C101.232 14.4159 101.453 15.2417 101.453 16.1042V24.3897H98.4248ZM89.3685 24.3897V11.1769H92.3965V24.3897H89.3685Z" fill="white"/>
<path d="M109.725 24.665C108.533 24.665 107.45 24.3622 106.477 23.7566C105.523 23.151 104.761 22.3344 104.193 21.3067C103.642 20.2607 103.367 19.0954 103.367 17.8109C103.367 16.5079 103.642 15.3426 104.193 14.315C104.761 13.269 105.523 12.4432 106.477 11.8376C107.45 11.2137 108.533 10.9017 109.725 10.9017C110.735 10.9017 111.625 11.1219 112.396 11.5623C113.185 11.9844 113.809 12.5716 114.267 13.324C114.726 14.0764 114.955 14.9297 114.955 15.884V19.6827C114.955 20.6369 114.726 21.4903 114.267 22.2426C113.827 22.995 113.212 23.5915 112.423 24.0319C111.634 24.454 110.735 24.665 109.725 24.665ZM110.221 21.8022C111.34 21.8022 112.24 21.426 112.919 20.6736C113.616 19.9212 113.965 18.9578 113.965 17.7833C113.965 16.9942 113.809 16.2969 113.497 15.6913C113.185 15.0857 112.744 14.6178 112.175 14.2875C111.625 13.9388 110.973 13.7644 110.221 13.7644C109.487 13.7644 108.835 13.9388 108.267 14.2875C107.716 14.6178 107.276 15.0857 106.945 15.6913C106.633 16.2969 106.477 16.9942 106.477 17.7833C106.477 18.5724 106.633 19.2698 106.945 19.8754C107.276 20.4809 107.716 20.9581 108.267 21.3067C108.835 21.6371 109.487 21.8022 110.221 21.8022ZM113.772 24.3897V20.8388L114.295 17.6182L113.772 14.4251V11.1769H116.8V24.3897H113.772Z" fill="white"/>
<path d="M119.823 24.3897V11.1769H122.851V24.3897H119.823ZM122.851 17.185L121.805 16.5171C121.805 14.8472 122.172 13.4984 122.906 12.4707C123.955 11.3858 124.599 11.1657 127.101 11.1769L126.892 12.3C126.712 13.2618 125.79 13.8312 124.837 14.0528C124.413 14.1514 123.998 14.3401 123.677 14.68C123.126 15.2122 122.851 16.0472 122.851 17.185Z" fill="white"/>
<path d="M132.744 24.5274L127.101 11.1769H130.432L134.286 20.9764H133.322L137.396 11.1769H140.754L134.616 24.5274H132.744ZM128.808 29.895L132.909 21.4444L134.616 24.5274L132.166 29.895H128.808Z" fill="white"/>
<path d="M140.072 24.3897L148 5.12109H150.202L158.075 24.3897H154.661L148.496 8.78213H149.652L143.431 24.3897H140.072ZM144.936 20.6736L147.443 18.3989C147.782 18.0914 148.223 17.921 148.681 17.921H154.194V20.6736H144.936Z" fill="#20CAF7"/>
<path d="M166.819 24.665C165.81 24.665 164.91 24.454 164.121 24.0319C163.332 23.5915 162.708 22.995 162.249 22.2426C161.809 21.4903 161.589 20.6369 161.589 19.6827V15.884C161.589 14.9297 161.818 14.0764 162.277 13.324C162.736 12.5716 163.36 11.9844 164.149 11.5623C164.938 11.1219 165.828 10.9017 166.819 10.9017C168.012 10.9017 169.085 11.2137 170.039 11.8376C171.012 12.4432 171.774 13.269 172.324 14.315C172.893 15.3426 173.177 16.5079 173.177 17.8109C173.177 19.0954 172.893 20.2607 172.324 21.3067C171.774 22.3344 171.012 23.151 170.039 23.7566C169.085 24.3622 168.012 24.665 166.819 24.665ZM166.323 21.8022C167.057 21.8022 167.7 21.6371 168.25 21.3067C168.819 20.9581 169.26 20.4809 169.572 19.8754C169.902 19.2698 170.067 18.5724 170.067 17.7833C170.067 16.9942 169.902 16.2969 169.572 15.6913C169.26 15.0857 168.819 14.6178 168.25 14.2875C167.7 13.9388 167.057 13.7644 166.323 13.7644C165.589 13.7644 164.938 13.9388 164.369 14.2875C163.8 14.6178 163.36 15.0857 163.048 15.6913C162.736 16.2969 162.58 16.9942 162.58 17.7833C162.58 18.5724 162.736 19.2698 163.048 19.8754C163.36 20.4809 163.8 20.9581 164.369 21.3067C164.938 21.6371 165.589 21.8022 166.323 21.8022ZM159.745 29.895V11.1769H162.772V14.7279L162.249 17.9485L162.772 21.1416V29.895H159.745Z" fill="#20CAF7"/>
<path d="M182.112 24.665C181.103 24.665 180.204 24.454 179.415 24.0319C178.626 23.5915 178.002 22.995 177.543 22.2426C177.102 21.4903 176.882 20.6369 176.882 19.6827V15.884C176.882 14.9297 177.112 14.0764 177.57 13.324C178.029 12.5716 178.653 11.9844 179.442 11.5623C180.231 11.1219 181.121 10.9017 182.112 10.9017C183.305 10.9017 184.379 11.2137 185.333 11.8376C186.306 12.4432 187.067 13.269 187.618 14.315C188.187 15.3426 188.471 16.5079 188.471 17.8109C188.471 19.0954 188.187 20.2607 187.618 21.3067C187.067 22.3344 186.306 23.151 185.333 23.7566C184.379 24.3622 183.305 24.665 182.112 24.665ZM181.617 21.8022C182.351 21.8022 182.993 21.6371 183.544 21.3067C184.113 20.9581 184.553 20.4809 184.865 19.8754C185.195 19.2698 185.36 18.5724 185.36 17.7833C185.36 16.9942 185.195 16.2969 184.865 15.6913C184.553 15.0857 184.113 14.6178 183.544 14.2875C182.993 13.9388 182.351 13.7644 181.617 13.7644C180.883 13.7644 180.231 13.9388 179.662 14.2875C179.094 14.6178 178.653 15.0857 178.341 15.6913C178.029 16.2969 177.873 16.9942 177.873 17.7833C177.873 18.5724 178.029 19.2698 178.341 19.8754C178.653 20.4809 179.094 20.9581 179.662 21.3067C180.231 21.6371 180.883 21.8022 181.617 21.8022ZM175.038 29.895V11.1769H178.066V14.7279L177.543 17.9485L178.066 21.1416V29.895H175.038Z" fill="#20CAF7"/>
<path d="M194.99 24.665C194.256 24.665 193.55 24.5732 192.871 24.3897C192.192 24.1879 191.568 23.9126 190.999 23.5639C190.43 23.1969 189.934 22.7565 189.512 22.2426L191.439 20.3158C191.898 20.848 192.421 21.2517 193.008 21.527C193.614 21.7839 194.293 21.9123 195.045 21.9123C195.724 21.9123 196.238 21.8114 196.587 21.6095C196.935 21.4077 197.11 21.1141 197.11 20.7287C197.11 20.325 196.945 20.013 196.614 19.7928C196.284 19.5726 195.853 19.3891 195.32 19.2422C194.807 19.0771 194.256 18.9119 193.669 18.7468C193.1 18.5816 192.549 18.3614 192.017 18.0861C191.503 17.7925 191.081 17.398 190.751 16.9025C190.421 16.407 190.256 15.7647 190.256 14.9756C190.256 14.1315 190.448 13.4066 190.834 12.801C191.237 12.1954 191.797 11.7275 192.513 11.3972C193.247 11.0668 194.118 10.9017 195.128 10.9017C196.192 10.9017 197.128 11.0944 197.936 11.4797C198.761 11.8468 199.449 12.4065 200 13.1589L198.073 15.0857C197.688 14.6086 197.247 14.2508 196.752 14.0122C196.256 13.7736 195.688 13.6543 195.045 13.6543C194.44 13.6543 193.972 13.7461 193.641 13.9296C193.311 14.1131 193.146 14.3792 193.146 14.7279C193.146 15.0949 193.311 15.3793 193.641 15.5812C193.972 15.7831 194.394 15.9574 194.908 16.1042C195.44 16.251 195.99 16.4162 196.559 16.5997C197.146 16.7649 197.697 17.0034 198.211 17.3154C198.743 17.609 199.174 18.0127 199.505 18.5266C199.835 19.022 200 19.6735 200 20.4809C200 21.7655 199.55 22.784 198.651 23.5364C197.752 24.2888 196.532 24.665 194.99 24.665Z" fill="#20CAF7"/>
<path d="M12.2222 29.6874L6.46466 26.3535L9.76495 24.4512L13.0285 26.3384L22.8091 20.6952V9.16535L19.6453 7.34004L9.72777 13.0669V20.6611L6.44202 22.5585L6.44202 12.0471C6.44202 11.4876 6.74074 10.9706 7.22554 10.6911L19.6225 3.54492L25.3048 6.8273C25.7889 7.10695 26.0871 7.62357 26.0871 8.18264V21.6781C26.0871 22.2371 25.789 22.7536 25.305 23.0333L13.7897 29.6881C13.3047 29.9684 12.7069 29.9681 12.2222 29.6874Z" fill="#20CAF7"/>
<path d="M13.8649 0.210495L19.6223 3.54436L16.3241 5.44786L13.0585 3.5595L3.27792 9.20274L3.27792 20.7326L6.44179 22.5579L16.3593 16.831L16.3593 9.2369L19.6454 7.33935L19.6454 17.8508C19.6454 18.4104 19.3467 18.9274 18.8619 19.2068L6.46461 26.353L0.782275 23.0706C0.29817 22.791 -2.51667e-05 22.2744 -2.51178e-05 21.7153L-2.3938e-05 8.21982C-2.38892e-05 7.66086 0.298056 7.14433 0.782013 6.86464L12.2974 0.209822C12.7824 -0.0704521 13.3802 -0.0701947 13.8649 0.210495Z" fill="white"/>
</svg>
