<svg width="18" height="18" viewBox="0 0 18 18" xmlns="http://www.w3.org/2000/svg">
<g clip-path="url(#clip0_508_9244)">
<path d="M16.875 0.9375H1.125C0.826631 0.9375 0.540483 1.05603 0.329505 1.267C0.118526 1.47798 0 1.76413 0 2.0625L0 8.8125C0 9.11087 0.118526 9.39702 0.329505 9.608C0.540483 9.81897 0.826631 9.9375 1.125 9.9375H2.25C2.34946 9.9375 2.44484 9.89799 2.51516 9.82767C2.58549 9.75734 2.625 9.66196 2.625 9.5625V8.8125C2.625 8.61359 2.70402 8.42282 2.84467 8.28217C2.98532 8.14152 3.17609 8.0625 3.375 8.0625H14.625C14.8239 8.0625 15.0147 8.14152 15.1553 8.28217C15.296 8.42282 15.375 8.61359 15.375 8.8125V9.5625C15.375 9.66196 15.4145 9.75734 15.4848 9.82767C15.5552 9.89799 15.6505 9.9375 15.75 9.9375H16.875C17.1734 9.9375 17.4595 9.81897 17.6705 9.608C17.8815 9.39702 18 9.11087 18 8.8125V2.0625C18 1.76413 17.8815 1.47798 17.6705 1.267C17.4595 1.05603 17.1734 0.9375 16.875 0.9375ZM15.375 6.5625H2.625C2.47582 6.5625 2.33274 6.50324 2.22725 6.39775C2.12176 6.29226 2.0625 6.14918 2.0625 6C2.0625 5.85082 2.12176 5.70774 2.22725 5.60225C2.33274 5.49676 2.47582 5.4375 2.625 5.4375H15.375C15.5242 5.4375 15.6673 5.49676 15.7727 5.60225C15.8782 5.70774 15.9375 5.85082 15.9375 6C15.9375 6.14918 15.8782 6.29226 15.7727 6.39775C15.6673 6.50324 15.5242 6.5625 15.375 6.5625ZM15.375 3.9375H2.625C2.47582 3.9375 2.33274 3.87824 2.22725 3.77275C2.12176 3.66726 2.0625 3.52418 2.0625 3.375C2.0625 3.22582 2.12176 3.08274 2.22725 2.97725C2.33274 2.87176 2.47582 2.8125 2.625 2.8125H15.375C15.5242 2.8125 15.6673 2.87176 15.7727 2.97725C15.8782 3.08274 15.9375 3.22582 15.9375 3.375C15.9375 3.52418 15.8782 3.66726 15.7727 3.77275C15.6673 3.87824 15.5242 3.9375 15.375 3.9375Z" />
<path d="M11.325 13.587C11.4109 13.5381 11.4864 13.4727 11.547 13.3945C11.6076 13.3164 11.6522 13.227 11.6781 13.1315C11.704 13.0361 11.7108 12.9364 11.698 12.8383C11.6853 12.7403 11.6532 12.6457 11.6038 12.56C11.5543 12.4743 11.4884 12.3993 11.4098 12.3392C11.3313 12.2792 11.2416 12.2352 11.146 12.2099C11.0503 12.1846 10.9507 12.1785 10.8527 12.1919C10.7547 12.2053 10.6603 12.238 10.575 12.288L10.0327 12.6008C10.0042 12.6176 9.97174 12.6265 9.93864 12.6267C9.90554 12.627 9.87297 12.6184 9.84425 12.6019C9.81553 12.5855 9.79167 12.5617 9.77511 12.533C9.75855 12.5044 9.74988 12.4719 9.74996 12.4387V11.8125C9.74996 11.6136 9.67094 11.4228 9.53029 11.2822C9.38964 11.1415 9.19887 11.0625 8.99996 11.0625C8.80105 11.0625 8.61028 11.1415 8.46963 11.2822C8.32898 11.4228 8.24996 11.6136 8.24996 11.8125V12.4387C8.2499 12.4716 8.24118 12.5039 8.2247 12.5324C8.20822 12.5608 8.18454 12.5844 8.15605 12.6008C8.12756 12.6173 8.09525 12.6259 8.06237 12.6259C8.02949 12.6259 7.99719 12.6172 7.96871 12.6008L7.42496 12.288C7.25279 12.1901 7.0489 12.1643 6.85776 12.2162C6.66663 12.2681 6.50378 12.3935 6.40476 12.565C6.30573 12.7365 6.27856 12.9402 6.32918 13.1317C6.37981 13.3232 6.50411 13.4868 6.67496 13.587L7.21721 13.9005C7.24573 13.9169 7.26942 13.9404 7.2859 13.9689C7.30238 13.9973 7.31106 14.0296 7.31106 14.0625C7.31106 14.0954 7.30238 14.1277 7.2859 14.1561C7.26942 14.1846 7.24573 14.2081 7.21721 14.2245L6.67496 14.538C6.58898 14.5869 6.51351 14.6523 6.45291 14.7305C6.39231 14.8086 6.34777 14.898 6.32185 14.9935C6.29594 15.0889 6.28916 15.1886 6.30191 15.2867C6.31466 15.3847 6.34668 15.4793 6.39614 15.565C6.4456 15.6507 6.51151 15.7257 6.59008 15.7858C6.66865 15.8458 6.75833 15.8898 6.85395 15.9151C6.94958 15.9404 7.04926 15.9465 7.14726 15.9331C7.24525 15.9197 7.33963 15.887 7.42496 15.837L7.96721 15.5242C7.99569 15.5078 8.02799 15.4991 8.06087 15.4991C8.09375 15.4991 8.12606 15.5077 8.15455 15.5242C8.18304 15.5406 8.20672 15.5642 8.2232 15.5926C8.23968 15.6211 8.2484 15.6534 8.24846 15.6862V16.3125C8.24846 16.5114 8.32748 16.7022 8.46813 16.8428C8.60878 16.9835 8.79955 17.0625 8.99846 17.0625C9.19738 17.0625 9.38814 16.9835 9.52879 16.8428C9.66944 16.7022 9.74846 16.5114 9.74846 16.3125V15.6862C9.74853 15.6534 9.75724 15.6211 9.77372 15.5926C9.79021 15.5642 9.81388 15.5406 9.84238 15.5242C9.87087 15.5077 9.90318 15.4991 9.93606 15.4991C9.96894 15.4991 10.0012 15.5078 10.0297 15.5242L10.572 15.837C10.6573 15.887 10.7517 15.9197 10.8497 15.9331C10.9477 15.9465 11.0473 15.9404 11.143 15.9151C11.2386 15.8898 11.3283 15.8458 11.4068 15.7858C11.4854 15.7257 11.5513 15.6507 11.6008 15.565C11.6502 15.4793 11.6823 15.3847 11.695 15.2867C11.7078 15.1886 11.701 15.0889 11.6751 14.9935C11.6492 14.898 11.6046 14.8086 11.544 14.7305C11.4834 14.6523 11.4079 14.5869 11.322 14.538L10.7797 14.2245C10.7512 14.2081 10.7275 14.1846 10.711 14.1561C10.6945 14.1277 10.6859 14.0954 10.6859 14.0625C10.6859 14.0296 10.6945 13.9973 10.711 13.9689C10.7275 13.9404 10.7512 13.9169 10.7797 13.9005L11.325 13.587Z" />
<path d="M3.37495 10.6875C3.17604 10.6875 2.98527 10.7665 2.84462 10.9072C2.70397 11.0478 2.62495 11.2386 2.62495 11.4375C2.67207 11.7968 2.61683 12.1621 2.46557 12.4914C2.31432 12.8207 2.07321 13.1006 1.76995 13.299C1.29547 13.6366 0.91725 14.0922 0.672611 14.6207C0.427972 15.1491 0.325376 15.7323 0.37495 16.3125C0.37495 16.5114 0.453967 16.7022 0.59462 16.8428C0.735272 16.9835 0.926037 17.0625 1.12495 17.0625C1.32386 17.0625 1.51463 16.9835 1.65528 16.8428C1.79593 16.7022 1.87495 16.5114 1.87495 16.3125C1.82783 15.9532 1.88307 15.5879 2.03432 15.2586C2.18558 14.9293 2.42669 14.6494 2.72995 14.451C3.20443 14.1134 3.58265 13.6578 3.82729 13.1293C4.07193 12.6009 4.17452 12.0177 4.12495 11.4375C4.12495 11.2386 4.04593 11.0478 3.90528 10.9072C3.76463 10.7665 3.57386 10.6875 3.37495 10.6875Z" />
<path d="M16.2299 13.299C15.9267 13.1006 15.6856 12.8207 15.5343 12.4914C15.3831 12.1621 15.3278 11.7968 15.3749 11.4375C15.3749 11.2386 15.2959 11.0478 15.1553 10.9072C15.0146 10.7665 14.8239 10.6875 14.6249 10.6875C14.426 10.6875 14.2353 10.7665 14.0946 10.9072C13.954 11.0478 13.8749 11.2386 13.8749 11.4375C13.8254 12.0177 13.928 12.6009 14.1726 13.1293C14.4172 13.6578 14.7955 14.1134 15.27 14.451C15.5732 14.6494 15.8143 14.9293 15.9656 15.2586C16.1168 15.5879 16.1721 15.9532 16.1249 16.3125C16.1249 16.5114 16.204 16.7022 16.3446 16.8428C16.4853 16.9835 16.676 17.0625 16.875 17.0625C17.0739 17.0625 17.2646 16.9835 17.4053 16.8428C17.5459 16.7022 17.625 16.5114 17.625 16.3125C17.6745 15.7323 17.5719 15.1491 17.3273 14.6207C17.0827 14.0922 16.7044 13.6366 16.2299 13.299Z" />
</g>
<defs>
<clipPath id="clip0_508_9244">
<rect width="18" height="18" />
</clipPath>
</defs>
</svg>
