<svg xmlns="http://www.w3.org/2000/svg" width="19" height="25" viewBox="0 0 19 25">
    <g fill="none" fill-rule="evenodd">
        <g fill="#7D8D9A" fill-rule="nonzero">
            <g>
                <g>
                    <path d="M13 5.75c.414 0 .75-.336.75-.75V3.5c0-.414-.336-.75-.75-.75s-.75.336-.75.75V5c0 .414.336.75.75.75z" transform="translate(-832 -4460) translate(832.667 4460.773)"/>
                    <path d="M18 3c0-1.657-1.343-3-3-3H3C1.343 0 0 1.343 0 3v18c0 1.657 1.343 3 3 3h12c1.657 0 3-1.343 3-3V3zM9 14c.552 0 1 .448 1 1s-.448 1-1 1-1-.448-1-1 .448-1 1-1zm-1-3.5c0-.552.448-1 1-1s1 .448 1 1-.448 1-1 1-1-.448-1-1zm5.5 8.25c.414 0 .75.336.75.75s-.336.75-.75.75H8c-.414 0-.75-.336-.75-.75s.336-.75.75-.75h5.5zm0-2.75c-.552 0-1-.448-1-1s.448-1 1-1 1 .448 1 1-.448 1-1 1zm0-4.5c-.552 0-1-.448-1-1s.448-1 1-1 1 .448 1 1-.448 1-1 1zm-9 4.5c-.552 0-1-.448-1-1s.448-1 1-1 1 .448 1 1-.448 1-1 1zm1 3.5c0 .552-.448 1-1 1s-1-.448-1-1 .448-1 1-1 1 .448 1 1zm-1-8c-.552 0-1-.448-1-1s.448-1 1-1 1 .448 1 1-.448 1-1 1zM3 2h12c.552 0 1 .448 1 1v3.25c0 .138-.112.25-.25.25H2.25c-.138 0-.25-.112-.25-.25V3c0-.552.448-1 1-1z" transform="translate(-832 -4460) translate(832.667 4460.773)"/>
                </g>
            </g>
        </g>
    </g>
</svg>
