<svg width="18" height="18" viewBox="0 0 18 18" xmlns="http://www.w3.org/2000/svg">
   <g clip-path="url(#clip0_1249_1327)">
      <path
         d="M16.125 9.18896C16.1256 7.98132 15.8192 6.79335 15.2346 5.73662C14.6501 4.6799 13.8065 3.78909 12.7831 3.14788C11.7598 2.50666 10.5903 2.13607 9.38438 2.07092C8.1785 2.00577 6.97585 2.2482 5.88938 2.77543C4.8029 3.30266 3.86827 4.09739 3.17325 5.08499C2.47823 6.07258 2.04564 7.22063 1.91611 8.4213C1.78657 9.62197 1.96435 10.8359 2.43273 11.949C2.90111 13.0621 3.64473 14.0379 4.59375 14.7847L2.84475 16.5337C2.70415 16.6744 2.62516 16.8651 2.62516 17.064C2.62516 17.2628 2.70415 17.4536 2.84475 17.5942C2.98681 17.7321 3.17701 17.8093 3.375 17.8093C3.57299 17.8093 3.76319 17.7321 3.90525 17.5942L5.89725 15.6C6.86452 16.0684 7.92529 16.3117 9 16.3117C10.0747 16.3117 11.1355 16.0684 12.1028 15.6L14.0948 17.592C14.2364 17.7306 14.4268 17.8082 14.625 17.8082C14.8232 17.8082 15.0136 17.7306 15.1553 17.592C15.2959 17.4513 15.3748 17.2606 15.3748 17.0617C15.3748 16.8628 15.2959 16.6721 15.1553 16.5315L13.4063 14.7825C14.2532 14.1167 14.938 13.2673 15.409 12.2984C15.8799 11.3295 16.1248 10.2663 16.125 9.18896ZM3.375 9.18896C3.375 8.07644 3.7049 6.9889 4.32299 6.06388C4.94107 5.13885 5.81957 4.41788 6.84741 3.99214C7.87524 3.56639 9.00624 3.455 10.0974 3.67204C11.1885 3.88908 12.1908 4.42481 12.9775 5.21148C13.7641 5.99815 14.2999 7.00043 14.5169 8.09157C14.734 9.18272 14.6226 10.3137 14.1968 11.3416C13.7711 12.3694 13.0501 13.2479 12.1251 13.866C11.2001 14.4841 10.1125 14.814 9 14.814C7.50871 14.8122 6.079 14.219 5.0245 13.1645C3.96999 12.11 3.37679 10.6803 3.375 9.18896Z" />
      <path
         d="M5.55002 1.70155C5.60622 1.67572 5.65516 1.6364 5.69248 1.58708C5.7298 1.53776 5.75435 1.47997 5.76392 1.41887C5.7735 1.35776 5.76782 1.29524 5.74738 1.23686C5.72693 1.17849 5.69237 1.12608 5.64677 1.0843C5.00842 0.4932 4.16591 0.172356 3.29608 0.189101C2.42625 0.205845 1.59672 0.558878 0.98159 1.1741C0.366461 1.78933 0.0135594 2.61892 -0.00304833 3.48875C-0.0196561 4.35858 0.301321 5.20104 0.892518 5.8393C0.934584 5.88424 0.986932 5.9183 1.04507 5.93855C1.1032 5.9588 1.16538 5.96463 1.22627 5.95555C1.28729 5.94607 1.34503 5.92167 1.39436 5.88451C1.44368 5.84735 1.48307 5.79859 1.50902 5.74255C2.3326 3.95785 3.76533 2.52513 5.55002 1.70155Z" />
      <path
         d="M14.625 0.189471C13.7813 0.192119 12.9694 0.511747 12.3503 1.08497C12.3046 1.12675 12.2701 1.17916 12.2496 1.23754C12.2292 1.29591 12.2235 1.35844 12.2331 1.41954C12.2427 1.48065 12.2672 1.53843 12.3045 1.58775C12.3419 1.63707 12.3908 1.6764 12.447 1.70222C14.2317 2.52581 15.6644 3.95853 16.488 5.74322C16.5139 5.79917 16.5532 5.84787 16.6023 5.88502C16.6515 5.92217 16.7091 5.94663 16.77 5.95622C16.831 5.96524 16.8933 5.95938 16.9515 5.93914C17.0098 5.9189 17.0622 5.88487 17.1045 5.83997C17.5498 5.35911 17.845 4.75868 17.9537 4.1124C18.0625 3.46612 17.9802 2.80214 17.7168 2.20201C17.4535 1.60188 17.0206 1.09172 16.4713 0.734198C15.9221 0.376674 15.2804 0.187347 14.625 0.189471Z" />
      <path
         d="M11.25 8.43945H9.75V5.81445C9.75 5.61554 9.67098 5.42478 9.53033 5.28412C9.38968 5.14347 9.19891 5.06445 9 5.06445C8.80109 5.06445 8.61032 5.14347 8.46967 5.28412C8.32902 5.42478 8.25 5.61554 8.25 5.81445V9.18945C8.25 9.38836 8.32902 9.57913 8.46967 9.71978C8.61032 9.86043 8.80109 9.93945 9 9.93945H11.25C11.4489 9.93945 11.6397 9.86043 11.7803 9.71978C11.921 9.57913 12 9.38836 12 9.18945C12 8.99054 11.921 8.79977 11.7803 8.65912C11.6397 8.51847 11.4489 8.43945 11.25 8.43945Z" />
   </g>
   <defs>
      <clipPath id="clip0_1249_1327">
         <rect width="18" height="18" />
      </clipPath>
   </defs>
</svg>