<svg width="18" height="18" viewBox="0 0 18 18" xmlns="http://www.w3.org/2000/svg">
   <path
      d="M17.5775 14.25L10.283 2.19754C10.1494 1.97678 9.96111 1.79422 9.73632 1.66752C9.51152 1.54081 9.25784 1.47424 8.99979 1.47424C8.74174 1.47424 8.48806 1.54081 8.26326 1.66752C8.03847 1.79422 7.85016 1.97678 7.71654 2.19754L0.422042 14.25C0.284455 14.4775 0.209807 14.7375 0.205742 15.0034C0.201676 15.2692 0.26834 15.5313 0.398905 15.7629C0.52947 15.9945 0.719246 16.1873 0.948796 16.3214C1.17835 16.4555 1.43942 16.5262 1.70529 16.5263H16.2943C16.5602 16.5262 16.8212 16.4555 17.0508 16.3214C17.2803 16.1873 17.4701 15.9945 17.6007 15.7629C17.7312 15.5313 17.7979 15.2692 17.7938 15.0034C17.7898 14.7375 17.7151 14.4775 17.5775 14.25Z" />
</svg>