<svg width="30" height="30" viewBox="0 0 18 11" xmlns="http://www.w3.org/2000/svg">
   <path
      d="M3.92247 8.7091C4.03036 8.81695 4.1678 8.89039 4.31741 8.92014C4.46703 8.94989 4.62211 8.93462 4.76305 8.87624C4.90399 8.81787 5.02445 8.71902 5.10922 8.5922C5.19398 8.46537 5.23924 8.31625 5.23928 8.16371V5.62498C5.23928 5.57384 5.25959 5.52478 5.29576 5.48862C5.33193 5.45245 5.38098 5.43213 5.43213 5.43213H15.8786C15.9298 5.43213 15.9788 5.45245 16.015 5.48862C16.0511 5.52478 16.0715 5.57384 16.0715 5.62498V9.64251C16.0715 9.89825 16.1731 10.1435 16.3539 10.3243C16.5347 10.5052 16.78 10.6068 17.0357 10.6068C17.2915 10.6068 17.5367 10.5052 17.7176 10.3243C17.8984 10.1435 18 9.89825 18 9.64251V4.46786C18 4.21212 17.8984 3.96686 17.7176 3.78602C17.5367 3.60519 17.2915 3.5036 17.0357 3.5036H5.43213C5.38098 3.5036 5.33193 3.48328 5.29576 3.44711C5.25959 3.41094 5.23928 3.36189 5.23928 3.31074V0.771249C5.23924 0.618702 5.19398 0.469589 5.10922 0.342761C5.02445 0.215933 4.90399 0.117085 4.76305 0.0587117C4.62211 0.000338745 4.46703 -0.0149378 4.31741 0.0148138C4.1678 0.0445653 4.03036 0.118009 3.92247 0.22586L0.225859 3.92247C0.0812417 4.06714 0 4.26331 0 4.46786C0 4.67242 0.0812417 4.86859 0.225859 5.01325L3.92247 8.7091Z" />
</svg>