<svg viewBox="0 0 32 18" xmlns="http://www.w3.org/2000/svg">
<path d="M28.5863 1.30218e-05H9.00035C8.60617 -0.00115183 8.21567 0.0758444 7.85144 0.226549C7.48721 0.377254 7.15647 0.598678 6.87835 0.878012L0.878358 6.878C0.315946 7.44059 0 8.20351 0 8.999C0 9.79449 0.315946 10.5574 0.878358 11.12L6.87835 17.12C7.1561 17.4 7.48673 17.6219 7.85101 17.773C8.2153 17.9241 8.60598 18.0012 9.00035 18H28.5863C29.382 18 30.145 17.6839 30.7076 17.1213C31.2702 16.5587 31.5863 15.7956 31.5863 15V3.00001C31.5863 2.20436 31.2702 1.4413 30.7076 0.878691C30.145 0.316083 29.382 1.30218e-05 28.5863 1.30218e-05ZM14.5263 7.06C14.3831 6.92156 14.2689 6.75599 14.1904 6.57295C14.1119 6.38991 14.0706 6.19306 14.069 5.99389C14.0673 5.79472 14.1054 5.59722 14.1809 5.41292C14.2564 5.22861 14.3679 5.06118 14.5088 4.92041C14.6497 4.77964 14.8172 4.66834 15.0016 4.593C15.186 4.51767 15.3835 4.47981 15.5827 4.48163C15.7818 4.48346 15.9786 4.52493 16.1616 4.60363C16.3446 4.68233 16.51 4.79668 16.6483 4.94001L18.2343 6.524C18.2808 6.57057 18.336 6.60751 18.3967 6.63272C18.4574 6.65792 18.5226 6.6709 18.5883 6.6709C18.6541 6.6709 18.7192 6.65792 18.78 6.63272C18.8407 6.60751 18.8959 6.57057 18.9423 6.524L20.5263 4.94001C20.6646 4.79668 20.8301 4.68233 21.0131 4.60363C21.196 4.52493 21.3928 4.48346 21.592 4.48163C21.7912 4.47981 21.9887 4.51767 22.1731 4.593C22.3575 4.66834 22.525 4.77964 22.6659 4.92041C22.8068 5.06118 22.9183 5.22861 22.9938 5.41292C23.0693 5.59722 23.1073 5.79472 23.1057 5.99389C23.1041 6.19306 23.0628 6.38991 22.9842 6.57295C22.9057 6.75599 22.7915 6.92156 22.6483 7.06L21.0623 8.646C21.0158 8.69245 20.9788 8.74762 20.9536 8.80837C20.9284 8.86911 20.9154 8.93423 20.9154 9C20.9154 9.06577 20.9284 9.13089 20.9536 9.19163C20.9788 9.25238 21.0158 9.30755 21.0623 9.354L22.6483 10.94C22.7915 11.0784 22.9057 11.244 22.9842 11.427C23.0628 11.6101 23.1041 11.8069 23.1057 12.0061C23.1073 12.2053 23.0693 12.4028 22.9938 12.5871C22.9183 12.7714 22.8068 12.9388 22.6659 13.0796C22.525 13.2204 22.3575 13.3317 22.1731 13.407C21.9887 13.4823 21.7912 13.5202 21.592 13.5184C21.3928 13.5165 21.196 13.4751 21.0131 13.3964C20.8301 13.3177 20.6646 13.2033 20.5263 13.06L18.9423 11.474C18.848 11.3809 18.7208 11.3287 18.5883 11.3287C18.4558 11.3287 18.3286 11.3809 18.2343 11.474L16.6483 13.06C16.3656 13.3334 15.9867 13.4847 15.5934 13.4815C15.2001 13.4783 14.8238 13.3207 14.5456 13.0427C14.2674 12.7647 14.1094 12.3886 14.1058 11.9953C14.1022 11.602 14.2532 11.223 14.5263 10.94L16.1123 9.354C16.1589 9.30755 16.1958 9.25238 16.221 9.19163C16.2463 9.13089 16.2592 9.06577 16.2592 9C16.2592 8.93423 16.2463 8.86911 16.221 8.80837C16.1958 8.74762 16.1589 8.69245 16.1123 8.646L14.5263 7.06Z"/>
</svg>
