<svg xmlns="http://www.w3.org/2000/svg" width="20" height="13" viewBox="0 0 20 13">
    <g fill="none" fill-rule="evenodd">
        <g>
            <g>
                <path d="M0 0H20V20H0z" transform="translate(-241 -492) translate(241 488.25)"/>
                <path fill="#7D8D9A" fill-rule="nonzero" d="M20.003 8.75c0-.92-.746-1.667-1.667-1.667h-.833V6.25c0-.92-.746-1.667-1.667-1.667h-3.541c-.115 0-.209.094-.209.209v1.25c0 .115.094.208.209.208h3.125c.23 0 .416.187.416.417v1.25c0 .46.373.833.834.833h1.666v2.5H16.67c-.46 0-.834.373-.834.833v1.25c0 .23-.186.417-.416.417h-3.597c-.063 0-.123.029-.163.078l-1 1.25c-.05.063-.06.15-.024.222.036.073.11.118.191.117h5.01c.92 0 1.666-.747 1.666-1.667v-.833h.833c.92 0 1.667-.747 1.667-1.667v-2.5zM2.083 13.75c-.23 0-.416-.187-.416-.417V6.667c0-.23.186-.417.416-.417h4.43c.064 0 .124-.029.163-.078l1-1.25c.05-.063.06-.15.024-.222-.036-.073-.11-.118-.19-.117H1.666C.747 4.583 0 5.33 0 6.25v7.5c0 .92.746 1.667 1.667 1.667h4.375c.115 0 .208-.094.208-.209v-1.25c0-.115-.093-.208-.208-.208H2.083z" transform="translate(-241 -492) translate(241 488.25)"/>
                <path fill="#7D8D9A" fill-rule="nonzero" d="M13.161 9.951c.184-.216.226-.52.106-.778-.119-.258-.377-.424-.662-.423h-1.562c-.115 0-.209-.094-.209-.209V4.167c0-.177-.111-.335-.279-.393-.167-.059-.353-.005-.463.133L5.175 10.05c-.184.216-.226.52-.106.778.119.258.377.423.661.423h1.563c.115 0 .208.094.208.209v4.375c0 .177.112.334.278.393.168.057.353.004.465-.132L13.16 9.95z" transform="translate(-241 -492) translate(241 488.25)"/>
            </g>
        </g>
    </g>
</svg>
