<svg viewBox="0 0 17 20" xmlns="http://www.w3.org/2000/svg">
<path fill-rule="evenodd" clip-rule="evenodd" d="M15.0185 13.6485C15.2435 13.8736 15.5487 14 15.867 14C16.0792 14 16.2826 14.0843 16.4327 14.2343C16.5827 14.3843 16.667 14.5878 16.667 14.8C16.667 15.0122 16.5827 15.2157 16.4327 15.3657C16.2826 15.5157 16.0792 15.6 15.867 15.6H1.46699C1.25482 15.6 1.05134 15.5157 0.901307 15.3657C0.751278 15.2157 0.666992 15.0122 0.666992 14.8C0.666992 14.5878 0.751278 14.3843 0.901307 14.2343C1.05134 14.0843 1.25482 14 1.46699 14C1.78525 14 2.09048 13.8736 2.31552 13.6485C2.54056 13.4235 2.66699 13.1183 2.66699 12.8V8.9104C2.6208 7.39127 3.11966 5.90575 4.07337 4.7224C5.02709 3.53906 6.37273 2.73599 7.86699 2.4584V0.8C7.86699 0.587827 7.95128 0.384344 8.10131 0.234315C8.25134 0.0842855 8.45482 0 8.66699 0C8.87917 0 9.08265 0.0842855 9.23268 0.234315C9.38271 0.384344 9.46699 0.587827 9.46699 0.8V2.4584C10.9613 2.73599 12.3069 3.53906 13.2606 4.7224C14.2143 5.90575 14.7132 7.39127 14.667 8.9104V12.8C14.667 13.1183 14.7934 13.4235 15.0185 13.6485ZM6.8782 16.8H10.4558C10.505 16.7997 10.5526 16.8178 10.5892 16.8506C10.6259 16.8834 10.649 16.9287 10.6542 16.9776C10.6629 17.0514 10.6672 17.1257 10.667 17.2C10.667 17.7304 10.4563 18.2391 10.0812 18.6142C9.70614 18.9893 9.19743 19.2 8.667 19.2C8.13657 19.2 7.62786 18.9893 7.25279 18.6142C6.87771 18.2391 6.667 17.7304 6.667 17.2C6.66681 17.1257 6.67108 17.0514 6.6798 16.9776C6.6853 16.9288 6.70856 16.8837 6.74515 16.851C6.78174 16.8182 6.82909 16.8001 6.8782 16.8Z" />
</svg>
