<svg width="24" height="24" viewBox="0 0 24 24" xmlns="http://www.w3.org/2000/svg">
   <path
      d="M5.10638 0H1.53191C0.685862 0 0 0.700772 0 1.56522V16.1739C0 17.0384 0.685862 17.7391 1.53191 17.7391H5.10638C5.95244 17.7391 6.6383 17.0384 6.6383 16.1739V1.56522C6.6383 0.700772 5.95244 0 5.10638 0Z" />
   <path
      d="M13.7872 0H10.2128C9.36671 0 8.68085 0.700772 8.68085 1.56522V22.4348C8.68085 23.2992 9.36671 24 10.2128 24H13.7872C14.6333 24 15.3191 23.2992 15.3191 22.4348V1.56522C15.3191 0.700772 14.6333 0 13.7872 0Z" />
   <path
      d="M18.8936 0H22.4681C23.3141 0 24 0.700772 24 1.56522V9.91304C24 10.7775 23.3141 11.4783 22.4681 11.4783H18.8936C18.0476 11.4783 17.3617 10.7775 17.3617 9.91304V1.56522C17.3617 0.700772 18.0476 0 18.8936 0Z" />
</svg>