<svg xmlns="http://www.w3.org/2000/svg" viewBox="0 0 24 24"><title>calculator-app</title><g fill="#7D8D9A" fill-rule="nonzero"><path fill="#7D8D9A"  d="M10.5,11.25a.25.25,0,0,0,.25-.25V.5A.25.25,0,0,0,10.5.25H4A3.755,3.755,0,0,0,.25,4v7a.25.25,0,0,0,.25.25ZM8,7.25H6.5a.25.25,0,0,0-.25.25V9a.75.75,0,0,1-1.5,0V7.5a.25.25,0,0,0-.25-.25H3a.75.75,0,0,1,0-1.5H4.5a.25.25,0,0,0,.25-.25V4a.75.75,0,0,1,1.5,0V5.5a.25.25,0,0,0,.25.25H8a.75.75,0,0,1,0,1.5Z"/><path d="M12.25,11a.25.25,0,0,0,.25.25h11a.25.25,0,0,0,.25-.25V4A3.755,3.755,0,0,0,20,.25H12.5a.25.25,0,0,0-.25.25ZM20,7.25H15a.75.75,0,0,1,0-1.5h5a.75.75,0,0,1,0,1.5Z"/><path d="M10.75,13a.25.25,0,0,0-.25-.25H.5A.25.25,0,0,0,.25,13v7A3.755,3.755,0,0,0,4,23.75h6.5a.25.25,0,0,0,.25-.25ZM2.97,16.03a.75.75,0,1,1,1.06-1.06l1.293,1.293a.252.252,0,0,0,.354,0L6.97,14.97a.75.75,0,1,1,1.06,1.06L6.737,17.323a.252.252,0,0,0,0,.354L8.03,18.97a.75.75,0,1,1-1.06,1.06L5.677,18.737a.252.252,0,0,0-.354,0L4.03,20.03a.75.75,0,0,1-1.06-1.06l1.293-1.293a.252.252,0,0,0,0-.354Z"/><path d="M12.5,12.75a.25.25,0,0,0-.25.25V23.5a.25.25,0,0,0,.25.25H20A3.755,3.755,0,0,0,23.75,20V13a.25.25,0,0,0-.25-.25Zm1.75,3.75a.75.75,0,0,1,.75-.75h5a.75.75,0,0,1,0,1.5H15A.75.75,0,0,1,14.25,16.5ZM15,18.75h5a.75.75,0,0,1,0,1.5H15a.75.75,0,0,1,0-1.5Z"/></g></svg>