<svg viewBox="0 0 17 17" xmlns="http://www.w3.org/2000/svg">
<path fill-rule="evenodd" clip-rule="evenodd" d="M12.8226 2.11934H14.7548C15.1275 2.11934 15.4849 2.2682 15.7484 2.53317C16.012 2.79814 16.16 3.15752 16.16 3.53224V15.5419C16.16 15.9166 16.012 16.276 15.7484 16.5409C15.4849 16.8059 15.1275 16.9548 14.7548 16.9548H1.40522C1.03253 16.9548 0.675108 16.8059 0.411579 16.5409C0.148049 16.276 0 15.9166 0 15.5419V3.53224C0 3.15752 0.148049 2.79814 0.411579 2.53317C0.675108 2.2682 1.03253 2.11934 1.40522 2.11934H2.45913C2.5523 2.11934 2.64166 2.15656 2.70754 2.2228C2.77342 2.28904 2.81044 2.37889 2.81044 2.47257V4.06208C2.81044 4.2026 2.86595 4.33736 2.96478 4.43673C3.0636 4.53609 3.19763 4.59191 3.33739 4.59191C3.47715 4.59191 3.61118 4.53609 3.71001 4.43673C3.80883 4.33736 3.86435 4.2026 3.86435 4.06208V0.706448C3.86435 0.519086 3.93837 0.339399 4.07014 0.206914C4.2019 0.0744291 4.38061 0 4.56696 0C4.7533 0 4.93201 0.0744291 5.06378 0.206914C5.19554 0.339399 5.26957 0.519086 5.26957 0.706448V1.94344C5.26975 1.99016 5.28834 2.0349 5.32126 2.06787C5.35418 2.10083 5.39875 2.11934 5.44522 2.11934H9.83652C9.9297 2.11934 10.0191 2.15656 10.0849 2.2228C10.1508 2.28904 10.1878 2.37889 10.1878 2.47257V4.06208C10.1878 4.2026 10.2433 4.33736 10.3422 4.43673C10.441 4.53609 10.575 4.59191 10.7148 4.59191C10.8545 4.59191 10.9886 4.53609 11.0874 4.43673C11.1862 4.33736 11.2417 4.2026 11.2417 4.06208V0.706448C11.2417 0.519086 11.3158 0.339399 11.4475 0.206914C11.5793 0.0744291 11.758 0 11.9444 0C12.1307 0 12.3094 0.0744291 12.4412 0.206914C12.5729 0.339399 12.647 0.519086 12.647 0.706448V1.94273C12.647 1.98957 12.6655 2.03449 12.6984 2.06762C12.7313 2.10074 12.776 2.11934 12.8226 2.11934ZM14.6519 15.4384C14.7178 15.3722 14.7548 15.2823 14.7548 15.1886V6.71126C14.7548 6.61758 14.7178 6.52773 14.6519 6.46149C14.586 6.39525 14.4967 6.35803 14.4035 6.35803H1.75652C1.66335 6.35803 1.57399 6.39525 1.50811 6.46149C1.44223 6.52773 1.40522 6.61758 1.40522 6.71126V15.1886C1.40522 15.2823 1.44223 15.3722 1.50811 15.4384C1.57399 15.5046 1.66335 15.5419 1.75652 15.5419H14.4035C14.4967 15.5419 14.586 15.5046 14.6519 15.4384ZM7.7288 7.41771H8.43141C8.61775 7.41771 8.79646 7.49213 8.92823 7.62462C9.05999 7.7571 9.13402 7.93679 9.13402 8.12415C9.13402 8.31151 9.05999 8.4912 8.92823 8.62369C8.79646 8.75617 8.61775 8.8306 8.43141 8.8306H7.7288C7.54246 8.8306 7.36375 8.75617 7.23198 8.62369C7.10022 8.4912 7.02619 8.31151 7.02619 8.12415C7.02619 7.93679 7.10022 7.7571 7.23198 7.62462C7.36375 7.49213 7.54246 7.41771 7.7288 7.41771ZM4.21567 7.41772H4.91828C5.10462 7.41772 5.28333 7.49215 5.4151 7.62464C5.54686 7.75712 5.62089 7.93681 5.62089 8.12417C5.62089 8.31153 5.54686 8.49122 5.4151 8.62371C5.28333 8.75619 5.10462 8.83062 4.91828 8.83062H4.21567C4.02933 8.83062 3.85062 8.75619 3.71885 8.62371C3.58709 8.49122 3.51306 8.31153 3.51306 8.12417C3.51306 7.93681 3.58709 7.75712 3.71885 7.62464C3.85062 7.49215 4.02933 7.41772 4.21567 7.41772ZM11.9443 7.41771H11.2417C11.0554 7.41771 10.8767 7.49213 10.7449 7.62462C10.6131 7.7571 10.5391 7.93679 10.5391 8.12415C10.5391 8.31151 10.6131 8.4912 10.7449 8.62369C10.8767 8.75617 11.0554 8.8306 11.2417 8.8306H11.9443C12.1307 8.8306 12.3094 8.75617 12.4412 8.62369C12.5729 8.4912 12.6469 8.31151 12.6469 8.12415C12.6469 7.93679 12.5729 7.7571 12.4412 7.62462C12.3094 7.49213 12.1307 7.41771 11.9443 7.41771ZM4.21565 10.2437H4.91826C5.1046 10.2437 5.28331 10.3182 5.41508 10.4506C5.54684 10.5831 5.62087 10.7628 5.62087 10.9502C5.62087 11.1375 5.54684 11.3172 5.41508 11.4497C5.28331 11.5822 5.1046 11.6566 4.91826 11.6566H4.21565C4.0293 11.6566 3.85059 11.5822 3.71883 11.4497C3.58706 11.3172 3.51304 11.1375 3.51304 10.9502C3.51304 10.7628 3.58706 10.5831 3.71883 10.4506C3.85059 10.3182 4.0293 10.2437 4.21565 10.2437ZM8.43141 10.2437H7.7288C7.54246 10.2437 7.36375 10.3182 7.23198 10.4506C7.10022 10.5831 7.02619 10.7628 7.02619 10.9502C7.02619 11.1375 7.10022 11.3172 7.23198 11.4497C7.36375 11.5822 7.54246 11.6566 7.7288 11.6566H8.43141C8.61775 11.6566 8.79646 11.5822 8.92823 11.4497C9.05999 11.3172 9.13402 11.1375 9.13402 10.9502C9.13402 10.7628 9.05999 10.5831 8.92823 10.4506C8.79646 10.3182 8.61775 10.2437 8.43141 10.2437ZM11.2417 10.2437H11.9443C12.1307 10.2437 12.3094 10.3182 12.4412 10.4506C12.5729 10.5831 12.6469 10.7628 12.6469 10.9502C12.6469 11.1375 12.5729 11.3172 12.4412 11.4497C12.3094 11.5822 12.1307 11.6566 11.9443 11.6566H11.2417C11.0554 11.6566 10.8767 11.5822 10.7449 11.4497C10.6131 11.3172 10.5391 11.1375 10.5391 10.9502C10.5391 10.7628 10.6131 10.5831 10.7449 10.4506C10.8767 10.3182 11.0554 10.2437 11.2417 10.2437ZM4.91826 13.0691H4.21565C4.0293 13.0691 3.85059 13.1435 3.71883 13.276C3.58706 13.4085 3.51304 13.5881 3.51304 13.7755C3.51304 13.9629 3.58706 14.1426 3.71883 14.275C3.85059 14.4075 4.0293 14.482 4.21565 14.482H4.91826C5.1046 14.482 5.28331 14.4075 5.41508 14.275C5.54684 14.1426 5.62087 13.9629 5.62087 13.7755C5.62087 13.5881 5.54684 13.4085 5.41508 13.276C5.28331 13.1435 5.1046 13.0691 4.91826 13.0691ZM7.7288 13.0691H8.43141C8.61775 13.0691 8.79646 13.1435 8.92823 13.276C9.05999 13.4085 9.13402 13.5881 9.13402 13.7755C9.13402 13.9629 9.05999 14.1426 8.92823 14.275C8.79646 14.4075 8.61775 14.482 8.43141 14.482H7.7288C7.54246 14.482 7.36375 14.4075 7.23198 14.275C7.10022 14.1426 7.02619 13.9629 7.02619 13.7755C7.02619 13.5881 7.10022 13.4085 7.23198 13.276C7.36375 13.1435 7.54246 13.0691 7.7288 13.0691ZM11.9443 13.0691H11.2417C11.0554 13.0691 10.8767 13.1435 10.7449 13.276C10.6131 13.4085 10.5391 13.5881 10.5391 13.7755C10.5391 13.9629 10.6131 14.1426 10.7449 14.275C10.8767 14.4075 11.0554 14.482 11.2417 14.482H11.9443C12.1307 14.482 12.3094 14.4075 12.4412 14.275C12.5729 14.1426 12.6469 13.9629 12.6469 13.7755C12.6469 13.5881 12.5729 13.4085 12.4412 13.276C12.3094 13.1435 12.1307 13.0691 11.9443 13.0691Z" />
</svg>
