<svg width="26" height="26" viewBox="0 0 26 26" xmlns="http://www.w3.org/2000/svg">
   <g clip-path="url(#clip0_404_14863)">
      <path
         d="M23.2917 3.25H20.3125C20.2407 3.25 20.1718 3.22147 20.121 3.17067C20.0702 3.11988 20.0417 3.051 20.0417 2.97917V1.08333C20.0417 0.796016 19.9275 0.520465 19.7244 0.317301C19.5212 0.114137 19.2457 0 18.9583 0C18.671 0 18.3955 0.114137 18.1923 0.317301C17.9891 0.520465 17.875 0.796016 17.875 1.08333V6.22917C17.875 6.44466 17.7894 6.65132 17.637 6.80369C17.4847 6.95606 17.278 7.04167 17.0625 7.04167C16.847 7.04167 16.6404 6.95606 16.488 6.80369C16.3356 6.65132 16.25 6.44466 16.25 6.22917V3.79167C16.25 3.64801 16.1929 3.51023 16.0914 3.40865C15.9898 3.30707 15.852 3.25 15.7083 3.25H8.9375C8.86586 3.25 8.79714 3.22162 8.74638 3.17106C8.69562 3.1205 8.66696 3.05189 8.66667 2.98025V1.08333C8.66667 0.796016 8.55253 0.520465 8.34937 0.317301C8.14621 0.114137 7.87066 0 7.58334 0C7.29602 0 7.02047 0.114137 6.81731 0.317301C6.61414 0.520465 6.5 0.796016 6.5 1.08333V6.22917C6.5 6.44466 6.4144 6.65132 6.26203 6.80369C6.10966 6.95606 5.90299 7.04167 5.6875 7.04167C5.47202 7.04167 5.26535 6.95606 5.11298 6.80369C4.96061 6.65132 4.875 6.44466 4.875 6.22917V3.79167C4.875 3.64801 4.81794 3.51023 4.71635 3.40865C4.61477 3.30707 4.477 3.25 4.33334 3.25H2.70834C2.1337 3.25 1.5826 3.47827 1.17627 3.8846C0.769945 4.29093 0.541672 4.84203 0.541672 5.41667V23.8333C0.541672 24.408 0.769945 24.9591 1.17627 25.3654C1.5826 25.7717 2.1337 26 2.70834 26H23.2917C23.8663 26 24.4174 25.7717 24.8237 25.3654C25.2301 24.9591 25.4583 24.408 25.4583 23.8333V5.41667C25.4583 4.84203 25.2301 4.29093 24.8237 3.8846C24.4174 3.47827 23.8663 3.25 23.2917 3.25ZM23.2917 23.2917C23.2917 23.4353 23.2346 23.5731 23.133 23.6747C23.0314 23.7763 22.8937 23.8333 22.75 23.8333H3.25C3.10635 23.8333 2.96857 23.7763 2.86699 23.6747C2.76541 23.5731 2.70834 23.4353 2.70834 23.2917V10.2917C2.70834 10.148 2.76541 10.0102 2.86699 9.90865C2.96857 9.80707 3.10635 9.75 3.25 9.75H22.75C22.8937 9.75 23.0314 9.80707 23.133 9.90865C23.2346 10.0102 23.2917 10.148 23.2917 10.2917V23.2917Z" />
      <path
         d="M13.2167 15.9738H12.7833C12.5019 15.9914 12.2248 15.8973 12.0123 15.7119C11.7997 15.5265 11.6688 15.2648 11.648 14.9836C11.648 14.2448 12.2016 13.9934 12.7855 13.9934L14.7355 13.9988C14.951 13.9988 15.1576 13.9132 15.31 13.7609C15.4624 13.6085 15.548 13.4018 15.548 13.1863C15.548 12.9709 15.4624 12.7642 15.31 12.6118C15.1576 12.4594 14.951 12.3738 14.7355 12.3738H13.8125V11.739C13.8125 11.5235 13.7269 11.3169 13.5745 11.1645C13.4221 11.0121 13.2155 10.9265 13 10.9265C12.7845 10.9265 12.5778 11.0121 12.4255 11.1645C12.2731 11.3169 12.1875 11.5235 12.1875 11.739V12.4356C11.6892 12.5361 11.2278 12.7705 10.8528 13.1138C10.5931 13.352 10.3852 13.6411 10.242 13.9632C10.0989 14.2853 10.0236 14.6333 10.0208 14.9858C10.0421 15.6981 10.3447 16.373 10.8625 16.8628C11.3802 17.3525 12.0709 17.6171 12.7833 17.5988H13.2167C13.3588 17.5788 13.5036 17.5896 13.6412 17.6303C13.7788 17.6711 13.906 17.7409 14.0144 17.8351C14.1227 17.9293 14.2095 18.0456 14.269 18.1762C14.3286 18.3068 14.3594 18.4487 14.3594 18.5922C14.3594 18.7357 14.3286 18.8776 14.269 19.0082C14.2095 19.1388 14.1227 19.2551 14.0144 19.3493C13.906 19.4434 13.7788 19.5132 13.6412 19.554C13.5036 19.5948 13.3588 19.6056 13.2167 19.5856H11.2667C11.0512 19.5856 10.8445 19.6712 10.6921 19.8236C10.5398 19.9759 10.4542 20.1826 10.4542 20.3981C10.4542 20.6136 10.5398 20.8202 10.6921 20.9726C10.8445 21.125 11.0512 21.2106 11.2667 21.2106H12.1853V21.8443C12.1853 22.0598 12.2709 22.2665 12.4233 22.4189C12.5757 22.5712 12.7823 22.6568 12.9978 22.6568C13.2133 22.6568 13.42 22.5712 13.5724 22.4189C13.7247 22.2665 13.8103 22.0598 13.8103 21.8443V21.1423C14.4096 21.0299 14.952 20.7148 15.3465 20.2499C15.741 19.785 15.9636 19.1985 15.977 18.5889C15.9552 17.877 15.6527 17.2025 15.1357 16.7126C14.6186 16.2227 13.9288 15.9571 13.2167 15.9738Z" />
   </g>
   <defs>
      <clipPath id="clip0_404_14863">
         <rect width="26" height="26" fill="white" />
      </clipPath>
   </defs>
</svg>