<svg width="23" height="24" viewBox="0 0 23 24" xmlns="http://www.w3.org/2000/svg">
   <path fill-rule="evenodd" clip-rule="evenodd"
      d="M18.25 3H21C21.5304 3 22.0391 3.21071 22.4142 3.58579C22.7893 3.96086 23 4.46957 23 5V22C23 22.5304 22.7893 23.0391 22.4142 23.4142C22.0391 23.7893 21.5304 24 21 24H2C1.46957 24 0.960859 23.7893 0.585786 23.4142C0.210714 23.0391 0 22.5304 0 22V5C0 4.46957 0.210714 3.96086 0.585786 3.58579C0.960859 3.21071 1.46957 3 2 3H3.5C3.63261 3 3.75979 3.05268 3.85355 3.14645C3.94732 3.24021 4 3.36739 4 3.5V5.75C4 5.94891 4.07902 6.13968 4.21967 6.28033C4.36032 6.42098 4.55109 6.5 4.75 6.5C4.94891 6.5 5.13968 6.42098 5.28033 6.28033C5.42098 6.13968 5.5 5.94891 5.5 5.75V1C5.5 0.734784 5.60536 0.48043 5.79289 0.292893C5.98043 0.105357 6.23478 0 6.5 0C6.76522 0 7.01957 0.105357 7.20711 0.292893C7.39464 0.48043 7.5 0.734784 7.5 1V2.751C7.50026 2.81713 7.52672 2.88046 7.57358 2.92713C7.62043 2.9738 7.68387 3 7.75 3H14C14.1326 3 14.2598 3.05268 14.3536 3.14645C14.4473 3.24021 14.5 3.36739 14.5 3.5V5.75C14.5 5.94891 14.579 6.13968 14.7197 6.28033C14.8603 6.42098 15.0511 6.5 15.25 6.5C15.4489 6.5 15.6397 6.42098 15.7803 6.28033C15.921 6.13968 16 5.94891 16 5.75V1C16 0.734784 16.1054 0.48043 16.2929 0.292893C16.4804 0.105357 16.7348 0 17 0C17.2652 0 17.5196 0.105357 17.7071 0.292893C17.8946 0.48043 18 0.734784 18 1V2.75C18 2.8163 18.0263 2.87989 18.0732 2.92678C18.1201 2.97366 18.1837 3 18.25 3ZM20.8536 21.8536C20.9473 21.7598 21 21.6326 21 21.5V9.5C21 9.36739 20.9473 9.24021 20.8536 9.14645C20.7598 9.05268 20.6326 9 20.5 9H2.5C2.36739 9 2.24021 9.05268 2.14645 9.14645C2.05268 9.24021 2 9.36739 2 9.5V21.5C2 21.6326 2.05268 21.7598 2.14645 21.8536C2.24021 21.9473 2.36739 22 2.5 22H20.5C20.6326 22 20.7598 21.9473 20.8536 21.8536ZM8.72214 11.3426C9.54438 10.7932 10.5111 10.5 11.5 10.5C12.8261 10.5 14.0978 11.0268 15.0355 11.9644C15.9732 12.9021 16.5 14.1739 16.5 15.5C16.5 16.4889 16.2067 17.4556 15.6573 18.2778C15.1079 19.1001 14.327 19.7409 13.4134 20.1194C12.4998 20.4978 11.4944 20.5968 10.5245 20.4039C9.55463 20.211 8.66372 19.7348 7.96445 19.0355C7.26519 18.3363 6.78899 17.4453 6.59606 16.4754C6.40313 15.5055 6.50215 14.5002 6.88059 13.5866C7.25903 12.6729 7.89989 11.892 8.72214 11.3426ZM11.908 17.729L14.329 14.5H14.328C14.4473 14.3409 14.4986 14.1408 14.4704 13.9439C14.4423 13.747 14.3371 13.5693 14.178 13.45C14.0189 13.3306 13.8188 13.2794 13.6219 13.3075C13.425 13.3357 13.2473 13.4409 13.128 13.6L10.794 16.71L9.64499 15.56C9.57584 15.4883 9.4931 15.4311 9.40162 15.3918C9.31013 15.3524 9.21173 15.3317 9.11215 15.3308C9.01256 15.3299 8.91379 15.3488 8.8216 15.3865C8.72942 15.4241 8.64565 15.4798 8.5752 15.5502C8.50475 15.6206 8.44902 15.7043 8.41126 15.7964C8.37351 15.8886 8.35449 15.9873 8.3553 16.0869C8.35612 16.1865 8.37676 16.2849 8.41603 16.3765C8.45529 16.468 8.51239 16.5508 8.58399 16.62L9.83299 17.874C9.97224 18.0137 10.1399 18.1219 10.3246 18.1911C10.5094 18.2604 10.7068 18.2891 10.9036 18.2754C11.1004 18.2616 11.2919 18.2057 11.4652 18.1114C11.6385 18.0172 11.7895 17.8867 11.908 17.729Z" />
</svg>