<svg xmlns="http://www.w3.org/2000/svg" width="16" height="15" viewBox="0 0 16 15">
    <g fill="none" fill-rule="evenodd">
        <g fill="#FACB34" fill-rule="nonzero">
            <g>
                <g>
                    <g>
                        <g>
                            <path d="M15.284 12.561L9.104.761C8.878.324 8.426.05 7.935.05c-.492 0-.943.274-1.171.71l-6.18 11.8c-.215.41-.2.902.04 1.298.24.396.668.638 1.13.638h12.36c.462 0 .892-.242 1.131-.638.24-.396.255-.888.04-1.298zM7.272 4.907c0-.365.296-.66.661-.66.365 0 .661.295.661.66v3.967c0 .365-.296.661-.66.661-.366 0-.662-.296-.662-.66V4.906zm.694 7.61h-.018c-.542-.002-.986-.43-1.006-.972-.01-.262.086-.516.266-.707.18-.19.43-.3.691-.305h.018c.542.001.987.43 1.008.97.01.263-.086.518-.266.709-.18.19-.43.3-.693.305z" transform="translate(-434 -215) translate(220 100) translate(214 114) translate(.283 1.096)"/>
                        </g>
                    </g>
                </g>
            </g>
        </g>
    </g>
</svg>
