<svg width="20" height="20" viewBox="0 0 20 20" xmlns="http://www.w3.org/2000/svg">
   <g clip-path="url(#clip0_1221_368)">
      <path
         d="M20 8.74992C20 8.30789 19.8244 7.88397 19.5118 7.57141C19.1993 7.25885 18.7754 7.08325 18.3333 7.08325H17.5V6.24992C17.5 5.80789 17.3244 5.38397 17.0118 5.07141C16.6993 4.75885 16.2754 4.58325 15.8333 4.58325H12.2917C12.2364 4.58325 12.1834 4.6052 12.1444 4.64427C12.1053 4.68334 12.0833 4.73633 12.0833 4.79159V6.04159C12.0833 6.09684 12.1053 6.14983 12.1444 6.1889C12.1834 6.22797 12.2364 6.24992 12.2917 6.24992H15.4167C15.5272 6.24992 15.6332 6.29382 15.7113 6.37196C15.7894 6.4501 15.8333 6.55608 15.8333 6.66658V7.91658C15.8333 8.1376 15.9211 8.34956 16.0774 8.50584C16.2337 8.66212 16.4457 8.74992 16.6667 8.74992H18.3333V11.2499H16.6667C16.4457 11.2499 16.2337 11.3377 16.0774 11.494C15.9211 11.6503 15.8333 11.8622 15.8333 12.0833V13.3333C15.8333 13.4438 15.7894 13.5497 15.7113 13.6279C15.6332 13.706 15.5272 13.7499 15.4167 13.7499H11.82C11.7888 13.75 11.758 13.757 11.7298 13.7706C11.7017 13.7841 11.677 13.8039 11.6575 13.8283L10.6575 15.0783C10.6328 15.1092 10.6174 15.1465 10.6132 15.1858C10.6089 15.2251 10.6159 15.2649 10.6334 15.3003C10.6509 15.3358 10.6781 15.3656 10.7119 15.3862C10.7457 15.4068 10.7846 15.4173 10.8242 15.4166H15.8333C16.2754 15.4166 16.6993 15.241 17.0118 14.9284C17.3244 14.6159 17.5 14.1919 17.5 13.7499V12.9166H18.3333C18.7754 12.9166 19.1993 12.741 19.5118 12.4284C19.8244 12.1159 20 11.6919 20 11.2499V8.74992Z" />
      <path
         d="M2.08333 13.75C1.97283 13.75 1.86685 13.7061 1.78871 13.6279C1.71057 13.5498 1.66667 13.4438 1.66667 13.3333V6.66662C1.66667 6.55611 1.71057 6.45013 1.78871 6.37199C1.86685 6.29385 1.97283 6.24995 2.08333 6.24995H6.51333C6.54459 6.25009 6.57547 6.24311 6.60362 6.22954C6.63178 6.21597 6.65647 6.19616 6.67583 6.17162L7.67583 4.92162C7.70053 4.89071 7.71591 4.85341 7.72018 4.81408C7.72445 4.77475 7.71744 4.73501 7.69995 4.69952C7.68247 4.66403 7.65524 4.63425 7.62146 4.61367C7.58767 4.59309 7.54872 4.58255 7.50917 4.58329H1.66667C1.22464 4.58329 0.800716 4.75888 0.488155 5.07144C0.175595 5.384 0 5.80793 0 6.24995L0 13.75C0 14.192 0.175595 14.6159 0.488155 14.9285C0.800716 15.241 1.22464 15.4166 1.66667 15.4166H6.04167C6.09692 15.4166 6.14991 15.3947 6.18898 15.3556C6.22805 15.3165 6.25 15.2635 6.25 15.2083V13.9583C6.25 13.903 6.22805 13.85 6.18898 13.811C6.14991 13.7719 6.09692 13.75 6.04167 13.75H2.08333Z" />
      <path
         d="M13.16 9.95089C13.2502 9.84482 13.3082 9.71513 13.3271 9.57715C13.346 9.43917 13.3249 9.29867 13.2664 9.17227C13.208 9.04588 13.1145 8.93887 12.9972 8.8639C12.8798 8.78893 12.7434 8.74913 12.6042 8.74922H11.0417C10.9864 8.74922 10.9334 8.72727 10.8944 8.6882C10.8553 8.64913 10.8333 8.59614 10.8333 8.54089V4.16672C10.8334 4.08029 10.8066 3.99598 10.7566 3.92547C10.7066 3.85496 10.6359 3.80173 10.5544 3.77317C10.4728 3.7446 10.3844 3.74211 10.3013 3.76604C10.2183 3.78997 10.1447 3.83914 10.0908 3.90672L5.17417 10.0484C5.08397 10.1544 5.02601 10.284 5.00711 10.4219C4.98822 10.5598 5.0092 10.7003 5.06756 10.8266C5.12592 10.953 5.21924 11.06 5.33647 11.135C5.45371 11.2101 5.58998 11.25 5.72917 11.2501H7.29167C7.34692 11.2501 7.39992 11.272 7.43899 11.3111C7.47806 11.3501 7.5 11.4031 7.5 11.4584V15.8334C7.49994 15.9197 7.52669 16.0039 7.57655 16.0744C7.62641 16.1448 7.69692 16.1981 7.77834 16.2267C7.85998 16.2547 7.94822 16.257 8.03121 16.2333C8.11419 16.2096 8.18793 16.1611 8.2425 16.0942L13.16 9.95089Z" />
   </g>
   <defs>
      <clipPath id="clip0_1221_368">
         <rect width="20" height="20" />
      </clipPath>
   </defs>
</svg>