<svg width="10" height="9" viewBox="0 0 10 9" xmlns="http://www.w3.org/2000/svg">
<path d="M9.63377 0.175293C9.53915 0.105236 9.43173 0.0545932 9.31762 0.0262596C9.20352 -0.00207401 9.08497 -0.00754336 8.96876 0.010164C8.85256 0.0278714 8.74096 0.0684083 8.64035 0.129458C8.53975 0.190509 8.4521 0.270876 8.38243 0.365966L4.13919 6.15091L1.44097 3.98227C1.25493 3.83912 1.02046 3.77487 0.787824 3.80331C0.555186 3.83174 0.342897 3.9506 0.196463 4.1344C0.0500293 4.3182 -0.018895 4.55232 0.00446539 4.78656C0.0278257 5.0208 0.141611 5.23653 0.321431 5.3875L3.74739 8.14038C3.84206 8.21476 3.95054 8.26945 4.06649 8.30125C4.18244 8.33305 4.30353 8.34132 4.4227 8.32558C4.54186 8.30983 4.65671 8.2704 4.76053 8.20957C4.86436 8.14874 4.95507 8.06774 5.02738 7.97129L9.82645 1.43301C9.89606 1.33774 9.94629 1.22962 9.97429 1.11484C10.0023 1.00005 10.0075 0.880847 9.98958 0.764042C9.97169 0.647236 9.93105 0.535119 9.87 0.434098C9.80895 0.333077 9.72867 0.245132 9.63377 0.175293Z"/>
</svg>
