<svg width="16" height="16" viewBox="0 0 16 16" xmlns="http://www.w3.org/2000/svg">
   <path
      d="M8 0C6.41775 0 4.87103 0.469192 3.55544 1.34824C2.23985 2.22729 1.21447 3.47672 0.608967 4.93853C0.0034663 6.40034 -0.15496 8.00887 0.153721 9.56072C0.462403 11.1126 1.22433 12.538 2.34315 13.6569C3.46197 14.7757 4.88743 15.5376 6.43928 15.8463C7.99113 16.155 9.59966 15.9965 11.0615 15.391C12.5233 14.7855 13.7727 13.7602 14.6518 12.4446C15.5308 11.129 16 9.58225 16 8C16 5.87827 15.1571 3.84344 13.6569 2.34315C12.1566 0.842855 10.1217 0 8 0V0ZM6.36364 11.8196C6.22035 11.82 6.07843 11.7919 5.94609 11.737C5.81376 11.682 5.69364 11.6014 5.59273 11.4996L3.41091 9.31782C3.30373 9.21795 3.21776 9.09751 3.15814 8.96369C3.09851 8.82987 3.06645 8.68542 3.06387 8.53894C3.06128 8.39246 3.08823 8.24697 3.1431 8.11113C3.19796 7.97529 3.27963 7.8519 3.38322 7.74831C3.48681 7.64472 3.6102 7.56305 3.74604 7.50818C3.88188 7.45332 4.02738 7.42637 4.17385 7.42896C4.32033 7.43154 4.46479 7.4636 4.5986 7.52323C4.73242 7.58285 4.85286 7.66882 4.95273 7.776L6.36364 9.18545L11.0545 4.50909C11.2613 4.31639 11.5349 4.21149 11.8175 4.21647C12.1001 4.22146 12.3698 4.33595 12.5696 4.53582C12.7695 4.7357 12.884 5.00535 12.889 5.28797C12.894 5.57059 12.7891 5.84411 12.5964 6.05091L7.14182 11.5055C7.03956 11.607 6.91805 11.6871 6.78442 11.741C6.65079 11.795 6.50773 11.8217 6.36364 11.8196Z" />
</svg>