<svg viewBox="0 0 18 19" xmlns="http://www.w3.org/2000/svg">
<path fill-rule="evenodd" clip-rule="evenodd" d="M14.2826 2.34783H16.4348C16.8499 2.34783 17.248 2.51273 17.5416 2.80627C17.8351 3.0998 18 3.49792 18 3.91304V17.2174C18 17.6325 17.8351 18.0306 17.5416 18.3242C17.248 18.6177 16.8499 18.7826 16.4348 18.7826H1.56522C1.1501 18.7826 0.751977 18.6177 0.458442 18.3242C0.164906 18.0306 0 17.6325 0 17.2174V3.91304C0 3.49792 0.164906 3.0998 0.458442 2.80627C0.751977 2.51273 1.1501 2.34783 1.56522 2.34783H2.73913C2.84291 2.34783 2.94244 2.38905 3.01582 2.46244C3.08921 2.53582 3.13043 2.63535 3.13043 2.73913V4.5C3.13043 4.65567 3.19227 4.80497 3.30235 4.91504C3.41243 5.02512 3.56172 5.08696 3.71739 5.08696C3.87306 5.08696 4.02236 5.02512 4.13243 4.91504C4.24251 4.80497 4.30435 4.65567 4.30435 4.5V0.782609C4.30435 0.575048 4.3868 0.375988 4.53357 0.229221C4.68034 0.0824532 4.8794 0 5.08696 0C5.29452 0 5.49358 0.0824532 5.64034 0.229221C5.78711 0.375988 5.86957 0.575048 5.86957 0.782609V2.15296C5.86977 2.20471 5.89048 2.25428 5.92715 2.2908C5.96382 2.32732 6.01346 2.34783 6.06522 2.34783H10.9565C11.0603 2.34783 11.1598 2.38905 11.2332 2.46244C11.3066 2.53582 11.3478 2.63535 11.3478 2.73913V4.5C11.3478 4.65567 11.4097 4.80497 11.5197 4.91504C11.6298 5.02512 11.7791 5.08696 11.9348 5.08696C12.0905 5.08696 12.2397 5.02512 12.3498 4.91504C12.4599 4.80497 12.5217 4.65567 12.5217 4.5V0.782609C12.5217 0.575048 12.6042 0.375988 12.751 0.229221C12.8977 0.0824532 13.0968 0 13.3043 0C13.5119 0 13.711 0.0824532 13.8577 0.229221C14.0045 0.375988 14.087 0.575048 14.087 0.782609V2.15217C14.087 2.20406 14.1076 2.25383 14.1443 2.29052C14.181 2.32721 14.2307 2.34783 14.2826 2.34783ZM16.3202 17.1028C16.3936 17.0294 16.4348 16.9299 16.4348 16.8261V7.43478C16.4348 7.331 16.3936 7.23147 16.3202 7.15809C16.2468 7.0847 16.1473 7.04348 16.0435 7.04348H1.95652C1.85274 7.04348 1.75321 7.0847 1.67983 7.15809C1.60644 7.23147 1.56522 7.331 1.56522 7.43478V16.8261C1.56522 16.9299 1.60644 17.0294 1.67983 17.1028C1.75321 17.1762 1.85274 17.2174 1.95652 17.2174H16.0435C16.1473 17.2174 16.2468 17.1762 16.3202 17.1028ZM6.82603 8.87686C7.46953 8.44689 8.22608 8.21739 9 8.21739C10.0378 8.21739 11.0331 8.62966 11.7669 9.36349C12.5008 10.0973 12.913 11.0926 12.913 12.1304C12.913 12.9044 12.6835 13.6609 12.2536 14.3044C11.8236 14.9479 11.2125 15.4494 10.4975 15.7456C9.78244 16.0418 8.99566 16.1193 8.2366 15.9683C7.47755 15.8173 6.78031 15.4446 6.23306 14.8974C5.68581 14.3501 5.31313 13.6529 5.16215 12.8938C5.01116 12.1348 5.08865 11.348 5.38482 10.633C5.68099 9.91796 6.18253 9.30683 6.82603 8.87686ZM9.31931 13.8749L11.214 11.3478H11.2132C11.3066 11.2233 11.3467 11.0667 11.3247 10.9126C11.3027 10.7585 11.2204 10.6195 11.0958 10.5261C10.9713 10.4327 10.8148 10.3926 10.6606 10.4146C10.5065 10.4366 10.3675 10.5189 10.2741 10.6435L8.44748 13.0774L7.54826 12.1774C7.49414 12.1213 7.4294 12.0766 7.3578 12.0458C7.2862 12.015 7.20919 11.9987 7.13126 11.998C7.05332 11.9973 6.97603 12.0121 6.90388 12.0416C6.83173 12.0711 6.76617 12.1146 6.71104 12.1697C6.6559 12.2248 6.61229 12.2903 6.58274 12.3624C6.55319 12.4346 6.53831 12.5118 6.53895 12.5898C6.53959 12.6677 6.55574 12.7447 6.58647 12.8164C6.6172 12.888 6.66188 12.9528 6.71791 13.007L7.69539 13.9883C7.80437 14.0977 7.93559 14.1824 8.08016 14.2366C8.22472 14.2908 8.37925 14.3132 8.53327 14.3025C8.68728 14.2917 8.83718 14.248 8.9728 14.1742C9.10843 14.1004 9.2266 13.9983 9.31931 13.8749Z" />
</svg>
