<svg viewBox="0 0 18 18" xmlns="http://www.w3.org/2000/svg">
<path fill-rule="evenodd" clip-rule="evenodd" d="M17.341 0.65901C17.7629 1.08097 18 1.65326 18 2.25V8.25C18 8.44891 17.921 8.63968 17.7803 8.78033C17.6397 8.92098 17.4489 9 17.25 9C17.0511 9 16.8603 8.92098 16.7197 8.78033C16.579 8.63968 16.5 8.44891 16.5 8.25V2.25C16.5 2.05109 16.421 1.86032 16.2803 1.71967C16.1397 1.57902 15.9489 1.5 15.75 1.5V4.875C15.75 4.97446 15.7105 5.06984 15.6402 5.14016C15.5698 5.21049 15.4745 5.25 15.375 5.25H12.75C12.6505 5.25 12.5552 5.21049 12.4848 5.14016C12.4145 5.06984 12.375 4.97446 12.375 4.875V0.375C12.375 0.275544 12.4145 0.180161 12.4848 0.109835C12.5552 0.0395088 12.6505 0 12.75 0H15.75C16.3467 0 16.919 0.237053 17.341 0.65901ZM5.56203 5.44057C5.71034 5.42399 5.85917 5.46685 5.97594 5.55978C6.09243 5.65312 6.1671 5.78888 6.18355 5.93725C6.20001 6.08561 6.1569 6.23444 6.06369 6.35103L4.56369 8.22603C4.51328 8.28634 4.45102 8.33565 4.38076 8.3709C4.31051 8.40615 4.23376 8.42659 4.15528 8.43095C4.0768 8.43531 3.99826 8.4235 3.92453 8.39625C3.85081 8.369 3.78347 8.32689 3.72669 8.27253L2.60169 7.14753C2.49617 7.04201 2.43688 6.89889 2.43688 6.74966C2.43688 6.60042 2.49617 6.4573 2.60169 6.35178C2.70721 6.24626 2.85033 6.18698 2.99956 6.18698C3.1488 6.18698 3.29192 6.24626 3.39744 6.35178L4.07769 7.03203L5.18469 5.64828C5.27804 5.53185 5.41372 5.45716 5.56203 5.44057ZM4.07769 11.157L5.18469 9.77324C5.23083 9.71553 5.28789 9.66746 5.35261 9.6318C5.41733 9.59613 5.48843 9.57357 5.56187 9.56538C5.63531 9.5572 5.70965 9.56356 5.78063 9.58411C5.85161 9.60465 5.91785 9.63897 5.97556 9.68512C6.03328 9.73126 6.08134 9.78832 6.117 9.85304C6.15267 9.91775 6.17524 9.98886 6.18342 10.0623C6.1916 10.1357 6.18524 10.2101 6.1647 10.2811C6.14415 10.352 6.10983 10.4183 6.06369 10.476L4.56369 12.351C4.51328 12.4113 4.45102 12.4606 4.38076 12.4959C4.31051 12.5311 4.23376 12.5516 4.15528 12.5559C4.0768 12.5603 3.99826 12.5485 3.92453 12.5212C3.85081 12.494 3.78347 12.4518 3.72669 12.3975L2.60169 11.2725C2.54944 11.2202 2.50799 11.1582 2.47971 11.0899C2.45144 11.0217 2.43688 10.9485 2.43688 10.8746C2.43688 10.8007 2.45144 10.7276 2.47971 10.6593C2.50799 10.591 2.54944 10.529 2.60169 10.4767C2.65394 10.4245 2.71597 10.383 2.78424 10.3548C2.8525 10.3265 2.92567 10.3119 2.99956 10.3119C3.07346 10.3119 3.14662 10.3265 3.21489 10.3548C3.28316 10.383 3.34519 10.4245 3.39744 10.4767L4.07769 11.157ZM15.375 6.00004H12.75C12.6505 6.00004 12.5552 6.03955 12.4848 6.10987C12.4145 6.1802 12.375 6.27558 12.375 6.37504V13.5C12.375 13.7984 12.4935 14.0846 12.7045 14.2955C12.9155 14.5065 13.2016 14.625 13.5 14.625H14.625C14.9234 14.625 15.2095 14.5065 15.4205 14.2955C15.6315 14.0846 15.75 13.7984 15.75 13.5V6.37504C15.75 6.27558 15.7105 6.1802 15.6402 6.10987C15.5698 6.03955 15.4745 6.00004 15.375 6.00004ZM11.25 2.25004C11.25 2.05113 11.171 1.86036 11.0303 1.71971C10.8897 1.57906 10.6989 1.50004 10.5 1.50004H0.75C0.551088 1.50004 0.360322 1.57906 0.21967 1.71971C0.0790176 1.86036 0 2.05113 0 2.25004V15.75C0 15.9489 0.0790176 16.1397 0.21967 16.2804C0.360322 16.421 0.551088 16.5 0.75 16.5H10.5C10.6989 16.5 10.8897 16.421 11.0303 16.2804C11.171 16.1397 11.25 15.9489 11.25 15.75C11.25 15.5511 11.171 15.3604 11.0303 15.2197C10.8897 15.0791 10.6989 15 10.5 15H1.5V3.00004H10.5C10.6989 3.00004 10.8897 2.92102 11.0303 2.78037C11.171 2.63972 11.25 2.44895 11.25 2.25004ZM7.50008 6.93677H9.37508C9.52426 6.93677 9.66733 6.99603 9.77282 7.10152C9.87831 7.20701 9.93758 7.35008 9.93758 7.49927C9.93758 7.64845 9.87831 7.79153 9.77282 7.89702C9.66733 8.0025 9.52426 8.06177 9.37508 8.06177H7.50008C7.35089 8.06177 7.20782 8.0025 7.10233 7.89702C6.99684 7.79153 6.93758 7.64845 6.93758 7.49927C6.93758 7.35008 6.99684 7.20701 7.10233 7.10152C7.20782 6.99603 7.35089 6.93677 7.50008 6.93677ZM9.37508 11.0617H7.50008C7.35089 11.0617 7.20782 11.121 7.10233 11.2265C6.99684 11.332 6.93758 11.475 6.93758 11.6242C6.93758 11.7734 6.99684 11.9165 7.10233 12.022C7.20782 12.1275 7.35089 12.1867 7.50008 12.1867H9.37508C9.52426 12.1867 9.66733 12.1275 9.77282 12.022C9.87831 11.9165 9.93758 11.7734 9.93758 11.6242C9.93758 11.475 9.87831 11.332 9.77282 11.2265C9.66733 11.121 9.52426 11.0617 9.37508 11.0617ZM13.5314 15.5946C13.6721 15.454 13.8628 15.375 14.0617 15.375C14.2606 15.375 14.4514 15.454 14.5921 15.5946C14.7327 15.7353 14.8117 15.926 14.8117 16.125V17.25C14.8117 17.4489 14.7327 17.6396 14.5921 17.7803C14.4514 17.9209 14.2606 18 14.0617 18C13.8628 18 13.6721 17.9209 13.5314 17.7803C13.3907 17.6396 13.3117 17.4489 13.3117 17.25V16.125C13.3117 15.926 13.3907 15.7353 13.5314 15.5946Z" />
</svg>
