<?xml version="1.0" encoding="UTF-8"?>
<svg width="38px" height="47px" viewBox="0 0 38 47" version="1.1" xmlns="http://www.w3.org/2000/svg" xmlns:xlink="http://www.w3.org/1999/xlink">
    <!-- Generator: Sketch 54.1 (76490) - https://sketchapp.com -->
    <title>task-checklist-2</title>
    <desc>Created with Sketch.</desc>
    <g id="Page-1" stroke="none" stroke-width="1" fill="none" fill-rule="evenodd">
        <g id="task-checklist-2" fill-rule="nonzero">
            <path d="M27.55,17.9444444 L10.45,17.9444444 C9.66299423,17.9444444 9.025,18.5824387 9.025,19.3694444 C9.025,20.1564502 9.66299423,20.7944444 10.45,20.7944444 L27.55,20.7944444 C28.3370058,20.7944444 28.975,20.1564502 28.975,19.3694444 C28.975,18.5824387 28.3370058,17.9444444 27.55,17.9444444 Z" id="Path" fill="#929FA9"></path>
            <path d="M28.975,26.0175444 C28.975,25.2305387 28.3370058,24.5925444 27.55,24.5925444 L10.45,24.5925444 C9.66299423,24.5925444 9.025,25.2305387 9.025,26.0175444 C9.025,26.8045502 9.66299423,27.4425444 10.45,27.4425444 L27.55,27.4425444 C28.3370058,27.4425444 28.975,26.8045502 28.975,26.0175444 L28.975,26.0175444 Z" id="Path" fill="#929FA9"></path>
            <path d="M15.2,13.1944444 L22.8,13.1944444 C23.849341,13.1944444 24.7,12.3437855 24.7,11.2944444 L24.7,6.54444444 C24.6968282,4.76215936 23.8620975,3.08345443 22.4429134,2.00527699 C21.0237292,0.927099553 19.1826904,0.572978533 17.4648,1.04774444 C14.9577883,1.77883605 13.2513198,4.09876131 13.3,6.70974444 L13.3,11.2944444 C13.3,12.3437855 14.150659,13.1944444 15.2,13.1944444 Z M17.575,6.06944444 C17.575,5.28243868 18.2129942,4.64444444 19,4.64444444 C19.7870058,4.64444444 20.425,5.28243868 20.425,6.06944444 C20.425,6.85645021 19.7870058,7.49444444 19,7.49444444 C18.6217371,7.49444478 18.2589945,7.3440505 17.9917005,7.07640008 C17.7244065,6.80874966 17.5744956,6.44580703 17.575,6.06754444 L17.575,6.06944444 Z" id="Shape" fill="#929FA9"></path>
            <path d="M33.25,6.54444444 L28.025,6.54444444 C27.7626647,6.54444444 27.55,6.75710919 27.55,7.01944444 L27.55,9.86944444 C27.55,10.1317797 27.7626647,10.3444444 28.025,10.3444444 L32.3,10.3444444 C32.8246705,10.3444444 33.25,10.7697739 33.25,11.2944444 L33.25,35.5992444 C33.2504503,35.8513723 33.1506565,36.0933381 32.9726,36.2718444 L26.8774,42.3651444 C26.6993595,42.5427355 26.4581697,42.642491 26.2067,42.6425444 L5.7,42.6425444 C5.17532949,42.6425444 4.75,42.217215 4.75,41.6925444 L4.75,11.2944444 C4.75,10.7697739 5.17532949,10.3444444 5.7,10.3444444 L9.975,10.3444444 C10.2373353,10.3444444 10.45,10.1317797 10.45,9.86944444 L10.45,7.01944444 C10.45,6.75710919 10.2373353,6.54444444 9.975,6.54444444 L4.75,6.54444444 C2.65131795,6.54444444 0.95,8.2457624 0.95,10.3444444 L0.95,42.6444444 C0.95,44.7431265 2.65131795,46.4444444 4.75,46.4444444 L33.25,46.4444444 C35.348682,46.4444444 37.05,44.7431265 37.05,42.6444444 L37.05,10.3444444 C37.05,8.2457624 35.348682,6.54444444 33.25,6.54444444 Z" id="Path" fill="#929FA9"></path>
            <path d="M10.45,31.2444444 C9.66299423,31.2444444 9.025,31.8824387 9.025,32.6694444 C9.025,33.4564502 9.66299423,34.0944444 10.45,34.0944444 L17.575,34.0944444 C18.3620058,34.0944444 19,33.4564502 19,32.6694444 C19,31.8824387 18.3620058,31.2444444 17.575,31.2444444 L10.45,31.2444444 Z" id="Path" fill="#929FA9"></path>
        </g>
    </g>
</svg>