<svg width="24" height="24" viewBox="0 0 24 24" xmlns="http://www.w3.org/2000/svg">
<g clip-path="url(#clip0_508_9757)">
<path d="M20.5 1.9998H15.5C15.4578 1.99962 15.4163 1.98835 15.3798 1.96712C15.3433 1.94588 15.313 1.91542 15.292 1.8788C14.9535 1.30644 14.4717 0.832172 13.8941 0.502718C13.3165 0.173264 12.663 0 11.998 0C11.333 0 10.6795 0.173264 10.1019 0.502718C9.52432 0.832172 9.04251 1.30644 8.704 1.8788C8.68332 1.91484 8.65366 1.94493 8.61792 1.96613C8.58217 1.98733 8.54155 1.99893 8.5 1.9998H3.5C3.10218 1.9998 2.72064 2.15783 2.43934 2.43914C2.15804 2.72044 2 3.10197 2 3.4998V22.4998C2 22.8976 2.15804 23.2792 2.43934 23.5605C2.72064 23.8418 3.10218 23.9998 3.5 23.9998H20.5C20.8978 23.9998 21.2794 23.8418 21.5607 23.5605C21.842 23.2792 22 22.8976 22 22.4998V3.4998C22 3.10197 21.842 2.72044 21.5607 2.43914C21.2794 2.15783 20.8978 1.9998 20.5 1.9998ZM19 16.2598C19.0003 16.856 18.7875 17.4327 18.4 17.8858L16.481 20.1258C16.2461 20.3998 15.9546 20.6198 15.6267 20.7705C15.2987 20.9212 14.9419 20.9991 14.581 20.9988H5.5C5.36739 20.9988 5.24021 20.9461 5.14645 20.8524C5.05268 20.7586 5 20.6314 5 20.4988V5.4998C5 5.36719 5.05268 5.24001 5.14645 5.14624C5.24021 5.05248 5.36739 4.9998 5.5 4.9998H18.5C18.6326 4.9998 18.7598 5.05248 18.8536 5.14624C18.9473 5.24001 19 5.36719 19 5.4998V16.2598Z" />
<path d="M16 8.24902H8C7.80109 8.24902 7.61032 8.32804 7.46967 8.46869C7.32902 8.60935 7.25 8.80011 7.25 8.99902C7.25 9.19794 7.32902 9.3887 7.46967 9.52935C7.61032 9.67001 7.80109 9.74902 8 9.74902H16C16.1989 9.74902 16.3897 9.67001 16.5303 9.52935C16.671 9.3887 16.75 9.19794 16.75 8.99902C16.75 8.80011 16.671 8.60935 16.5303 8.46869C16.3897 8.32804 16.1989 8.24902 16 8.24902Z" />
<path d="M16 11.749H8C7.80109 11.749 7.61032 11.828 7.46967 11.9687C7.32902 12.1093 7.25 12.3001 7.25 12.499C7.25 12.6979 7.32902 12.8887 7.46967 13.0294C7.61032 13.17 7.80109 13.249 8 13.249H16C16.1989 13.249 16.3897 13.17 16.5303 13.0294C16.671 12.8887 16.75 12.6979 16.75 12.499C16.75 12.3001 16.671 12.1093 16.5303 11.9687C16.3897 11.828 16.1989 11.749 16 11.749Z" />
<path d="M12.5 15.249H8C7.80109 15.249 7.61032 15.328 7.46967 15.4687C7.32902 15.6093 7.25 15.8001 7.25 15.999C7.25 16.1979 7.32902 16.3887 7.46967 16.5294C7.61032 16.67 7.80109 16.749 8 16.749H12.5C12.6989 16.749 12.8897 16.67 13.0303 16.5294C13.171 16.3887 13.25 16.1979 13.25 15.999C13.25 15.8001 13.171 15.6093 13.0303 15.4687C12.8897 15.328 12.6989 15.249 12.5 15.249Z" />
</g>
<defs>
<clipPath id="clip0_508_9757">
<rect width="24" height="24" />
</clipPath>
</defs>
</svg>
