<svg viewBox="0 0 17 19" xmlns="http://www.w3.org/2000/svg">
<path d="M14.6354 3.16667V1.58333C14.6354 1.16341 14.4686 0.76068 14.1717 0.463748C13.8747 0.166815 13.472 0 13.0521 0L3.15625 0C2.52636 0 1.92227 0.250222 1.47687 0.695621C1.03147 1.14102 0.78125 1.74511 0.78125 2.375V16.625C0.78125 17.2549 1.03147 17.859 1.47687 18.3044C1.92227 18.7498 2.52636 19 3.15625 19H14.6354C15.0553 19 15.4581 18.8332 15.755 18.5363C16.0519 18.2393 16.2188 17.8366 16.2188 17.4167V4.75C16.2188 4.33007 16.0519 3.92735 15.755 3.63041C15.4581 3.33348 15.0553 3.16667 14.6354 3.16667ZM10.3311 12.6944L10.6834 12.3421C10.7761 12.2493 10.8862 12.1757 11.0074 12.1255C11.1285 12.0753 11.2584 12.0494 11.3896 12.0494C11.5207 12.0494 11.6506 12.0753 11.7718 12.1255C11.893 12.1757 12.003 12.2493 12.0957 12.3421L13.155 13.4013C13.2478 13.494 13.3214 13.6041 13.3716 13.7253C13.4218 13.8465 13.4477 13.9763 13.4477 14.1075C13.4477 14.2387 13.4218 14.3685 13.3716 14.4897C13.3214 14.6109 13.2478 14.721 13.155 14.8137L12.5747 15.394C12.3304 15.6379 12.0094 15.7899 11.6659 15.8244C11.3225 15.8589 10.9776 15.7737 10.6897 15.5832C8.11466 13.8738 5.90748 11.6666 4.19808 9.0915C4.00587 8.80404 3.91928 8.45884 3.95306 8.11469C3.98684 7.77055 4.1389 7.44877 4.38333 7.20417L4.96442 6.62229C5.15213 6.4352 5.40635 6.33015 5.67138 6.33015C5.9364 6.33015 6.19062 6.4352 6.37833 6.62229L7.43917 7.6855C7.53211 7.77804 7.60586 7.88802 7.65619 8.00914C7.70651 8.13025 7.73242 8.26012 7.73242 8.39127C7.73242 8.52243 7.70651 8.65229 7.65619 8.77341C7.60586 8.89452 7.53211 9.00451 7.43917 9.09704L7.08608 9.45013C8.06037 10.6339 9.14713 11.7204 10.3311 12.6944ZM3.15625 1.58333H12.8542C12.9067 1.58333 12.957 1.60419 12.9941 1.6413C13.0312 1.67842 13.0521 1.72876 13.0521 1.78125V2.96875C13.0521 3.02124 13.0312 3.07158 12.9941 3.1087C12.957 3.14581 12.9067 3.16667 12.8542 3.16667H3.15625C2.94629 3.16667 2.74492 3.08326 2.59646 2.93479C2.44799 2.78633 2.36458 2.58496 2.36458 2.375C2.36458 2.16504 2.44799 1.96367 2.59646 1.81521C2.74492 1.66674 2.94629 1.58333 3.15625 1.58333Z"  />
</svg>
