<svg width="24" height="24" viewBox="0 0 24 24" xmlns="http://www.w3.org/2000/svg">
   <g clip-path="url(#clip0_508_9739)">
      <path
         d="M14.5 6.5C16.1569 6.5 17.5 5.15685 17.5 3.5C17.5 1.84315 16.1569 0.5 14.5 0.5C12.8431 0.5 11.5 1.84315 11.5 3.5C11.5 5.15685 12.8431 6.5 14.5 6.5Z" />
      <path
         d="M11.9331 11.2612C11.9485 11.2972 11.9721 11.3291 12.0021 11.3543C12.0321 11.3795 12.0676 11.3973 12.1058 11.4063C12.1439 11.4152 12.1837 11.4151 12.2218 11.4059C12.2598 11.3967 12.2952 11.3786 12.3251 11.3532C13.766 10.1173 15.6017 9.43804 17.5001 9.4382C17.5667 9.4382 17.6334 9.4382 17.7001 9.4382C17.7493 9.44085 17.7983 9.42884 17.8408 9.40369C17.8833 9.37854 17.9174 9.34138 17.9388 9.29689C17.9601 9.2524 17.9679 9.20257 17.961 9.15369C17.9541 9.1048 17.9329 9.05905 17.9001 9.0222C17.4559 8.52243 16.9071 8.12664 16.2926 7.86299C15.6781 7.59933 15.0132 7.47427 14.3449 7.4967C13.6766 7.51914 13.0215 7.68851 12.4261 7.99279C11.8308 8.29706 11.3097 8.72877 10.9001 9.2572C10.8656 9.30199 10.8474 9.3571 10.8483 9.41358C10.8492 9.47005 10.8692 9.52455 10.9051 9.5682C11.3261 10.0811 11.6722 10.6511 11.9331 11.2612Z" />
      <path
         d="M9.5 17.4382C9.49851 15.8658 9.96345 14.3283 10.836 13.0202C10.8547 12.9923 10.8676 12.9609 10.8738 12.9279C10.88 12.8949 10.8794 12.861 10.872 12.8282C10.5813 11.5044 9.81209 10.3346 8.7119 9.54311C7.6117 8.75163 6.25801 8.39425 4.91051 8.53951C3.56301 8.68477 2.31659 9.32245 1.41035 10.3302C0.504116 11.338 0.00188352 12.6449 0 14.0002L0 17.5002C0 17.6328 0.0526784 17.76 0.146447 17.8537C0.240215 17.9475 0.367392 18.0002 0.5 18.0002H2.31C2.37265 18.0002 2.433 18.0238 2.47912 18.0662C2.52523 18.1086 2.55374 18.1668 2.559 18.2292L3 23.5422C3.01055 23.6674 3.06786 23.784 3.1605 23.8689C3.25315 23.9538 3.37436 24.0006 3.5 24.0002H7.5C7.62564 24.0006 7.74685 23.9538 7.8395 23.8689C7.93214 23.784 7.98945 23.6674 8 23.5422L8.443 18.2292C8.44823 18.1671 8.47646 18.1092 8.52215 18.0668C8.56784 18.0245 8.6277 18.0007 8.69 18.0002H9.261C9.29514 18.0003 9.32893 17.9933 9.36024 17.9797C9.39156 17.9661 9.41973 17.9462 9.443 17.9212C9.46642 17.8965 9.48447 17.8672 9.49601 17.8352C9.50754 17.8032 9.5123 17.7691 9.51 17.7352C9.505 17.6362 9.5 17.5372 9.5 17.4382Z" />
      <path d="M5.5 7C7.433 7 9 5.433 9 3.5C9 1.567 7.433 0 5.5 0C3.567 0 2 1.567 2 3.5C2 5.433 3.567 7 5.5 7Z" />
      <path
         d="M17.5 11C16.2144 11 14.9577 11.3812 13.8888 12.0954C12.8199 12.8097 11.9868 13.8248 11.4948 15.0126C11.0028 16.2003 10.8741 17.5072 11.1249 18.7681C11.3757 20.029 11.9948 21.1872 12.9038 22.0962C13.8128 23.0052 14.971 23.6243 16.2319 23.8751C17.4928 24.1259 18.7997 23.9972 19.9874 23.5052C21.1752 23.0132 22.1903 22.1801 22.9046 21.1112C23.6188 20.0423 24 18.7856 24 17.5C23.9979 15.7767 23.3124 14.1247 22.0939 12.9061C20.8753 11.6876 19.2233 11.0021 17.5 11ZM19.75 21C19.75 21.1989 19.671 21.3897 19.5303 21.5303C19.3897 21.671 19.1989 21.75 19 21.75H16C15.8011 21.75 15.6103 21.671 15.4697 21.5303C15.329 21.3897 15.25 21.1989 15.25 21C15.25 20.8011 15.329 20.6103 15.4697 20.4697C15.6103 20.329 15.8011 20.25 16 20.25H16.5C16.5663 20.25 16.6299 20.2237 16.6768 20.1768C16.7237 20.1299 16.75 20.0663 16.75 20V18C16.7501 17.9671 16.7438 17.9346 16.7312 17.9042C16.7187 17.8738 16.7003 17.8462 16.6771 17.8229C16.6538 17.7997 16.6262 17.7813 16.5958 17.7688C16.5654 17.7562 16.5329 17.7499 16.5 17.75H16C15.8011 17.75 15.6103 17.671 15.4697 17.5303C15.329 17.3897 15.25 17.1989 15.25 17C15.25 16.8011 15.329 16.6103 15.4697 16.4697C15.6103 16.329 15.8011 16.25 16 16.25H17C17.3315 16.25 17.6495 16.3817 17.8839 16.6161C18.1183 16.8505 18.25 17.1685 18.25 17.5V20C18.25 20.0663 18.2763 20.1299 18.3232 20.1768C18.3701 20.2237 18.4337 20.25 18.5 20.25H19C19.1989 20.25 19.3897 20.329 19.5303 20.4697C19.671 20.6103 19.75 20.8011 19.75 21ZM18 14.25C18 14.4478 17.9414 14.6411 17.8315 14.8056C17.7216 14.97 17.5654 15.0982 17.3827 15.1739C17.2 15.2496 16.9989 15.2694 16.8049 15.2308C16.6109 15.1922 16.4327 15.097 16.2929 14.9571C16.153 14.8173 16.0578 14.6391 16.0192 14.4451C15.9806 14.2511 16.0004 14.05 16.0761 13.8673C16.1518 13.6846 16.28 13.5284 16.4444 13.4185C16.6089 13.3086 16.8022 13.25 17 13.25C17.2652 13.25 17.5196 13.3554 17.7071 13.5429C17.8946 13.7304 18 13.9848 18 14.25Z" />
      <path
         d="M14.5 6.5C16.1569 6.5 17.5 5.15685 17.5 3.5C17.5 1.84315 16.1569 0.5 14.5 0.5C12.8431 0.5 11.5 1.84315 11.5 3.5C11.5 5.15685 12.8431 6.5 14.5 6.5Z" />
      <path
         d="M11.9331 11.2612C11.9485 11.2972 11.9721 11.3291 12.0021 11.3543C12.0321 11.3795 12.0676 11.3973 12.1058 11.4063C12.1439 11.4152 12.1837 11.4151 12.2218 11.4059C12.2598 11.3967 12.2952 11.3786 12.3251 11.3532C13.766 10.1173 15.6017 9.43804 17.5001 9.4382C17.5667 9.4382 17.6334 9.4382 17.7001 9.4382C17.7493 9.44085 17.7983 9.42884 17.8408 9.40369C17.8833 9.37854 17.9174 9.34138 17.9388 9.29689C17.9601 9.2524 17.9679 9.20257 17.961 9.15369C17.9541 9.1048 17.9329 9.05905 17.9001 9.0222C17.4559 8.52243 16.9071 8.12664 16.2926 7.86299C15.6781 7.59933 15.0132 7.47427 14.3449 7.4967C13.6766 7.51914 13.0215 7.68851 12.4261 7.99279C11.8308 8.29706 11.3097 8.72877 10.9001 9.2572C10.8656 9.30199 10.8474 9.3571 10.8483 9.41358C10.8492 9.47005 10.8692 9.52455 10.9051 9.5682C11.3261 10.0811 11.6722 10.6511 11.9331 11.2612Z" />
      <path
         d="M9.5 17.4382C9.49851 15.8658 9.96345 14.3283 10.836 13.0202C10.8547 12.9923 10.8676 12.9609 10.8738 12.9279C10.88 12.8949 10.8794 12.861 10.872 12.8282C10.5813 11.5044 9.81209 10.3346 8.7119 9.54311C7.6117 8.75163 6.25801 8.39425 4.91051 8.53951C3.56301 8.68477 2.31659 9.32245 1.41035 10.3302C0.504116 11.338 0.00188352 12.6449 0 14.0002L0 17.5002C0 17.6328 0.0526784 17.76 0.146447 17.8537C0.240215 17.9475 0.367392 18.0002 0.5 18.0002H2.31C2.37265 18.0002 2.433 18.0238 2.47912 18.0662C2.52523 18.1086 2.55374 18.1668 2.559 18.2292L3 23.5422C3.01055 23.6674 3.06786 23.784 3.1605 23.8689C3.25315 23.9538 3.37436 24.0006 3.5 24.0002H7.5C7.62564 24.0006 7.74685 23.9538 7.8395 23.8689C7.93214 23.784 7.98945 23.6674 8 23.5422L8.443 18.2292C8.44823 18.1671 8.47646 18.1092 8.52215 18.0668C8.56784 18.0245 8.6277 18.0007 8.69 18.0002H9.261C9.29514 18.0003 9.32893 17.9933 9.36024 17.9797C9.39156 17.9661 9.41973 17.9462 9.443 17.9212C9.46642 17.8965 9.48447 17.8672 9.49601 17.8352C9.50754 17.8032 9.5123 17.7691 9.51 17.7352C9.505 17.6362 9.5 17.5372 9.5 17.4382Z" />
      <path d="M5.5 7C7.433 7 9 5.433 9 3.5C9 1.567 7.433 0 5.5 0C3.567 0 2 1.567 2 3.5C2 5.433 3.567 7 5.5 7Z" />
      <path
         d="M17.5 11C16.2144 11 14.9577 11.3812 13.8888 12.0954C12.8199 12.8097 11.9868 13.8248 11.4948 15.0126C11.0028 16.2003 10.8741 17.5072 11.1249 18.7681C11.3757 20.029 11.9948 21.1872 12.9038 22.0962C13.8128 23.0052 14.971 23.6243 16.2319 23.8751C17.4928 24.1259 18.7997 23.9972 19.9874 23.5052C21.1752 23.0132 22.1903 22.1801 22.9046 21.1112C23.6188 20.0423 24 18.7856 24 17.5C23.9979 15.7767 23.3124 14.1247 22.0939 12.9061C20.8753 11.6876 19.2233 11.0021 17.5 11ZM19.75 21C19.75 21.1989 19.671 21.3897 19.5303 21.5303C19.3897 21.671 19.1989 21.75 19 21.75H16C15.8011 21.75 15.6103 21.671 15.4697 21.5303C15.329 21.3897 15.25 21.1989 15.25 21C15.25 20.8011 15.329 20.6103 15.4697 20.4697C15.6103 20.329 15.8011 20.25 16 20.25H16.5C16.5663 20.25 16.6299 20.2237 16.6768 20.1768C16.7237 20.1299 16.75 20.0663 16.75 20V18C16.7501 17.9671 16.7438 17.9346 16.7312 17.9042C16.7187 17.8738 16.7003 17.8462 16.6771 17.8229C16.6538 17.7997 16.6262 17.7813 16.5958 17.7688C16.5654 17.7562 16.5329 17.7499 16.5 17.75H16C15.8011 17.75 15.6103 17.671 15.4697 17.5303C15.329 17.3897 15.25 17.1989 15.25 17C15.25 16.8011 15.329 16.6103 15.4697 16.4697C15.6103 16.329 15.8011 16.25 16 16.25H17C17.3315 16.25 17.6495 16.3817 17.8839 16.6161C18.1183 16.8505 18.25 17.1685 18.25 17.5V20C18.25 20.0663 18.2763 20.1299 18.3232 20.1768C18.3701 20.2237 18.4337 20.25 18.5 20.25H19C19.1989 20.25 19.3897 20.329 19.5303 20.4697C19.671 20.6103 19.75 20.8011 19.75 21ZM18 14.25C18 14.4478 17.9414 14.6411 17.8315 14.8056C17.7216 14.97 17.5654 15.0982 17.3827 15.1739C17.2 15.2496 16.9989 15.2694 16.8049 15.2308C16.6109 15.1922 16.4327 15.097 16.2929 14.9571C16.153 14.8173 16.0578 14.6391 16.0192 14.4451C15.9806 14.2511 16.0004 14.05 16.0761 13.8673C16.1518 13.6846 16.28 13.5284 16.4444 13.4185C16.6089 13.3086 16.8022 13.25 17 13.25C17.2652 13.25 17.5196 13.3554 17.7071 13.5429C17.8946 13.7304 18 13.9848 18 14.25Z" />
   </g>
   <defs>
      <clipPath id="clip0_508_9739">
         <rect width="24" height="24" />
      </clipPath>
   </defs>
</svg>