<svg viewBox="0 0 27 28" xmlns="http://www.w3.org/2000/svg">
<path d="M13.4995 18.2812C17.1571 18.2891 20.7338 19.3587 23.7952 21.3603C23.9159 21.4415 24.0633 21.4728 24.2066 21.4476C24.3499 21.4225 24.4778 21.3428 24.5636 21.2253C26.1791 18.924 27.0311 16.1734 26.9991 13.3618C26.9339 9.91083 25.5613 6.6133 23.1587 4.1353C20.7561 1.65729 17.5025 0.183528 14.0552 0.0117252C11.5419 -0.0931073 9.04941 0.506709 6.85897 1.74346C4.66854 2.98022 2.86745 4.80466 1.659 7.01083C0.450563 9.21701 -0.117104 11.7171 0.020086 14.2288C0.157276 16.7405 0.99386 19.1639 2.4354 21.2253C2.52117 21.3428 2.64911 21.4225 2.79237 21.4476C2.93564 21.4728 3.08308 21.4415 3.20376 21.3603C6.26521 19.3588 9.84186 18.2892 13.4995 18.2812ZM12.6558 3.93787C12.6558 3.7141 12.7447 3.4995 12.9029 3.34127C13.0611 3.18304 13.2757 3.09414 13.4995 3.09414C13.7233 3.09414 13.9379 3.18304 14.0961 3.34127C14.2543 3.4995 14.3432 3.7141 14.3432 3.93787V5.62533C14.3432 5.8491 14.2543 6.0637 14.0961 6.22193C13.9379 6.38016 13.7233 6.46906 13.4995 6.46906C13.2757 6.46906 13.0611 6.38016 12.9029 6.22193C12.7447 6.0637 12.6558 5.8491 12.6558 5.62533V3.93787ZM5.62469 14.3439H3.93724C3.71347 14.3439 3.49886 14.255 3.34063 14.0967C3.1824 13.9385 3.09351 13.7239 3.09351 13.5001C3.09351 13.2764 3.1824 13.0617 3.34063 12.9035C3.49886 12.7453 3.71347 12.6564 3.93724 12.6564H5.62469C5.84846 12.6564 6.06307 12.7453 6.2213 12.9035C6.37953 13.0617 6.46842 13.2764 6.46842 13.5001C6.46842 13.7239 6.37953 13.9385 6.2213 14.0967C6.06307 14.255 5.84846 14.3439 5.62469 14.3439ZM8.52712 8.52775C8.44893 8.60626 8.35602 8.66855 8.2537 8.71105C8.15138 8.75356 8.04168 8.77544 7.93088 8.77544C7.82009 8.77544 7.71038 8.75356 7.60806 8.71105C7.50575 8.66855 7.41283 8.60626 7.33465 8.52775L6.14105 7.33528C5.98743 7.17608 5.90249 6.96291 5.90452 6.74169C5.90654 6.52047 5.99538 6.30889 6.15189 6.15253C6.30839 5.99617 6.52005 5.90754 6.74128 5.90572C6.9625 5.9039 7.17559 5.98905 7.33465 6.14282L8.52712 7.33416C8.60552 7.41251 8.66772 7.50555 8.71015 7.60795C8.75259 7.71035 8.77443 7.82011 8.77443 7.93096C8.77443 8.0418 8.75259 8.15156 8.71015 8.25396C8.66772 8.35636 8.60552 8.4494 8.52712 8.52775ZM13.4084 16.2518C12.8776 16.2579 12.3571 16.1052 11.9138 15.8132C11.4704 15.5212 11.1245 15.1034 10.9205 14.6133C10.7165 14.1233 10.6636 13.5834 10.7688 13.0631C10.8739 12.5428 11.1322 12.0658 11.5105 11.6934C12.361 10.8441 19.4326 6.48481 20.2358 5.98982C20.3436 5.92339 20.4706 5.89526 20.5963 5.90997C20.7221 5.92469 20.8392 5.98139 20.9287 6.07091C21.0182 6.16043 21.0749 6.27752 21.0896 6.40326C21.1044 6.529 21.0762 6.65603 21.0098 6.7638C20.5148 7.56703 16.1555 14.6386 15.3051 15.4879C14.7991 15.9839 14.1168 16.2586 13.4084 16.2518ZM21.3743 14.3439C21.1505 14.3439 20.9359 14.255 20.7777 14.0967C20.6194 13.9385 20.5306 13.7239 20.5306 13.5001C20.5306 13.2764 20.6194 13.0617 20.7777 12.9035C20.9359 12.7453 21.1505 12.6564 21.3743 12.6564H23.0617C23.2855 12.6564 23.5001 12.7453 23.6583 12.9035C23.8166 13.0617 23.9055 13.2764 23.9055 13.5001C23.9055 13.7239 23.8166 13.9385 23.6583 14.0967C23.5001 14.255 23.2855 14.3439 23.0617 14.3439H21.3743Z" />
<path d="M13.4996 19.9688C10.3043 19.9615 7.17205 20.8585 4.46499 22.5562C4.3924 22.603 4.33136 22.6656 4.28646 22.7394C4.24156 22.8132 4.21395 22.8962 4.20573 22.9821C4.1975 23.0681 4.20886 23.1548 4.23895 23.2357C4.26905 23.3167 4.3171 23.3897 4.37949 23.4495C6.86601 25.7367 10.1212 27.0061 13.4996 27.0061C16.8781 27.0061 20.1332 25.7367 22.6198 23.4495C22.6821 23.3899 22.7302 23.3169 22.7603 23.236C22.7904 23.1552 22.8017 23.0685 22.7935 22.9827C22.7853 22.8968 22.7577 22.8139 22.7128 22.7402C22.6679 22.6665 22.6068 22.604 22.5343 22.5574C19.8274 20.859 16.6951 19.9615 13.4996 19.9688Z" />
</svg>
