<svg viewBox="0 0 18 18" xmlns="http://www.w3.org/2000/svg">
<path fill-rule="evenodd" clip-rule="evenodd" d="M2.175 0.690751C6.67839 -0.23025 11.3216 -0.23025 15.825 0.690751C16.4268 0.823674 16.9673 1.15316 17.3611 1.62724C17.7549 2.10132 17.9797 2.69302 18 3.309V4.809C18 5.05523 17.9515 5.29905 17.8573 5.52653C17.763 5.75402 17.6249 5.96072 17.4508 6.13483C17.2767 6.30894 17.07 6.44705 16.8425 6.54128C16.615 6.6355 16.3712 6.684 16.125 6.684H13.875C13.3777 6.684 12.9008 6.48646 12.5492 6.13483C12.1975 5.7832 12 5.30628 12 4.809V4.2C12 4.15234 11.9821 4.10641 11.9499 4.07128C11.9177 4.03616 11.8735 4.01438 11.826 4.01025C9.94526 3.8535 8.05474 3.8535 6.174 4.01025C6.12652 4.01438 6.08231 4.03616 6.0501 4.07128C6.01788 4.10641 6.00001 4.15234 6 4.2V4.80825C6 5.30553 5.80246 5.78245 5.45083 6.13408C5.09919 6.48571 4.62228 6.68325 4.125 6.68325H1.875C1.37772 6.68325 0.900805 6.48571 0.549175 6.13408C0.197544 5.78245 0 5.30553 0 4.80825V3.30825C0.0204726 2.6924 0.24534 2.10088 0.63915 1.62695C1.03296 1.15302 1.57331 0.823642 2.175 0.690751ZM6.1875 9.18823C6.1875 9.91311 5.59987 10.5007 4.875 10.5007C4.15013 10.5007 3.5625 9.91311 3.5625 9.18823C3.5625 8.46336 4.15013 7.87573 4.875 7.87573C5.59987 7.87573 6.1875 8.46336 6.1875 9.18823ZM4.875 14.2507C5.59987 14.2507 6.1875 13.6631 6.1875 12.9382C6.1875 12.2134 5.59987 11.6257 4.875 11.6257C4.15013 11.6257 3.5625 12.2134 3.5625 12.9382C3.5625 13.6631 4.15013 14.2507 4.875 14.2507ZM6.1875 16.6875C6.1875 17.4124 5.59987 18 4.875 18C4.15013 18 3.5625 17.4124 3.5625 16.6875C3.5625 15.9626 4.15013 15.375 4.875 15.375C5.59987 15.375 6.1875 15.9626 6.1875 16.6875ZM9 10.5007C9.72487 10.5007 10.3125 9.91311 10.3125 9.18823C10.3125 8.46336 9.72487 7.87573 9 7.87573C8.27513 7.87573 7.6875 8.46336 7.6875 9.18823C7.6875 9.91311 8.27513 10.5007 9 10.5007ZM10.3125 12.9382C10.3125 13.6631 9.72487 14.2507 9 14.2507C8.27513 14.2507 7.6875 13.6631 7.6875 12.9382C7.6875 12.2134 8.27513 11.6257 9 11.6257C9.72487 11.6257 10.3125 12.2134 10.3125 12.9382ZM9 18C9.72487 18 10.3125 17.4124 10.3125 16.6875C10.3125 15.9626 9.72487 15.375 9 15.375C8.27513 15.375 7.6875 15.9626 7.6875 16.6875C7.6875 17.4124 8.27513 18 9 18ZM14.4375 9.18823C14.4375 9.91311 13.8499 10.5007 13.125 10.5007C12.4001 10.5007 11.8125 9.91311 11.8125 9.18823C11.8125 8.46336 12.4001 7.87573 13.125 7.87573C13.8499 7.87573 14.4375 8.46336 14.4375 9.18823ZM13.125 14.2507C13.8499 14.2507 14.4375 13.6631 14.4375 12.9382C14.4375 12.2134 13.8499 11.6257 13.125 11.6257C12.4001 11.6257 11.8125 12.2134 11.8125 12.9382C11.8125 13.6631 12.4001 14.2507 13.125 14.2507ZM14.4375 16.6875C14.4375 17.4124 13.8499 18 13.125 18C12.4001 18 11.8125 17.4124 11.8125 16.6875C11.8125 15.9626 12.4001 15.375 13.125 15.375C13.8499 15.375 14.4375 15.9626 14.4375 16.6875Z" />
</svg>
