<svg width="16" height="16" viewBox="0 0 16 16" fill="none" xmlns="http://www.w3.org/2000/svg">
<path d="M15.7875 6.15642C15.4561 4.70666 14.7223 3.37986 13.6704 2.32851C12.6186 1.27716 11.2915 0.543936 9.84157 0.213125C8.51453 -0.0993396 7.12968 -0.06777 5.81826 0.304842C4.50684 0.677455 3.31229 1.37877 2.3478 2.34232C1.38332 3.30587 0.680849 4.49974 0.306966 5.8108C-0.0669161 7.12186 -0.0998284 8.50668 0.21135 9.83402C0.611473 11.592 1.60019 13.1605 3.01368 14.2796C4.42717 15.3988 6.1806 16.0015 7.98346 15.9878C9.19114 15.9903 10.3837 15.7193 11.4717 15.1953C12.5598 14.6712 13.515 13.9075 14.2659 12.9616C15.0167 12.0158 15.5437 10.9121 15.8072 9.73355C16.0707 8.55498 16.064 7.33203 15.7875 6.15642ZM3.18566 10.3055C2.71198 9.30877 2.55843 8.18981 2.7461 7.10228C2.93377 6.01475 3.45346 5.01197 4.23383 4.23161C5.01419 3.45124 6.01697 2.93155 7.1045 2.74388C8.19203 2.55621 9.31099 2.70975 10.3078 3.18344C10.3552 3.20667 10.3964 3.24084 10.428 3.28313C10.4596 3.32541 10.4806 3.3746 10.4895 3.42664C10.4983 3.47868 10.4947 3.53208 10.4788 3.58243C10.463 3.63278 10.4354 3.67864 10.3983 3.71623L3.72112 10.3934C3.68359 10.4309 3.6377 10.4588 3.58723 10.475C3.53677 10.4912 3.48318 10.4952 3.43088 10.4866C3.37857 10.478 3.32906 10.4571 3.28643 10.4257C3.24379 10.3942 3.20926 10.353 3.18566 10.3055ZM11.7689 11.7707C10.9884 12.5507 9.98565 13.0702 8.89824 13.2579C7.81082 13.4456 6.69197 13.2922 5.69511 12.819C5.64793 12.7955 5.60696 12.7613 5.57554 12.719C5.54412 12.6767 5.52314 12.6276 5.51431 12.5756C5.50548 12.5237 5.50905 12.4704 5.52473 12.4201C5.54041 12.3698 5.56776 12.3239 5.60454 12.2862L12.2818 5.61031C12.3193 5.57325 12.3652 5.54566 12.4156 5.52981C12.4659 5.51396 12.5193 5.51031 12.5713 5.51916C12.6234 5.528 12.6726 5.54909 12.7149 5.58069C12.7571 5.61229 12.7913 5.65348 12.8145 5.70088C13.2879 6.69619 13.4415 7.81362 13.2543 8.89972C13.067 9.98582 12.5482 10.9873 11.7689 11.7667V11.7707Z" fill="#A1ADB6"/>
</svg>
