<svg width="18" height="18" viewBox="0 0 18 18" xmlns="http://www.w3.org/2000/svg">
<g clip-path="url(#clip0_508_9159)">
<path d="M9.5625 3.75H5.0625C4.91332 3.75 4.77024 3.80926 4.66475 3.91475C4.55926 4.02024 4.5 4.16332 4.5 4.3125C4.5 4.46168 4.55926 4.60476 4.66475 4.71025C4.77024 4.81574 4.91332 4.875 5.0625 4.875H9.5625C9.71168 4.875 9.85476 4.81574 9.96025 4.71025C10.0657 4.60476 10.125 4.46168 10.125 4.3125C10.125 4.16332 10.0657 4.02024 9.96025 3.91475C9.85476 3.80926 9.71168 3.75 9.5625 3.75Z" />
<path d="M10.125 6.9375C10.125 6.78832 10.0657 6.64524 9.96025 6.53975C9.85476 6.43426 9.71168 6.375 9.5625 6.375H3.5625C3.41332 6.375 3.27024 6.43426 3.16475 6.53975C3.05926 6.64524 3 6.78832 3 6.9375C3 7.08668 3.05926 7.22976 3.16475 7.33525C3.27024 7.44074 3.41332 7.5 3.5625 7.5H9.5625C9.71168 7.5 9.85476 7.44074 9.96025 7.33525C10.0657 7.22976 10.125 7.08668 10.125 6.9375Z" />
<path d="M3.5625 9C3.41332 9 3.27024 9.05926 3.16475 9.16475C3.05926 9.27024 3 9.41332 3 9.5625C3 9.71168 3.05926 9.85476 3.16475 9.96025C3.27024 10.0657 3.41332 10.125 3.5625 10.125H7.6875C7.83669 10.125 7.97976 10.0657 8.08525 9.96025C8.19074 9.85476 8.25 9.71168 8.25 9.5625C8.25 9.41332 8.19074 9.27024 8.08525 9.16475C7.97976 9.05926 7.83669 9 7.6875 9H3.5625Z" />
<path d="M8.475 13.2413C8.46072 13.207 8.43668 13.1777 8.40587 13.1571C8.37506 13.1364 8.33885 13.1252 8.30175 13.125H1.875C1.77554 13.125 1.68016 13.0855 1.60984 13.0152C1.53951 12.9448 1.5 12.8495 1.5 12.75V1.875C1.5 1.77554 1.53951 1.68016 1.60984 1.60984C1.68016 1.53951 1.77554 1.5 1.875 1.5H11.625C11.7245 1.5 11.8198 1.53951 11.8902 1.60984C11.9605 1.68016 12 1.77554 12 1.875V9.4275C12.0001 9.46457 12.0111 9.50078 12.0318 9.53156C12.0525 9.56234 12.0818 9.58631 12.116 9.60044C12.1503 9.61456 12.188 9.61821 12.2244 9.61093C12.2607 9.60364 12.2941 9.58574 12.3202 9.5595L13.2803 8.5995C13.4209 8.45888 13.5 8.26815 13.5 8.06925V1.5C13.5 1.10218 13.342 0.720644 13.0607 0.43934C12.7794 0.158035 12.3978 0 12 0L1.5 0C1.10218 0 0.720644 0.158035 0.43934 0.43934C0.158035 0.720644 0 1.10218 0 1.5L0 13.125C0 13.5228 0.158035 13.9044 0.43934 14.1857C0.720644 14.467 1.10218 14.625 1.5 14.625H7.401C7.48121 14.625 7.55932 14.5993 7.62385 14.5517C7.68837 14.504 7.73592 14.4369 7.7595 14.3602C7.83091 14.1272 7.95988 13.916 8.1345 13.746L8.4345 13.446C8.46078 13.4197 8.47866 13.3862 8.48587 13.3498C8.49308 13.3133 8.4893 13.2756 8.475 13.2413Z" />
<path d="M9.0465 15.0991C9.02239 15.0753 8.99231 15.0585 8.95944 15.0504C8.92657 15.0423 8.89212 15.0432 8.85972 15.053C8.82732 15.0629 8.79817 15.0812 8.77534 15.1062C8.75251 15.1312 8.73685 15.1619 8.73 15.1951L8.259 17.5508C8.24788 17.6053 8.24902 17.6616 8.26233 17.7156C8.27564 17.7696 8.3008 17.82 8.33598 17.863C8.37115 17.9061 8.41547 17.9408 8.46572 17.9647C8.51597 17.9885 8.57089 18.0009 8.6265 18.0008C8.6517 18.0011 8.67685 17.9985 8.7015 17.9933L11.0588 17.5216C11.092 17.5149 11.1228 17.4992 11.1479 17.4764C11.1729 17.4536 11.1913 17.4243 11.2011 17.3919C11.2109 17.3594 11.2117 17.3249 11.2034 17.292C11.1951 17.2591 11.178 17.2291 11.154 17.2051L9.0465 15.0991Z" />
<path d="M17.421 8.82357C17.0527 8.45627 16.5537 8.25 16.0335 8.25C15.5133 8.25 15.0144 8.45627 14.646 8.82357L9.771 13.6986C9.7007 13.7689 9.66121 13.8643 9.66121 13.9637C9.66121 14.0631 9.7007 14.1585 9.771 14.2288L12.021 16.4788C12.0913 16.5491 12.1867 16.5886 12.2861 16.5886C12.3856 16.5886 12.4809 16.5491 12.5513 16.4788L17.4263 11.6038C17.6085 11.4209 17.7529 11.2039 17.8513 10.9652C17.9496 10.7265 18 10.4708 17.9995 10.2126C17.999 9.95443 17.9477 9.69888 17.8484 9.46055C17.7492 9.22221 17.6039 9.00577 17.421 8.82357Z" />
</g>
<defs>
<clipPath id="clip0_508_9159">
<rect width="18" height="18" />
</clipPath>
</defs>
</svg>
