<svg width="24" height="24" viewBox="0 0 24 24" xmlns="http://www.w3.org/2000/svg">
<g clip-path="url(#clip0_508_9752)">
<path d="M12 8.5H19C19.2652 8.5 19.5196 8.39464 19.7071 8.20711C19.8946 8.01957 20 7.76522 20 7.5C20 7.23478 19.8946 6.98043 19.7071 6.79289C19.5196 6.60536 19.2652 6.5 19 6.5H12C11.7348 6.5 11.4804 6.60536 11.2929 6.79289C11.1054 6.98043 11 7.23478 11 7.5C11 7.76522 11.1054 8.01957 11.2929 8.20711C11.4804 8.39464 11.7348 8.5 12 8.5Z" />
<path d="M23.414 3L21 0.585C20.6249 0.210268 20.1163 -0.000151894 19.586 8.22671e-08H8.00001C7.46958 8.22671e-08 6.96087 0.210714 6.58579 0.585787C6.21072 0.960859 6.00001 1.46957 6.00001 2V9.275C5.99946 9.34009 6.02453 9.40279 6.06981 9.44956C6.11508 9.49633 6.17693 9.52343 6.24201 9.525C6.60801 9.531 7.28001 9.559 7.72701 9.608C7.76168 9.61183 7.79676 9.60825 7.82994 9.59748C7.86312 9.58672 7.89363 9.56903 7.91944 9.54557C7.94526 9.52212 7.9658 9.49345 7.97969 9.46145C7.99358 9.42946 8.0005 9.39488 8.00001 9.36V2.5C8.00001 2.36739 8.05269 2.24021 8.14645 2.14645C8.24022 2.05268 8.3674 2 8.50001 2H19.379C19.5114 2.00003 19.6383 2.05253 19.732 2.146L21.854 4.268C21.9475 4.36171 22 4.48865 22 4.621V18C22 18.1326 21.9473 18.2598 21.8536 18.3536C21.7598 18.4473 21.6326 18.5 21.5 18.5H14.642C14.5834 18.5004 14.5268 18.5217 14.4825 18.5603C14.4383 18.5988 14.4094 18.6519 14.401 18.71C14.3259 19.2064 14.2041 19.6946 14.037 20.168C14.0229 20.2049 14.018 20.2448 14.0227 20.284C14.0274 20.3233 14.0416 20.3608 14.064 20.3934C14.0865 20.426 14.1165 20.4526 14.1515 20.471C14.1865 20.4894 14.2255 20.499 14.265 20.499H22C22.5304 20.499 23.0392 20.2883 23.4142 19.9132C23.7893 19.5381 24 19.0294 24 18.499V4.415C24.0001 4.15221 23.9484 3.89198 23.8478 3.64919C23.7473 3.40639 23.5999 3.18579 23.414 3Z" />
<path d="M17.5 12C17.5 11.7348 17.3946 11.4804 17.2071 11.2929C17.0196 11.1054 16.7652 11 16.5 11H12.5C12.3658 11.0007 12.2333 11.0295 12.111 11.0846C11.9887 11.1397 11.8793 11.2199 11.79 11.32C11.7672 11.3492 11.7561 11.3858 11.7587 11.4227C11.7613 11.4596 11.7774 11.4943 11.804 11.52C12.267 11.931 12.6811 12.3941 13.038 12.9C13.0607 12.9316 13.0908 12.9573 13.1256 12.9747C13.1605 12.9921 13.199 13.0008 13.238 13H16.5C16.7652 13 17.0196 12.8946 17.2071 12.7071C17.3946 12.5196 17.5 12.2652 17.5 12Z" />
<path d="M6.5 11C5.21442 11 3.95772 11.3812 2.8888 12.0954C1.81988 12.8097 0.986756 13.8248 0.494786 15.0126C0.00281635 16.2003 -0.125905 17.5072 0.124899 18.7681C0.375703 20.029 0.994768 21.1872 1.90381 22.0962C2.81285 23.0052 3.97104 23.6243 5.23192 23.8751C6.49279 24.1259 7.79973 23.9972 8.98744 23.5052C10.1752 23.0132 11.1903 22.1801 11.9046 21.1112C12.6188 20.0423 13 18.7856 13 17.5C12.9979 15.7767 12.3124 14.1247 11.0939 12.9061C9.87533 11.6876 8.22326 11.0021 6.5 11ZM6 13.249C6.19778 13.249 6.39112 13.3076 6.55557 13.4175C6.72002 13.5274 6.8482 13.6836 6.92388 13.8663C6.99957 14.049 7.01937 14.2501 6.98079 14.4441C6.9422 14.6381 6.84696 14.8163 6.70711 14.9561C6.56726 15.096 6.38907 15.1912 6.19509 15.2298C6.00111 15.2684 5.80005 15.2486 5.61732 15.1729C5.43459 15.0972 5.27841 14.969 5.16853 14.8046C5.05865 14.6401 5 14.4468 5 14.249C5 13.9838 5.10536 13.7294 5.2929 13.5419C5.48043 13.3544 5.73479 13.249 6 13.249ZM8 21.749H5C4.80109 21.749 4.61032 21.67 4.46967 21.5293C4.32902 21.3887 4.25 21.1979 4.25 20.999C4.25 20.8001 4.32902 20.6093 4.46967 20.4687C4.61032 20.328 4.80109 20.249 5 20.249H5.627C5.65962 20.249 5.69091 20.236 5.71398 20.213C5.73704 20.1899 5.75 20.1586 5.75 20.126V17.875C5.75 17.8418 5.73683 17.8101 5.71339 17.7866C5.68995 17.7632 5.65815 17.75 5.625 17.75H5C4.80109 17.75 4.61032 17.671 4.46967 17.5303C4.32902 17.3897 4.25 17.1989 4.25 17C4.25 16.8011 4.32902 16.6103 4.46967 16.4697C4.61032 16.329 4.80109 16.25 5 16.25H6C6.33136 16.2505 6.649 16.3824 6.8833 16.6167C7.11761 16.851 7.24947 17.1686 7.25 17.5V20.123C7.25 20.1565 7.26325 20.1887 7.28685 20.2125C7.31045 20.2362 7.34249 20.2497 7.376 20.25H8C8.19892 20.25 8.38968 20.329 8.53033 20.4697C8.67099 20.6103 8.75 20.8011 8.75 21C8.75 21.1989 8.67099 21.3897 8.53033 21.5303C8.38968 21.671 8.19892 21.75 8 21.75V21.749Z" />
</g>
<defs>
<clipPath id="clip0_508_9752">
<rect width="24" height="24" />
</clipPath>
</defs>
</svg>
