<svg width="12" height="12" viewBox="0 0 12 12" xmlns="http://www.w3.org/2000/svg">
   <path
      d="M6 0C4.81331 0 3.65328 0.351894 2.66658 1.01118C1.67989 1.67047 0.910851 2.60754 0.456725 3.7039C0.00259971 4.80026 -0.11622 6.00666 0.115291 7.17054C0.346802 8.33443 0.918246 9.40352 1.75736 10.2426C2.59648 11.0818 3.66557 11.6532 4.82946 11.8847C5.99334 12.1162 7.19975 11.9974 8.2961 11.5433C9.39246 11.0891 10.3295 10.3201 10.9888 9.33342C11.6481 8.34672 12 7.18669 12 6C11.998 4.4093 11.3653 2.88431 10.2405 1.75952C9.11569 0.634723 7.5907 0.00195418 6 0ZM5.30769 9.69231C5.30769 9.6311 5.28338 9.5724 5.2401 9.52913C5.19683 9.48585 5.13813 9.46154 5.07692 9.46154H4.61539C4.43177 9.46154 4.25568 9.3886 4.12585 9.25877C3.99602 9.12893 3.92308 8.95284 3.92308 8.76923C3.92308 8.58562 3.99602 8.40953 4.12585 8.27969C4.25568 8.14986 4.43177 8.07692 4.61539 8.07692H6.492C6.61874 8.0766 6.74143 8.03224 6.83906 7.95142C6.9367 7.87061 7.0032 7.75837 7.0272 7.63392C7.05119 7.50947 7.03118 7.38055 6.9706 7.26923C6.91001 7.15791 6.81261 7.07111 6.69508 7.02369L4.79077 6.26215C4.40489 6.10918 4.07884 5.83549 3.8613 5.48196C3.64377 5.12842 3.54643 4.71401 3.58382 4.3006C3.6212 3.88719 3.7913 3.49696 4.06873 3.18818C4.34615 2.87941 4.71601 2.66865 5.12308 2.58738C5.17528 2.57691 5.22223 2.54863 5.2559 2.50738C5.28957 2.46613 5.30788 2.41448 5.30769 2.36123V2.07692C5.30769 1.89331 5.38063 1.71722 5.51047 1.58739C5.6403 1.45755 5.81639 1.38462 6 1.38462C6.18361 1.38462 6.3597 1.45755 6.48954 1.58739C6.61937 1.71722 6.69231 1.89331 6.69231 2.07692V2.30769C6.69231 2.3689 6.71662 2.42759 6.7599 2.47087C6.80318 2.51415 6.86187 2.53846 6.92308 2.53846H7.38462C7.56823 2.53846 7.74432 2.6114 7.87415 2.74123C8.00399 2.87107 8.07692 3.04716 8.07692 3.23077C8.07692 3.41438 8.00399 3.59047 7.87415 3.7203C7.74432 3.85014 7.56823 3.92308 7.38462 3.92308H5.508C5.38126 3.9234 5.25857 3.96776 5.16094 4.04858C5.06331 4.12939 4.9968 4.24163 4.9728 4.36608C4.94881 4.49052 4.96882 4.61944 5.02941 4.73076C5.08999 4.84209 5.18739 4.92889 5.30492 4.97631L7.20923 5.73784C7.59511 5.89082 7.92117 6.16451 8.1387 6.51804C8.35623 6.87157 8.45357 7.28599 8.41619 7.6994C8.3788 8.11281 8.2087 8.50304 7.93127 8.81182C7.65385 9.12059 7.28399 9.33135 6.87692 9.41261C6.82472 9.42309 6.77777 9.45137 6.7441 9.49262C6.71043 9.53386 6.69212 9.58552 6.69231 9.63877V9.92307C6.69231 10.1067 6.61937 10.2828 6.48954 10.4126C6.3597 10.5424 6.18361 10.6154 6 10.6154C5.81639 10.6154 5.6403 10.5424 5.51047 10.4126C5.38063 10.2828 5.30769 10.1067 5.30769 9.92307V9.69231Z" />
</svg>