<svg viewBox="0 0 17 18" xmlns="http://www.w3.org/2000/svg">
<path d="M9.49167 3.35142C9.48486 3.44075 9.54557 3.52119 9.63334 3.53913C9.99008 3.6282 10.2344 3.95668 10.217 4.32396V5.31563C10.217 5.80229 10.6115 6.1968 11.0982 6.1968C11.332 6.19699 11.5563 6.10423 11.7217 5.93896C11.8871 5.77369 11.98 5.54945 11.98 5.31563V2.81876C11.98 2.53735 11.868 2.26754 11.6686 2.06895C11.4692 1.87037 11.1989 1.75938 10.9175 1.76051H9.69638C9.64922 1.76029 9.60398 1.7792 9.571 1.81292C9.53775 1.84615 9.51913 1.89129 9.5193 1.9383C9.52071 2.27334 9.52 2.99513 9.49167 3.35142Z" />
<path d="M6.34242 15.0637C6.34242 14.577 5.94791 14.1825 5.46125 14.1825H2.46783C2.05056 14.1548 1.73403 13.7953 1.7595 13.3779V4.32394C1.74008 3.95076 1.99167 3.6176 2.35592 3.53415C2.44188 3.51672 2.50214 3.43899 2.49758 3.3514C2.46996 2.80882 2.46146 2.21807 2.45863 1.93473C2.45746 1.83776 2.37852 1.75977 2.28154 1.75977H1.0625C0.780976 1.75864 0.510606 1.86974 0.311205 2.06847C0.111803 2.26721 -0.000190465 2.53721 2.43161e-07 2.81873V14.8866C1.8022e-07 15.1672 0.111517 15.4363 0.309997 15.6347C0.508478 15.833 0.77765 15.9443 1.05825 15.9441H5.46125C5.94763 15.9441 6.34203 15.5501 6.34242 15.0637Z" />
<path d="M8.45539 3.17075V1.76259C8.45539 1.56699 8.29682 1.40842 8.10122 1.40842H7.5643C7.47414 1.40831 7.39834 1.34073 7.38793 1.25117C7.30766 0.538601 6.70498 0 5.98791 0C5.27083 0 4.66815 0.538601 4.58789 1.25117C4.57808 1.34104 4.50192 1.40895 4.41151 1.40842H3.87672C3.68112 1.40842 3.52255 1.56699 3.52255 1.76259V3.17075C3.52255 3.36636 3.68112 3.52492 3.87672 3.52492H8.10334C8.29811 3.52375 8.45539 3.36553 8.45539 3.17075Z" />
<path d="M13.4725 12.2354H10.6541C10.3607 12.2354 10.1228 12.4732 10.1228 12.7666C10.1228 13.06 10.3607 13.2979 10.6541 13.2979H13.4725C13.7659 13.2979 14.0038 13.06 14.0038 12.7666C14.0038 12.4732 13.7659 12.2354 13.4725 12.2354Z" />
<path d="M10.1228 10.3022C10.1232 10.5953 10.3609 10.8328 10.6541 10.8328H12.415C12.7084 10.8328 12.9462 10.5949 12.9462 10.3015C12.9462 10.0081 12.7084 9.77026 12.415 9.77026H10.6541C10.513 9.77026 10.3778 9.82633 10.2782 9.92611C10.1785 10.0259 10.1226 10.1612 10.1228 10.3022Z" />
<path fill-rule="evenodd" clip-rule="evenodd" d="M16.2322 8.53925C16.4971 8.80383 16.6459 9.16289 16.6458 9.53729V15.5865C16.6458 16.3689 16.0116 17.0031 15.2292 17.0031H8.85417C8.07176 17.0031 7.4375 16.3689 7.4375 15.5865V8.54208C7.43945 7.76352 8.07136 7.13352 8.84992 7.13391H14.2375C14.6121 7.1339 14.9714 7.2827 15.2362 7.54758L16.2322 8.53925ZM9.5625 8.54562C9.1713 8.54562 8.85417 8.86275 8.85417 9.25395L8.85771 14.8781C8.85771 15.2693 9.17484 15.5865 9.56604 15.5865H14.5244C14.9156 15.5865 15.2327 15.2693 15.2327 14.8781V9.83195C15.2329 9.64386 15.1582 9.46343 15.0252 9.33045L14.4457 8.75245C14.3128 8.61987 14.1327 8.54547 13.945 8.54562H9.5625Z" />
</svg>
