<svg viewBox="0 0 16 16" xmlns="http://www.w3.org/2000/svg">
<path d="M13.3333 7.66357C12.9651 7.66357 12.6667 7.96205 12.6667 8.33024V13.9969C12.6667 14.3651 12.3682 14.6636 12 14.6636H2C1.63181 14.6636 1.33333 14.3651 1.33333 13.9969V2.66357C1.33333 2.29538 1.63181 1.99691 2 1.99691H8.66667C9.03486 1.99691 9.33333 1.69843 9.33333 1.33024C9.33333 0.962051 9.03486 0.663574 8.66667 0.663574H2C0.89543 0.663574 0 1.559 0 2.66357V13.9969C0 15.1015 0.89543 15.9969 2 15.9969H12C13.1046 15.9969 14 15.1015 14 13.9969V8.33024C14 7.96205 13.7015 7.66357 13.3333 7.66357Z" />
<path d="M12.5453 2.03701C12.4129 1.91247 12.2064 1.91247 12.074 2.03701L6.86666 7.24634C6.83466 7.27827 6.80948 7.31638 6.79266 7.35834L5.84866 9.71501C5.79927 9.83881 5.82837 9.98013 5.92266 10.0743C6.01857 10.1655 6.15805 10.1939 6.282 10.1477L8.63866 9.20301C8.68063 9.18619 8.71874 9.16102 8.75066 9.12901L13.96 3.92301C14.0901 3.79284 14.0901 3.58184 13.96 3.45168L12.5453 2.03701Z" />
<path d="M15.61 0.387673C15.0826 -0.116203 14.2521 -0.116203 13.7247 0.387673L13.0173 1.09434C12.8872 1.22451 12.8872 1.43551 13.0173 1.56567L14.4307 2.97967C14.5608 3.1098 14.7718 3.1098 14.902 2.97967L15.6093 2.27301C16.1298 1.75234 16.1298 0.908339 15.6093 0.387673H15.61Z" />
</svg>
