<svg xmlns="http://www.w3.org/2000/svg" width="20" height="18" viewBox="0 0 20 18">
    <g fill="none" fill-rule="evenodd">
        <g>
            <g>
                <path d="M0 0H20V20H0z" transform="translate(-511 -385) translate(511 384)"/>
                <path fill="#7D8D9A" fill-rule="nonzero" d="M19.78 2.266c-.047-.296-.235-.546-.498-.664s-.565-.087-.801.082c-1.917 1.228-4.142 1.822-6.384 1.706-5.15 0-7.299 2.204-7.34 2.255-2.477 1.917-3.396 5.36-2.227 8.35.062.159.03.342-.083.467L.223 16.99c-.297.338-.296.86.002 1.197.299.338.794.377 1.138.09 1.43-1.364 3.762-5.477 10.32-8.355.426-.182.913.03 1.09.476.179.446-.02.96-.443 1.15-2.618 1.125-5.004 2.771-7.026 4.849l-.007.008-.194.22c-.086.095-.126.227-.11.357.016.13.087.247.194.316 1.064.7 2.295 1.071 3.551 1.07 1.691-.031 3.348-.504 4.82-1.377 7.308-4.22 6.609-12.338 6.223-14.725z" transform="translate(-511 -385) translate(511 384)"/>
            </g>
        </g>
    </g>
</svg>
