<svg width="18" height="18" viewBox="0 0 18 18" xmlns="http://www.w3.org/2000/svg">
   <g clip-path="url(#clip0_1249_1312)">
      <path
         d="M9 0C7.21997 0 5.47991 0.527841 3.99987 1.51677C2.51983 2.50571 1.36628 3.91131 0.685088 5.55585C0.00389957 7.20038 -0.17433 9.00998 0.172937 10.7558C0.520204 12.5016 1.37737 14.1053 2.63604 15.364C3.89472 16.6226 5.49836 17.4798 7.24419 17.8271C8.99002 18.1743 10.7996 17.9961 12.4442 17.3149C14.0887 16.6337 15.4943 15.4802 16.4832 14.0001C17.4722 12.5201 18 10.78 18 9C17.9974 6.61384 17.0484 4.32616 15.3611 2.63889C13.6738 0.951621 11.3862 0.00258081 9 0ZM6.375 9C6.375 9.29667 6.28703 9.58668 6.12221 9.83336C5.95739 10.08 5.72312 10.2723 5.44903 10.3858C5.17494 10.4994 4.87334 10.5291 4.58237 10.4712C4.2914 10.4133 4.02412 10.2704 3.81434 10.0607C3.60457 9.85088 3.4617 9.58361 3.40383 9.29264C3.34595 9.00167 3.37565 8.70006 3.48918 8.42598C3.60272 8.15189 3.79498 7.91762 4.04165 7.7528C4.28832 7.58797 4.57833 7.5 4.875 7.5C5.27283 7.5 5.65436 7.65804 5.93566 7.93934C6.21697 8.22064 6.375 8.60218 6.375 9ZM9 7.5C9.29668 7.5 9.58669 7.58797 9.83336 7.7528C10.08 7.91762 10.2723 8.15189 10.3858 8.42598C10.4994 8.70006 10.5291 9.00167 10.4712 9.29264C10.4133 9.58361 10.2704 9.85088 10.0607 10.0607C9.85089 10.2704 9.58361 10.4133 9.29264 10.4712C9.00167 10.5291 8.70007 10.4994 8.42598 10.3858C8.15189 10.2723 7.91762 10.08 7.7528 9.83336C7.58798 9.58668 7.5 9.29667 7.5 9C7.5 8.60218 7.65804 8.22064 7.93934 7.93934C8.22065 7.65804 8.60218 7.5 9 7.5ZM13.125 10.5C12.8283 10.5 12.5383 10.412 12.2916 10.2472C12.045 10.0824 11.8527 9.84811 11.7392 9.57403C11.6257 9.29994 11.5959 8.99834 11.6538 8.70737C11.7117 8.41639 11.8546 8.14912 12.0643 7.93934C12.2741 7.72956 12.5414 7.5867 12.8324 7.52882C13.1233 7.47094 13.4249 7.50065 13.699 7.61418C13.9731 7.72771 14.2074 7.91997 14.3722 8.16665C14.537 8.41332 14.625 8.70333 14.625 9C14.625 9.39783 14.467 9.77936 14.1857 10.0607C13.9044 10.342 13.5228 10.5 13.125 10.5Z" />
   </g>
   <defs>
      <clipPath id="clip0_1249_1312">
         <rect width="18" height="18" />
      </clipPath>
   </defs>
</svg>