<svg width="18" height="18" viewBox="0 0 18 18" xmlns="http://www.w3.org/2000/svg">
   <g clip-path="url(#clip0_508_9256)">
      <path
         d="M17.319 7.24875C15.3472 5.0775 12.4455 3.15 9.43799 3.009C9.29175 3 9.14999 3 9 3C5.81025 3.0255 2.907 4.8525 0.793495 7.125C0.755995 7.1655 0.718495 7.20675 0.680995 7.248C0.243292 7.72605 0.000518799 8.35071 0.000518799 8.99887C0.000518799 9.64704 0.243292 10.2717 0.680995 10.7498C1.58475 11.7465 4.85324 15 8.904 15H9.09599C13.146 15 16.4152 11.7465 17.3205 10.7498C17.7579 10.2716 18.0004 9.647 18.0001 8.99896C17.9999 8.35092 17.7569 7.72649 17.319 7.24875ZM16.2105 9.74025C14.583 11.5312 12.2205 13.2315 9.729 13.4662C9.48686 13.4917 9.24345 13.503 9 13.5C6.2775 13.4362 3.87 11.9175 2.0355 10.0065C1.952 9.9195 1.86975 9.83125 1.78875 9.74175C1.60513 9.53833 1.50348 9.27403 1.50348 9C1.50348 8.72597 1.60513 8.46167 1.78875 8.25825C3.564 6.3 6.249 4.43625 9 4.5C9.96662 4.49894 10.9232 4.69653 11.8102 5.0805C12.7207 5.4626 13.5778 5.961 14.3602 6.56325C15.0287 7.06906 15.6489 7.63574 16.2127 8.256C16.3963 8.45974 16.4976 8.72435 16.4972 8.99856C16.4968 9.27277 16.3946 9.53706 16.2105 9.74025Z" />
      <path
         d="M9 6C8.90181 6.00006 8.80369 6.00507 8.706 6.015C8.674 6.0182 8.64337 6.0296 8.61708 6.04811C8.59078 6.06662 8.56971 6.09161 8.55591 6.12065C8.54211 6.1497 8.53603 6.18181 8.53828 6.21389C8.54053 6.24597 8.55103 6.27692 8.56875 6.30375C8.76613 6.60213 8.85001 6.96139 8.80516 7.31633C8.76031 7.67127 8.58971 7.99837 8.32431 8.23828C8.0589 8.47818 7.71629 8.61499 7.35864 8.62389C7.00099 8.63278 6.652 8.51317 6.375 8.28675C6.35034 8.2669 6.32105 8.25361 6.28987 8.24814C6.25869 8.24266 6.22663 8.24517 6.19668 8.25543C6.16672 8.26568 6.13986 8.28336 6.11858 8.3068C6.09731 8.33025 6.08231 8.3587 6.075 8.3895C6.02672 8.58946 6.00156 8.7943 6 9C6 9.59334 6.17595 10.1734 6.50559 10.6667C6.83524 11.1601 7.30377 11.5446 7.85195 11.7716C8.40013 11.9987 9.00333 12.0581 9.58527 11.9424C10.1672 11.8266 10.7018 11.5409 11.1213 11.1213C11.5409 10.7018 11.8266 10.1672 11.9424 9.58527C12.0581 9.00333 11.9987 8.40013 11.7716 7.85195C11.5446 7.30377 11.1601 6.83524 10.6667 6.50559C10.1734 6.17595 9.59334 6 9 6Z" />
   </g>
   <defs>
      <clipPath id="clip0_508_9256">
         <rect width="18" height="18" />
      </clipPath>
   </defs>
</svg>