<svg width="16" height="16" viewBox="0 0 16 16" xmlns="http://www.w3.org/2000/svg">
   <path
      d="M15 3.33351H7.49067C7.42881 3.3335 7.36818 3.31629 7.31555 3.2838C7.26293 3.2513 7.22038 3.2048 7.19267 3.14951L6.56133 1.88284C6.47815 1.71705 6.35033 1.57778 6.19226 1.48072C6.03419 1.38367 5.85215 1.33268 5.66667 1.33351H1C0.734784 1.33351 0.48043 1.43886 0.292893 1.6264C0.105357 1.81394 0 2.06829 0 2.33351L0 13.6668C0 13.9321 0.105357 14.1864 0.292893 14.3739C0.48043 14.5615 0.734784 14.6668 1 14.6668H15C15.2652 14.6668 15.5196 14.5615 15.7071 14.3739C15.8946 14.1864 16 13.9321 16 13.6668V4.33351C16 4.06829 15.8946 3.81394 15.7071 3.6264C15.5196 3.43886 15.2652 3.33351 15 3.33351Z" />
</svg>