<svg width="18" height="18" viewBox="0 0 18 18" xmlns="http://www.w3.org/2000/svg">
   <path
      d="M17.58 7.16175C17.4748 7.03271 17.3421 6.92879 17.1916 6.85755C17.0411 6.78632 16.8766 6.74958 16.71 6.75H7.81504C7.72847 6.75019 7.64449 6.72042 7.57737 6.66574C7.51024 6.61105 7.46411 6.53483 7.44679 6.45L7.23829 5.40375C7.18716 5.14883 7.0493 4.91948 6.84817 4.75472C6.64704 4.58996 6.39505 4.49995 6.13504 4.5H1.29004C1.12314 4.49986 0.958291 4.53685 0.807454 4.6083C0.656616 4.67975 0.523567 4.78387 0.417951 4.91311C0.312335 5.04235 0.236798 5.19347 0.196817 5.35551C0.156835 5.51756 0.153411 5.68647 0.186792 5.85L2.13679 15.6C2.18869 15.8542 2.32687 16.0827 2.52793 16.2467C2.72899 16.4107 2.98057 16.5002 3.24004 16.5H15.2108C15.4701 16.5001 15.7215 16.4105 15.9224 16.2465C16.1234 16.0825 16.2614 15.8541 16.3133 15.6L17.8133 8.1C17.8466 7.93611 17.8429 7.76685 17.8026 7.60454C17.7622 7.44224 17.6862 7.29097 17.58 7.16175Z" />
   <path
      d="M2.75 2.25C2.92061 2.25084 3.08641 2.19349 3.22004 2.08741C3.35366 1.98133 3.44713 1.83286 3.485 1.6665C3.4919 1.62215 3.51372 1.58149 3.54686 1.55122C3.57999 1.52095 3.62246 1.50288 3.66725 1.5H15.125C15.2245 1.5 15.3198 1.53951 15.3902 1.60984C15.4605 1.68016 15.5 1.77554 15.5 1.875V3.75C15.5 3.94891 15.579 4.13968 15.7197 4.28033C15.8603 4.42098 16.0511 4.5 16.25 4.5C16.4489 4.5 16.6397 4.42098 16.7803 4.28033C16.921 4.13968 17 3.94891 17 3.75V1.5C17 1.10218 16.842 0.720644 16.5607 0.43934C16.2794 0.158035 15.8978 0 15.5 0H3.5C3.10217 0 2.72064 0.158035 2.43934 0.43934C2.15804 0.720644 2 1.10218 2 1.5C2 1.59849 2.0194 1.69602 2.05709 1.78701C2.09478 1.87801 2.15003 1.96069 2.21967 2.03033C2.28931 2.09997 2.37199 2.15522 2.46299 2.19291C2.55398 2.2306 2.65151 2.25 2.75 2.25Z" />
</svg>