<svg viewBox="0 0 26 26" xmlns="http://www.w3.org/2000/svg">
<path d="M24.2898 10.5748L22.9182 10.0884C22.7218 10.0185 22.5423 9.90827 22.3912 9.76466C22.2402 9.62104 22.1209 9.44731 22.0413 9.2547C21.9616 9.06208 21.9233 8.85489 21.9288 8.64652C21.9343 8.43816 21.9835 8.23328 22.0732 8.04513L22.6972 6.73101C22.9248 6.25112 22.9984 5.71257 22.9079 5.18921C22.8174 4.66584 22.5672 4.18329 22.1917 3.80773C21.8161 3.43216 21.3335 3.18196 20.8102 3.09145C20.2868 3.00093 19.7483 3.07453 19.2684 3.30215L17.9542 3.92726C17.766 4.01656 17.5611 4.06538 17.3528 4.07056C17.1445 4.07574 16.9374 4.03716 16.745 3.95731C16.5525 3.87747 16.3789 3.75814 16.2355 3.60704C16.092 3.45593 15.9818 3.2764 15.9121 3.08006L15.4246 1.7096C15.2462 1.20931 14.9174 0.776454 14.4833 0.470378C14.0493 0.164303 13.5311 0 13 0C12.4689 0 11.9507 0.164303 11.5166 0.470378C11.0826 0.776454 10.7538 1.20931 10.5754 1.7096L10.0879 3.08115C10.018 3.27739 9.90779 3.4568 9.76428 3.60779C9.62077 3.75878 9.44719 3.87799 9.25474 3.95773C9.06229 4.03747 8.85526 4.07595 8.64702 4.0707C8.43877 4.06545 8.23394 4.01659 8.04576 3.92726L6.73164 3.30215C6.25175 3.07453 5.7132 3.00093 5.18983 3.09145C4.66647 3.18196 4.18392 3.43216 3.80835 3.80773C3.43278 4.18329 3.18259 4.66584 3.09207 5.18921C3.00156 5.71257 3.07516 6.25112 3.30278 6.73101L3.9268 8.04513C4.01633 8.2333 4.0654 8.43816 4.07081 8.64648C4.07623 8.85479 4.03787 9.06193 3.95823 9.25449C3.87859 9.44706 3.75944 9.62077 3.60846 9.76441C3.45749 9.90804 3.27806 10.0184 3.08177 10.0884L1.71023 10.5759C1.20982 10.754 0.776799 11.0826 0.470591 11.5166C0.164384 11.9506 0 12.4688 0 12.9999C0 13.5311 0.164384 14.0492 0.470591 14.4832C0.776799 14.9172 1.20982 15.2458 1.71023 15.424L3.08177 15.9115C3.27802 15.9813 3.45744 16.0916 3.6084 16.2351C3.75937 16.3786 3.87853 16.5522 3.95818 16.7447C4.03783 16.9372 4.07619 17.1443 4.07078 17.3525C4.06538 17.5607 4.01632 17.7655 3.9268 17.9536L3.30278 19.2677C3.07516 19.7476 3.00156 20.2862 3.09207 20.8095C3.18259 21.3329 3.43278 21.8155 3.80835 22.191C4.18392 22.5666 4.66647 22.8168 5.18983 22.9073C5.7132 22.9978 6.25175 22.9242 6.73164 22.6966L8.04576 22.0726C8.23389 21.9829 8.43877 21.9338 8.64711 21.9283C8.85545 21.9229 9.06261 21.9613 9.25515 22.0411C9.44769 22.1209 9.62132 22.2402 9.76478 22.3914C9.90824 22.5426 10.0183 22.7222 10.0879 22.9187L10.5754 24.2891C10.7538 24.7894 11.0826 25.2223 11.5166 25.5284C11.9507 25.8344 12.4689 25.9987 13 25.9987C13.5311 25.9987 14.0493 25.8344 14.4833 25.5284C14.9174 25.2223 15.2462 24.7894 15.4246 24.2891L15.9121 22.9176C15.9819 22.7213 16.0922 22.5419 16.2357 22.391C16.3792 22.24 16.5529 22.1208 16.7453 22.0412C16.9378 21.9615 17.1449 21.9232 17.3531 21.9286C17.5614 21.934 17.7661 21.983 17.9542 22.0726L19.2684 22.6966C19.7483 22.9242 20.2868 22.9978 20.8102 22.9073C21.3335 22.8168 21.8161 22.5666 22.1917 22.191C22.5672 21.8155 22.8174 21.3329 22.9079 20.8095C22.9984 20.2862 22.9248 19.7476 22.6972 19.2677L22.0732 17.9536C21.9837 17.7655 21.9346 17.5607 21.9292 17.3525C21.9238 17.1443 21.9622 16.9372 22.0418 16.7447C22.1215 16.5522 22.2406 16.3786 22.3916 16.2351C22.5426 16.0916 22.722 15.9813 22.9182 15.9115L24.2898 15.4229C24.7902 15.2448 25.2232 14.9162 25.5294 14.4821C25.8356 14.0481 26 13.53 26 12.9988C26 12.4677 25.8356 11.9495 25.5294 11.5155C25.2232 11.0815 24.7902 10.7529 24.2898 10.5748ZM13 18.1822C11.9768 18.1674 10.9793 17.8589 10.1264 17.2934C9.27345 16.728 8.6009 15.9294 8.18876 14.9928C7.66179 13.7167 7.66238 12.2838 8.19042 11.0081C8.71845 9.73253 9.73083 8.71839 11.0055 8.18814C12.283 7.67723 13.7096 7.68582 14.9809 8.21206C16.2522 8.73831 17.2675 9.74053 17.8102 11.0049C18.3371 12.2809 18.3365 13.7139 17.8085 14.9895C17.2805 16.2651 16.2681 17.2793 14.9934 17.8095C14.3616 18.0694 13.683 18.1963 13 18.1822Z" />
</svg>
