<?xml version="1.0" encoding="UTF-8"?>
<svg width="17px" height="19px" viewBox="0 0 17 19" version="1.1" xmlns="http://www.w3.org/2000/svg" xmlns:xlink="http://www.w3.org/1999/xlink">
    <!-- Generator: Sketch 54.1 (76490) - https://sketchapp.com -->
    <title>bin-1</title>
    <desc>Created with Sketch.</desc>
    <g id="Page-1" stroke="none" stroke-width="1" fill="none" fill-rule="evenodd">
        <g id="bin-1" transform="translate(0.000000, 0.004360)" fill="#B1BBC2" fill-rule="nonzero">
            <path d="M14.2583636,5.79545455 L2.74086364,5.79545455 C2.63207424,5.79501297 2.52813986,5.84045664 2.45459428,5.92062132 C2.38104871,6.000786 2.34470798,6.10824219 2.3545,6.21659091 L3.349,17.1398636 C3.4213454,17.93598 4.08887604,18.5455373 4.88827273,18.5454545 L12.1109545,18.5454545 C12.9103512,18.5455373 13.5778819,17.93598 13.6502273,17.1398636 L14.6431818,6.21659091 C14.6528575,6.10856734 14.6166847,6.001451 14.5435,5.92140909 C14.4703601,5.84124477 14.3668798,5.79553393 14.2583636,5.79545455 Z M7.14927273,15.8409091 C7.14927273,16.1609832 6.88980139,16.4204545 6.56972727,16.4204545 C6.24965316,16.4204545 5.99018182,16.1609832 5.99018182,15.8409091 L5.99018182,8.88636364 C5.99018182,8.56628952 6.24965316,8.30681818 6.56972727,8.30681818 C6.88980139,8.30681818 7.14927273,8.56628952 7.14927273,8.88636364 L7.14927273,15.8409091 Z M11.0129091,15.8409091 C11.0129091,16.1609832 10.7534378,16.4204545 10.4333636,16.4204545 C10.1132895,16.4204545 9.85381818,16.1609832 9.85381818,15.8409091 L9.85381818,8.88636364 C9.85381818,8.56628952 10.1132895,8.30681818 10.4333636,8.30681818 C10.7534378,8.30681818 11.0129091,8.56628952 11.0129091,8.88636364 L11.0129091,15.8409091 Z" id="Shape"></path>
            <path d="M16.2272727,3.09090909 L12.5568182,3.09090909 C12.4501268,3.09090909 12.3636364,3.00441864 12.3636364,2.89772727 L12.3636364,1.93181818 C12.3636364,0.864904461 11.4987319,6.53296237e-17 10.4318182,0 L6.56818182,0 C5.5012681,-6.53296237e-17 4.63636364,0.864904461 4.63636364,1.93181818 L4.63636364,2.89772727 C4.63636364,2.94896228 4.61601061,2.99809883 4.57978199,3.03432745 C4.54355337,3.07055606 4.49441682,3.09090909 4.44318182,3.09090909 L0.772727273,3.09090909 C0.345961784,3.09090909 0,3.43687088 0,3.86363636 C-8.5789961e-17,4.29040185 0.345961784,4.63636364 0.772727273,4.63636364 L16.2272727,4.63636364 C16.6540382,4.63636364 17,4.29040185 17,3.86363636 C17,3.43687088 16.6540382,3.09090909 16.2272727,3.09090909 Z M6.18181818,2.89772727 L6.18181818,1.93181818 C6.18181818,1.71843544 6.35479907,1.54545455 6.56818182,1.54545455 L10.4318182,1.54545455 C10.6452009,1.54545455 10.8181818,1.71843544 10.8181818,1.93181818 L10.8181818,2.89772727 C10.8181818,3.00441864 10.7316914,3.09090909 10.625,3.09090909 L6.375,3.09090909 C6.26830863,3.09090909 6.18181818,3.00441864 6.18181818,2.89772727 Z" id="Shape"></path>
        </g>
    </g>
</svg>