<svg width="24" height="24" viewBox="0 0 24 24" xmlns="http://www.w3.org/2000/svg">
   <path fill-rule="evenodd" clip-rule="evenodd"
      d="M10.0141 6.48691L10.8642 7.33703C10.958 7.43081 11.0106 7.55798 11.0106 7.69058C11.0106 7.82318 10.958 7.95035 10.8642 8.04413L8.03981 10.8685C7.94604 10.9623 7.81886 11.0149 7.68626 11.0149C7.55366 11.0149 7.42649 10.9623 7.33271 10.8685L6.4806 10.0164C6.42108 9.9587 6.34814 9.9167 6.26836 9.89417C6.18857 9.87165 6.10444 9.86932 6.02353 9.88739C5.16377 10.0686 4.27142 10.0197 3.43657 9.74576C2.60173 9.47178 1.85395 8.98237 1.26875 8.32696C0.683548 7.67155 0.281635 6.87333 0.103593 6.01291C-0.0744481 5.15249 -0.0223143 4.26032 0.254731 3.42649C0.281145 3.34525 0.327932 3.27213 0.390629 3.2141C0.453326 3.15608 0.529842 3.11508 0.612882 3.09502C0.695921 3.07496 0.782715 3.07651 0.864985 3.09952C0.947256 3.12253 1.02226 3.16623 1.08285 3.22646L3.53219 5.6748C3.62574 5.76865 3.75272 5.82153 3.88524 5.82182H5.29943C5.43206 5.82182 5.55925 5.76914 5.65303 5.67535C5.74682 5.58157 5.7995 5.45438 5.7995 5.32175V3.90756C5.79947 3.77518 5.74696 3.64822 5.65348 3.55451L3.19714 1.09616C3.13675 1.03627 3.09263 0.961954 3.06896 0.880255C3.0453 0.798556 3.04286 0.71217 3.06188 0.629266C3.08091 0.546363 3.12076 0.469682 3.17768 0.406475C3.2346 0.343268 3.3067 0.295624 3.38717 0.268048C4.22237 -0.0172531 5.11828 -0.0760549 5.98361 0.0976341C6.84894 0.271323 7.65277 0.671295 8.31319 1.2568C8.9736 1.8423 9.46701 2.59241 9.74314 3.43069C10.0193 4.26898 10.0682 5.16548 9.88507 6.02885C9.86683 6.10991 9.86907 6.19424 9.8916 6.27421C9.91412 6.35419 9.95622 6.42729 10.0141 6.48691ZM16.6638 13.1368L17.5099 13.983C17.57 14.0393 17.6431 14.0799 17.7227 14.1012C17.8022 14.1225 17.8858 14.1238 17.966 14.105C18.8297 13.9215 19.7266 13.9704 20.5653 14.2467C21.4039 14.5229 22.1543 15.0166 22.7399 15.6775C23.3255 16.3383 23.7254 17.1426 23.8988 18.0084C24.0721 18.8742 24.0128 19.7705 23.7268 20.6059C23.6995 20.6864 23.6521 20.7586 23.5891 20.8157C23.5262 20.8728 23.4497 20.9129 23.3669 20.9322C23.2841 20.9515 23.1977 20.9494 23.116 20.9261C23.0342 20.9028 22.9598 20.859 22.8997 20.7989L20.4463 18.3456C20.3999 18.299 20.3447 18.262 20.284 18.2368C20.2232 18.2115 20.1581 18.1986 20.0923 18.1985H18.6791C18.5465 18.1985 18.4193 18.2512 18.3255 18.345C18.2317 18.4388 18.179 18.566 18.179 18.6986V20.1098C18.1789 20.1755 18.1917 20.2406 18.2168 20.3014C18.2418 20.3621 18.2786 20.4173 18.325 20.4639L20.7744 22.9132C20.8346 22.9738 20.8783 23.0488 20.9013 23.1311C20.9243 23.2133 20.9259 23.3001 20.9058 23.3832C20.8858 23.4662 20.8448 23.5427 20.7867 23.6054C20.7287 23.6681 20.6556 23.7149 20.5744 23.7413C20.0612 23.912 19.5239 23.9991 18.9831 23.9993C18.2409 23.9973 17.5085 23.8299 16.8392 23.5093C16.1698 23.1887 15.5803 22.723 15.1135 22.1459C14.6468 21.5689 14.3144 20.8951 14.1408 20.1735C13.9671 19.452 13.9564 18.7007 14.1095 17.9745C14.1276 17.8937 14.1255 17.8096 14.1031 17.7298C14.0808 17.65 14.039 17.5771 13.9814 17.5174L13.1323 16.6683C13.0386 16.5746 12.9859 16.4474 12.9859 16.3148C12.9859 16.1822 13.0386 16.055 13.1323 15.9612L15.9567 13.1368C16.0505 13.0431 16.1777 12.9904 16.3103 12.9904C16.4429 12.9904 16.57 13.0431 16.6638 13.1368ZM16.6472 9.61935L14.3828 7.35504C14.2891 7.26129 14.1619 7.20862 14.0293 7.20862C13.8967 7.20862 13.7695 7.26129 13.6757 7.35504L1.08599 19.9448C0.711 20.3199 0.50034 20.8286 0.50034 21.359C0.50034 21.8894 0.711 22.3981 1.08599 22.7732L1.22901 22.9162C1.41477 23.102 1.63531 23.2494 1.87805 23.35C2.12079 23.4506 2.38096 23.5024 2.64371 23.5024C2.90646 23.5024 3.16663 23.4506 3.40937 23.35C3.65211 23.2494 3.87265 23.102 4.05841 22.9162L16.6472 10.3265C16.7409 10.2327 16.7936 10.1055 16.7936 9.9729C16.7936 9.8403 16.7409 9.71313 16.6472 9.61935ZM19.9763 10.0008C19.6149 10.0008 19.2682 9.85757 19.0122 9.60252L12.5983 3.19063C12.3428 2.93484 12.1992 2.58806 12.1992 2.2265C12.1992 1.86493 12.3428 1.51816 12.5983 1.26236L13.6534 0.209217C13.7489 0.118756 13.8755 0.0683381 14.007 0.0683381C14.1385 0.0683381 14.265 0.118756 14.3605 0.209217C14.9394 0.839577 15.7125 1.25806 16.5568 1.39799C17.4011 1.53792 18.2679 1.39124 19.0192 0.981325C19.1151 0.921222 19.2285 0.89542 19.341 0.908137C19.4534 0.920853 19.5582 0.971336 19.6383 1.05133L23.6008 5.01389C23.8564 5.26968 23.9999 5.61646 23.9999 5.97802C23.9999 6.33958 23.8564 6.68636 23.6008 6.94215L20.9404 9.60252C20.6844 9.85757 20.3377 10.0008 19.9763 10.0008Z" />
</svg>