<svg width="18" height="18" viewBox="0 0 18 18" xmlns="http://www.w3.org/2000/svg">
   <g clip-path="url(#clip0_1249_1123)">
      <path
         d="M16.875 5.55565H13.3073C13.2798 5.55566 13.2526 5.54962 13.2277 5.53797C13.2028 5.52632 13.1808 5.50934 13.1632 5.48823C13.1456 5.46712 13.1328 5.4424 13.1258 5.41582C13.1189 5.38923 13.1178 5.36144 13.1227 5.3344L13.8593 1.2919C13.8814 1.17085 13.8794 1.04664 13.8535 0.926345C13.8276 0.806052 13.7783 0.692037 13.7083 0.590809C13.6384 0.489582 13.5492 0.403124 13.4458 0.336374C13.3424 0.269624 13.2269 0.223887 13.1059 0.201776C12.9848 0.179664 12.8606 0.181611 12.7403 0.207505C12.62 0.233399 12.506 0.282734 12.4048 0.352691C12.3036 0.422648 12.2171 0.511859 12.1503 0.615229C12.0836 0.718599 12.0379 0.834105 12.0157 0.955151L11.205 5.4004C11.1971 5.44364 11.1744 5.48276 11.1407 5.51098C11.107 5.5392 11.0645 5.55474 11.0205 5.5549H8.29575C8.26826 5.55491 8.24111 5.54887 8.21622 5.53722C8.19132 5.52557 8.16929 5.50859 8.15169 5.48748C8.13408 5.46637 8.12134 5.44165 8.11435 5.41507C8.10736 5.38848 8.1063 5.36069 8.11125 5.33365L8.8485 1.29115C8.88866 1.0485 8.83186 0.799792 8.69034 0.598636C8.54883 0.39748 8.33393 0.259993 8.09198 0.215814C7.85003 0.171636 7.60041 0.224305 7.39694 0.362468C7.19347 0.50063 7.05243 0.713218 7.00425 0.954401L6.1935 5.4004C6.18562 5.44364 6.16286 5.48276 6.12916 5.51098C6.09546 5.5392 6.05295 5.55474 6.009 5.5549H2.559C2.31036 5.5549 2.0719 5.65367 1.89609 5.82949C1.72027 6.0053 1.6215 6.24376 1.6215 6.4924C1.6215 6.74104 1.72027 6.9795 1.89609 7.15531C2.0719 7.33113 2.31036 7.4299 2.559 7.4299H5.59875C5.62645 7.43038 5.65371 7.43694 5.6786 7.44912C5.70348 7.46131 5.72538 7.47881 5.74275 7.5004C5.76054 7.52139 5.7734 7.54609 5.78041 7.57269C5.78742 7.59929 5.78839 7.62712 5.78325 7.65415L5.28 10.4127C5.2721 10.4558 5.24931 10.4948 5.2156 10.5229C5.18188 10.551 5.13938 10.5664 5.0955 10.5664H1.125C0.87636 10.5664 0.637903 10.6652 0.462087 10.841C0.286272 11.0168 0.1875 11.2553 0.1875 11.5039C0.1875 11.7525 0.286272 11.991 0.462087 12.1668C0.637903 12.3426 0.87636 12.4414 1.125 12.4414H4.68525C4.71274 12.4414 4.7399 12.4474 4.76479 12.4591C4.78969 12.4707 4.8117 12.4877 4.82925 12.5089C4.8465 12.5295 4.85907 12.5535 4.86606 12.5794C4.87305 12.6053 4.87431 12.6325 4.86975 12.6589L4.13325 16.7014C4.09309 16.944 4.14989 17.1928 4.29141 17.3939C4.43292 17.5951 4.64782 17.7326 4.88977 17.7767C5.13172 17.8209 5.38134 17.7682 5.58481 17.6301C5.78828 17.4919 5.92932 17.2793 5.9775 17.0381L6.7875 12.5914C6.79643 12.5491 6.81962 12.5111 6.85321 12.4837C6.88679 12.4564 6.92872 12.4415 6.972 12.4414H9.69675C9.72424 12.4414 9.75139 12.4474 9.77629 12.4591C9.80118 12.4707 9.82321 12.4877 9.84081 12.5088C9.85842 12.5299 9.87116 12.5546 9.87815 12.5812C9.88514 12.6078 9.8862 12.6356 9.88125 12.6626L9.144 16.7051C9.10384 16.9478 9.16064 17.1965 9.30216 17.3977C9.44367 17.5988 9.65857 17.7363 9.90052 17.7805C10.1425 17.8247 10.3921 17.772 10.5956 17.6338C10.799 17.4957 10.9401 17.2831 10.9882 17.0419L11.799 12.5951C11.8078 12.5527 11.831 12.5147 11.8646 12.4873C11.8982 12.46 11.9402 12.4451 11.9835 12.4451H15.4432C15.6919 12.4451 15.9303 12.3464 16.1062 12.1706C16.282 11.9947 16.3807 11.7563 16.3807 11.5076C16.3807 11.259 16.282 11.0206 16.1062 10.8447C15.9303 10.6689 15.6919 10.5701 15.4432 10.5701H12.3937C12.3663 10.5702 12.3391 10.5641 12.3142 10.5525C12.2893 10.5408 12.2673 10.5238 12.2497 10.5027C12.2321 10.4816 12.2193 10.4569 12.2123 10.4303C12.2054 10.4037 12.2043 10.3759 12.2092 10.3489L12.7125 7.58815C12.7204 7.54498 12.7432 7.50595 12.7769 7.47786C12.8106 7.44976 12.8531 7.43438 12.897 7.4344H16.872C17.1206 7.4344 17.3591 7.33563 17.5349 7.15981C17.7107 6.984 17.8095 6.74554 17.8095 6.4969C17.8095 6.24826 17.7107 6.0098 17.5349 5.83399C17.3591 5.65817 17.1206 5.5594 16.872 5.5594L16.875 5.55565ZM10.2915 10.4127C10.2836 10.4558 10.2608 10.4948 10.2271 10.5229C10.1934 10.551 10.1509 10.5664 10.107 10.5664H7.38225C7.35476 10.5664 7.32761 10.5604 7.30272 10.5487C7.27782 10.5371 7.25579 10.5201 7.23819 10.499C7.22058 10.4779 7.20784 10.4531 7.20085 10.4266C7.19386 10.4 7.1928 10.3722 7.19775 10.3451L7.701 7.5844C7.70903 7.5413 7.73186 7.50235 7.76555 7.47428C7.79923 7.44621 7.84165 7.43078 7.8855 7.43065H10.6103C10.6377 7.43053 10.6648 7.43646 10.6897 7.44803C10.7146 7.45959 10.7367 7.4765 10.7543 7.49756C10.7719 7.51861 10.7847 7.54329 10.7917 7.56984C10.7987 7.59639 10.7997 7.62415 10.7948 7.65115L10.2915 10.4127Z" />
   </g>
   <defs>
      <clipPath id="clip0_1249_1123">
         <rect width="18" height="18" />
      </clipPath>
   </defs>
</svg>