<svg viewBox="0 0 16 18" xmlns="http://www.w3.org/2000/svg">
<path d="M8.47367 8.35791C7.78731 8.36238 7.2341 8.92162 7.23707 9.608C7.24005 10.2944 7.79808 10.8488 8.48446 10.8473C9.17084 10.8458 9.72648 10.289 9.72649 9.60263C9.72204 8.91388 9.16243 8.3579 8.47367 8.35791Z"  />
<path fill-rule="evenodd" clip-rule="evenodd" d="M11.1252 1.38916C11.1619 1.48837 11.2395 1.56702 11.3382 1.60509C14.181 2.71445 16.0381 5.47007 15.9994 8.52141C15.9994 11.1008 15.0627 13.0345 13.2137 14.28C13.1122 14.3486 13.0514 14.4632 13.0516 14.5858V17.3184C13.0516 17.5219 12.8866 17.6869 12.6831 17.6869H5.31356C5.11006 17.6869 4.94508 17.5219 4.94508 17.3184V16.213C4.94508 16.0095 4.78011 15.8445 4.57661 15.8445H3.47117C2.45365 15.8445 1.62879 15.0197 1.62879 14.0021V12.543C1.62879 12.3395 1.46381 12.1745 1.26031 12.1745C1.1225 12.1745 0.981739 12.1723 0.854246 12.1671C0.570616 12.1558 0.308119 12.0141 0.143084 11.7832C0.0393236 11.6205 -0.00949821 11.4288 0.00379993 11.2364V11.1354C-0.052351 10.3208 0.524333 9.30352 1.03625 8.40046L1.05249 8.37181C1.06096 8.35692 1.06956 8.34181 1.07826 8.32653C1.19444 8.12246 1.32902 7.88605 1.42981 7.68791C1.52614 7.49732 1.58019 7.28817 1.58825 7.07477C1.72113 4.64849 3.2923 2.53697 5.57813 1.71268C5.6788 1.67118 5.75596 1.58728 5.7889 1.48349C6.07071 0.600163 6.89128 0.000378698 7.81847 0H9.12878C10.0191 0.000621115 10.8152 0.554577 11.1252 1.38916ZM8.30865 12.6873C8.42529 12.5899 8.56918 12.531 8.72061 12.5186V12.5178C9.99591 12.425 11.0615 11.5112 11.3477 10.265C11.6339 9.01873 11.0738 7.73157 9.9668 7.09162C9.85382 7.02569 9.78426 6.9048 9.78404 6.77399V2.1238C9.78241 1.76348 9.48921 1.47259 9.12888 1.47381H7.81858C7.46056 1.47623 7.17126 1.76651 7.17006 2.12454V6.77178C7.16999 6.90244 7.10073 7.02329 6.98803 7.08941C6.10509 7.59752 5.553 8.53119 5.53324 9.5497C5.51348 10.5682 6.02892 11.5226 6.89149 12.0646C6.9437 12.0986 6.97519 12.1567 6.97519 12.219C6.97519 12.2813 6.9437 12.3394 6.89149 12.3734C6.43562 12.6801 5.94128 12.9255 5.42126 13.103C5.31164 13.1393 5.19134 13.1221 5.09627 13.0565C4.94345 12.9507 4.76189 12.8941 4.57598 12.8944H4.2075C3.69874 12.8944 3.28631 13.3068 3.28631 13.8156C3.28631 14.3244 3.69874 14.7368 4.2075 14.7368H4.57598C4.86596 14.7369 5.13904 14.6004 5.31293 14.3683C5.3616 14.3036 5.43024 14.2567 5.50822 14.2349C6.53883 13.9186 7.49246 13.3916 8.30865 12.6873Z" />
</svg>
