<svg xmlns="http://www.w3.org/2000/svg" width="20" height="21" viewBox="0 0 20 21">
    <g fill="none" fill-rule="evenodd">
        <g fill="#7D8D9A" fill-rule="nonzero">
            <g>
                <path d="M20 7.917c0-.23-.187-.417-.417-.417H.417c-.23 0-.417.187-.417.417V10c0 .46.373.833.833.833h1c.158 0 .302.09.373.23l.686 1.37c.21.425.643.694 1.116.692h11.984c.473.002.907-.267 1.116-.692l.685-1.37c.071-.14.216-.23.374-.23h1c.46 0 .833-.373.833-.833V7.917zm-4.152 3.311c-.07.141-.214.23-.372.23H4.524c-.158 0-.302-.089-.372-.23l-.417-.833c-.065-.13-.058-.283.018-.406.076-.122.21-.197.354-.197h11.785c.145 0 .28.075.355.197.076.123.083.277.018.406l-.417.833zM10.533 14.36c-.354-.295-.88-.247-1.174.107-.294.354-.246.88.108 1.174.157.13.23.19-.211 1.1-.373.77-1 2.06.21 3.067.355.294.88.246 1.175-.108.294-.354.246-.88-.108-1.174-.137-.114-.206-.172.223-1.058.377-.78 1.008-2.083-.223-3.109zM5.316 14.36c-.23-.191-.542-.245-.822-.142-.279.103-.482.347-.533.64-.05.294.06.592.289.783.157.13.23.19-.21 1.1-.374.77-1 2.06.21 3.067.229.19.542.244.822.141.28-.103.482-.347.533-.64.05-.294-.06-.593-.288-.783-.138-.114-.207-.172.222-1.058.378-.78 1.008-2.083-.223-3.109zM15.736 14.36c-.23-.191-.542-.245-.822-.142-.28.103-.483.347-.533.64-.05.294.06.592.288.783.158.13.23.19-.21 1.1-.374.77-1 2.06.21 3.067.354.294.88.246 1.174-.108.295-.354.247-.88-.107-1.174-.138-.114-.207-.172.222-1.058.375-.78 1.009-2.083-.222-3.109zM17.917 0H2.083C.933 0 0 .933 0 2.083v3.75c0 .23.187.417.417.417h19.166c.23 0 .417-.187.417-.417v-3.75c0-.552-.22-1.082-.61-1.473C19 .22 18.47 0 17.917 0zm-3.75 4.583c-.46 0-.834-.373-.834-.833 0-.46.373-.833.834-.833.46 0 .833.373.833.833 0 .46-.373.833-.833.833zm2.916 0c-.46 0-.833-.373-.833-.833 0-.46.373-.833.833-.833.46 0 .834.373.834.833 0 .46-.373.833-.834.833z" transform="translate(-511 -420) translate(511 420.09)"/>
            </g>
        </g>
    </g>
</svg>
