<svg xmlns="http://www.w3.org/2000/svg" width="21" height="20" viewBox="0 0 21 20">
    <g fill="none" fill-rule="evenodd">
        <g>
            <g>
                <path d="M0 0H20V20H0z" transform="translate(-510 -454) translate(510.79 453.994)"/>
                <path fill="#7D8D9A" fill-rule="nonzero" d="M9.562 9.706c.182-.07.388-.008.502.15.062.085.13.165.204.24l.907.906c.08.081.125.19.125.304 0 .114-.046.224-.126.304L3.35 19.4c-.081.078-.189.121-.3.12l-2.627-.017c-.173-.001-.329-.106-.395-.266-.061-.16-.024-.34.095-.463l3.362-3.399c.067-.067.155-.11.25-.122.725-.09 1.295-.667 1.376-1.394.012-.094.054-.182.12-.25l.053-.052c.068-.069.157-.112.252-.124.356-.044.688-.203.945-.452.255-.258.417-.594.458-.955.01-.097.052-.188.12-.257l.026-.025c.069-.07.16-.114.257-.124.362-.043.7-.204.96-.458.258-.26.418-.603.453-.968.01-.097.052-.188.121-.258.077-.077.17-.122.27-.132.142-.013.281-.046.415-.098zm3.134-2.04l1.82 1.819c.645.644 1.007 1.518 1.007 2.43 0 .911-.362 1.785-1.007 2.43l-.299.298c-1.005 1.005-1.006 2.634-.002 3.64l1.107 1.237h-7.59c-.114 0-.225-.045-.306-.126l-1.107-1.108c-.168-.167-.168-.439 0-.606l5.767-5.768c.335-.335.335-.878 0-1.213l-1.21-1.214c-.472-.507-.458-1.298.032-1.788s1.281-.504 1.788-.031zm-9.972 4.232c.256-.003.501.1.678.284l.807.799c.181.18.283.426.283.682 0 .256-.102.502-.283.682-.181.181-.426.283-.682.283-.256 0-.502-.102-.683-.283l-.806-.798c-.182-.18-.284-.426-.284-.683 0-.256.102-.501.284-.682.18-.185.428-.287.686-.284zM4.621 9.75l1.407 1.409c.182.179.284.423.284.678 0 .257-.102.504-.284.686-.383.36-.98.36-1.364 0l-1.408-1.407c-.254-.242-.357-.602-.27-.942.089-.34.354-.604.693-.693.34-.088.7.015.942.27zm1.133-2.1c.257 0 .504.102.686.284l1.408 1.407c.181.18.283.426.283.682 0 .256-.102.502-.283.682-.18.182-.426.284-.682.284-.257 0-.502-.102-.683-.284L5.076 9.3c-.181-.181-.283-.427-.283-.683 0-.256.102-.501.283-.682.179-.182.423-.284.678-.283zm3.116-.935l.765.773c.111.113.15.278.104.429-.066.208-.099.425-.097.643v.102c.008.178-.094.343-.258.415-.366.157-.79.083-1.08-.19l-.799-.807c-.184-.177-.286-.422-.283-.678-.003-.258.1-.506.283-.687.384-.36.982-.36 1.365 0zM16.143.48c.332.004.662.051.982.141.148.04.264.155.304.303.04.149-.002.307-.111.415L16.045 2.61c-.069.07-.112.16-.123.258l-.15 1.364c-.015.13.03.26.122.352.092.092.221.138.351.123l1.366-.152c.098-.01.189-.054.258-.123L19.14 3.16c.109-.109.267-.151.415-.111.148.04.264.156.303.305.09.321.138.653.141.987 0 2.134-1.73 3.863-3.862 3.863l-.236-.007c-.938-.055-1.827-.454-2.494-1.125-1.105-1.104-1.435-2.765-.838-4.208C13.168 1.42 14.576.48 16.138.479z" transform="translate(-510 -454) translate(510.79 453.994)"/>
            </g>
        </g>
    </g>
</svg>
