<svg xmlns="http://www.w3.org/2000/svg" width="18" height="18" viewBox="0 0 18 18">
    <g fill="none" fill-rule="evenodd">
        <g fill="#FF6900" fill-rule="nonzero">
            <path d="M844 299c-4.97 0-9 4.03-9 9s4.03 9 9 9 9-4.03 9-9c-.006-4.968-4.032-8.994-9-9zm0 3.111c.765 0 1.385.62 1.385 1.385 0 .764-.62 1.384-1.385 1.384s-1.385-.62-1.385-1.384c0-.765.62-1.385 1.385-1.385zm2.471 11.752h-4.154c-.573 0-1.038-.465-1.038-1.038 0-.574.465-1.039 1.038-1.039h.868c.094 0 .17-.076.17-.17v-3.117c0-.095-.077-.173-.172-.173h-.866c-.573 0-1.038-.465-1.038-1.038 0-.574.465-1.039 1.038-1.039h1.385c.955 0 1.729.774 1.73 1.73v3.631c0 .097.078.175.175.176h.864c.573 0 1.038.465 1.038 1.039 0 .573-.465 1.038-1.038 1.038z" transform="translate(-835 -299)"/>
        </g>
    </g>
</svg>
