<svg width="18" height="18" viewBox="0 0 18 18" xmlns="http://www.w3.org/2000/svg">
   <path
      d="M9 4.875C10.3462 4.875 11.4375 3.78369 11.4375 2.4375C11.4375 1.09131 10.3462 0 9 0C7.65381 0 6.5625 1.09131 6.5625 2.4375C6.5625 3.78369 7.65381 4.875 9 4.875Z" />
   <path
      d="M9 11.4375C10.3462 11.4375 11.4375 10.3462 11.4375 9C11.4375 7.65381 10.3462 6.5625 9 6.5625C7.65381 6.5625 6.5625 7.65381 6.5625 9C6.5625 10.3462 7.65381 11.4375 9 11.4375Z" />
   <path
      d="M9 18C10.3462 18 11.4375 16.9087 11.4375 15.5625C11.4375 14.2163 10.3462 13.125 9 13.125C7.65381 13.125 6.5625 14.2163 6.5625 15.5625C6.5625 16.9087 7.65381 18 9 18Z" />
</svg>