<svg viewBox="0 0 18 18" xmlns="http://www.w3.org/2000/svg">
<path fill-rule="evenodd" clip-rule="evenodd" d="M14.7934 0.548868C15.1448 0.197435 15.6214 2.5347e-06 16.1184 2.5347e-06C16.3885 -0.000441579 16.6554 0.0574803 16.901 0.169802C17.1466 0.282123 17.365 0.44619 17.5412 0.650767C17.7175 0.855345 17.8474 1.0956 17.9222 1.35508C17.997 1.61456 18.0148 1.88713 17.9744 2.15413C17.934 2.42113 17.8364 2.67625 17.6883 2.90202C17.5401 3.12779 17.3449 3.31888 17.1161 3.46219C16.8872 3.60551 16.6301 3.69767 16.3623 3.73236C16.0945 3.76705 15.8223 3.74345 15.5645 3.66319C15.5319 3.65304 15.4972 3.65194 15.4641 3.65999C15.431 3.66804 15.4006 3.68495 15.3764 3.70891L13.6523 5.4172C13.5824 5.4866 13.4996 5.54155 13.4084 5.57892C13.3173 5.61629 13.2197 5.63534 13.1212 5.63499C13.0227 5.63464 12.9253 5.6149 12.8344 5.57689C12.7436 5.53888 12.6611 5.48334 12.5917 5.41345C12.5223 5.34356 12.4673 5.26069 12.43 5.16956C12.3926 5.07843 12.3735 4.98084 12.3739 4.88235C12.3742 4.78386 12.394 4.6864 12.432 4.59554C12.47 4.50468 12.5255 4.4222 12.5954 4.3528L14.297 2.667C14.3218 2.6422 14.3392 2.61096 14.3473 2.5768C14.3554 2.54264 14.3538 2.50691 14.3427 2.47361C14.2772 2.28047 14.2441 2.07787 14.2445 1.87395C14.2445 1.37695 14.4419 0.900301 14.7934 0.548868ZM15.5264 14.3402C15.7196 14.2751 15.9222 14.2419 16.1261 14.242C16.4967 14.242 16.859 14.3519 17.1672 14.5578C17.4753 14.7637 17.7155 15.0564 17.8574 15.3988C17.9992 15.7412 18.0363 16.118 17.964 16.4815C17.8917 16.845 17.7132 17.179 17.4511 17.441C17.1891 17.7031 16.8552 17.8816 16.4916 17.9539C16.1281 18.0262 15.7513 17.9891 15.4089 17.8472C15.0665 17.7054 14.7738 17.4652 14.5679 17.1571C14.362 16.8489 14.2521 16.4866 14.2521 16.116C14.251 15.9259 14.279 15.7368 14.3353 15.5553C14.3454 15.5226 14.3464 15.4879 14.3382 15.4548C14.33 15.4216 14.3129 15.3913 14.2888 15.3671L12.9329 14.0021C12.8615 13.9328 12.8046 13.8499 12.7656 13.7584C12.7266 13.6668 12.7063 13.5684 12.7057 13.4689C12.7051 13.3694 12.7244 13.2707 12.7623 13.1787C12.8003 13.0867 12.8561 13.0032 12.9267 12.933C12.9973 12.8629 13.0811 12.8075 13.1733 12.77C13.2655 12.7326 13.3643 12.7139 13.4638 12.715C13.5633 12.7162 13.6616 12.7371 13.7529 12.7766C13.8443 12.8162 13.9268 12.8735 13.9958 12.9452L15.333 14.2945C15.3576 14.3196 15.3888 14.3373 15.4231 14.3454C15.4573 14.3534 15.4931 14.3517 15.5264 14.3402ZM5.41526 4.35277L3.71372 2.66473C3.68929 2.64013 3.6721 2.60928 3.66404 2.57557C3.65597 2.54186 3.65734 2.50657 3.66799 2.47358C3.73345 2.28045 3.76662 2.07785 3.76619 1.87392C3.76614 1.47915 3.64143 1.09448 3.40984 0.774777C3.17825 0.455076 2.85161 0.216679 2.47651 0.093595C2.10142 -0.0294891 1.69704 -0.0309728 1.32105 0.0893555C0.94507 0.209684 0.616689 0.445677 0.382757 0.76367C0.148825 1.08166 0.0212922 1.46541 0.0183522 1.86017C0.0154122 2.25493 0.137215 2.64053 0.366385 2.96198C0.595554 3.28342 0.920384 3.52428 1.29454 3.65019C1.66869 3.77611 2.07305 3.78065 2.44993 3.66316C2.48248 3.65293 2.51721 3.65179 2.55036 3.65984C2.58352 3.6679 2.61385 3.68486 2.63807 3.70889L4.3576 5.41717C4.42707 5.48841 4.51002 5.54511 4.60162 5.58395C4.69322 5.6228 4.79164 5.64302 4.89114 5.64344C4.99064 5.64386 5.08922 5.62446 5.18115 5.58638C5.27307 5.5483 5.35649 5.4923 5.42655 5.42165C5.49661 5.35099 5.5519 5.2671 5.5892 5.17485C5.62649 5.08261 5.64505 4.98386 5.64379 4.88437C5.64253 4.78488 5.62148 4.68664 5.58185 4.59537C5.54223 4.5041 5.48483 4.42163 5.41301 4.35277H5.41526ZM2.60105 17.8472C2.37369 17.9414 2.13001 17.9898 1.88392 17.9898C1.61137 17.9913 1.34177 17.9333 1.09394 17.8198C0.846115 17.7064 0.626017 17.5402 0.449 17.333C0.271983 17.1257 0.142308 16.8823 0.069018 16.6198C-0.00427223 16.3573 -0.019413 16.0819 0.0246515 15.8129C0.068716 15.544 0.170925 15.2878 0.324151 15.0624C0.477376 14.837 0.67793 14.6477 0.911825 14.5078C1.14572 14.3679 1.40733 14.2806 1.6784 14.2522C1.94947 14.2238 2.22349 14.2548 2.48134 14.3431C2.51447 14.3546 2.55019 14.3564 2.58431 14.3483C2.61843 14.3402 2.64954 14.3226 2.67398 14.2974L4.01272 12.9482C4.15298 12.8072 4.34348 12.7278 4.54232 12.7273C4.74116 12.7268 4.93205 12.8053 5.073 12.9455C5.21395 13.0858 5.29341 13.2763 5.2939 13.4751C5.29439 13.674 5.21588 13.8649 5.07562 14.0058L3.71889 15.3708C3.69473 15.3949 3.67763 15.4252 3.66944 15.4584C3.66125 15.4916 3.66228 15.5263 3.67241 15.5589C3.72924 15.7391 3.75806 15.927 3.75787 16.1159C3.75787 16.362 3.7094 16.6056 3.61522 16.833C3.52105 17.0604 3.38301 17.2669 3.209 17.441C3.03499 17.615 2.82841 17.753 2.60105 17.8472ZM16.1185 6.7462C15.7732 6.74633 15.4346 6.84189 15.1401 7.02231C14.8457 7.20273 14.6068 7.46101 14.4499 7.76862C14.4342 7.7992 14.4103 7.82488 14.381 7.84285C14.3516 7.86083 14.3179 7.87041 14.2835 7.87056H13.495C13.2962 7.87056 13.1055 7.94954 12.9649 8.09011C12.8244 8.23068 12.7454 8.42134 12.7454 8.62014C12.7454 8.81894 12.8244 9.0096 12.9649 9.15017C13.1055 9.29074 13.2962 9.36972 13.495 9.36972H14.2835C14.318 9.36986 14.3518 9.37952 14.3812 9.39764C14.4105 9.41576 14.4343 9.44163 14.4499 9.47241C14.6014 9.76902 14.8292 10.0199 15.1098 10.1992C15.3905 10.3786 15.7138 10.4799 16.0466 10.4927C16.3794 10.5055 16.7096 10.4294 17.0033 10.2722C17.2969 10.1151 17.5433 9.88246 17.7172 9.59839C17.891 9.31433 17.9861 8.98905 17.9924 8.65607C17.9988 8.32308 17.9163 7.99441 17.7535 7.70388C17.5907 7.41336 17.3533 7.17148 17.066 7.00316C16.7786 6.83483 16.4515 6.74613 16.1185 6.7462ZM3.62976 7.84285C3.6591 7.86082 3.69281 7.8704 3.72721 7.87056H4.51577C4.71457 7.87056 4.90523 7.94953 5.0458 8.0901C5.18637 8.23067 5.26535 8.42133 5.26535 8.62013C5.26535 8.81893 5.18637 9.00959 5.0458 9.15016C4.90523 9.29074 4.71457 9.36971 4.51577 9.36971H3.72721C3.69271 9.36985 3.65892 9.37951 3.62955 9.39763C3.60019 9.41575 3.5764 9.44162 3.56081 9.4724C3.36951 9.84722 3.05762 10.1467 2.67537 10.3227C2.29312 10.4987 1.86276 10.5409 1.45361 10.4425C1.04446 10.3441 0.680323 10.1109 0.419857 9.7804C0.15939 9.44989 0.0177512 9.04132 0.0177512 8.62051C0.0177512 8.19969 0.15939 7.79113 0.419857 7.46061C0.680323 7.1301 1.04446 6.89687 1.45361 6.79849C1.86276 6.70011 2.29312 6.74231 2.67537 6.9183C3.05762 7.09428 3.36951 7.3938 3.56081 7.76861C3.57657 7.7992 3.60042 7.82487 3.62976 7.84285ZM6.8635 5.33695C6.8635 5.7605 6.9891 6.17455 7.22442 6.52672C7.45973 6.8789 7.7942 7.15338 8.18551 7.31547C8.57683 7.47756 9.00742 7.51997 9.42284 7.43734C9.83826 7.35471 10.2198 7.15075 10.5193 6.85125C10.8188 6.55175 11.0228 6.17016 11.1054 5.75474C11.1881 5.33932 11.1457 4.90873 10.9836 4.51741C10.8215 4.1261 10.547 3.79163 10.1948 3.55632C9.84265 3.321 9.4286 3.1954 9.00504 3.1954C8.43707 3.1954 7.89236 3.42103 7.49074 3.82265C7.08913 4.22426 6.8635 4.76897 6.8635 5.33695ZM6.13711 12.1903H6.1324C6.00038 12.19 5.8702 12.1591 5.75202 12.1002C5.63244 12.0405 5.52845 11.9538 5.44835 11.8468C5.36825 11.7398 5.31426 11.6156 5.29069 11.4841C5.26711 11.3526 5.27461 11.2173 5.31257 11.0892C5.55008 10.2936 6.038 9.59593 6.7038 9.09987C7.36959 8.6038 8.17771 8.33585 9.00799 8.33585C9.83827 8.33585 10.6464 8.6038 11.3122 9.09987C11.978 9.59593 12.4659 10.2936 12.7034 11.0892C12.7415 11.2173 12.7492 11.3526 12.7256 11.4842C12.7021 11.6158 12.6482 11.7401 12.568 11.8471C12.4879 11.9541 12.3838 12.0409 12.2642 12.1005C12.1445 12.1601 12.0126 12.1909 11.8789 12.1903H6.13711Z" />
</svg>
