<svg width="16" height="16" viewBox="0 0 16 16" fill="none" xmlns="http://www.w3.org/2000/svg">
<g clip-path="url(#clip0_462_19053)">
<path d="M8.12667 7.32733C8.14992 7.3089 8.16786 7.28462 8.17863 7.25697C8.18941 7.22932 8.19264 7.19931 8.188 7.17C8.18424 7.1402 8.17236 7.11201 8.15367 7.08849C8.13497 7.06498 8.11018 7.04705 8.082 7.03667C7.94867 6.986 7.80978 6.93445 7.66533 6.882L7.24667 6.72867C7.19664 6.66988 7.16468 6.59787 7.15467 6.52133C7.09308 6.2339 7.1064 5.93547 7.19333 5.65467C7.54807 5.27013 7.81831 4.81554 7.98665 4.32019C8.15498 3.82484 8.21766 3.29972 8.17067 2.77867C8.17067 1.17067 7.118 0 5.66667 0C4.21533 0 3.16267 1.17067 3.16267 2.78267C3.11586 3.30144 3.17803 3.82427 3.34519 4.3176C3.51236 4.81093 3.78081 5.26387 4.13333 5.64733C4.22929 5.92986 4.24612 6.23326 4.182 6.52467C4.17178 6.60038 4.14061 6.67173 4.092 6.73067L3.67133 6.88533C2.04 7.48533 0.861333 7.91867 0.502 8.636C0.179078 9.38276 0.00841262 10.1865 0 11C0 11.0884 0.0351189 11.1732 0.0976311 11.2357C0.160143 11.2982 0.244928 11.3333 0.333333 11.3333H6.172C6.19464 11.3333 6.21703 11.3286 6.2378 11.3196C6.25858 11.3106 6.27731 11.2975 6.29284 11.281C6.30837 11.2646 6.32039 11.2451 6.32815 11.2238C6.33592 11.2026 6.33927 11.1799 6.338 11.1573C6.338 11.1053 6.33333 11.0527 6.33333 11C6.33338 10.2918 6.49492 9.59288 6.80567 8.95647C7.11643 8.32006 7.56821 7.76289 8.12667 7.32733Z" />
<path d="M14.1153 13.1726C14.0885 13.1458 14.0717 13.1106 14.0676 13.0729C14.0634 13.0352 14.0723 12.9973 14.0927 12.9653C14.5789 12.2016 14.7662 11.2854 14.6187 10.3922C14.4711 9.49899 13.9991 8.69167 13.293 8.12499C12.587 7.55831 11.6967 7.27215 10.7927 7.32135C9.88874 7.37056 9.03472 7.75167 8.39438 8.39163C7.75404 9.0316 7.37243 9.88538 7.32269 10.7893C7.27295 11.6933 7.55859 12.5838 8.12485 13.2901C8.69111 13.9965 9.49815 14.469 10.3913 14.6171C11.2844 14.7652 12.2007 14.5784 12.9647 14.0926C12.9967 14.0723 13.0346 14.0634 13.0723 14.0675C13.11 14.0716 13.1452 14.0885 13.172 14.1153L14.862 15.8046C14.9877 15.9261 15.1561 15.9933 15.3309 15.9917C15.5057 15.9902 15.6729 15.9201 15.7965 15.7965C15.9202 15.6729 15.9903 15.5057 15.9918 15.3309C15.9933 15.1561 15.9261 14.9877 15.8047 14.862L14.1153 13.1726ZM8.66667 11C8.66667 10.5385 8.80352 10.0873 9.05991 9.70363C9.3163 9.31991 9.68072 9.02084 10.1071 8.84424C10.5334 8.66763 11.0026 8.62143 11.4552 8.71146C11.9078 8.80149 12.3236 9.02372 12.6499 9.35004C12.9762 9.67637 13.1985 10.0921 13.2885 10.5447C13.3785 10.9974 13.3323 11.4665 13.1557 11.8929C12.9791 12.3192 12.68 12.6837 12.2963 12.9401C11.9126 13.1964 11.4615 13.3333 11 13.3333C10.3812 13.3333 9.78767 13.0875 9.35009 12.6499C8.9125 12.2123 8.66667 11.6188 8.66667 11Z" />
</g>
<defs>
<clipPath id="clip0_462_19053">
<rect width="16" height="16" />
</clipPath>
</defs>
</svg>
