<svg width="18" height="16" viewBox="0 0 18 16" xmlns="http://www.w3.org/2000/svg">
<path d="M17.8027 1.37007C17.7817 1.24517 17.7296 1.12756 17.6512 1.02807C17.5728 0.928574 17.4706 0.850396 17.3541 0.800726C17.2376 0.751056 17.1105 0.731489 16.9844 0.743825C16.8583 0.756162 16.7374 0.800006 16.6327 0.871323C14.9074 1.9238 12.9055 2.4331 10.887 2.33307C6.25273 2.33307 4.31848 4.22232 4.28173 4.26582C3.19777 5.06481 2.4118 6.20301 2.04859 7.49971C1.68538 8.79641 1.76577 10.1773 2.27698 11.4231C2.30441 11.49 2.31192 11.5633 2.29862 11.6344C2.28531 11.7055 2.25175 11.7711 2.20198 11.8236L0.200976 13.9903C0.0718665 14.1302 0.000306781 14.3136 0.00061132 14.5039C0.000915858 14.6942 0.0730621 14.8774 0.202619 15.0168C0.332176 15.1562 0.509591 15.2416 0.699376 15.2558C0.889162 15.27 1.07732 15.2121 1.22623 15.0936C2.51323 13.9243 4.61248 10.3993 10.5142 7.93257C10.6986 7.85732 10.9053 7.85796 11.0892 7.93435C11.2732 8.01074 11.4195 8.1567 11.4964 8.34046C11.5732 8.52421 11.5743 8.73088 11.4995 8.91547C11.4247 9.10007 11.2801 9.24764 11.097 9.32607C8.74079 10.2903 6.59354 11.7015 4.77373 13.4818L4.76698 13.4893L4.59298 13.6776C4.55468 13.718 4.52587 13.7665 4.50865 13.8194C4.49143 13.8724 4.48622 13.9285 4.4934 13.9838C4.50058 14.039 4.51997 14.0919 4.55017 14.1387C4.58037 14.1855 4.62061 14.225 4.66798 14.2543C5.62594 14.8548 6.73389 15.1727 7.86448 15.1716C9.38603 15.1448 10.8769 14.7394 12.2025 13.9918C18.7792 10.3738 18.15 3.41607 17.8027 1.37007Z" />
</svg>
