<svg width="18" height="18" viewBox="0 0 18 18" xmlns="http://www.w3.org/2000/svg">
   <path
      d="M1.875 4.87353C2.91053 4.87353 3.75 4.03407 3.75 2.99853C3.75 1.963 2.91053 1.12354 1.875 1.12354C0.839466 1.12354 0 1.963 0 2.99853C0 4.03407 0.839466 4.87353 1.875 4.87353Z" />
   <path
      d="M6.375 3.75H17.25C17.4489 3.75 17.6397 3.67098 17.7803 3.53033C17.921 3.38968 18 3.19891 18 3C18 2.80109 17.921 2.61032 17.7803 2.46967C17.6397 2.32902 17.4489 2.25 17.25 2.25H6.375C6.17609 2.25 5.98532 2.32902 5.84467 2.46967C5.70402 2.61032 5.625 2.80109 5.625 3C5.625 3.19891 5.70402 3.38968 5.84467 3.53033C5.98532 3.67098 6.17609 3.75 6.375 3.75Z" />
   <path
      d="M1.875 10.8735C2.91053 10.8735 3.75 10.0341 3.75 8.99853C3.75 7.963 2.91053 7.12354 1.875 7.12354C0.839466 7.12354 0 7.963 0 8.99853C0 10.0341 0.839466 10.8735 1.875 10.8735Z" />
   <path
      d="M17.25 8.25H6.375C6.17609 8.25 5.98532 8.32902 5.84467 8.46967C5.70402 8.61032 5.625 8.80109 5.625 9C5.625 9.19891 5.70402 9.38968 5.84467 9.53033C5.98532 9.67098 6.17609 9.75 6.375 9.75H17.25C17.4489 9.75 17.6397 9.67098 17.7803 9.53033C17.921 9.38968 18 9.19891 18 9C18 8.80109 17.921 8.61032 17.7803 8.46967C17.6397 8.32902 17.4489 8.25 17.25 8.25Z" />
   <path
      d="M1.875 16.8735C2.91053 16.8735 3.75 16.0341 3.75 14.9985C3.75 13.963 2.91053 13.1235 1.875 13.1235C0.839466 13.1235 0 13.963 0 14.9985C0 16.0341 0.839466 16.8735 1.875 16.8735Z" />
   <path
      d="M17.25 14.25H6.375C6.17609 14.25 5.98532 14.329 5.84467 14.4697C5.70402 14.6103 5.625 14.8011 5.625 15C5.625 15.1989 5.70402 15.3897 5.84467 15.5303C5.98532 15.671 6.17609 15.75 6.375 15.75H17.25C17.4489 15.75 17.6397 15.671 17.7803 15.5303C17.921 15.3897 18 15.1989 18 15C18 14.8011 17.921 14.6103 17.7803 14.4697C17.6397 14.329 17.4489 14.25 17.25 14.25Z" />
</svg>