<svg viewBox="0 0 30 34" xmlns="http://www.w3.org/2000/svg">
<path d="M13.8989 33.7616L7.34277 29.9772L11.1049 27.8064L14.8151 29.9513L25.9372 23.534V10.4228L22.3394 8.34719L11.0616 14.8595V23.5167L7.34277 25.6616V13.6993C7.34277 13.0633 7.68213 12.4756 8.23297 12.1577L22.3134 4.03157L28.7751 7.76413C29.3256 8.08213 29.6647 8.66961 29.6647 9.30535V24.6518C29.6647 25.2874 29.3257 25.8748 28.7754 26.1928L15.6792 33.7612C15.1285 34.0794 14.4498 34.0796 13.8989 33.7616Z" fill="#20CAF7" />
<path d="M15.7657 0.238384L22.3218 4.02279L18.5597 6.19357L14.8494 4.04873L3.7274 10.466L3.7274 23.5772L7.32519 25.6528L18.6029 19.1404L18.6029 10.4832L22.3218 8.33841L22.3218 20.3007C22.3218 20.9367 21.9824 21.5244 21.4316 21.8423L7.35114 29.9684L0.889468 26.2359C0.338967 25.9179 -0.00012548 25.3304 -0.000125424 24.6946L-0.000124082 9.34823C-0.000124027 8.71261 0.338837 8.12522 0.88917 7.80718L13.9853 0.23883C14.5361 -0.0794513 15.2148 -0.0796191 15.7657 0.238384Z" fill="white" />
</svg>
