<svg width="300" height="45" viewBox="0 0 300 45" fill="none" xmlns="http://www.w3.org/2000/svg">
<path d="M47.4208 36.5853V7.68237H52.1691V36.5853H47.4208ZM50.6827 36.5853V32.2499H65.7948V36.5853H50.6827Z" fill="white"/>
<path d="M77.1314 36.9982C75.4522 36.9982 73.952 36.6266 72.6308 35.8834C71.337 35.1402 70.3185 34.1217 69.5753 32.828C68.8596 31.5067 68.5018 29.9927 68.5018 28.2861V16.7662H73.0437V28.0796C73.0437 29.043 73.1951 29.8688 73.4978 30.557C73.8282 31.2176 74.2961 31.7269 74.9017 32.0847C75.5348 32.4426 76.278 32.6215 77.1314 32.6215C78.4526 32.6215 79.4574 32.2361 80.1455 31.4654C80.8612 30.6671 81.2191 29.5385 81.2191 28.0796V16.7662H85.761V28.2861C85.761 30.0202 85.3894 31.548 84.6461 32.8692C83.9304 34.163 82.9257 35.1815 81.632 35.9247C80.3382 36.6404 78.838 36.9982 77.1314 36.9982Z" fill="white"/>
<path d="M89.8221 36.5853V16.7662H94.364V36.5853H89.8221ZM102.994 36.5853V24.7764C102.994 23.4551 102.581 22.4366 101.755 21.721C100.929 20.9777 99.9106 20.6061 98.6994 20.6061C97.8736 20.6061 97.1304 20.7713 96.4698 21.1016C95.8367 21.4319 95.3274 21.9136 94.9421 22.5468C94.5567 23.1523 94.364 23.8956 94.364 24.7764L92.5885 23.7855C92.5885 22.2715 92.9188 20.964 93.5795 19.8629C94.2401 18.7618 95.1347 17.9085 96.2633 17.3029C97.3919 16.6698 98.6581 16.3533 100.062 16.3533C101.466 16.3533 102.732 16.6561 103.861 17.2616C104.989 17.8672 105.884 18.7206 106.545 19.8216C107.205 20.9227 107.535 22.244 107.535 23.7855V36.5853H102.994ZM116.165 36.5853V24.7764C116.165 23.4551 115.752 22.4366 114.926 21.721C114.101 20.9777 113.082 20.6061 111.871 20.6061C111.727 20.6061 111.146 20.62 110.621 20.7535C107.36 21.5825 107.526 24.7605 107.526 24.7605C106.76 24.2623 106.645 20.5257 105.868 20.3113C105.868 20.3113 107.535 18.0177 109.239 17.2616C110.648 16.5254 111.623 16.3533 113.027 16.3533C114.458 16.3533 115.752 16.6561 116.908 17.2616C118.064 17.8672 118.987 18.7206 119.675 19.8216C120.363 20.9227 120.707 22.244 120.707 23.7855V36.5853H116.165Z" fill="white"/>
<path d="M124.922 36.5853V16.7662H129.464V36.5853H124.922ZM127.193 13.1326C126.422 13.1326 125.775 12.8711 125.252 12.3481C124.757 11.8251 124.509 11.1783 124.509 10.4075C124.509 9.63676 124.757 8.98989 125.252 8.46688C125.775 7.94388 126.422 7.68237 127.193 7.68237C127.991 7.68237 128.638 7.94388 129.134 8.46688C129.629 8.98989 129.877 9.63676 129.877 10.4075C129.877 11.1783 129.629 11.8251 129.134 12.3481C128.638 12.8711 127.991 13.1326 127.193 13.1326Z" fill="white"/>
<path d="M147.637 36.5853V25.148C147.637 23.8267 147.21 22.7394 146.357 21.8861C145.531 21.0328 144.458 20.6061 143.136 20.6061C142.255 20.6061 141.471 20.7988 140.783 21.1842C140.095 21.5696 139.558 22.1063 139.172 22.7945C138.787 23.4827 138.594 24.2672 138.594 25.148L136.819 24.1571C136.819 22.6431 137.149 21.3081 137.81 20.1519C138.47 18.9683 139.379 18.0462 140.535 17.3855C141.719 16.6973 143.04 16.3533 144.499 16.3533C145.985 16.3533 147.307 16.7386 148.463 17.5094C149.619 18.2526 150.527 19.2298 151.188 20.441C151.848 21.6246 152.179 22.8633 152.179 24.1571V36.5853H147.637ZM134.052 36.5853V16.7662H138.594V36.5853H134.052Z" fill="white"/>
<path d="M164.588 36.9982C162.799 36.9982 161.175 36.544 159.716 35.6357C158.284 34.7273 157.142 33.5024 156.289 31.9609C155.463 30.3918 155.05 28.6439 155.05 26.717C155.05 24.7626 155.463 23.0147 156.289 21.4732C157.142 19.9042 158.284 18.6655 159.716 17.7571C161.175 16.8212 162.799 16.3533 164.588 16.3533C166.102 16.3533 167.437 16.6836 168.593 17.3442C169.777 17.9773 170.713 18.8582 171.401 19.9868C172.089 21.1154 172.433 22.3954 172.433 23.8267V29.5248C172.433 30.9561 172.089 32.2361 171.401 33.3647C170.74 34.4933 169.818 35.3879 168.634 36.0486C167.451 36.6817 166.102 36.9982 164.588 36.9982ZM165.331 32.7041C167.01 32.7041 168.359 32.1398 169.377 31.0112C170.423 29.8826 170.947 28.4375 170.947 26.6757C170.947 25.4921 170.713 24.4461 170.245 23.5377C169.777 22.6293 169.116 21.9274 168.263 21.4319C167.437 20.9089 166.46 20.6474 165.331 20.6474C164.23 20.6474 163.253 20.9089 162.399 21.4319C161.574 21.9274 160.913 22.6293 160.418 23.5377C159.95 24.4461 159.716 25.4921 159.716 26.6757C159.716 27.8594 159.95 28.9054 160.418 29.8138C160.913 30.7222 161.574 31.4379 162.399 31.9609C163.253 32.4563 164.23 32.7041 165.331 32.7041ZM170.657 36.5853V31.2589L171.442 26.428L170.657 21.6384V16.7662H175.199V36.5853H170.657Z" fill="white"/>
<path d="M179.734 36.5853V16.7662H184.276V36.5853H179.734ZM184.276 25.7782L182.707 24.7764C182.707 22.2715 183.258 20.2483 184.359 18.7068C185.932 17.0794 186.898 16.7493 190.651 16.7662L190.337 18.4508C190.068 19.8934 188.685 20.7475 187.256 21.0799C186.619 21.2279 185.997 21.5109 185.515 22.0208C184.689 22.8191 184.276 24.0715 184.276 25.7782Z" fill="white"/>
<path d="M199.116 36.7918L190.651 16.7662H195.647L201.428 31.4654H199.983L206.094 16.7662H211.131L201.924 36.7918H199.116ZM193.211 44.8433L199.364 32.1673L201.924 36.7918L198.249 44.8433H193.211Z" fill="white"/>
<path d="M210.108 36.5853L222 7.68237H225.303L237.112 36.5853H231.992L222.743 13.1739H224.477L215.146 36.5853H210.108ZM217.404 31.0112L221.164 27.5991C221.673 27.1378 222.335 26.8822 223.021 26.8822H231.29V31.0112H217.404Z" fill="#20CAF7"/>
<path d="M250.228 36.9982C248.714 36.9982 247.365 36.6817 246.182 36.0486C244.998 35.3879 244.062 34.4933 243.374 33.3647C242.713 32.2361 242.383 30.9561 242.383 29.5248V23.8267C242.383 22.3954 242.727 21.1154 243.415 19.9868C244.104 18.8582 245.039 17.9773 246.223 17.3442C247.407 16.6836 248.742 16.3533 250.228 16.3533C252.017 16.3533 253.628 16.8212 255.059 17.7571C256.518 18.6655 257.66 19.9042 258.486 21.4732C259.34 23.0147 259.766 24.7626 259.766 26.717C259.766 28.6439 259.34 30.3918 258.486 31.9609C257.66 33.5024 256.518 34.7273 255.059 35.6357C253.628 36.544 252.017 36.9982 250.228 36.9982ZM249.485 32.7041C250.586 32.7041 251.55 32.4563 252.375 31.9609C253.229 31.4379 253.889 30.7222 254.357 29.8138C254.853 28.9054 255.1 27.8594 255.1 26.6757C255.1 25.4921 254.853 24.4461 254.357 23.5377C253.889 22.6293 253.229 21.9274 252.375 21.4319C251.55 20.9089 250.586 20.6474 249.485 20.6474C248.384 20.6474 247.407 20.9089 246.553 21.4319C245.7 21.9274 245.039 22.6293 244.571 23.5377C244.104 24.4461 243.87 25.4921 243.87 26.6757C243.87 27.8594 244.104 28.9054 244.571 29.8138C245.039 30.7222 245.7 31.4379 246.553 31.9609C247.407 32.4563 248.384 32.7041 249.485 32.7041ZM239.617 44.8433V16.7662H244.159V22.0926L243.374 26.9235L244.159 31.7131V44.8433H239.617Z" fill="#20CAF7"/>
<path d="M273.168 36.9982C271.654 36.9982 270.306 36.6817 269.122 36.0486C267.938 35.3879 267.002 34.4933 266.314 33.3647C265.654 32.2361 265.323 30.9561 265.323 29.5248V23.8267C265.323 22.3954 265.667 21.1154 266.356 19.9868C267.044 18.8582 267.98 17.9773 269.163 17.3442C270.347 16.6836 271.682 16.3533 273.168 16.3533C274.958 16.3533 276.568 16.8212 277.999 17.7571C279.458 18.6655 280.601 19.9042 281.426 21.4732C282.28 23.0147 282.706 24.7626 282.706 26.717C282.706 28.6439 282.28 30.3918 281.426 31.9609C280.601 33.5024 279.458 34.7273 277.999 35.6357C276.568 36.544 274.958 36.9982 273.168 36.9982ZM272.425 32.7041C273.526 32.7041 274.49 32.4563 275.316 31.9609C276.169 31.4379 276.829 30.7222 277.297 29.8138C277.793 28.9054 278.041 27.8594 278.041 26.6757C278.041 25.4921 277.793 24.4461 277.297 23.5377C276.829 22.6293 276.169 21.9274 275.316 21.4319C274.49 20.9089 273.526 20.6474 272.425 20.6474C271.324 20.6474 270.347 20.9089 269.494 21.4319C268.64 21.9274 267.98 22.6293 267.512 23.5377C267.044 24.4461 266.81 25.4921 266.81 26.6757C266.81 27.8594 267.044 28.9054 267.512 29.8138C267.98 30.7222 268.64 31.4379 269.494 31.9609C270.347 32.4563 271.324 32.7041 272.425 32.7041ZM262.557 44.8433V16.7662H267.099V22.0926L266.314 26.9235L267.099 31.7131V44.8433H262.557Z" fill="#20CAF7"/>
<path d="M292.485 36.9982C291.384 36.9982 290.324 36.8606 289.306 36.5853C288.287 36.2825 287.352 35.8696 286.498 35.3466C285.645 34.7961 284.902 34.1355 284.269 33.3647L287.159 30.4744C287.847 31.2727 288.632 31.8783 289.512 32.2912C290.421 32.6766 291.439 32.8692 292.568 32.8692C293.586 32.8692 294.357 32.7178 294.88 32.4151C295.403 32.1123 295.665 31.6718 295.665 31.0938C295.665 30.4882 295.417 30.0202 294.921 29.6899C294.426 29.3596 293.779 29.0843 292.981 28.8641C292.21 28.6164 291.384 28.3686 290.503 28.1209C289.65 27.8732 288.824 27.5428 288.026 27.1299C287.255 26.6895 286.622 26.0977 286.127 25.3545C285.631 24.6112 285.383 23.6478 285.383 22.4642C285.383 21.1979 285.672 20.1106 286.25 19.2023C286.856 18.2939 287.696 17.592 288.769 17.0965C289.87 16.601 291.178 16.3533 292.692 16.3533C294.288 16.3533 295.692 16.6423 296.903 17.2204C298.142 17.7709 299.174 18.6104 300 19.739L297.11 22.6293C296.532 21.9136 295.871 21.3769 295.128 21.019C294.385 20.6612 293.531 20.4823 292.568 20.4823C291.659 20.4823 290.958 20.6199 290.462 20.8952C289.967 21.1704 289.719 21.5696 289.719 22.0926C289.719 22.6431 289.967 23.0698 290.462 23.3726C290.958 23.6753 291.591 23.9368 292.361 24.1571C293.16 24.3773 293.985 24.625 294.839 24.9003C295.72 25.148 296.545 25.5059 297.316 25.9738C298.114 26.4142 298.761 27.0198 299.257 27.7906C299.752 28.5338 300 29.511 300 30.7222C300 32.649 299.326 34.1768 297.977 35.3053C296.628 36.4339 294.797 36.9982 292.485 36.9982Z" fill="#20CAF7"/>
<path d="M18.333 44.5307L9.69678 39.5298L14.6472 36.6764L19.5426 39.5073L34.2135 31.0424V13.7476L29.4677 11.0096L14.5914 19.6V30.9912L9.66281 33.8373L9.66281 18.0703C9.66281 17.2309 10.1109 16.4554 10.8381 16.0362L29.4335 5.31693L37.957 10.2405C38.6831 10.66 39.1304 11.4349 39.1304 12.2735V32.5168C39.1304 33.3552 38.6833 34.13 37.9574 34.5495L20.6843 44.5318C19.9568 44.9522 19.0601 44.9518 18.333 44.5307Z" fill="#20CAF7"/>
<path d="M20.7974 0.31607L29.4335 5.31687L24.4862 8.17212L19.5879 5.33958L4.91693 13.8045L4.91693 31.0993L9.66273 33.8372L24.539 25.2469L24.539 13.8557L29.4681 11.0094L29.4681 26.7765C29.4681 27.6159 29.02 28.3914 28.2928 28.8106L9.69696 39.5299L1.17345 34.6063C0.447297 34.1869 2.4422e-06 33.4119 2.51551e-06 32.5733L4.28523e-06 12.3301C4.35853e-06 11.4916 0.447125 10.7168 1.17306 10.2973L18.4462 0.315063C19.1736 -0.105351 20.0703 -0.104962 20.7974 0.31607Z" fill="white"/>
</svg>
