<svg viewBox="0 0 18 18" xmlns="http://www.w3.org/2000/svg">
<path fill-rule="evenodd" clip-rule="evenodd" d="M15.7519 0.438376L17.5609 2.24808C17.7001 2.38731 17.8106 2.55261 17.886 2.73455C17.9613 2.91649 18.0001 3.1115 18 3.30842V13.8624C18 14.2599 17.8421 14.6411 17.561 14.9222C17.28 15.2032 16.8988 15.3611 16.5013 15.3611H9.35164C9.3138 15.3607 9.27656 15.3517 9.24269 15.3348C9.20883 15.3179 9.17921 15.2936 9.15606 15.2637L8.8773 14.9849C8.84553 14.9438 8.82503 14.895 8.8178 14.8435C8.81058 14.792 8.81688 14.7395 8.83608 14.6912C8.9453 14.465 9.03845 14.2314 9.11484 13.992C9.12647 13.9548 9.14966 13.9222 9.18106 13.899C9.21245 13.8759 9.25042 13.8633 9.28944 13.8632H16.1266C16.226 13.8632 16.3213 13.8237 16.3915 13.7534C16.4618 13.6831 16.5013 13.5878 16.5013 13.4885V3.46279C16.5011 3.3635 16.4614 3.26836 16.3911 3.19827L14.8017 1.60813C14.7315 1.53808 14.6364 1.49874 14.5372 1.49872H6.38492C6.28555 1.49872 6.19025 1.53819 6.11999 1.60846C6.04972 1.67873 6.01024 1.77403 6.01024 1.8734V7.21184C6.00992 7.24086 6.00266 7.26939 5.98907 7.29504C5.97548 7.32068 5.95595 7.34271 5.93212 7.35928C5.90829 7.37586 5.88085 7.38649 5.85207 7.3903C5.8233 7.39411 5.79403 7.39099 5.7667 7.38119C5.41321 7.26485 5.04813 7.18721 4.67788 7.14964C4.63262 7.14572 4.59047 7.12501 4.55969 7.0916C4.52891 7.05819 4.51173 7.01447 4.51153 6.96905V1.49872C4.51153 1.10123 4.66943 0.720029 4.95049 0.438965C5.23155 0.1579 5.61276 6.15809e-08 6.01024 6.15809e-08H14.6923C15.0897 -0.000113762 15.4708 0.157566 15.7519 0.438376ZM14.7831 5.09032C14.9236 5.23085 15.0026 5.42145 15.0026 5.6202C15.0026 5.81894 14.9236 6.00954 14.7831 6.15007C14.6425 6.29061 14.4519 6.36956 14.2532 6.36956H9.00768C8.80894 6.36956 8.61834 6.29061 8.47781 6.15007C8.33727 6.00954 8.25832 5.81894 8.25832 5.6202C8.25832 5.42145 8.33727 5.23085 8.47781 5.09032C8.61834 4.94979 8.80894 4.87084 9.00768 4.87084H14.2532C14.4519 4.87084 14.6425 4.94979 14.7831 5.09032ZM7.58392 14.7192C7.58814 14.7601 7.60609 14.7983 7.63484 14.8276L9.50974 16.7055C9.65025 16.8461 9.72915 17.0368 9.72908 17.2355C9.72901 17.4343 9.64998 17.6249 9.50937 17.7654C9.36876 17.906 9.17809 17.9849 8.9793 17.9848C8.78052 17.9847 8.58991 17.9057 8.4494 17.7651L6.57225 15.8872C6.54292 15.8584 6.50466 15.8405 6.4638 15.8364C6.42293 15.8324 6.38189 15.8423 6.34744 15.8647C5.48877 16.4109 4.45866 16.6209 3.45469 16.4544C2.45071 16.2879 1.54355 15.7566 0.90717 14.9625C0.270794 14.1683 -0.0499913 13.1671 0.0063358 12.151C0.0626629 11.1349 0.492137 10.1753 1.21239 9.45632C1.93265 8.73735 2.89298 8.30958 3.9092 8.25507C4.92543 8.20055 5.92601 8.52312 6.71905 9.1609C7.5121 9.79869 8.04177 10.7068 8.20648 11.7111C8.3712 12.7153 8.15937 13.7451 7.61161 14.6028C7.58947 14.6373 7.5797 14.6784 7.58392 14.7192ZM2.6797 14.5699C3.11101 14.8581 3.6181 15.0119 4.13683 15.0119C4.83243 15.0119 5.49954 14.7356 5.9914 14.2437C6.48326 13.7519 6.75959 13.0848 6.75959 12.3892C6.75959 11.8704 6.60577 11.3633 6.31758 10.932C6.02938 10.5007 5.61976 10.1646 5.14052 9.96605C4.66127 9.76754 4.13392 9.7156 3.62516 9.8168C3.11639 9.918 2.64906 10.1678 2.28226 10.5346C1.91546 10.9014 1.66567 11.3687 1.56447 11.8775C1.46327 12.3863 1.51521 12.9136 1.71372 13.3929C1.91223 13.8721 2.24839 14.2817 2.6797 14.5699ZM9.38236 8.24296C9.18362 8.24296 8.99302 8.32191 8.85249 8.46244C8.71195 8.60297 8.633 8.79357 8.633 8.99232C8.633 9.19106 8.71195 9.38166 8.85249 9.52219C8.99302 9.66273 9.18362 9.74168 9.38236 9.74168H12.3798C12.5785 9.74168 12.7691 9.66273 12.9097 9.52219C13.0502 9.38166 13.1292 9.19106 13.1292 8.99232C13.1292 8.79357 13.0502 8.60297 12.9097 8.46244C12.7691 8.32191 12.5785 8.24296 12.3798 8.24296H9.38236Z" />
</svg>
