<svg viewBox="0 0 20 18" xmlns="http://www.w3.org/2000/svg">
<path fill-rule="evenodd" clip-rule="evenodd" d="M16.4075 11.5707L19.4494 14.6118H19.4519C19.619 14.7626 19.7536 14.9459 19.8478 15.1504C19.9419 15.3549 19.9935 15.5763 19.9994 15.8014C20.0054 16.0264 19.9655 16.2503 19.8823 16.4594C19.7991 16.6686 19.6742 16.8587 19.5154 17.0182C19.3565 17.1776 19.1668 17.3031 18.958 17.3871C18.7491 17.471 18.5253 17.5117 18.3003 17.5065C18.0752 17.5014 17.8536 17.4506 17.6488 17.3572C17.4439 17.2638 17.2602 17.1297 17.1088 16.9632L14.0594 13.9138C14.0264 13.8811 13.9833 13.8603 13.9371 13.8547C13.8909 13.8492 13.8442 13.8591 13.8043 13.8831C12.6489 14.585 11.3225 14.955 9.97061 14.9524C8.45153 14.951 6.96885 14.4873 5.71954 13.6231C4.47022 12.7589 3.5134 11.5351 2.97619 10.1142C2.95238 10.0513 2.94419 9.98353 2.95235 9.91676C2.9605 9.84999 2.98474 9.7862 3.02299 9.73088C3.06124 9.67555 3.11235 9.63033 3.17193 9.59912C3.23151 9.5679 3.29778 9.55162 3.36504 9.55167H4.26323C4.34417 9.55155 4.42339 9.57508 4.49114 9.61936C4.55889 9.66364 4.61223 9.72675 4.64461 9.80094C5.188 11.0443 6.14831 12.0591 7.35988 12.6702C8.57146 13.2813 9.95831 13.4504 11.2812 13.1483C12.6041 12.8462 13.7801 12.0919 14.6064 11.0155C15.4326 9.93908 15.8572 8.60805 15.8071 7.25202C15.7569 5.89599 15.235 4.59999 14.3315 3.58758C13.4279 2.57518 12.1994 1.90985 10.8578 1.70638C9.51616 1.50291 8.14559 1.77404 6.9825 2.47302C5.81942 3.172 4.93674 4.25498 4.48674 5.53515C4.45803 5.61674 4.40457 5.68733 4.33382 5.73707C4.26307 5.78682 4.17856 5.81325 4.09207 5.81267H3.21548C3.15084 5.81173 3.08731 5.79572 3.02994 5.7659C2.97258 5.73609 2.92296 5.6933 2.88504 5.64094C2.84712 5.58858 2.82195 5.52809 2.81152 5.46429C2.80109 5.40049 2.80569 5.33513 2.82496 5.27342C3.35262 3.56316 4.47619 2.09887 5.99159 1.14652C7.507 0.194163 9.31372 -0.18308 11.0836 0.083307C12.8535 0.349694 14.4691 1.24204 15.637 2.59827C16.805 3.95449 17.4478 5.68464 17.4486 7.47445C17.4493 8.82903 17.0785 10.1579 16.3768 11.3165C16.3529 11.3562 16.3429 11.4028 16.3485 11.4489C16.3541 11.4949 16.3748 11.5378 16.4075 11.5707ZM7.29936 6.84458L6.78171 7.81423C6.67369 8.02381 6.51033 8.19981 6.30937 8.32314C6.10841 8.44647 5.87752 8.51242 5.64174 8.51383H0.830889C0.610523 8.51383 0.399184 8.42629 0.243362 8.27047C0.0875398 8.11465 0 7.90331 0 7.68294C0 7.46258 0.0875398 7.25124 0.243362 7.09542C0.399184 6.93959 0.610523 6.85206 0.830889 6.85206H5.41075L6.51001 4.78979C6.62833 4.55513 6.81632 4.36281 7.04823 4.2392C7.28014 4.11558 7.5446 4.06673 7.80537 4.09932C8.06128 4.13384 8.30126 4.2433 8.4951 4.41392C8.68893 4.58455 8.82796 4.8087 8.89467 5.05817L9.68318 7.87156C9.6944 7.91265 9.71808 7.94926 9.75097 7.97634C9.78385 8.00342 9.82432 8.01964 9.86681 8.02278C9.90922 8.02602 9.95161 8.01622 9.98829 7.99468C10.025 7.97315 10.0542 7.94091 10.072 7.9023L10.8713 6.1458C10.965 5.92942 11.1166 5.74316 11.3096 5.60763C11.5025 5.4721 11.7291 5.39258 11.9645 5.37788C12.1998 5.36317 12.4346 5.41385 12.6428 5.5243C12.8511 5.63476 13.0248 5.80068 13.1447 6.00372L14.2082 7.75606C14.2648 7.84935 14.3025 7.95289 14.3191 8.06075C14.3358 8.16861 14.331 8.27869 14.3051 8.3847C14.2791 8.49071 14.2326 8.59058 14.1681 8.6786C14.1035 8.76662 14.0223 8.84107 13.929 8.8977C13.8357 8.95433 13.7322 8.99203 13.6243 9.00865C13.5165 9.02527 13.4064 9.02048 13.3004 8.99456C13.1944 8.96863 13.0945 8.92208 13.0065 8.85756C12.9185 8.79304 12.844 8.71182 12.7874 8.61852L12.2963 7.80924C12.2767 7.777 12.2487 7.7507 12.2153 7.73318C12.1819 7.71566 12.1443 7.70758 12.1066 7.7098C12.0689 7.71202 12.0326 7.72446 12.0015 7.74579C11.9703 7.76711 11.9456 7.79652 11.9299 7.83084L10.9279 10.0319C10.8259 10.2594 10.6609 10.4529 10.4524 10.5896C10.2439 10.7262 10.0006 10.8003 9.75131 10.8029C9.71358 10.8034 9.67586 10.8017 9.63831 10.7979C9.37408 10.7719 9.12417 10.6655 8.92216 10.4932C8.72015 10.3209 8.57573 10.0909 8.5083 9.83412L7.6824 6.88612C7.67114 6.84627 7.64822 6.81069 7.6166 6.78396C7.58497 6.75722 7.54607 6.74055 7.5049 6.73608C7.46373 6.73162 7.42216 6.73956 7.38553 6.75889C7.34891 6.77823 7.3189 6.80806 7.29936 6.84458Z" />
</svg>
