<svg viewBox="0 0 16 16" xmlns="http://www.w3.org/2000/svg">
<path d="M15.5631 13.3858L12.8531 10.6756C12.7595 10.582 12.6986 10.4608 12.6793 10.3299C12.66 10.199 12.6833 10.0654 12.7459 9.94877C13.2719 8.97361 13.5482 7.88339 13.5503 6.77542C13.5503 5.43537 13.1529 4.12541 12.4085 3.0112C11.664 1.89699 10.6059 1.02857 9.36789 0.515751C8.12989 0.0029357 6.76763 -0.13124 5.45338 0.130191C4.13913 0.391622 2.93192 1.03692 1.9844 1.98447C1.03688 2.93203 0.391606 4.1393 0.130186 5.4536C-0.131235 6.7679 0.00293559 8.13021 0.51573 9.36825C1.02853 10.6063 1.89691 11.6645 3.01108 12.409C4.12525 13.1535 5.43515 13.5508 6.77515 13.5508C7.88458 13.5507 8.97662 13.2751 9.95331 12.7489C10.07 12.6864 10.2037 12.6633 10.3346 12.6828C10.4655 12.7023 10.5867 12.7635 10.6801 12.8573L13.3902 15.5674C13.6805 15.848 14.0694 16.0033 14.4731 15.9999C14.8769 15.9966 15.2631 15.8347 15.5487 15.5493C15.8343 15.2639 15.9963 14.8777 15.9999 14.4739C16.0036 14.0702 15.8485 13.6812 15.5681 13.3907L15.5631 13.3858ZM2.46369 6.77542C2.46369 5.92266 2.71655 5.08905 3.1903 4.38C3.66405 3.67096 4.33741 3.11833 5.12523 2.79199C5.91304 2.46565 6.77993 2.38027 7.61627 2.54664C8.45261 2.713 9.22084 3.12364 9.82381 3.72664C10.4268 4.32963 10.8374 5.09788 11.0038 5.93426C11.1701 6.77063 11.0847 7.63756 10.7584 8.4254C10.4321 9.21325 9.87948 9.88663 9.17047 10.3604C8.46145 10.8342 7.62787 11.087 6.77515 11.087C5.63168 11.087 4.53504 10.6328 3.72649 9.8242C2.91793 9.01561 2.46369 7.91893 2.46369 6.77542Z" />
</svg>
