<svg width="18" height="18" viewBox="0 0 18 18" xmlns="http://www.w3.org/2000/svg">
   <g clip-path="url(#clip0_508_9226)">
      <path
         d="M13.8068 11.3488C13.7171 11.4062 13.6132 11.4371 13.5068 11.4381H4.5C4.39359 11.4371 4.28961 11.4062 4.2 11.3488L0.28875 8.83633C0.260444 8.81817 0.227773 8.80795 0.194163 8.80676C0.160553 8.80556 0.12724 8.81343 0.097715 8.82953C0.06819 8.84564 0.0435401 8.86939 0.0263484 8.89829C0.00915666 8.9272 5.59671e-05 8.9602 0 8.99383L0 16.5006C0 16.8984 0.158035 17.2799 0.43934 17.5612C0.720644 17.8425 1.10218 18.0006 1.5 18.0006H16.5C16.8978 18.0006 17.2794 17.8425 17.5607 17.5612C17.842 17.2799 18 16.8984 18 16.5006V8.99533C18.0001 8.96163 17.9911 8.92854 17.9739 8.89953C17.9568 8.87052 17.9322 8.84666 17.9026 8.83046C17.8731 8.81427 17.8397 8.80634 17.806 8.8075C17.7723 8.80867 17.7396 8.81888 17.7113 8.83708L13.8068 11.3488Z" />
      <path
         d="M3.83624 9.7803C3.86455 9.79846 3.89722 9.80867 3.93083 9.80987C3.96444 9.81106 3.99775 9.80319 4.02728 9.78709C4.0568 9.77098 4.08145 9.74724 4.09865 9.71833C4.11584 9.68942 4.12494 9.65643 4.12499 9.6228V1.68705C4.12499 1.63732 4.14475 1.58963 4.17991 1.55446C4.21507 1.5193 4.26277 1.49955 4.31249 1.49955H13.6875C13.7372 1.49955 13.7849 1.5193 13.8201 1.55446C13.8552 1.58963 13.875 1.63732 13.875 1.68705V9.6183C13.8749 9.65199 13.8839 9.68509 13.9011 9.7141C13.9182 9.74311 13.9428 9.76696 13.9724 9.78316C14.0019 9.79935 14.0353 9.80729 14.069 9.80612C14.1026 9.80496 14.1354 9.79474 14.1637 9.77655L17.211 7.82055C17.237 7.80392 17.2585 7.78113 17.2736 7.7542C17.2887 7.72726 17.2969 7.69702 17.2975 7.66615C17.2981 7.63528 17.2911 7.60475 17.277 7.57725C17.263 7.54976 17.2424 7.52616 17.217 7.50855L15.375 6.22455V1.65405C15.3942 1.23591 15.2473 0.827154 14.9663 0.516927C14.6853 0.2067 14.293 0.0201785 13.875 -0.00195312H4.12499C3.70694 0.0203697 3.31466 0.207053 3.03368 0.5174C2.7527 0.827746 2.60579 1.23659 2.62499 1.6548V6.22455L0.781495 7.50705C0.756097 7.5246 0.735427 7.54815 0.721318 7.57561C0.707209 7.60307 0.700099 7.63358 0.700619 7.66445C0.701138 7.69532 0.709271 7.72558 0.724296 7.75255C0.73932 7.77952 0.760771 7.80236 0.786744 7.81905L3.83624 9.7803Z" />
      <path
         d="M8.43225 3.75C8.43225 3.60082 8.37299 3.45774 8.2675 3.35225C8.16201 3.24676 8.01894 3.1875 7.86975 3.1875H6.36975C6.22057 3.1875 6.07749 3.24676 5.972 3.35225C5.86651 3.45774 5.80725 3.60082 5.80725 3.75C5.80725 3.89918 5.86651 4.04226 5.972 4.14775C6.07749 4.25324 6.22057 4.3125 6.36975 4.3125H7.86975C8.01894 4.3125 8.16201 4.25324 8.2675 4.14775C8.37299 4.04226 8.43225 3.89918 8.43225 3.75Z" />
      <path
         d="M5.8125 6.375C5.8125 6.52418 5.87176 6.66726 5.97725 6.77275C6.08274 6.87824 6.22582 6.9375 6.375 6.9375H11.625C11.7742 6.9375 11.9173 6.87824 12.0227 6.77275C12.1282 6.66726 12.1875 6.52418 12.1875 6.375C12.1875 6.22582 12.1282 6.08274 12.0227 5.97725C11.9173 5.87176 11.7742 5.8125 11.625 5.8125H6.375C6.22582 5.8125 6.08274 5.87176 5.97725 5.97725C5.87176 6.08274 5.8125 6.22582 5.8125 6.375Z" />
      <path
         d="M6.375 9.5625H11.625C11.7742 9.5625 11.9173 9.50324 12.0227 9.39775C12.1282 9.29226 12.1875 9.14918 12.1875 9C12.1875 8.85082 12.1282 8.70774 12.0227 8.60225C11.9173 8.49676 11.7742 8.4375 11.625 8.4375H6.375C6.22582 8.4375 6.08274 8.49676 5.97725 8.60225C5.87176 8.70774 5.8125 8.85082 5.8125 9C5.8125 9.14918 5.87176 9.29226 5.97725 9.39775C6.08274 9.50324 6.22582 9.5625 6.375 9.5625Z" />
   </g>
   <defs>
      <clipPath id="clip0_508_9226">
         <rect width="18" height="18" />
      </clipPath>
   </defs>
</svg>