<svg viewBox="0 0 18 12" xmlns="http://www.w3.org/2000/svg">
<path fill-rule="evenodd" clip-rule="evenodd" d="M8.99917 8.19105C8.7506 8.19105 8.51218 8.0925 8.33617 7.917L1.07242 0.6525C1.02324 0.603318 0.988704 0.541428 0.972677 0.473748C0.956651 0.406067 0.959763 0.335263 0.981666 0.26925C1.06267 0.0225002 1.29367 0 1.49992 0H16.4999C16.7054 0 16.9349 0.0225002 17.0174 0.26925C17.0393 0.335263 17.0424 0.406067 17.0264 0.473748C17.0104 0.541428 16.9758 0.603318 16.9267 0.6525L9.66217 7.917C9.48615 8.0925 9.24773 8.19105 8.99917 8.19105ZM17.8365 1.36566C17.8633 1.36045 17.8909 1.36335 17.916 1.37399C17.9409 1.38427 17.9622 1.40175 17.9772 1.42419C17.9922 1.44663 18.0001 1.47302 18 1.49999V10.5C18 10.8978 17.842 11.2793 17.5607 11.5607C17.2794 11.842 16.8978 12 16.5 12H1.5C1.10218 12 0.720647 11.842 0.439343 11.5607C0.158038 11.2793 1.4426e-06 10.8978 1.4426e-06 10.5V1.49999C-0.000121638 1.47321 0.00763359 1.44699 0.022303 1.42459C0.0369724 1.40218 0.057908 1.38459 0.0825029 1.37399C0.107533 1.36314 0.135263 1.36013 0.16204 1.36535C0.188817 1.37057 0.213384 1.38378 0.232503 1.40324L7.53975 8.71199C7.92651 9.09854 8.45094 9.31568 8.99775 9.31568C9.54456 9.31568 10.069 9.09854 10.4558 8.71199L17.766 1.40324C17.7852 1.38396 17.8098 1.37087 17.8365 1.36566Z" />
</svg>
