<svg width="24" height="24" viewBox="0 0 24 24" xmlns="http://www.w3.org/2000/svg">
   <path fill-rule="evenodd" clip-rule="evenodd"
      d="M14.2929 9.70696C14.1054 9.51943 14 9.26507 14 8.99986L14.009 3.31086C14.0083 3.26527 13.9952 3.22073 13.9711 3.18205C13.9469 3.14338 13.9126 3.11205 13.872 3.09145C13.8313 3.07086 13.7857 3.06178 13.7403 3.0652C13.6948 3.06862 13.6511 3.08441 13.614 3.11086L9.214 6.24986C9.14929 6.29617 9.09657 6.35726 9.06022 6.42805C9.02387 6.49884 9.00494 6.57728 9.005 6.65686V19.4609C9.006 19.5063 9.01933 19.5506 9.04356 19.5891C9.06778 19.6276 9.102 19.6587 9.14256 19.6792C9.18311 19.6998 9.22848 19.7089 9.27382 19.7057C9.31916 19.7024 9.36277 19.6869 9.4 19.6609L12.091 17.7339C12.307 17.5878 12.5716 17.5319 12.8282 17.5781C13.0849 17.6242 13.3133 17.7688 13.4649 17.9811C13.6165 18.1933 13.6791 18.4563 13.6396 18.7141C13.6 18.9718 13.4613 19.2039 13.253 19.3609L8.878 22.4869C8.6189 22.6719 8.30762 22.7697 7.98923 22.7661C7.67084 22.7625 7.36186 22.6577 7.107 22.4669L0.6 17.5859C0.414164 17.4457 0.263292 17.2644 0.159198 17.0563C0.0551054 16.8481 0.00061699 16.6186 0 16.3859V1.49986C5.01197e-05 1.21842 0.0792765 0.942675 0.228625 0.704133C0.377973 0.465591 0.591419 0.273877 0.844567 0.150901C1.09772 0.0279258 1.38035 -0.0213507 1.66018 0.00870363C1.94001 0.038758 2.20574 0.146931 2.427 0.320859L7.728 4.41286C7.81335 4.47937 7.91798 4.5164 8.02617 4.51838C8.13435 4.52036 8.24027 4.4872 8.328 4.42386L14.128 0.279859C14.3825 0.0978532 14.6876 0 15.0005 0C15.3134 0 15.6185 0.0978532 15.873 0.279859L22.372 4.92186C22.566 5.06104 22.7241 5.24433 22.8332 5.45663C22.9424 5.66892 22.9996 5.90413 23 6.14286V8.99986C23 9.26507 22.8946 9.51943 22.7071 9.70696C22.5196 9.8945 22.2652 9.99986 22 9.99986C21.7348 9.99986 21.4804 9.8945 21.2929 9.70696C21.1054 9.51943 21 9.26507 21 8.99986V6.65786C21 6.57913 20.9815 6.50151 20.9459 6.43131C20.9103 6.36111 20.8586 6.30031 20.795 6.25386L16.395 3.11386C16.3579 3.08741 16.3142 3.07162 16.2687 3.0682C16.2233 3.06478 16.1777 3.07386 16.137 3.09445C16.0964 3.11505 16.0621 3.14638 16.0379 3.18505C16.0138 3.22373 16.0007 3.26827 16 3.31386V8.99986C16 9.26507 15.8946 9.51943 15.7071 9.70696C15.5196 9.8945 15.2652 9.99986 15 9.99986C14.7348 9.99986 14.4804 9.8945 14.2929 9.70696ZM6.96266 19.5173C6.98707 19.4778 7 19.4323 7 19.3859V6.62686C7 6.54924 6.98193 6.47268 6.94721 6.40325C6.9125 6.33382 6.8621 6.27343 6.8 6.22686L2.4 2.82686C2.36286 2.799 2.31869 2.78204 2.27245 2.77787C2.22621 2.7737 2.17972 2.78249 2.1382 2.80325C2.09667 2.82402 2.06175 2.85593 2.03734 2.89543C2.01293 2.93492 2 2.98043 2 3.02686V15.8859C2 15.9635 2.01807 16.04 2.05279 16.1095C2.0875 16.1789 2.1379 16.2393 2.2 16.2859L6.6 19.5859C6.63714 19.6137 6.68131 19.6307 6.72755 19.6348C6.77379 19.639 6.82028 19.6302 6.8618 19.6095C6.90333 19.5887 6.93825 19.5568 6.96266 19.5173Z" />
   <path fill-rule="evenodd" clip-rule="evenodd"
      d="M15.4662 12.4662C16.4036 11.5289 17.6744 11.0016 19 11C20.3256 11.0016 21.5964 11.5289 22.5338 12.4662C23.4711 13.4036 23.9984 14.6744 24 16C24 19.171 19.543 23.664 19.354 23.854C19.3076 23.9006 19.2524 23.9375 19.1916 23.9627C19.1309 23.9879 19.0658 24.0009 19 24.0009C18.9342 24.0009 18.8691 23.9879 18.8084 23.9627C18.7476 23.9375 18.6924 23.9006 18.646 23.854C18.457 23.664 14 19.171 14 16C14.0016 14.6744 14.5289 13.4036 15.4662 12.4662ZM18.0278 17.4551C18.3155 17.6474 18.6539 17.75 19 17.75C19.464 17.7495 19.9088 17.5649 20.2369 17.2369C20.5649 16.9088 20.7495 16.464 20.75 16C20.75 15.6539 20.6474 15.3155 20.4551 15.0278C20.2628 14.74 19.9895 14.5157 19.6697 14.3832C19.3499 14.2508 18.9981 14.2161 18.6586 14.2836C18.3191 14.3511 18.0073 14.5178 17.7626 14.7626C17.5178 15.0073 17.3512 15.3191 17.2836 15.6586C17.2161 15.9981 17.2508 16.3499 17.3832 16.6697C17.5157 16.9895 17.74 17.2628 18.0278 17.4551Z" />
</svg>