<svg viewBox="0 0 18 15" xmlns="http://www.w3.org/2000/svg">
<path fill-rule="evenodd" clip-rule="evenodd" d="M15.375 1.12225C15.3744 0.933212 15.326 0.747397 15.2342 0.582147C15.1424 0.416897 15.0102 0.277598 14.85 0.177251C14.3 -0.172292 13.8653 0.0430338 13.1274 0.408616C13.0262 0.458773 12.9192 0.511758 12.8055 0.566501C10.4733 1.82399 7.87775 2.51463 5.229 2.5825C5.13323 2.58787 5.04315 2.62974 4.97731 2.69949C4.91146 2.76924 4.87485 2.86158 4.875 2.9575V9.412C4.88925 10.5573 5.21876 11.6765 5.82736 12.6469C6.43596 13.6172 7.30013 14.4011 8.325 14.9125C8.41333 14.957 8.50961 14.9837 8.60828 14.9908C8.70695 14.998 8.80606 14.9856 8.89991 14.9543C8.99376 14.923 9.08048 14.8734 9.1551 14.8085C9.22972 14.7435 9.29074 14.6645 9.33467 14.5758C9.3786 14.4872 9.40455 14.3907 9.41104 14.292C9.41753 14.1933 9.40442 14.0943 9.37248 14.0006C9.34054 13.907 9.29038 13.8206 9.22491 13.7465C9.15944 13.6723 9.07994 13.6118 8.991 13.5685C8.22976 13.1891 7.58528 12.611 7.12581 11.8952C6.66634 11.1795 6.40898 10.3528 6.381 9.50275C8.62271 9.67512 10.8052 10.3056 12.7935 11.3552C12.9096 11.4098 13.0179 11.4619 13.1197 11.5109C13.9227 11.8972 14.316 12.0864 14.8605 11.7302C15.0187 11.628 15.1485 11.4876 15.2381 11.3219C15.3276 11.1562 15.3739 10.9706 15.3727 10.7822L15.375 1.12225ZM18 5.61851C17.9982 5.31024 17.9015 5.00999 17.723 4.75864C17.5446 4.50729 17.293 4.31703 17.0025 4.21376C16.9458 4.19327 16.885 4.18674 16.8253 4.19473C16.7656 4.20271 16.7086 4.22498 16.6593 4.25964C16.61 4.2943 16.5698 4.34033 16.5421 4.39384C16.5143 4.44734 16.4999 4.50674 16.5 4.56701L16.5052 7.43501C16.5054 7.49515 16.52 7.55437 16.5478 7.60768C16.5757 7.66099 16.6159 7.70683 16.6652 7.74131C16.7145 7.7758 16.7713 7.79793 16.8309 7.80584C16.8905 7.81375 16.9512 7.80721 17.0077 7.78676C17.2988 7.68206 17.5504 7.48995 17.728 7.23673C17.9056 6.98351 18.0006 6.68157 18 6.37226V5.61851ZM3.64018 2.74486C3.71051 2.81519 3.75001 2.91057 3.75001 3.01002V9.01602C3.75001 9.11548 3.71051 9.21086 3.64018 9.28119C3.56985 9.35151 3.47447 9.39102 3.37501 9.39102H2.64377C1.9477 9.39421 1.27886 9.12081 0.784352 8.63094C0.289838 8.14107 0.0101392 7.47484 0.00676555 6.77877L1.55471e-05 5.27877C-0.00237792 4.58236 0.271671 3.91346 0.761998 3.41891C1.25233 2.92437 1.91886 2.6446 2.61527 2.64102L3.37501 2.63502C3.47447 2.63502 3.56985 2.67453 3.64018 2.74486Z" />
</svg>
