<svg width="14" height="14" viewBox="0 0 14 14" xmlns="http://www.w3.org/2000/svg">
<g clip-path="url(#clip0_416_5903)">
<path d="M10.2083 5.54167C11.0264 5.54153 11.83 5.75831 12.537 6.16992C12.557 6.18161 12.5795 6.18834 12.6026 6.18956C12.6258 6.19078 12.6489 6.18644 12.67 6.17692C12.6912 6.16721 12.7098 6.15264 12.7243 6.13439C12.7388 6.11615 12.7487 6.09475 12.7534 6.07192C12.8063 5.80113 12.833 5.5259 12.8333 5.25C12.8333 2.3555 9.95458 0 6.41667 0C2.87875 0 0 2.3555 0 5.25C0.0108199 5.89498 0.153968 6.53087 0.420574 7.11826C0.687181 7.70566 1.07157 8.23206 1.54992 8.66483L0.600833 11.2753C0.581559 11.3285 0.578181 11.3861 0.591112 11.4412C0.604043 11.4963 0.632724 11.5465 0.673659 11.5855C0.714594 11.6246 0.766015 11.651 0.821652 11.6613C0.877289 11.6717 0.93474 11.6656 0.987 11.6439L4.389 10.227C4.71389 10.3147 5.04418 10.3809 5.37775 10.4253C5.3987 10.4281 5.42 10.4262 5.44016 10.4199C5.46031 10.4135 5.47883 10.4029 5.49442 10.3886C5.51058 10.3739 5.52326 10.3558 5.53154 10.3357C5.53981 10.3155 5.54347 10.2937 5.54225 10.2719C5.54225 10.2503 5.54225 10.2282 5.54225 10.206C5.54426 8.96926 6.03656 7.78376 6.91124 6.90942C7.78591 6.03507 8.97159 5.54321 10.2083 5.54167Z"/>
<path d="M10.2083 13.9994C10.9583 13.9994 11.6913 13.777 12.3149 13.3603C12.9384 12.9437 13.4244 12.3515 13.7114 11.6587C13.9984 10.9659 14.0735 10.2035 13.9271 9.46797C13.7808 8.73245 13.4197 8.05684 12.8895 7.52657C12.3592 6.9963 11.6836 6.63518 10.9481 6.48887C10.2125 6.34257 9.45017 6.41766 8.75733 6.70464C8.06449 6.99162 7.47232 7.47761 7.05568 8.10115C6.63905 8.72468 6.41667 9.45776 6.41667 10.2077C6.41791 11.2129 6.81778 12.1766 7.52859 12.8874C8.2394 13.5982 9.2031 13.9981 10.2083 13.9994ZM8.77917 10.3728C8.80298 10.3234 8.84023 10.2817 8.88667 10.2524C8.9331 10.2232 8.98682 10.2077 9.04167 10.2077H9.62501C9.66368 10.2077 9.70078 10.1923 9.72812 10.165C9.75547 10.1376 9.77084 10.1005 9.77084 10.0619V8.45768C9.77084 8.34165 9.81693 8.23037 9.89898 8.14832C9.98103 8.06628 10.0923 8.02018 10.2083 8.02018C10.3244 8.02018 10.4357 8.06628 10.5177 8.14832C10.5997 8.23037 10.6458 8.34165 10.6458 8.45768V10.0619C10.6458 10.1005 10.6612 10.1376 10.6886 10.165C10.7159 10.1923 10.753 10.2077 10.7917 10.2077H11.375C11.4299 10.2077 11.4838 10.2231 11.5303 10.2523C11.5768 10.2816 11.6141 10.3233 11.638 10.3728C11.6618 10.4223 11.6712 10.4775 11.665 10.5321C11.6588 10.5867 11.6374 10.6384 11.6031 10.6814L10.4364 12.1397C10.4081 12.1724 10.3731 12.1987 10.3337 12.2167C10.2944 12.2346 10.2516 12.244 10.2083 12.244C10.1651 12.244 10.1223 12.2346 10.0829 12.2167C10.0436 12.1987 10.0086 12.1724 9.98025 12.1397L8.81359 10.6814C8.77938 10.6384 8.75799 10.5866 8.7519 10.532C8.74582 10.4774 8.75527 10.4222 8.77917 10.3728Z" />
</g>
<defs>
<clipPath id="clip0_416_5903">
<rect width="14" height="14" />
</clipPath>
</defs>
</svg>
