<svg width="16" height="16" viewBox="0 0 16 16" xmlns="http://www.w3.org/2000/svg">
   <g clip-path="url(#clip0_508_12962)">
      <path
         d="M12.006 6.9247C12.3279 6.60441 12.7224 6.36656 13.1559 6.23134C13.5894 6.09613 14.0491 6.06755 14.496 6.14803C14.517 6.15162 14.5385 6.15059 14.559 6.14501C14.5795 6.13943 14.5986 6.12943 14.6148 6.11571C14.6311 6.102 14.6441 6.0849 14.6531 6.0656C14.662 6.04631 14.6667 6.0253 14.6667 6.00403C14.6667 2.69536 11.3767 0.00402832 7.33333 0.00402832C3.29 0.00402832 0 2.69536 0 6.00403C0.0125688 6.74118 0.176324 7.4679 0.481125 8.13919C0.785927 8.81049 1.22529 9.41208 1.772 9.9067L0.687333 12.89C0.665305 12.9508 0.661445 13.0167 0.676223 13.0797C0.691002 13.1427 0.72378 13.2 0.770563 13.2447C0.817346 13.2893 0.876112 13.3194 0.939697 13.3313C1.00328 13.3431 1.06894 13.3362 1.12867 13.3114L5.01667 11.6914C5.62058 11.8555 6.24034 11.9545 6.86533 11.9867C6.88868 11.988 6.91204 11.9843 6.93387 11.9759C6.9557 11.9675 6.97551 11.9546 6.992 11.938L12.006 6.9247Z" />
      <path
         d="M15.4846 7.84004C15.1571 7.51355 14.7136 7.3302 14.2512 7.3302C13.7888 7.3302 13.3453 7.51355 13.0179 7.84004L8.56523 12.2934C8.53409 12.3246 8.5166 12.3669 8.5166 12.411C8.5166 12.4552 8.53409 12.4975 8.56523 12.5287L10.7999 14.7647C10.8311 14.7959 10.8735 14.8133 10.9176 14.8133C10.9617 14.8133 11.004 14.7959 11.0352 14.7647L15.4879 10.3114C15.65 10.1489 15.7784 9.95609 15.866 9.74395C15.9535 9.53181 15.9984 9.30451 15.9981 9.07502C15.9978 8.84553 15.9523 8.61835 15.8642 8.40645C15.7761 8.19455 15.6471 8.00208 15.4846 7.84004Z" />
      <path
         d="M7.73331 15.9901L9.82864 15.5707C9.85825 15.5648 9.8857 15.551 9.90806 15.5308C9.93043 15.5105 9.94687 15.4845 9.95563 15.4556C9.96439 15.4267 9.96515 15.396 9.95781 15.3667C9.95047 15.3375 9.93532 15.3107 9.91398 15.2894L8.04131 13.4174C8.02 13.3961 7.99329 13.381 7.96404 13.3737C7.9348 13.3664 7.90413 13.3672 7.87531 13.3761C7.84653 13.3849 7.82065 13.4014 7.80037 13.4237C7.78008 13.4459 7.76614 13.4732 7.75998 13.5027L7.34064 15.6001C7.32994 15.6538 7.33266 15.7094 7.34857 15.7619C7.36449 15.8143 7.39309 15.8621 7.43186 15.9008C7.47063 15.9396 7.51836 15.9682 7.57083 15.9841C7.62329 16 7.67887 16.0028 7.73264 15.9921L7.73331 15.9901Z" />
   </g>
   <defs>
      <clipPath id="clip0_508_12962">
         <rect width="16" height="16" />
      </clipPath>
   </defs>
</svg>