<svg width="24" height="23" viewBox="0 0 24 23" xmlns="http://www.w3.org/2000/svg">
   <path
      d="M12 0C5.3833 0 0 4.43478 0 9.88591C0.0204025 11.1963 0.327586 12.4864 0.899955 13.6654C1.47233 14.8444 2.29599 15.8837 3.31304 16.7103L0.913043 21.4967C0.864424 21.5936 0.847204 21.7033 0.863778 21.8104C0.880352 21.9176 0.929896 22.0169 1.00552 22.0946C1.08115 22.1723 1.1791 22.2245 1.28577 22.2439C1.39243 22.2634 1.50251 22.2491 1.6007 22.2031L8.01704 19.2167C9.3119 19.5886 10.6528 19.7758 12 19.7729C18.6167 19.7729 24 15.3381 24 9.88591C24 4.43374 18.6167 0 12 0Z" />
</svg>