<svg width="24" height="24" viewBox="0 0 24 24" xmlns="http://www.w3.org/2000/svg">
   <path
      d="M12 0C5.38372 0 0 4.78337 0 10.6635C0.0198157 12.0763 0.326246 13.4674 0.89776 14.7388C1.46927 16.0103 2.292 17.1313 3.30814 18.0232L0.91631 23.1827C0.867734 23.2875 0.850576 23.406 0.867212 23.5218C0.883849 23.6375 0.933457 23.7449 1.00916 23.8289C1.08487 23.9129 1.18293 23.9694 1.28975 23.9906C1.39658 24.0119 1.50688 23.9968 1.60538 23.9474L8.0206 20.7261C9.31423 21.1274 10.6539 21.3297 12 21.327C18.6173 21.327 24 16.5436 24 10.6635C24 4.78337 18.6173 0 12 0ZM17.2361 13.8362H7.28755C7.07924 13.8362 6.87947 13.747 6.73218 13.5881C6.58489 13.4292 6.50214 13.2138 6.50214 12.9891C6.50214 12.7644 6.58489 12.549 6.73218 12.3901C6.87947 12.2312 7.07924 12.142 7.28755 12.142H17.2361C17.4444 12.142 17.6441 12.2312 17.7914 12.3901C17.9387 12.549 18.0215 12.7644 18.0215 12.9891C18.0215 13.2138 17.9387 13.4292 17.7914 13.5881C17.6441 13.747 17.4444 13.8362 17.2361 13.8362ZM6.50214 7.9064C6.50214 7.68173 6.58489 7.46627 6.73218 7.3074C6.87947 7.14854 7.07924 7.05929 7.28755 7.05929H14.0944C14.3027 7.05929 14.5025 7.14854 14.6498 7.3074C14.7971 7.46627 14.8798 7.68173 14.8798 7.9064C14.8798 8.13107 14.7971 8.34654 14.6498 8.5054C14.5025 8.66427 14.3027 8.75352 14.0944 8.75352H7.28755C7.07924 8.75352 6.87947 8.66427 6.73218 8.5054C6.58489 8.34654 6.50214 8.13107 6.50214 7.9064Z" />
</svg>