<svg viewBox="0 0 18 18" xmlns="http://www.w3.org/2000/svg">
<path fill-rule="evenodd" clip-rule="evenodd" d="M13.059 7.5C9.714 7.5 6.993 9.84375 6.993 12.7252C6.99493 13.365 7.13219 13.9971 7.39575 14.58C7.40942 14.611 7.41447 14.6451 7.41036 14.6788C7.40625 14.7124 7.39313 14.7443 7.37239 14.7711C7.35166 14.7979 7.32406 14.8187 7.29253 14.8311C7.261 14.8435 7.2267 14.8472 7.19325 14.8417C6.66093 14.7545 6.1365 14.6246 5.625 14.4532L1.521 16.2803C1.4555 16.3091 1.38311 16.3187 1.31237 16.3077C1.24163 16.2968 1.1755 16.2658 1.12179 16.2185C1.06809 16.1712 1.02904 16.1095 1.00928 16.0407C0.989511 15.9719 0.989849 15.8989 1.01025 15.8302L2.0745 12.282C1.43022 11.6613 0.915206 10.9191 0.559156 10.0984C0.203106 9.27766 0.0130674 8.39455 0 7.5C0 3.3645 4.03725 0 9 0C13.9628 0 18 3.3645 18 7.5C17.998 8.02899 17.9282 8.55554 17.7922 9.06675C17.784 9.09801 17.7677 9.12659 17.7451 9.14972C17.7225 9.17285 17.6943 9.18974 17.6632 9.19875C17.6323 9.20806 17.5995 9.20908 17.568 9.20171C17.5366 9.19433 17.5076 9.17883 17.484 9.15675C16.2673 8.07185 14.689 7.48093 13.059 7.5ZM4.5 9.1875H7.125C7.27418 9.1875 7.41726 9.12824 7.52275 9.02275C7.62824 8.91726 7.6875 8.77418 7.6875 8.625C7.6875 8.47582 7.62824 8.33274 7.52275 8.22725C7.41726 8.12176 7.27418 8.0625 7.125 8.0625H4.5C4.35082 8.0625 4.20774 8.12176 4.10225 8.22725C3.99676 8.33274 3.9375 8.47582 3.9375 8.625C3.9375 8.77418 3.99676 8.91726 4.10225 9.02275C4.20774 9.12824 4.35082 9.1875 4.5 9.1875ZM4.5 5.8125H12.375C12.5242 5.8125 12.6673 5.75324 12.7727 5.64775C12.8782 5.54226 12.9375 5.39918 12.9375 5.25C12.9375 5.10082 12.8782 4.95774 12.7727 4.85225C12.6673 4.74676 12.5242 4.6875 12.375 4.6875H4.5C4.35082 4.6875 4.20774 4.74676 4.10225 4.85225C3.99676 4.95774 3.9375 5.10082 3.9375 5.25C3.9375 5.39918 3.99676 5.54226 4.10225 5.64775C4.20774 5.75324 4.35082 5.8125 4.5 5.8125ZM8.11798 12.7252C8.11798 10.464 10.3342 8.625 13.059 8.625C15.7837 8.625 18 10.464 18 12.7252C17.9875 13.6784 17.6057 14.5896 16.935 15.267L17.61 17.517C17.6307 17.5869 17.6307 17.6613 17.6098 17.7312C17.5889 17.801 17.5481 17.8633 17.4924 17.9103C17.4367 17.9573 17.3685 17.9871 17.2961 17.996C17.2238 18.0048 17.1504 17.9924 17.085 17.9602L14.46 16.6492C11.1765 17.4667 8.11798 15.366 8.11798 12.7252Z" />
</svg>
