<svg viewBox="0 0 18 17" xmlns="http://www.w3.org/2000/svg">
<path fill-rule="evenodd" clip-rule="evenodd" d="M17.4148 1.40421C17.5299 1.45189 17.6344 1.52178 17.7225 1.60989C17.9002 1.78766 18 2.02874 18 2.2801C18 2.53146 17.9002 2.77253 17.7225 2.95031L14.6864 5.98637C14.5139 6.15901 14.2814 6.25844 14.0373 6.26395C13.7933 6.26947 13.5565 6.18064 13.3764 6.01597L10.4503 3.345L9.61923 4.17991C9.51308 4.28603 9.37785 4.35829 9.23064 4.38757C9.08342 4.41684 8.93084 4.40181 8.79216 4.34437C8.65349 4.28694 8.53496 4.18968 8.45156 4.06489C8.36815 3.9401 8.32362 3.79338 8.32359 3.64329V0.759033C8.32359 0.557729 8.40356 0.364671 8.5459 0.222328C8.68824 0.0799851 8.8813 1.77858e-05 9.08261 1.77858e-05H11.96C12.111 -0.00101579 12.2589 0.0430195 12.3848 0.126492C12.5106 0.209964 12.6087 0.329078 12.6665 0.468599C12.7243 0.60812 12.7391 0.761706 12.7091 0.909712C12.6791 1.05772 12.6057 1.19342 12.4982 1.29945L11.7938 2.00382L13.8523 3.88314C13.8883 3.91597 13.9356 3.93366 13.9844 3.93253C14.0332 3.9314 14.0796 3.91154 14.1141 3.87706L16.3813 1.60989C16.4693 1.52178 16.5739 1.45189 16.6889 1.40421C16.804 1.35652 16.9273 1.33198 17.0519 1.33198C17.1764 1.33198 17.2998 1.35652 17.4148 1.40421ZM12.4123 10.3376C12.6425 10.433 12.8517 10.5728 13.028 10.7491L14.6356 12.359C14.8118 12.5352 14.9516 12.7444 15.047 12.9746C15.1424 13.2049 15.1915 13.4517 15.1915 13.7009C15.1915 13.9501 15.1424 14.1969 15.047 14.4272C14.9516 14.6574 14.8118 14.8666 14.6356 15.0428L13.7521 15.9263C13.3163 16.3533 12.748 16.6191 12.141 16.6799C11.5339 16.7408 10.9243 16.593 10.4124 16.2611C6.45524 13.6341 3.0639 10.2418 0.438181 6.28381C0.102358 5.77323 -0.0476641 5.16269 0.0132816 4.55461C0.0742273 3.94654 0.342433 3.37792 0.772907 2.94414L1.65564 2.06065C1.83186 1.88428 2.04112 1.74437 2.27144 1.64891C2.50176 1.55345 2.74864 1.50432 2.99796 1.50432C3.24728 1.50432 3.49416 1.55345 3.72448 1.64891C3.9548 1.74437 4.16405 1.88428 4.34028 2.06065L5.95242 3.67128C6.30816 4.02712 6.508 4.50968 6.508 5.01284C6.508 5.516 6.30816 5.99855 5.95242 6.35439L5.6602 6.64662C6.99303 8.23687 8.46253 9.70738 10.0519 11.0413L10.3441 10.7491C10.5203 10.5728 10.7295 10.433 10.9597 10.3376C11.19 10.2422 11.4368 10.1931 11.686 10.1931C11.9353 10.1931 12.182 10.2422 12.4123 10.3376Z" />
</svg>
