<svg width="12" height="12" viewBox="0 0 12 12" xmlns="http://www.w3.org/2000/svg">
   <path
      d="M4.5 4H7.5C7.63261 4 7.75979 3.94732 7.85355 3.85355C7.94732 3.75979 8 3.63261 8 3.5C8 3.36739 7.94732 3.24021 7.85355 3.14645C7.75979 3.05268 7.63261 3 7.5 3H4.5C4.36739 3 4.24021 3.05268 4.14645 3.14645C4.05268 3.24021 4 3.36739 4 3.5C4 3.63261 4.05268 3.75979 4.14645 3.85355C4.24021 3.94732 4.36739 4 4.5 4Z" />
   <path
      d="M4.73551 2.25001C4.7431 2.3108 4.77276 2.36669 4.81885 2.40707C4.86493 2.44744 4.92424 2.46948 4.98551 2.46901H7.01751C7.07877 2.46948 7.13808 2.44744 7.18417 2.40707C7.23025 2.36669 7.25991 2.3108 7.26751 2.25001C7.37523 1.70973 7.5795 1.1933 7.87051 0.725507C7.89579 0.679771 7.90611 0.62726 7.90001 0.575355C7.89391 0.523451 7.87169 0.474764 7.83649 0.436139C7.80128 0.397513 7.75486 0.370891 7.70374 0.360016C7.65263 0.349141 7.59939 0.354558 7.55151 0.375508L6.62051 0.775508C6.6052 0.782027 6.58874 0.785424 6.5721 0.785499C6.55546 0.785575 6.53897 0.782327 6.5236 0.775947C6.50824 0.769567 6.4943 0.760183 6.4826 0.748345C6.47091 0.736507 6.4617 0.722453 6.45551 0.707008L6.23501 0.157008C6.21641 0.110691 6.18438 0.0710006 6.14303 0.043046C6.10168 0.0150915 6.05292 0.000152588 6.00301 0.000152588C5.9531 0.000152588 5.90433 0.0150915 5.86298 0.043046C5.82164 0.0710006 5.7896 0.110691 5.77101 0.157008L5.55051 0.707008C5.54432 0.722453 5.5351 0.736507 5.52341 0.748345C5.51172 0.760183 5.49778 0.769567 5.48241 0.775947C5.46704 0.782327 5.45055 0.785575 5.43391 0.785499C5.41727 0.785424 5.40082 0.782027 5.38551 0.775508L4.45001 0.377508C4.40213 0.356558 4.34889 0.351141 4.29777 0.362016C4.24665 0.372891 4.20023 0.399513 4.16502 0.438139C4.12982 0.476764 4.1076 0.525451 4.1015 0.577355C4.0954 0.62926 4.10572 0.681771 4.13101 0.727508C4.42232 1.19458 4.62709 1.71032 4.73551 2.25001Z" />
   <path
      d="M7.71899 4.5605C7.66769 4.52139 7.605 4.50014 7.54049 4.5H4.45949C4.39495 4.49992 4.33219 4.52119 4.28099 4.5605C3.00549 5.5355 1.58099 7.2605 1.58099 8.7605C1.57999 10.875 2.75899 12 5.99999 12C9.24099 12 10.42 10.875 10.42 8.759C10.42 7.2615 8.99499 5.5355 7.71899 4.5605ZM6.47749 10.065C6.44872 10.0703 6.4227 10.0855 6.40397 10.1079C6.38524 10.1304 6.37498 10.1587 6.37499 10.188V10.375C6.37499 10.4745 6.33549 10.5698 6.26516 10.6402C6.19483 10.7105 6.09945 10.75 5.99999 10.75C5.90054 10.75 5.80516 10.7105 5.73483 10.6402C5.6645 10.5698 5.62499 10.4745 5.62499 10.375V10.2135C5.62499 10.1803 5.61182 10.1486 5.58838 10.1251C5.56494 10.1017 5.53315 10.0885 5.49999 10.0885H5.20599C5.10654 10.0885 5.01116 10.049 4.94083 9.97867C4.8705 9.90834 4.83099 9.81296 4.83099 9.7135C4.83099 9.61404 4.8705 9.51866 4.94083 9.44833C5.01116 9.37801 5.10654 9.3385 5.20599 9.3385H6.28199C6.36 9.33859 6.4356 9.3115 6.49578 9.26188C6.55597 9.21227 6.597 9.14323 6.61179 9.06664C6.62659 8.99005 6.61424 8.9107 6.57686 8.84224C6.53948 8.77377 6.47942 8.72047 6.40699 8.6915L5.31449 8.255C5.09614 8.16805 4.91203 8.01236 4.79002 7.81148C4.66801 7.6106 4.61472 7.37545 4.63822 7.1416C4.66172 6.90774 4.76072 6.6879 4.92026 6.51531C5.07981 6.34272 5.2912 6.22677 5.52249 6.185C5.55127 6.17973 5.57729 6.16454 5.59602 6.14206C5.61475 6.11959 5.625 6.09126 5.62499 6.062V5.875C5.62499 5.77554 5.6645 5.68016 5.73483 5.60984C5.80516 5.53951 5.90054 5.5 5.99999 5.5C6.09945 5.5 6.19483 5.53951 6.26516 5.60984C6.33549 5.68016 6.37499 5.77554 6.37499 5.875V6.0365C6.37499 6.06965 6.38816 6.10145 6.41161 6.12489C6.43505 6.14833 6.46684 6.1615 6.49999 6.1615H6.79399C6.89345 6.1615 6.98883 6.20101 7.05916 6.27134C7.12949 6.34166 7.16899 6.43704 7.16899 6.5365C7.16899 6.63596 7.12949 6.73134 7.05916 6.80167C6.98883 6.87199 6.89345 6.9115 6.79399 6.9115H5.71799C5.63999 6.91141 5.56439 6.9385 5.5042 6.98812C5.44401 7.03773 5.40299 7.10677 5.3882 7.18336C5.3734 7.25995 5.38575 7.3393 5.42313 7.40776C5.46051 7.47623 5.52057 7.52953 5.59299 7.5585L6.68549 7.995C6.90385 8.08195 7.08795 8.23764 7.20997 8.43852C7.33198 8.6394 7.38527 8.87455 7.36177 9.1084C7.33827 9.34226 7.23926 9.5621 7.07972 9.73469C6.92018 9.90728 6.70878 10.0232 6.47749 10.065Z" />
</svg>