<svg viewBox="0 0 12 17" xmlns="http://www.w3.org/2000/svg">
<path d="M3.4194 1.46377C4.43566 0.72878 5.61576 0.2526 6.85752 0.076467C8.09928 -0.0996658 9.36526 0.029558 10.5458 0.452948C10.6792 0.496794 10.7954 0.581637 10.8777 0.695379C10.9601 0.809122 11.0044 0.945958 11.0044 1.08638C11.0044 1.2268 10.9601 1.36363 10.8777 1.47738C10.7954 1.59112 10.6792 1.67596 10.5458 1.71981C9.22276 2.1579 8.07141 3.00182 7.25537 4.13164C6.43933 5.26147 6.0001 6.61973 6.0001 8.01344C6.0001 9.40715 6.43933 10.7654 7.25537 11.8952C8.07141 13.0251 9.22276 13.869 10.5458 14.3071C10.6792 14.3509 10.7954 14.4358 10.8777 14.5495C10.9601 14.6632 11.0044 14.8001 11.0044 14.9405C11.0044 15.0809 10.9601 15.2178 10.8777 15.3315C10.7954 15.4452 10.6792 15.5301 10.5458 15.5739C9.69644 15.8602 8.80641 16.0074 7.91009 16.01C6.29173 16.0087 4.71573 15.4926 3.41006 14.5364C2.37257 13.7891 1.524 12.8098 0.931993 11.6765C0.339986 10.5432 0.0209131 9.28722 0.000207901 8.00877C0.021327 6.72697 0.341433 5.46779 0.935035 4.33152C1.52864 3.19525 2.37934 2.21327 3.4194 1.46377ZM4.19018 13.4543C5.22163 14.21 6.45855 14.6342 7.73673 14.6705C7.77211 14.6715 7.80691 14.6612 7.83606 14.6411C7.86521 14.621 7.88721 14.5922 7.89887 14.5587C7.91054 14.5253 7.91125 14.4891 7.90092 14.4552C7.89059 14.4213 7.86975 14.3916 7.84141 14.3704C6.85523 13.6284 6.05513 12.6672 5.50434 11.5628C4.95355 10.4583 4.66716 9.24093 4.66781 8.00678C4.66845 6.77262 4.95611 5.55552 5.50806 4.45167C6.06001 3.34781 6.86112 2.38745 7.84808 1.64646C7.87636 1.62527 7.89718 1.59564 7.90752 1.56185C7.91786 1.52806 7.9172 1.49185 7.90563 1.45846C7.89405 1.42507 7.87216 1.39622 7.84312 1.37608C7.81408 1.35594 7.77939 1.34556 7.74406 1.34642C6.46808 1.3772 5.23172 1.79583 4.19952 2.5466C3.32862 3.17149 2.61583 3.99129 2.11803 4.94058C1.62023 5.88987 1.3512 6.94238 1.33241 8.01411C1.35244 9.08076 1.62122 10.128 2.11735 11.0725C2.61348 12.0169 3.32327 12.8325 4.19018 13.4543Z" />
</svg>
