<svg width="16" height="16" viewBox="0 0 16 16" xmlns="http://www.w3.org/2000/svg">
   <g clip-path="url(#clip0_2582_872)">
      <path
         d="M16 2C16 1.46957 15.7893 0.960859 15.4142 0.585786C15.0391 0.210714 14.5304 0 14 0L2 0C1.46957 0 0.960859 0.210714 0.585786 0.585786C0.210714 0.960859 0 1.46957 0 2L0 14C0 14.5304 0.210714 15.0391 0.585786 15.4142C0.960859 15.7893 1.46957 16 2 16H14C14.5304 16 15.0391 15.7893 15.4142 15.4142C15.7893 15.0391 16 14.5304 16 14V2ZM6.436 1.33333C6.49162 1.23243 6.57328 1.1483 6.67248 1.08971C6.77168 1.03111 6.88479 1.0002 7 1.0002C7.11521 1.0002 7.22832 1.03111 7.32752 1.08971C7.42672 1.1483 7.50838 1.23243 7.564 1.33333C7.62814 1.43293 7.66365 1.54824 7.66667 1.66667C7.66365 1.78509 7.62814 1.9004 7.564 2C7.50838 2.1009 7.42672 2.18503 7.32752 2.24363C7.22832 2.30222 7.11521 2.33313 7 2.33313C6.88479 2.33313 6.77168 2.30222 6.67248 2.24363C6.57328 2.18503 6.49162 2.1009 6.436 2C6.37186 1.9004 6.33635 1.78509 6.33333 1.66667C6.33635 1.54824 6.37186 1.43293 6.436 1.33333ZM4.10267 1.33333C4.15828 1.23243 4.23995 1.1483 4.33915 1.08971C4.43835 1.03111 4.55145 1.0002 4.66667 1.0002C4.78188 1.0002 4.89498 1.03111 4.99418 1.08971C5.09339 1.1483 5.17505 1.23243 5.23067 1.33333C5.2948 1.43293 5.33032 1.54824 5.33333 1.66667C5.33032 1.78509 5.2948 1.9004 5.23067 2C5.17505 2.1009 5.09339 2.18503 4.99418 2.24363C4.89498 2.30222 4.78188 2.33313 4.66667 2.33313C4.55145 2.33313 4.43835 2.30222 4.33915 2.24363C4.23995 2.18503 4.15828 2.1009 4.10267 2C4.03853 1.9004 4.00301 1.78509 4 1.66667C4.00301 1.54824 4.03853 1.43293 4.10267 1.33333ZM1.728 1.39467C1.78029 1.27766 1.8652 1.1782 1.97255 1.1082C2.07991 1.03821 2.20517 1.00064 2.33333 1C2.4483 1.00133 2.5609 1.03281 2.65987 1.09131C2.75885 1.1498 2.84073 1.23326 2.89733 1.33333C2.96147 1.43293 2.99699 1.54824 3 1.66667C2.99699 1.78509 2.96147 1.9004 2.89733 2C2.84172 2.1009 2.76005 2.18503 2.66085 2.24363C2.56165 2.30222 2.44855 2.33313 2.33333 2.33313C2.21812 2.33313 2.10502 2.30222 2.00582 2.24363C1.90661 2.18503 1.82495 2.1009 1.76933 2C1.7052 1.9004 1.66968 1.78509 1.66667 1.66667C1.66728 1.57264 1.6882 1.47986 1.728 1.39467ZM2 14.6667C1.82319 14.6667 1.65362 14.5964 1.5286 14.4714C1.40357 14.3464 1.33333 14.1768 1.33333 14V3.5C1.33333 3.4558 1.35089 3.4134 1.38215 3.38215C1.41341 3.35089 1.4558 3.33333 1.5 3.33333H5.5C5.5442 3.33333 5.5866 3.35089 5.61785 3.38215C5.64911 3.4134 5.66667 3.4558 5.66667 3.5V14.5C5.66667 14.5442 5.64911 14.5866 5.61785 14.6179C5.5866 14.6491 5.5442 14.6667 5.5 14.6667H2ZM14.6667 14C14.6667 14.1768 14.5964 14.3464 14.4714 14.4714C14.3464 14.5964 14.1768 14.6667 14 14.6667H6.83333C6.78913 14.6667 6.74674 14.6491 6.71548 14.6179C6.68423 14.5866 6.66667 14.5442 6.66667 14.5V3.5C6.66667 3.4558 6.68423 3.4134 6.71548 3.38215C6.74674 3.35089 6.78913 3.33333 6.83333 3.33333H14.5C14.5442 3.33333 14.5866 3.35089 14.6179 3.38215C14.6491 3.4134 14.6667 3.4558 14.6667 3.5V14Z" />
      <path
         d="M12.3333 4.8335H8.99992C8.63173 4.8335 8.33325 5.13197 8.33325 5.50016V7.8335C8.33325 8.20169 8.63173 8.50016 8.99992 8.50016H12.3333C12.7014 8.50016 12.9999 8.20169 12.9999 7.8335V5.50016C12.9999 5.13197 12.7014 4.8335 12.3333 4.8335Z" />
      <path
         d="M12.4999 10.3335H8.83325C8.70064 10.3335 8.57347 10.3862 8.4797 10.4799C8.38593 10.5737 8.33325 10.7009 8.33325 10.8335C8.33325 10.9661 8.38593 11.0933 8.4797 11.187C8.57347 11.2808 8.70064 11.3335 8.83325 11.3335H12.4999C12.6325 11.3335 12.7597 11.2808 12.8535 11.187C12.9472 11.0933 12.9999 10.9661 12.9999 10.8335C12.9999 10.7009 12.9472 10.5737 12.8535 10.4799C12.7597 10.3862 12.6325 10.3335 12.4999 10.3335Z" />
      <path
         d="M2.33325 4.8335C2.33325 4.9661 2.38593 5.09328 2.4797 5.18705C2.57347 5.28082 2.70064 5.3335 2.83325 5.3335H4.16659C4.29919 5.3335 4.42637 5.28082 4.52014 5.18705C4.61391 5.09328 4.66659 4.9661 4.66659 4.8335C4.66659 4.70089 4.61391 4.57371 4.52014 4.47994C4.42637 4.38617 4.29919 4.3335 4.16659 4.3335H2.83325C2.70064 4.3335 2.57347 4.38617 2.4797 4.47994C2.38593 4.57371 2.33325 4.70089 2.33325 4.8335Z" />
      <path
         d="M2.83325 8H4.16659C4.29919 8 4.42637 7.94732 4.52014 7.85355C4.61391 7.75978 4.66659 7.63261 4.66659 7.5C4.66659 7.36739 4.61391 7.24022 4.52014 7.14645C4.42637 7.05268 4.29919 7 4.16659 7H2.83325C2.70064 7 2.57347 7.05268 2.4797 7.14645C2.38593 7.24022 2.33325 7.36739 2.33325 7.5C2.33325 7.63261 2.38593 7.75978 2.4797 7.85355C2.57347 7.94732 2.70064 8 2.83325 8Z" />
      <path
         d="M2.83325 10.6665H4.16659C4.29919 10.6665 4.42637 10.6138 4.52014 10.5201C4.61391 10.4263 4.66659 10.2991 4.66659 10.1665C4.66659 10.0339 4.61391 9.90672 4.52014 9.81295C4.42637 9.71918 4.29919 9.6665 4.16659 9.6665H2.83325C2.70064 9.6665 2.57347 9.71918 2.4797 9.81295C2.38593 9.90672 2.33325 10.0339 2.33325 10.1665C2.33325 10.2991 2.38593 10.4263 2.4797 10.5201C2.57347 10.6138 2.70064 10.6665 2.83325 10.6665Z" />
      <path
         d="M2.83325 13.3335H4.16659C4.29919 13.3335 4.42637 13.2808 4.52014 13.187C4.61391 13.0933 4.66659 12.9661 4.66659 12.8335C4.66659 12.7009 4.61391 12.5737 4.52014 12.4799C4.42637 12.3862 4.29919 12.3335 4.16659 12.3335H2.83325C2.70064 12.3335 2.57347 12.3862 2.4797 12.4799C2.38593 12.5737 2.33325 12.7009 2.33325 12.8335C2.33325 12.9661 2.38593 13.0933 2.4797 13.187C2.57347 13.2808 2.70064 13.3335 2.83325 13.3335Z" />
   </g>
   <defs>
      <clipPath id="clip0_2582_872">
         <rect width="16" height="16" />
      </clipPath>
   </defs>
</svg>