<svg width="18" height="18" viewBox="0 0 18 18" xmlns="http://www.w3.org/2000/svg">
   <g clip-path="url(#clip0_757_6889)">
      <path
         d="M9.5625 3.75H5.0625C4.91332 3.75 4.77024 3.80926 4.66475 3.91475C4.55926 4.02024 4.5 4.16332 4.5 4.3125C4.5 4.46168 4.55926 4.60476 4.66475 4.71025C4.77024 4.81574 4.91332 4.875 5.0625 4.875H9.5625C9.71168 4.875 9.85476 4.81574 9.96025 4.71025C10.0657 4.60476 10.125 4.46168 10.125 4.3125C10.125 4.16332 10.0657 4.02024 9.96025 3.91475C9.85476 3.80926 9.71168 3.75 9.5625 3.75Z" />
      <path
         d="M10.125 6.9375C10.125 6.78832 10.0657 6.64524 9.96025 6.53975C9.85476 6.43426 9.71168 6.375 9.5625 6.375H3.5625C3.41332 6.375 3.27024 6.43426 3.16475 6.53975C3.05926 6.64524 3 6.78832 3 6.9375C3 7.08668 3.05926 7.22976 3.16475 7.33525C3.27024 7.44074 3.41332 7.5 3.5625 7.5H9.5625C9.71168 7.5 9.85476 7.44074 9.96025 7.33525C10.0657 7.22976 10.125 7.08668 10.125 6.9375Z" />
      <path
         d="M3.5625 9C3.41332 9 3.27024 9.05926 3.16475 9.16475C3.05926 9.27024 3 9.41332 3 9.5625C3 9.71168 3.05926 9.85476 3.16475 9.96025C3.27024 10.0657 3.41332 10.125 3.5625 10.125H7.6875C7.83669 10.125 7.97976 10.0657 8.08525 9.96025C8.19074 9.85476 8.25 9.71168 8.25 9.5625C8.25 9.41332 8.19074 9.27024 8.08525 9.16475C7.97976 9.05926 7.83669 9 7.6875 9H3.5625Z" />
      <path
         d="M8.475 13.2413C8.46072 13.207 8.43668 13.1777 8.40587 13.1571C8.37506 13.1364 8.33885 13.1252 8.30175 13.125H1.875C1.77554 13.125 1.68016 13.0855 1.60984 13.0152C1.53951 12.9448 1.5 12.8495 1.5 12.75V1.875C1.5 1.77554 1.53951 1.68016 1.60984 1.60984C1.68016 1.53951 1.77554 1.5 1.875 1.5H11.625C11.7245 1.5 11.8198 1.53951 11.8902 1.60984C11.9605 1.68016 12 1.77554 12 1.875V9.4275C12.0001 9.46457 12.0111 9.50078 12.0318 9.53156C12.0525 9.56234 12.0818 9.58631 12.116 9.60044C12.1503 9.61456 12.188 9.61821 12.2244 9.61093C12.2607 9.60364 12.2941 9.58574 12.3202 9.5595L13.2803 8.5995C13.4209 8.45888 13.5 8.26815 13.5 8.06925V1.5C13.5 1.10218 13.342 0.720644 13.0607 0.43934C12.7794 0.158035 12.3978 0 12 0L1.5 0C1.10218 0 0.720644 0.158035 0.43934 0.43934C0.158035 0.720644 0 1.10218 0 1.5L0 13.125C0 13.5228 0.158035 13.9044 0.43934 14.1857C0.720644 14.467 1.10218 14.625 1.5 14.625H7.401C7.48121 14.625 7.55932 14.5993 7.62385 14.5517C7.68837 14.504 7.73592 14.4369 7.7595 14.3602C7.83091 14.1272 7.95988 13.916 8.1345 13.746L8.4345 13.446C8.46078 13.4197 8.47866 13.3862 8.48587 13.3498C8.49308 13.3133 8.4893 13.2756 8.475 13.2413Z" />
      <path
         d="M9.04654 15.0982C9.02243 15.0745 8.99235 15.0577 8.95948 15.0495C8.92661 15.0414 8.89216 15.0423 8.85976 15.0522C8.82736 15.062 8.79821 15.0804 8.77538 15.1054C8.75255 15.1304 8.73689 15.1611 8.73004 15.1942L8.25904 17.55C8.24792 17.6045 8.24905 17.6608 8.26237 17.7148C8.27568 17.7688 8.30084 17.8191 8.33602 17.8622C8.37119 17.9053 8.41551 17.94 8.46576 17.9638C8.51601 17.9876 8.57093 18 8.62654 18C8.65174 18.0002 8.67689 17.9977 8.70154 17.9925L11.0588 17.5207C11.092 17.514 11.1228 17.4984 11.1479 17.4755C11.173 17.4527 11.1914 17.4235 11.2011 17.391C11.2109 17.3585 11.2117 17.324 11.2034 17.2911C11.1951 17.2582 11.1781 17.2282 11.154 17.2042L9.04654 15.0982Z" />
      <path
         d="M17.4209 8.8237C17.0526 8.45639 16.5536 8.25012 16.0334 8.25012C15.5132 8.25012 15.0143 8.45639 14.6459 8.8237L9.77093 13.6987C9.70063 13.769 9.66113 13.8644 9.66113 13.9638C9.66113 14.0633 9.70063 14.1586 9.77093 14.2289L12.0209 16.4789C12.0912 16.5492 12.1866 16.5887 12.2861 16.5887C12.3855 16.5887 12.4809 16.5492 12.5512 16.4789L17.4262 11.6039C17.6084 11.4211 17.7528 11.2041 17.8512 10.9654C17.9495 10.7267 17.9999 10.4709 17.9994 10.2127C17.9989 9.95456 17.9476 9.699 17.8483 9.46067C17.7491 9.22234 17.6038 9.00589 17.4209 8.8237Z" />
   </g>
   <defs>
      <clipPath id="clip0_757_6889">
         <rect width="18" height="18" />
      </clipPath>
   </defs>
</svg>