<svg viewBox="0 0 18 17" xmlns="http://www.w3.org/2000/svg">
<path d="M17.8634 0.087114C17.8108 0.043237 17.7472 0.014589 17.6795 0.00427716C17.6119 -0.00603464 17.5426 0.00238335 17.4794 0.0286182L0.230643 7.1531C0.161701 7.18185 0.102916 7.23054 0.0618268 7.29292C0.0207375 7.3553 -0.000783931 7.42853 2.18252e-05 7.50323C0.000827581 7.57792 0.0239238 7.65067 0.0663492 7.71215C0.108775 7.77363 0.168596 7.82104 0.238143 7.8483L4.9868 9.69242C5.04424 9.71481 5.10632 9.72269 5.16754 9.71537C5.22876 9.70804 5.28723 9.68573 5.33777 9.65042L11.6373 5.17024C11.7144 5.1145 11.8098 5.09015 11.9042 5.10212C11.9986 5.1141 12.0849 5.1615 12.1456 5.23473C12.2064 5.30796 12.237 5.40154 12.2313 5.49651C12.2256 5.59148 12.1841 5.68074 12.115 5.7462L6.86541 10.8046C6.82912 10.8396 6.80026 10.8815 6.78054 10.9279C6.76083 10.9743 6.75067 11.0242 6.75067 11.0746V16.1239C6.75091 16.2061 6.77815 16.286 6.8282 16.3512C6.87824 16.4164 6.94833 16.4633 7.02767 16.4848C7.10701 16.5063 7.19121 16.5011 7.26731 16.47C7.34341 16.439 7.4072 16.3838 7.44887 16.3129L9.82395 12.2445C9.84874 12.2023 9.88899 12.1714 9.93617 12.1584C9.98335 12.1454 10.0338 12.1512 10.0767 12.1747L14.4459 14.5746C14.497 14.6028 14.5541 14.6186 14.6124 14.6209C14.6708 14.6231 14.7289 14.6117 14.7821 14.5875C14.8353 14.5633 14.8821 14.527 14.9187 14.4816C14.9554 14.4361 14.9809 14.3827 14.9933 14.3256L17.9931 0.451587C18.006 0.384785 18.0008 0.315751 17.9779 0.251657C17.9551 0.187562 17.9156 0.130747 17.8634 0.087114Z"  />
</svg>
