<svg viewBox="0 0 18 18" xmlns="http://www.w3.org/2000/svg">
<path fill-rule="evenodd" clip-rule="evenodd" d="M13.4988 5.43625V11.6817C13.4985 11.7186 13.5092 11.7548 13.5295 11.7857C13.5498 11.8166 13.5788 11.8407 13.6129 11.8551C13.6469 11.8695 13.6845 11.8734 13.7207 11.8665C13.757 11.8595 13.7904 11.8419 13.8167 11.8159C14.1827 11.4574 14.7579 10.8957 14.9416 10.7225C14.96 10.7057 14.9745 10.6851 14.9843 10.6623C14.9942 10.6394 14.999 10.6147 14.9986 10.5898V4.80931C14.9986 4.61043 14.9195 4.41971 14.7789 4.27911L10.7195 0.21898C10.5788 0.0786062 10.3881 -0.000156018 10.1893 2.32037e-07H1.49986C1.10207 2.32037e-07 0.720578 0.158021 0.439299 0.4393C0.158021 0.720578 0 1.10207 0 1.49986V16.4985C0 16.8963 0.158021 17.2778 0.439299 17.559C0.720578 17.8403 1.10207 17.9983 1.49986 17.9983H9.98383C10.033 17.9978 10.0799 17.978 10.1147 17.9432C10.1494 17.9085 10.1692 17.8615 10.1698 17.8124C10.1788 17.5199 10.2448 17.0017 10.2891 16.7115C10.2928 16.6849 10.2908 16.6578 10.2832 16.6321C10.2756 16.6064 10.2625 16.5826 10.2448 16.5624C10.2272 16.5422 10.2054 16.526 10.1809 16.515C10.1565 16.5039 10.1299 16.4983 10.1031 16.4985H1.87483C1.77538 16.4985 1.68001 16.459 1.60969 16.3887C1.53937 16.3183 1.49986 16.223 1.49986 16.1235V1.87483C1.49986 1.77538 1.53937 1.68001 1.60969 1.60969C1.68001 1.53937 1.77538 1.49986 1.87483 1.49986H9.56162C9.61134 1.49986 9.65903 1.51961 9.69419 1.55477C9.72935 1.58993 9.7491 1.63762 9.7491 1.68735V3.74966C9.7491 4.14744 9.90712 4.52894 10.1884 4.81022C10.4697 5.0915 10.8512 5.24952 11.249 5.24952H13.3113C13.3609 5.24952 13.4084 5.26917 13.4436 5.30416C13.4787 5.33916 13.4986 5.38666 13.4988 5.43625ZM5.93785 5.06524C6.08608 5.04879 6.23477 5.09188 6.35124 5.18503C6.40899 5.23119 6.45709 5.28827 6.49276 5.35303C6.52843 5.41779 6.55099 5.48895 6.55914 5.56243C6.56729 5.63591 6.56087 5.71028 6.54025 5.78128C6.51963 5.85228 6.48522 5.91852 6.43898 5.97621L4.93912 7.85104C4.88961 7.91283 4.82761 7.96348 4.75718 7.99967C4.68675 8.03585 4.60947 8.05676 4.5304 8.06102H4.49966C4.35064 8.06108 4.20769 8.00202 4.10219 7.89678L2.9773 6.77189C2.925 6.71964 2.88351 6.65761 2.85519 6.58933C2.82687 6.52105 2.81228 6.44786 2.81224 6.37394C2.81221 6.30002 2.82673 6.22681 2.85499 6.15851C2.88324 6.0902 2.92468 6.02813 2.97692 5.97583C3.02917 5.92354 3.0912 5.88205 3.15948 5.85373C3.22776 5.82541 3.30095 5.81081 3.37487 5.81078C3.44879 5.81074 3.52199 5.82527 3.5903 5.85352C3.65861 5.88178 3.72068 5.92321 3.77297 5.97546L4.35867 6.56115C4.36827 6.57492 4.38106 6.58617 4.39595 6.59393C4.41083 6.6017 4.42737 6.60575 4.44416 6.60575C4.46095 6.60575 4.47749 6.6017 4.49237 6.59393C4.50726 6.58617 4.52005 6.57492 4.52965 6.56115L5.56081 5.27277C5.65401 5.15634 5.78963 5.08169 5.93785 5.06524ZM4.52965 10.6858L5.56081 9.39739L5.56006 9.39814C5.6062 9.34043 5.66325 9.29237 5.72796 9.25671C5.79268 9.22105 5.86378 9.19848 5.93721 9.1903C6.01064 9.18212 6.08497 9.18848 6.15594 9.20902C6.22692 9.22956 6.29315 9.26388 6.35086 9.31002C6.40857 9.35616 6.45663 9.41321 6.49229 9.47792C6.52795 9.54264 6.55052 9.61374 6.5587 9.68717C6.56688 9.7606 6.56052 9.83493 6.53998 9.9059C6.51944 9.97688 6.48512 10.0431 6.43898 10.1008L4.93912 11.9756C4.88961 12.0374 4.82761 12.0881 4.75718 12.1243C4.68675 12.1605 4.60947 12.1814 4.5304 12.1856H4.49966C4.35064 12.1857 4.20769 12.1266 4.10219 12.0214L2.9773 10.8965C2.87168 10.791 2.81231 10.6478 2.81224 10.4986C2.81217 10.3493 2.87141 10.2061 2.97692 10.1004C3.08243 9.99483 3.22558 9.93546 3.37487 9.93539C3.52416 9.93532 3.66736 9.99456 3.77297 10.1001L4.35867 10.6858C4.36827 10.6995 4.38106 10.7108 4.39595 10.7185C4.41083 10.7263 4.42737 10.7304 4.44416 10.7304C4.46095 10.7304 4.47749 10.7263 4.49237 10.7185C4.50726 10.7108 4.52005 10.6995 4.52965 10.6858ZM10.3123 7.12434C10.3123 6.97517 10.253 6.83211 10.1476 6.72663C10.0421 6.62115 9.89902 6.5619 9.74985 6.5619H7.87427C7.7251 6.5619 7.58204 6.62115 7.47656 6.72663C7.37108 6.83211 7.31183 6.97517 7.31183 7.12434C7.31183 7.27351 7.37108 7.41657 7.47656 7.52205C7.58204 7.62753 7.7251 7.68679 7.87427 7.68679H9.7491C9.82303 7.68689 9.89625 7.67242 9.96457 7.64419C10.0329 7.61597 10.095 7.57456 10.1473 7.52232C10.1996 7.47008 10.2411 7.40804 10.2694 7.33976C10.2977 7.27147 10.3123 7.19827 10.3123 7.12434ZM7.47656 10.8505C7.58204 10.745 7.7251 10.6858 7.87427 10.6858H8.99917C9.14834 10.6858 9.2914 10.745 9.39688 10.8505C9.50236 10.956 9.56162 11.0991 9.56162 11.2482C9.56162 11.3974 9.50236 11.5405 9.39688 11.6459C9.2914 11.7514 9.14834 11.8107 8.99917 11.8107H7.87427C7.7251 11.8107 7.58204 11.7514 7.47656 11.6459C7.37108 11.5405 7.31183 11.3974 7.31183 11.2482C7.31183 11.0991 7.37108 10.956 7.47656 10.8505ZM16.5623 11.2494C16.9419 11.2494 17.306 11.4 17.5747 11.6682C17.7088 11.8009 17.8154 11.9589 17.8884 12.1329C17.9614 12.3069 17.9993 12.4937 18 12.6824C18.0007 12.8711 17.9641 13.0581 17.8924 13.2327C17.8208 13.4073 17.7153 13.566 17.5822 13.6997L13.7673 17.5146C13.7149 17.5671 13.6481 17.6029 13.5753 17.6174L11.7005 17.9923C11.6758 17.9969 11.6506 17.9992 11.6255 17.9991C11.5698 17.9992 11.5148 17.9869 11.4645 17.9631C11.4141 17.9394 11.3697 17.9047 11.3345 17.8616C11.2992 17.8185 11.274 17.7681 11.2606 17.7141C11.2473 17.66 11.2461 17.6037 11.2573 17.5491L11.6322 15.6743C11.6471 15.6019 11.6828 15.5354 11.735 15.4831L15.5499 11.6682C15.8186 11.4 16.1827 11.2494 16.5623 11.2494Z" />
</svg>
