<svg width="24" height="24" viewBox="0 0 24 24" xmlns="http://www.w3.org/2000/svg">
<path d="M21.843 3.4547C21.1966 2.80806 20.4291 2.29511 19.5844 1.94514C18.7397 1.59517 17.8343 1.41504 16.92 1.41504C16.0057 1.41504 15.1003 1.59517 14.2556 1.94514C13.4109 2.29511 12.6434 2.80806 11.997 3.4547L1.61899 13.8317C0.665093 14.795 0.131458 16.0968 0.134781 17.4525C0.138104 18.8082 0.678115 20.1074 1.63672 21.066C2.59533 22.0246 3.89452 22.5646 5.2502 22.5679C6.60587 22.5712 7.90769 22.0376 8.87099 21.0837L17.3 12.6527C17.6253 12.3517 17.8864 11.9881 18.0678 11.5837C18.2492 11.1793 18.3471 10.7425 18.3557 10.2994C18.3642 9.85628 18.2833 9.416 18.1176 9.00493C17.9519 8.59386 17.705 8.22046 17.3916 7.90711C17.0781 7.59376 16.7047 7.34689 16.2936 7.18131C15.8825 7.01573 15.4422 6.93484 14.9991 6.94349C14.556 6.95213 14.1192 7.05014 13.7148 7.23163C13.3105 7.41312 12.9469 7.67436 12.646 7.9997L7.45699 13.1837C7.36401 13.2765 7.29023 13.3868 7.23987 13.5081C7.1895 13.6295 7.16353 13.7596 7.16343 13.891C7.16334 14.0224 7.18913 14.1525 7.23933 14.2739C7.28952 14.3954 7.36314 14.5057 7.45599 14.5987C7.54883 14.6917 7.65908 14.7655 7.78044 14.8158C7.9018 14.8662 8.03189 14.8922 8.16328 14.8923C8.29468 14.8923 8.4248 14.8666 8.54623 14.8164C8.66766 14.7662 8.77801 14.6925 8.87099 14.5997L14.06 9.4087C14.3045 9.17538 14.6307 9.04699 14.9686 9.05101C15.3066 9.05502 15.6296 9.19111 15.8685 9.43017C16.1074 9.66923 16.2433 9.99229 16.2472 10.3303C16.251 10.6682 16.1224 10.9943 15.889 11.2387L7.45699 19.6697C6.87033 20.2564 6.07465 20.5859 5.24499 20.5859C4.41533 20.5859 3.61965 20.2564 3.03299 19.6697C2.44633 19.083 2.11675 18.2874 2.11675 17.4577C2.11675 16.628 2.44633 15.8324 3.03299 15.2457L13.411 4.8687C14.3416 3.93805 15.6039 3.41522 16.92 3.41522C18.2361 3.41522 19.4983 3.93805 20.429 4.8687C21.3596 5.79934 21.8825 7.06157 21.8825 8.3777C21.8825 9.69383 21.3596 10.9561 20.429 11.8867L12.646 19.6697C12.5505 19.7619 12.4743 19.8723 12.4219 19.9943C12.3695 20.1163 12.3419 20.2475 12.3407 20.3803C12.3396 20.5131 12.3649 20.6448 12.4152 20.7677C12.4654 20.8905 12.5397 21.0022 12.6336 21.0961C12.7275 21.19 12.8391 21.2642 12.962 21.3145C13.0849 21.3648 13.2166 21.3901 13.3494 21.3889C13.4822 21.3878 13.6134 21.3602 13.7354 21.3078C13.8574 21.2554 13.9677 21.1792 14.06 21.0837L21.843 13.2997C22.4897 12.6533 23.0028 11.8859 23.3528 11.0412C23.7029 10.1965 23.8831 9.29106 23.8831 8.3767C23.8831 7.46233 23.7029 6.55693 23.3528 5.71222C23.0028 4.86751 22.4897 4.10005 21.843 3.4537V3.4547Z" />
</svg>
