<svg width="12" height="14" viewBox="0 0 12 14" xmlns="http://www.w3.org/2000/svg">
<path fill-rule="evenodd" clip-rule="evenodd" d="M1.00003 0H3.66677C4.21907 0 4.66679 0.417291 4.66679 0.932045V12.738C4.66679 13.2527 4.21907 13.67 3.66677 13.67H1.00003C0.447727 13.67 0 13.2527 0 12.738V0.932045C0 0.417291 0.447727 0 1.00003 0ZM8.33326 0H11C11.5523 0 12 0.417291 12 0.932045V12.738C12 13.2527 11.5523 13.67 11 13.67H8.33326C7.78096 13.67 7.33323 13.2527 7.33323 12.738V0.932045C7.33323 0.417291 7.78096 0 8.33326 0Z" />
</svg>
