<svg xmlns="http://www.w3.org/2000/svg" width="20" height="20" viewBox="0 0 20 20">
    <g fill="none" fill-rule="evenodd">
        <g fill="#7D8D9A" fill-rule="nonzero">
            <g>
                <path d="M5.833 10c.46 0 .834-.373.834-.833 0-.46-.373-.834-.834-.834H2.5c-.46 0-.833.373-.833.834 0 .46.373.833.833.833h.208c.056 0 .109.022.148.06.039.04.06.093.06.148v3.334c0 .115-.093.208-.208.208H2.5c-.46 0-.833.373-.833.833 0 .46.373.834.833.834h3.333c.46 0 .834-.373.834-.834 0-.46-.373-.833-.834-.833h-.208c-.115 0-.208-.093-.208-.208v-3.334c0-.055.021-.108.06-.147.04-.04.093-.061.148-.061h.208zM11.667 10c.46 0 .833-.373.833-.833 0-.46-.373-.834-.833-.834H8.333c-.46 0-.833.373-.833.834 0 .46.373.833.833.833h.209c.055 0 .108.022.147.06.04.04.061.093.061.148v3.334c0 .115-.093.208-.208.208h-.209c-.46 0-.833.373-.833.833 0 .46.373.834.833.834h3.334c.46 0 .833-.373.833-.834 0-.46-.373-.833-.833-.833h-.209c-.115 0-.208-.093-.208-.208v-3.334c0-.055.022-.108.06-.147.04-.04.093-.061.148-.061h.209zM17.917 10c.46 0 .833-.373.833-.833 0-.46-.373-.834-.833-.834h-3.334c-.46 0-.833.373-.833.834 0 .46.373.833.833.833h.209c.055 0 .108.022.147.06.04.04.061.093.061.148v3.334c0 .115-.093.208-.208.208h-.209c-.46 0-.833.373-.833.833 0 .46.373.834.833.834h3.334c.46 0 .833-.373.833-.834 0-.46-.373-.833-.833-.833h-.209c-.115 0-.208-.093-.208-.208v-3.334c0-.055.022-.108.06-.147.04-.04.093-.061.148-.061h.209zM2.044 7.083h16c.33.007.632-.18.772-.478.138-.321.032-.696-.255-.896L10.947.167c-.297-.21-.693-.22-1-.022L1.559 5.688c-.3.189-.423.565-.293.895.135.31.442.507.78.5zM19.93 19.352l-1.667-2.5c-.077-.116-.207-.185-.346-.185H2.083c-.139 0-.27.07-.346.185l-1.667 2.5c-.085.128-.093.293-.02.428.072.135.213.22.367.22h19.166c.154 0 .295-.085.367-.22.073-.135.065-.3-.02-.428z" transform="translate(-511 -272) translate(511 272)"/>
            </g>
        </g>
    </g>
</svg>
