<svg viewBox="0 0 20 20" xmlns="http://www.w3.org/2000/svg">
<g clip-path="url(#clip0_418_7961)">
<path d="M14.8275 13.3817C14.634 13.1882 14.4043 13.0346 14.1515 12.9299C13.8987 12.8252 13.6278 12.7713 13.3542 12.7713C13.0805 12.7713 12.8096 12.8252 12.5568 12.9299C12.304 13.0346 12.0743 13.1882 11.8808 13.3817L11.56 13.7025C9.81459 12.2379 8.2004 10.6237 6.73583 8.87834L7.05749 8.5575C7.44806 8.16682 7.66746 7.63701 7.66746 7.08459C7.66746 6.53216 7.44806 6.00235 7.05749 5.61167L5.28916 3.84417C4.89247 3.46479 4.36473 3.25305 3.81583 3.25305C3.26693 3.25305 2.73918 3.46479 2.34249 3.84417L1.37249 4.81334C0.899591 5.28943 0.604933 5.91375 0.538011 6.58145C0.47109 7.24914 0.635983 7.91953 1.00499 8.48C3.88803 12.8253 7.6114 16.5498 11.9558 19.4342C12.518 19.7981 13.1874 19.9599 13.8537 19.893C14.5201 19.826 15.1439 19.5343 15.6225 19.0658L16.5925 18.0958C16.982 17.7046 17.2007 17.175 17.2007 16.6229C17.2007 16.0708 16.982 15.5412 16.5925 15.15L14.8275 13.3817Z"/>
<path d="M11.7692 10.9492C11.9057 10.951 12.0412 10.9259 12.1679 10.8751C12.2946 10.8243 12.4101 10.7489 12.5075 10.6533L15.8408 7.30251C16.035 7.10715 16.144 6.84295 16.1442 6.56751V4.08334H17.43C17.5936 4.08218 17.7532 4.03288 17.889 3.9416C18.0248 3.85032 18.1307 3.72109 18.1935 3.57003C18.2563 3.41897 18.2733 3.25275 18.2423 3.09211C18.2113 2.93147 18.1337 2.78351 18.0192 2.66668L15.6917 0.333344C15.5354 0.177118 15.3235 0.0893555 15.1025 0.0893555C14.8815 0.0893555 14.6696 0.177118 14.5133 0.333344L12.1858 2.66668C12.0713 2.78351 11.9937 2.93147 11.9627 3.09211C11.9317 3.25275 11.9487 3.41897 12.0115 3.57003C12.0743 3.72109 12.1802 3.85032 12.316 3.9416C12.4518 4.03288 12.6114 4.08218 12.775 4.08334H14.0608V6.13834L11.0308 9.18334C10.8844 9.3279 10.7845 9.51295 10.744 9.71471C10.7036 9.91647 10.7243 10.1257 10.8037 10.3156C10.8831 10.5054 11.0175 10.6672 11.1895 10.7801C11.3615 10.893 11.5634 10.9519 11.7692 10.9492Z" />
<path d="M19.1792 9.18832L17.9408 7.92665C17.7472 7.72951 17.4832 7.61735 17.2069 7.61485C16.9306 7.61235 16.6646 7.71971 16.4675 7.91332C16.2703 8.10693 16.1582 8.37092 16.1557 8.64723C16.1532 8.92353 16.2605 9.18951 16.4542 9.38665L17.6925 10.6483C17.8876 10.843 18.1514 10.9534 18.427 10.9558C18.7027 10.9581 18.9682 10.8522 19.1667 10.6608C19.2642 10.565 19.3419 10.4509 19.3954 10.325C19.4488 10.1991 19.4769 10.0639 19.478 9.92716C19.4792 9.79041 19.4534 9.65477 19.4021 9.528C19.3508 9.40122 19.2751 9.2858 19.1792 9.18832Z"/>
</g>
<defs>
<clipPath id="clip0_418_7961">
<rect width="20" height="20"/>
</clipPath>
</defs>
</svg>
