<svg viewBox="0 0 22 22" xmlns="http://www.w3.org/2000/svg">
<path d="M18.8689 13.3881C18.3454 12.8876 17.6491 12.6082 16.9249 12.6082C16.2006 12.6082 15.5043 12.8876 14.9809 13.3881L14.5588 13.8102C12.2554 11.8791 10.126 9.74935 8.19531 7.44562L8.61852 7.02352C9.13216 6.50714 9.42049 5.80841 9.42049 5.08007C9.42049 4.35173 9.13216 3.65301 8.61852 3.13663L6.28594 0.805152C6.03075 0.549892 5.72777 0.347404 5.39431 0.209255C5.06085 0.0711054 4.70344 0 4.3425 0C3.98155 0 3.62414 0.0711054 3.29068 0.209255C2.95722 0.347404 2.65424 0.549892 2.39905 0.805152L1.12064 2.08356C0.496606 2.71253 0.107764 3.5369 0.0193056 4.41849C-0.0691532 5.30008 0.148148 6.18527 0.63478 6.92569C4.43903 12.6552 9.35027 17.5665 15.0798 21.3707C15.8216 21.8504 16.7044 22.0636 17.5833 21.9753C18.4622 21.887 19.2849 21.5025 19.9164 20.8849L21.1959 19.6042C21.7108 19.089 22 18.3903 22 17.6619C22 16.9335 21.7108 16.2349 21.1959 15.7196L18.8689 13.3881Z"/>
</svg>
