<svg viewBox="0 0 20 20" xmlns="http://www.w3.org/2000/svg">
<path fill-rule="evenodd" clip-rule="evenodd" d="M16.4641 15.2895L19.7578 18.5832L19.752 18.5798C19.8972 18.7371 19.9764 18.9441 19.9731 19.1582C19.9698 19.3722 19.8843 19.5768 19.7343 19.7295C19.5843 19.8821 19.3813 19.9713 19.1674 19.9783C18.9534 19.9854 18.745 19.9099 18.5852 19.7675L18.5794 19.7616L0.244015 1.42629C0.0877724 1.27 0 1.05805 0 0.83706C0 0.616066 0.0877724 0.404119 0.244015 0.247829C0.401673 0.0941873 0.613106 0.00820204 0.833246 0.00820204C1.05339 0.00820204 1.26482 0.0941873 1.42248 0.247829L4.85619 3.67737C4.88183 3.70277 4.91361 3.72111 4.94844 3.73059C4.98327 3.74008 5.01996 3.74039 5.05494 3.7315C5.08993 3.7226 5.12201 3.70481 5.14809 3.67984C5.17416 3.65488 5.19332 3.62359 5.20372 3.58903C5.54316 2.43543 6.28693 1.44278 7.29874 0.792983C8.31054 0.143181 9.52263 -0.120253 10.7129 0.0509543C11.9031 0.222161 12.9918 0.816542 13.7795 1.72518C14.5671 2.63382 15.0009 3.79585 15.0015 4.99835V10.4156C15.0042 11.2984 14.7718 12.166 14.3281 12.9292C14.3055 12.9688 14.2965 13.0146 14.3024 13.0597C14.3083 13.1048 14.3287 13.1468 14.3606 13.1792L14.9673 13.7851C14.9889 13.8068 15.0151 13.8234 15.0439 13.8336C15.0728 13.8439 15.1035 13.8475 15.134 13.8443C15.165 13.841 15.195 13.8308 15.2215 13.8143C15.2481 13.7979 15.2706 13.7757 15.2873 13.7493C15.9187 12.7521 16.2532 11.5958 16.2516 10.4156V8.33205C16.2516 8.11101 16.3394 7.89902 16.4957 7.74273C16.652 7.58643 16.864 7.49862 17.085 7.49862C17.3061 7.49862 17.518 7.58643 17.6743 7.74273C17.8306 7.89902 17.9184 8.11101 17.9184 8.33205V10.4156C17.9215 12.0676 17.4051 13.6787 16.4425 15.0211C16.4134 15.0611 16.3996 15.1101 16.4036 15.1593C16.4076 15.2085 16.429 15.2547 16.4641 15.2895ZM10.0009 16.6663C8.34369 16.6646 6.75483 16.0054 5.58298 14.8336C4.41114 13.6617 3.75202 12.0729 3.75025 10.4156V8.33208C3.75025 8.11104 3.66244 7.89905 3.50615 7.74276C3.34985 7.58646 3.13787 7.49865 2.91683 7.49865C2.69579 7.49865 2.4838 7.58646 2.32751 7.74276C2.17121 7.89905 2.0834 8.11104 2.0834 8.33208V10.4156C2.08581 12.339 2.78726 14.196 4.05711 15.6406C5.32695 17.0853 7.07861 18.0191 8.98582 18.2682C9.03613 18.2745 9.08238 18.299 9.11585 18.3371C9.14933 18.3751 9.1677 18.4242 9.16751 18.4749V19.1666C9.16751 19.3876 9.25532 19.5996 9.41162 19.7559C9.56791 19.9122 9.7799 20 10.0009 20C10.222 20 10.434 19.9122 10.5903 19.7559C10.7466 19.5996 10.8344 19.3876 10.8344 19.1666V18.4749C10.8342 18.4242 10.8525 18.3751 10.886 18.3371C10.9195 18.299 10.9657 18.2745 11.016 18.2682C12.1608 18.12 13.2588 17.7217 14.2322 17.1014C14.2586 17.0847 14.2809 17.0622 14.2975 17.0357C14.314 17.0092 14.3244 16.9793 14.3278 16.9483C14.3313 16.9172 14.3277 16.8858 14.3174 16.8563C14.307 16.8269 14.2902 16.8001 14.2681 16.778L13.3588 15.8687C13.3265 15.8366 13.2846 15.816 13.2394 15.8099C13.1943 15.8039 13.1484 15.8129 13.1088 15.8354C12.1638 16.3807 11.0919 16.6673 10.0009 16.6663ZM5.35626 7.87118C5.32717 7.84201 5.29008 7.82212 5.2497 7.81403C5.20931 7.80593 5.16743 7.80999 5.12934 7.82568C5.09126 7.84138 5.05868 7.86802 5.03573 7.90222C5.01278 7.93643 5.00048 7.97667 5.00039 8.01786V10.4156C5.00046 11.2514 5.21001 12.0738 5.60987 12.8077C6.00973 13.5415 6.58715 14.1635 7.28936 14.6167C7.99156 15.0699 8.79616 15.3398 9.6296 15.4019C10.463 15.464 11.2987 15.3161 12.0603 14.972C12.0904 14.9579 12.1166 14.9369 12.1369 14.9107C12.1572 14.8844 12.1709 14.8537 12.1769 14.8211C12.1829 14.7885 12.1811 14.755 12.1716 14.7232C12.162 14.6915 12.145 14.6624 12.122 14.6386L5.35626 7.87118Z" />
</svg>
