<svg width="27" height="27" viewBox="0 0 27 27" xmlns="http://www.w3.org/2000/svg">
   <path fill-rule="evenodd" clip-rule="evenodd"
      d="M19.679 0C18.2331 0 16.8196 0.428775 15.6173 1.2321C14.4151 2.03543 13.478 3.17723 12.9247 4.51312C12.3713 5.84901 12.2266 7.31898 12.5086 8.73715C12.7907 10.1553 13.487 11.458 14.5095 12.4804C15.5319 13.5029 16.8346 14.1992 18.2528 14.4813C19.6709 14.7634 21.1409 14.6186 22.4768 14.0652C23.8127 13.5119 24.9545 12.5748 25.7578 11.3726C26.5611 10.1703 26.9899 8.75683 26.9899 7.31087C26.9875 5.37264 26.2165 3.51447 24.846 2.14393C23.4754 0.773396 21.6173 0.00238112 19.679 0ZM19.679 12.3722C18.678 12.3722 17.6994 12.0754 16.8671 11.5192C16.0348 10.9631 15.386 10.1726 15.0029 9.24778C14.6199 8.32293 14.5196 7.30526 14.7149 6.32345C14.9102 5.34164 15.3923 4.43979 16.1001 3.73194C16.808 3.02409 17.7098 2.54205 18.6916 2.34675C19.6734 2.15146 20.6911 2.25169 21.6159 2.63477C22.5408 3.01786 23.3313 3.66658 23.8874 4.49892C24.4436 5.33126 24.7404 6.30983 24.7404 7.31087C24.7404 8.65323 24.2072 9.94061 23.258 10.8898C22.3088 11.839 21.0214 12.3722 19.679 12.3722ZM19.3059 18.1714C19.0448 17.9102 18.7348 17.703 18.3936 17.5616C18.0524 17.4203 17.6867 17.3475 17.3173 17.3475C16.948 17.3475 16.5823 17.4203 16.2411 17.5616C15.8999 17.703 15.5899 17.9102 15.3288 18.1714L14.8958 18.6044C12.5394 16.6282 10.3607 14.4495 8.38458 12.0932L8.81761 11.6602C9.34338 11.1322 9.63857 10.4173 9.63857 9.67219C9.63857 8.92703 9.34338 8.21222 8.81761 7.68419L6.43089 5.29747C6.16978 5.03629 5.85977 4.8291 5.51857 4.68775C5.17736 4.54639 4.81166 4.47363 4.44234 4.47363C4.07301 4.47363 3.70731 4.54639 3.36611 4.68775C3.02491 4.8291 2.7149 5.03629 2.45378 5.29747L1.1457 6.60668C0.50781 7.24945 0.110289 8.09197 0.0197762 8.993C-0.0707361 9.89403 0.151264 10.7988 0.648557 11.5556C4.54071 17.4197 9.56597 22.4465 15.4289 26.3404C16.188 26.8311 17.0913 27.049 17.9907 26.9585C18.89 26.868 19.7318 26.4743 20.3778 25.8422L21.687 24.5341C21.9482 24.273 22.1554 23.9629 22.2967 23.6217C22.4381 23.2805 22.5108 22.9148 22.5108 22.5455C22.5108 22.1762 22.4381 21.8105 22.2967 21.4693C22.1554 21.1281 21.9482 20.8181 21.687 20.557L19.3059 18.1714ZM20.5236 6.46727H21.9295C22.1532 6.46727 22.3678 6.55614 22.526 6.71434C22.6842 6.87254 22.7731 7.0871 22.7731 7.31083C22.7731 7.53456 22.6842 7.74912 22.526 7.90732C22.3678 8.06552 22.1532 8.15439 21.9295 8.15439H19.68C19.4563 8.15439 19.2417 8.06552 19.0835 7.90732C18.9253 7.74912 18.8364 7.53456 18.8364 7.31083V4.49896C18.8364 4.27523 18.9253 4.06067 19.0835 3.90247C19.2417 3.74427 19.4563 3.6554 19.68 3.6554C19.9037 3.6554 20.1183 3.74427 20.2765 3.90247C20.4347 4.06067 20.5236 4.27523 20.5236 4.49896V6.46727Z" />
</svg>