<svg viewBox="0 0 20 20" xmlns="http://www.w3.org/2000/svg">
<path fill-rule="evenodd" clip-rule="evenodd" d="M2.41667 0.767501C7.42044 -0.255834 12.5796 -0.255834 17.5833 0.767501C18.252 0.915194 18.8525 1.28129 19.2901 1.80805C19.7277 2.3348 19.9774 2.99224 20 3.67667V5.34334C20 5.61692 19.9461 5.88783 19.8414 6.14059C19.7367 6.39335 19.5833 6.62302 19.3898 6.81647C19.1964 7.00993 18.9667 7.16339 18.7139 7.26808C18.4612 7.37278 18.1903 7.42667 17.9167 7.42667H15.4167C14.8641 7.42667 14.3342 7.20717 13.9435 6.81647C13.5528 6.42577 13.3333 5.89587 13.3333 5.34334V4.66667C13.3333 4.61371 13.3135 4.56268 13.2777 4.52365C13.2419 4.48462 13.1928 4.46042 13.14 4.45583C11.0503 4.28167 8.94971 4.28167 6.86 4.45583C6.80724 4.46042 6.75812 4.48462 6.72233 4.52365C6.68654 4.56268 6.66668 4.61371 6.66667 4.66667V5.3425C6.66667 5.89504 6.44717 6.42494 6.05647 6.81564C5.66577 7.20634 5.13587 7.42584 4.58333 7.42584H2.08333C1.5308 7.42584 1.0009 7.20634 0.610194 6.81564C0.219493 6.42494 0 5.89504 0 5.3425V3.67583C0.0227474 2.99155 0.272601 2.33431 0.710166 1.80772C1.14773 1.28113 1.74812 0.915158 2.41667 0.767501ZM6.87499 10.2091C6.87499 11.0146 6.22207 11.6675 5.41666 11.6675C4.61124 11.6675 3.95832 11.0146 3.95832 10.2091C3.95832 9.40372 4.61124 8.7508 5.41666 8.7508C6.22207 8.7508 6.87499 9.40372 6.87499 10.2091ZM5.41666 15.8341C6.22207 15.8341 6.87499 15.1812 6.87499 14.3758C6.87499 13.5704 6.22207 12.9175 5.41666 12.9175C4.61124 12.9175 3.95832 13.5704 3.95832 14.3758C3.95832 15.1812 4.61124 15.8341 5.41666 15.8341ZM6.87499 18.5417C6.87499 19.3471 6.22207 20 5.41666 20C4.61124 20 3.95832 19.3471 3.95832 18.5417C3.95832 17.7362 4.61124 17.0833 5.41666 17.0833C6.22207 17.0833 6.87499 17.7362 6.87499 18.5417ZM10 11.6675C10.8054 11.6675 11.4583 11.0146 11.4583 10.2091C11.4583 9.40372 10.8054 8.7508 10 8.7508C9.1946 8.7508 8.54168 9.40372 8.54168 10.2091C8.54168 11.0146 9.1946 11.6675 10 11.6675ZM11.4583 14.3758C11.4583 15.1812 10.8054 15.8341 10 15.8341C9.1946 15.8341 8.54168 15.1812 8.54168 14.3758C8.54168 13.5704 9.1946 12.9175 10 12.9175C10.8054 12.9175 11.4583 13.5704 11.4583 14.3758ZM10 20C10.8054 20 11.4583 19.3471 11.4583 18.5417C11.4583 17.7362 10.8054 17.0833 10 17.0833C9.1946 17.0833 8.54168 17.7362 8.54168 18.5417C8.54168 19.3471 9.1946 20 10 20ZM16.0417 10.2091C16.0417 11.0146 15.3887 11.6675 14.5833 11.6675C13.7779 11.6675 13.125 11.0146 13.125 10.2091C13.125 9.40372 13.7779 8.7508 14.5833 8.7508C15.3887 8.7508 16.0417 9.40372 16.0417 10.2091ZM14.5833 15.8341C15.3887 15.8341 16.0417 15.1812 16.0417 14.3758C16.0417 13.5704 15.3887 12.9175 14.5833 12.9175C13.7779 12.9175 13.125 13.5704 13.125 14.3758C13.125 15.1812 13.7779 15.8341 14.5833 15.8341ZM16.0417 18.5417C16.0417 19.3471 15.3887 20 14.5833 20C13.7779 20 13.125 19.3471 13.125 18.5417C13.125 17.7362 13.7779 17.0833 14.5833 17.0833C15.3887 17.0833 16.0417 17.7362 16.0417 18.5417Z" />
</svg>
