<svg width="15" height="14" viewBox="0 0 15 14" xmlns="http://www.w3.org/2000/svg">
<path d="M10.0177 9.4286C9.88216 9.29306 9.72129 9.18555 9.54424 9.1122C9.36718 9.03884 9.17741 9.00109 8.98576 9.00109C8.79411 9.00109 8.60434 9.03884 8.42729 9.1122C8.25023 9.18555 8.08936 9.29306 7.95386 9.4286L7.72916 9.6533C6.50655 8.62749 5.37599 7.49673 4.35039 6.27395L4.57568 6.04925C4.84923 5.77562 5.0029 5.40455 5.0029 5.01764C5.0029 4.63073 4.84923 4.25966 4.57568 3.98604L3.33717 2.74811C3.20166 2.61249 3.04076 2.5049 2.86365 2.4315C2.68654 2.35809 2.4967 2.32031 2.30498 2.32031C2.11327 2.32031 1.92343 2.35809 1.74632 2.4315C1.56921 2.5049 1.4083 2.61249 1.27279 2.74811L0.594007 3.4269C0.263184 3.76057 0.057078 4.19779 0.0102189 4.66532C-0.0366403 5.13285 0.078594 5.60228 0.336616 5.99497C2.35579 9.03856 4.96357 11.6473 8.00639 13.6677C8.40022 13.9225 8.86904 14.0357 9.33577 13.9887C9.80249 13.9417 10.2393 13.7373 10.5745 13.4091L11.2544 12.7291C11.5278 12.4555 11.6813 12.0846 11.6813 11.6978C11.6813 11.3111 11.5278 10.9401 11.2544 10.6665L10.0177 9.4286Z" />
<path d="M7.87385 6.71094L10.6754 6.71094C10.7904 6.71011 10.9027 6.67529 10.998 6.61084C11.0934 6.5464 11.1675 6.45521 11.2112 6.34875C11.2549 6.24228 11.2661 6.12528 11.2434 6.01246C11.2208 5.89963 11.1653 5.79602 11.0839 5.71464L10.3053 4.93488L13.7489 1.49484C13.9131 1.3306 14.0052 1.10788 14.0052 0.875666C14.0051 0.643455 13.9128 0.420776 13.7486 0.256617C13.5844 0.0924577 13.3616 0.000264588 13.1294 0.000319404C12.8972 0.000373743 12.6745 0.0926722 12.5104 0.256909L9.06683 3.69696L8.28824 2.91778C8.23389 2.86326 8.1693 2.82004 8.09818 2.79059C8.02706 2.76114 7.95082 2.74605 7.87385 2.74619C7.79712 2.74649 7.72119 2.76176 7.65031 2.79113C7.54377 2.8353 7.45271 2.91004 7.38862 3.00592C7.32453 3.10179 7.29028 3.21451 7.29019 3.32984L7.29019 6.12728C7.29019 6.28208 7.35168 6.43053 7.46114 6.53999C7.5706 6.64945 7.71905 6.71094 7.87385 6.71094Z" />
</svg>
