<svg width="14" height="14" viewBox="0 0 14 14" xmlns="http://www.w3.org/2000/svg">
<path d="M10.0905 9.39627C9.95398 9.25975 9.79194 9.15145 9.6136 9.07757C9.43525 9.00368 9.2441 8.96566 9.05106 8.96566C8.85802 8.96566 8.66687 9.00368 8.48853 9.07757C8.31019 9.15145 8.14815 9.25975 8.01167 9.39627L7.78533 9.62261C6.55384 8.58934 5.41506 7.45037 4.38201 6.2187L4.60894 5.99236C4.88447 5.71675 5.03925 5.34298 5.03925 4.95326C5.03925 4.56354 4.88447 4.18977 4.60894 3.91416L3.36143 2.66723C3.22493 2.53063 3.06286 2.42226 2.88446 2.34832C2.70606 2.27438 2.51485 2.23633 2.32173 2.23633C2.12862 2.23633 1.93741 2.27438 1.75901 2.34832C1.58061 2.42226 1.41854 2.53063 1.28204 2.66723L0.598323 3.35096C0.265096 3.68705 0.0574928 4.12745 0.0102931 4.59838C-0.0369066 5.0693 0.0791651 5.54215 0.339062 5.93769C2.37291 9.00339 4.99964 11.6311 8.06458 13.6661C8.46127 13.9228 8.9335 14.0369 9.40361 13.9895C9.87373 13.9422 10.3137 13.7363 10.6513 13.4057L11.3362 12.7208C11.6116 12.4452 11.7662 12.0716 11.7662 11.682C11.7662 11.2924 11.6116 10.9188 11.3362 10.6432L10.0905 9.39627Z" />
<path d="M10.2262 0H8.34613C8.26891 0.000555047 8.19358 0.0239241 8.1296 0.0671698C8.06563 0.110415 8.01586 0.171608 7.98656 0.243055C7.95727 0.314503 7.94974 0.393017 7.96494 0.468729C7.98013 0.544441 8.01737 0.613972 8.07196 0.668582L8.59445 1.19185L6.2836 3.50036C6.17343 3.61057 6.11157 3.76004 6.1116 3.91586C6.11164 4.07169 6.17358 4.22113 6.28379 4.33129C6.39401 4.44145 6.54347 4.50332 6.6993 4.50328C6.85513 4.50325 7.00456 4.44131 7.11472 4.33109L9.42558 2.02259L9.94807 2.54547C9.98454 2.58205 10.0279 2.61106 10.0756 2.63082C10.1233 2.65058 10.1745 2.66071 10.2262 2.66062C10.2776 2.66041 10.3286 2.65017 10.3762 2.63046C10.4477 2.60082 10.5088 2.55066 10.5518 2.48632C10.5948 2.42198 10.6178 2.34634 10.6178 2.26895V0.391671C10.6178 0.287793 10.5766 0.18817 10.5031 0.114718C10.4297 0.0412652 10.33 0 10.2262 0Z" />
<path d="M9.61267 7.6123L11.4927 7.6123C11.5699 7.61175 11.6452 7.58838 11.7092 7.54513C11.7732 7.50189 11.823 7.4407 11.8523 7.36925C11.8816 7.2978 11.8891 7.21929 11.8739 7.14358C11.8587 7.06786 11.8215 6.99833 11.7669 6.94372L11.2444 6.42045L13.5552 4.11194C13.6654 4.00173 13.7273 3.85227 13.7272 3.69644C13.7272 3.54061 13.6652 3.39118 13.555 3.28102C13.4448 3.17085 13.2954 3.10899 13.1395 3.10902C12.9837 3.10906 12.8343 3.171 12.7241 3.28121L10.4132 5.58972L9.89076 5.06684C9.85429 5.03025 9.81094 5.00125 9.76322 4.98148C9.71549 4.96172 9.66433 4.95159 9.61267 4.95169C9.56118 4.95189 9.51023 4.96213 9.46266 4.98184C9.39117 5.01149 9.33006 5.06164 9.28705 5.12598C9.24404 5.19032 9.22106 5.26596 9.221 5.34336L9.221 7.22063C9.221 7.32451 9.26226 7.42413 9.33572 7.49759C9.40917 7.57104 9.50879 7.6123 9.61267 7.6123Z" />
</svg>
