<svg width="24" height="24" viewBox="0 0 24 24" xmlns="http://www.w3.org/2000/svg">
<g clip-path="url(#clip0_508_9765)">
<path d="M17.168 16.0373C16.6918 15.582 16.0584 15.3278 15.3995 15.3278C14.7407 15.3278 14.1072 15.582 13.631 16.0373L13.246 16.4213C11.1509 14.6645 9.2141 12.727 7.45802 10.6313L7.84402 10.2473C8.31087 9.77709 8.57286 9.14137 8.57286 8.47878C8.57286 7.81619 8.31087 7.18047 7.84402 6.71028L5.72002 4.58928C5.25055 4.12182 4.61502 3.85938 3.95252 3.85938C3.29001 3.85938 2.65448 4.12182 2.18502 4.58928L1.02202 5.75328C0.455546 6.32514 0.102573 7.07414 0.0221189 7.87503C-0.0583349 8.67593 0.138608 9.48017 0.580017 10.1533C4.04021 15.3677 8.50813 19.8377 13.721 23.3003C14.3956 23.7374 15.1988 23.9317 15.9986 23.8514C16.7983 23.7711 17.5469 23.4208 18.121 22.8583L19.285 21.6943C19.7537 21.2255 20.017 20.5897 20.017 19.9268C20.017 19.2639 19.7537 18.6281 19.285 18.1593L17.168 16.0373Z" />
<path d="M16 2.38086H23C23.2652 2.38086 23.5196 2.2755 23.7071 2.08797C23.8946 1.90043 24 1.64608 24 1.38086C24 1.11564 23.8946 0.861289 23.7071 0.673753C23.5196 0.486216 23.2652 0.380859 23 0.380859H16C15.7348 0.380859 15.4804 0.486216 15.2929 0.673753C15.1054 0.861289 15 1.11564 15 1.38086C15 1.64608 15.1054 1.90043 15.2929 2.08797C15.4804 2.2755 15.7348 2.38086 16 2.38086Z" />
<path d="M23 4.38086H16C15.7348 4.38086 15.4804 4.48622 15.2929 4.67375C15.1054 4.86129 15 5.11564 15 5.38086C15 5.64608 15.1054 5.90043 15.2929 6.08797C15.4804 6.2755 15.7348 6.38086 16 6.38086H23C23.2652 6.38086 23.5196 6.2755 23.7071 6.08797C23.8946 5.90043 24 5.64608 24 5.38086C24 5.11564 23.8946 4.86129 23.7071 4.67375C23.5196 4.48622 23.2652 4.38086 23 4.38086Z" />
<path d="M23 8.38086H16C15.7348 8.38086 15.4804 8.48622 15.2929 8.67375C15.1054 8.86129 15 9.11564 15 9.38086C15 9.64608 15.1054 9.90043 15.2929 10.088C15.4804 10.2755 15.7348 10.3809 16 10.3809H23C23.2652 10.3809 23.5196 10.2755 23.7071 10.088C23.8946 9.90043 24 9.64608 24 9.38086C24 9.11564 23.8946 8.86129 23.7071 8.67375C23.5196 8.48622 23.2652 8.38086 23 8.38086Z" />
<path d="M11.998 2.63086C12.6884 2.63086 13.248 2.07122 13.248 1.38086C13.248 0.690503 12.6884 0.130859 11.998 0.130859C11.3077 0.130859 10.748 0.690503 10.748 1.38086C10.748 2.07122 11.3077 2.63086 11.998 2.63086Z" />
<path d="M11.998 6.63086C12.6884 6.63086 13.248 6.07122 13.248 5.38086C13.248 4.6905 12.6884 4.13086 11.998 4.13086C11.3077 4.13086 10.748 4.6905 10.748 5.38086C10.748 6.07122 11.3077 6.63086 11.998 6.63086Z" />
<path d="M11.998 10.6309C12.6884 10.6309 13.248 10.0712 13.248 9.38086C13.248 8.6905 12.6884 8.13086 11.998 8.13086C11.3077 8.13086 10.748 8.6905 10.748 9.38086C10.748 10.0712 11.3077 10.6309 11.998 10.6309Z" />
</g>
<defs>
<clipPath id="clip0_508_9765">
<rect width="24" height="24" />
</clipPath>
</defs>
</svg>
