<svg viewBox="0 0 25 10" xmlns="http://www.w3.org/2000/svg">
<path d="M18.7356 0.618964C18.0773 0.63371 17.4502 0.901762 16.9846 1.36731C16.5191 1.83286 16.251 2.46004 16.2363 3.11826L16.2363 3.66094C13.5142 3.90024 10.7764 3.90001 8.05437 3.66023L8.05508 3.11685C8.05332 2.45472 7.78951 1.82022 7.32132 1.35202C6.85312 0.883825 6.21862 0.620017 5.55649 0.618258L2.55833 0.618965C2.2302 0.618922 1.90527 0.683521 1.60211 0.809071C1.29894 0.934622 1.02349 1.11866 0.791462 1.35069C0.559438 1.58271 0.375395 1.85817 0.249844 2.16133C0.124294 2.4645 0.0596956 2.78942 0.0597389 3.11755L0.0597391 4.76114C0.0629082 5.5666 0.342882 6.34649 0.852724 6.97005C1.36257 7.59362 2.07128 8.02296 2.86005 8.1861C8.98861 9.42372 15.3027 9.42372 21.4313 8.18609C22.2164 8.01763 22.921 7.58719 23.4292 6.96545C23.9374 6.34372 24.2191 5.56764 24.2281 4.76467L24.2274 3.11896C24.2271 2.45676 23.9639 1.82176 23.4956 1.35351C23.0274 0.885263 22.3924 0.622076 21.7302 0.621789L18.7356 0.618964Z" />
</svg>
