<svg width="15" height="14" viewBox="0 0 15 14" xmlns="http://www.w3.org/2000/svg">
<path d="M10.0179 9.4288C9.88245 9.29326 9.72157 9.18575 9.54451 9.11239C9.36745 9.03904 9.17767 9.00128 8.98602 9.00128C8.79437 9.00128 8.60459 9.03904 8.42753 9.11239C8.25047 9.18575 8.08959 9.29326 7.95409 9.4288L7.72938 9.65351C6.50674 8.62767 5.37615 7.49688 4.35052 6.27407L4.57582 6.04936C4.84937 5.77572 5.00304 5.40464 5.00304 5.01772C5.00304 4.6308 4.84937 4.25972 4.57582 3.98608L3.33727 2.74812C3.20176 2.6125 3.04084 2.50491 2.86373 2.4315C2.68662 2.3581 2.49677 2.32031 2.30505 2.32031C2.11333 2.32031 1.92348 2.3581 1.74637 2.4315C1.56926 2.50491 1.40834 2.6125 1.27283 2.74812L0.594024 3.42693C0.263191 3.76061 0.0570796 4.19785 0.0102192 4.66539C-0.0366413 5.13293 0.0785962 5.60238 0.336626 5.99507C2.35585 9.03875 4.96372 11.6476 8.00662 13.668C8.40047 13.9228 8.8693 14.036 9.33604 13.9891C9.80277 13.9421 10.2396 13.7377 10.5748 13.4094L11.2547 12.7294C11.5281 12.4558 11.6817 12.0849 11.6817 11.6981C11.6817 11.3113 11.5281 10.9404 11.2547 10.6668L10.0179 9.4288Z" />
<path d="M13.4219 0H10.6203C10.5052 0.000827133 10.393 0.0356518 10.2976 0.100097C10.2023 0.164542 10.1281 0.255731 10.0845 0.362202C10.0408 0.468673 10.0296 0.585676 10.0522 0.698502C10.0749 0.811328 10.1304 0.914943 10.2117 0.996323L10.9904 1.77611L7.54671 5.21625C7.38255 5.38049 7.29035 5.60322 7.29041 5.83544C7.29046 6.06766 7.38276 6.29034 7.547 6.45451C7.71124 6.61867 7.93397 6.71087 8.16619 6.71081C8.39841 6.71076 8.62109 6.61846 8.78526 6.45421L12.2289 3.01407L13.0075 3.79327C13.0619 3.84778 13.1265 3.89101 13.1976 3.92046C13.2687 3.94991 13.3449 3.965 13.4219 3.96487C13.4987 3.96456 13.5746 3.94929 13.6455 3.91992C13.752 3.87575 13.8431 3.80101 13.9072 3.70513C13.9713 3.60925 14.0055 3.49653 14.0056 3.3812V0.583669C14.0056 0.42887 13.9441 0.280412 13.8346 0.170953C13.7252 0.0614936 13.5767 0 13.4219 0Z" />
</svg>
