<svg viewBox="0 0 18 14" xmlns="http://www.w3.org/2000/svg">
<path fill-rule="evenodd" clip-rule="evenodd" d="M9.28784 5.18841C9.11202 5.36423 8.87356 5.463 8.62492 5.463C8.37628 5.463 8.13783 5.36423 7.96201 5.18841C7.78619 5.0126 7.68742 4.77414 7.68742 4.5255V0.9375C7.68742 0.68886 7.78619 0.450403 7.96201 0.274587C8.13783 0.098772 8.37628 0 8.62492 0C8.87356 0 9.11202 0.098772 9.28784 0.274587C9.46365 0.450403 9.56242 0.68886 9.56242 0.9375V4.5255C9.56242 4.77414 9.46365 5.0126 9.28784 5.18841ZM2.175 8.28303C6.67836 7.36168 11.3216 7.36168 15.825 8.28303C16.4271 8.41521 16.9678 8.74438 17.3618 9.21846C17.7557 9.69254 17.9803 10.2845 18 10.9005V12.0255C18 12.2718 17.9515 12.5156 17.8573 12.7431C17.763 12.9705 17.6249 13.1772 17.4508 13.3514C17.2767 13.5255 17.07 13.6636 16.8425 13.7578C16.615 13.852 16.3712 13.9005 16.125 13.9005H13.875C13.3777 13.9005 12.9008 13.703 12.5492 13.3514C12.1975 12.9997 12 12.5228 12 12.0255V11.6168C10.0039 11.4398 7.99608 11.4398 6 11.6168V12.0255C6 12.5228 5.80246 12.9997 5.45083 13.3514C5.09919 13.703 4.62228 13.9005 4.125 13.9005H1.875C1.37772 13.9005 0.900805 13.703 0.549175 13.3514C0.197544 12.9997 0 12.5228 0 12.0255V10.9005C0.0197021 10.2845 0.244291 9.69254 0.638227 9.21846C1.03216 8.74438 1.57295 8.41521 2.175 8.28303ZM12.1192 6.65033C12.2431 6.65056 12.3658 6.62614 12.4801 6.5785C12.5945 6.53086 12.6982 6.46094 12.7852 6.37282L15.291 3.84607C15.4661 3.66944 15.5639 3.43047 15.5629 3.18172C15.5618 2.93298 15.462 2.69484 15.2854 2.5197C15.1087 2.34456 14.8697 2.24676 14.621 2.24781C14.3723 2.24887 14.1341 2.34869 13.959 2.52532L11.4532 5.05432C11.3229 5.18577 11.2344 5.35285 11.1989 5.5345C11.1634 5.71615 11.1825 5.90424 11.2537 6.07508C11.3249 6.24591 11.4451 6.39184 11.5992 6.49448C11.7532 6.59711 11.9341 6.65186 12.1192 6.65182V6.65033ZM5.12641 6.65194C4.87774 6.65082 4.63969 6.55096 4.46465 6.37432L1.9589 3.84532C1.78386 3.66869 1.68615 3.42975 1.68728 3.18108C1.6884 2.9324 1.78827 2.69436 1.9649 2.51932C2.14154 2.34428 2.38047 2.24657 2.62914 2.2477C2.87782 2.24882 3.11586 2.34869 3.2909 2.52532L5.79665 5.05432C5.97169 5.23096 6.0694 5.46989 6.06828 5.71856C6.06715 5.96724 5.96729 6.20528 5.79065 6.38032C5.61402 6.55536 5.37508 6.65307 5.12641 6.65194Z" />
</svg>
