<svg viewBox="0 0 20 20" xmlns="http://www.w3.org/2000/svg">
<g clip-path="url(#clip0_418_7958)">
<path d="M14.3075 13.46C14.114 13.2665 13.8844 13.113 13.6316 13.0082C13.3788 12.9035 13.1078 12.8496 12.8342 12.8496C12.5605 12.8496 12.2896 12.9035 12.0368 13.0082C11.784 13.113 11.5543 13.2665 11.3608 13.46L11.0392 13.7808C9.29376 12.316 7.67957 10.7015 6.21501 8.95582L6.53667 8.63499C6.92622 8.24377 7.14493 7.71416 7.14493 7.16207C7.14493 6.60998 6.92622 6.08038 6.53667 5.68916L4.76834 3.92166C4.37146 3.54266 3.84379 3.33118 3.29501 3.33118C2.74623 3.33118 2.21856 3.54266 1.82167 3.92166L0.851674 4.89082C0.378911 5.36699 0.0843486 5.9913 0.0174313 6.65896C-0.0494859 7.32661 0.115316 7.99697 0.484174 8.55749C3.36721 12.9028 7.09058 16.6273 11.435 19.5117C11.9973 19.8754 12.6666 20.0372 13.3329 19.9702C13.9992 19.9033 14.623 19.6117 15.1017 19.1433L16.0708 18.1742C16.2644 17.9807 16.4179 17.751 16.5226 17.4982C16.6273 17.2454 16.6812 16.9745 16.6812 16.7008C16.6812 16.4272 16.6273 16.1562 16.5226 15.9034C16.4179 15.6506 16.2644 15.421 16.0708 15.2275L14.3075 13.46Z"/>
<path d="M19.6767 2.25499L17.0225 0.189992C16.8993 0.0939279 16.7516 0.0344152 16.5963 0.0182425C16.4409 0.0020699 16.2841 0.0298884 16.1438 0.0985249C16.0035 0.167161 15.8853 0.273852 15.8027 0.406427C15.7201 0.539002 15.6764 0.692124 15.6767 0.848325V1.99999C14.3223 2.28814 13.1078 3.03208 12.2357 4.10764C11.3637 5.18321 10.8869 6.52533 10.885 7.90999V9.57666C10.885 9.85293 10.9947 10.1179 11.1901 10.3132C11.3854 10.5086 11.6504 10.6183 11.9267 10.6183C12.2029 10.6183 12.4679 10.5086 12.6632 10.3132C12.8586 10.1179 12.9683 9.85293 12.9683 9.57666V7.90999C12.9711 7.08186 13.234 6.27553 13.72 5.605C14.206 4.93447 14.8905 4.43364 15.6767 4.17333V4.97499C15.6758 5.13139 15.7193 5.28482 15.802 5.41755C15.8848 5.55027 16.0034 5.65686 16.1442 5.72499C16.2844 5.79365 16.4411 5.82153 16.5963 5.80547C16.7516 5.78941 16.8993 5.73005 17.0225 5.63416L19.6767 3.56916C19.7767 3.49124 19.8577 3.39151 19.9134 3.27757C19.9691 3.16363 19.998 3.03848 19.998 2.91166C19.998 2.78484 19.9691 2.65969 19.9134 2.54575C19.8577 2.43181 19.7767 2.33208 19.6767 2.25416V2.25499Z"/>
</g>
<defs>
<clipPath id="clip0_418_7958">
<rect width="20" height="20"/>
</clipPath>
</defs>
</svg>
