<svg viewBox="0 0 25 9" xmlns="http://www.w3.org/2000/svg">
<path d="M6.26445 8.52318C6.92267 8.50844 7.54984 8.24039 8.01539 7.77483C8.48094 7.30928 8.74899 6.68211 8.76374 6.02389L8.76374 5.48121C11.4858 5.24191 14.2236 5.24214 16.9456 5.48192L16.9449 6.0253C16.9467 6.68743 17.2105 7.32193 17.6787 7.79013C18.1469 8.25832 18.7814 8.52213 19.4435 8.52389L22.4417 8.52319C22.7698 8.52323 23.0947 8.45863 23.3979 8.33308C23.7011 8.20753 23.9765 8.02349 24.2085 7.79146C24.4406 7.55944 24.6246 7.28398 24.7502 6.98082C24.8757 6.67765 24.9403 6.35273 24.9403 6.0246L24.9403 4.38101C24.9371 3.57555 24.6571 2.79567 24.1473 2.1721C23.6374 1.54853 22.9287 1.11919 22.1399 0.956053C16.0114 -0.281573 9.69727 -0.281573 3.56871 0.956053C2.78356 1.12452 2.07902 1.55496 1.57079 2.17669C1.06257 2.79843 0.780861 3.5745 0.771936 4.37748L0.772641 6.02318C0.772928 6.68539 1.03612 7.32039 1.50436 7.78864C1.97261 8.25688 2.60761 8.52007 3.26982 8.52036L6.26445 8.52318Z"/>
</svg>
