<svg width="26" height="26" viewBox="0 0 26 26" xmlns="http://www.w3.org/2000/svg">
   <path fill-rule="evenodd" clip-rule="evenodd"
      d="M14.3498 1.35442C14.3498 2.10245 13.7434 2.70884 12.9954 2.70884C12.2474 2.70884 11.641 2.10245 11.641 1.35442C11.641 0.606395 12.2474 0 12.9954 0C13.7434 0 14.3498 0.606395 14.3498 1.35442ZM17.3317 2.43796H24.9165C25.2038 2.43796 25.4794 2.3238 25.6826 2.1206C25.8858 1.91739 26 1.64179 26 1.35442C26 1.06705 25.8858 0.791447 25.6826 0.588244C25.4794 0.385042 25.2038 0.270884 24.9165 0.270884H17.3317C17.0443 0.270884 16.7687 0.385042 16.5655 0.588244C16.3623 0.791447 16.2482 1.06705 16.2482 1.35442C16.2482 1.64179 16.3623 1.91739 16.5655 2.1206C16.7687 2.3238 17.0443 2.43796 17.3317 2.43796ZM18.5973 17.2358C18.0813 16.7425 17.3949 16.4671 16.681 16.4671C15.9672 16.4671 15.2808 16.7425 14.7648 17.2358L14.3476 17.6519C12.0775 15.7483 9.97892 13.649 8.07614 11.3782L8.49438 10.9621C9.00023 10.4527 9.28411 9.76385 9.28411 9.0459C9.28411 8.32796 9.00023 7.63914 8.49438 7.12967L6.19295 4.83149C5.68427 4.32498 4.99565 4.04061 4.2778 4.04061C3.55995 4.04061 2.87133 4.32498 2.36265 4.83149L1.1025 6.09272C0.488707 6.71235 0.106247 7.52392 0.0190728 8.39172C-0.0681019 9.25953 0.145293 10.131 0.623575 10.8603C4.37282 16.5103 9.21397 21.3537 14.8623 25.1055C15.5932 25.5791 16.4636 25.7897 17.3301 25.7027C18.1967 25.6156 19.0078 25.2361 19.6299 24.6266L20.8911 23.3654C21.399 22.8574 21.6842 22.1685 21.6842 21.4502C21.6842 20.7319 21.399 20.0431 20.8911 19.5351L18.5973 17.2358ZM17.3317 4.60503H24.9165C25.2038 4.60503 25.4794 4.71919 25.6826 4.92239C25.8858 5.12559 26 5.40119 26 5.68857C26 5.97594 25.8858 6.25154 25.6826 6.45474C25.4794 6.65794 25.2038 6.7721 24.9165 6.7721H17.3317C17.0443 6.7721 16.7687 6.65794 16.5655 6.45474C16.3623 6.25154 16.2482 5.97594 16.2482 5.68857C16.2482 5.40119 16.3623 5.12559 16.5655 4.92239C16.7687 4.71919 17.0443 4.60503 17.3317 4.60503ZM24.9165 8.93917H17.3317C17.0443 8.93917 16.7687 9.05333 16.5655 9.25653C16.3623 9.45974 16.2482 9.73534 16.2482 10.0227C16.2482 10.3101 16.3623 10.5857 16.5655 10.7889C16.7687 10.9921 17.0443 11.1062 17.3317 11.1062H24.9165C25.2038 11.1062 25.4794 10.9921 25.6826 10.7889C25.8858 10.5857 26 10.3101 26 10.0227C26 9.73534 25.8858 9.45974 25.6826 9.25653C25.4794 9.05333 25.2038 8.93917 24.9165 8.93917ZM12.9954 7.04299C13.7434 7.04299 14.3498 6.43659 14.3498 5.68857C14.3498 4.94054 13.7434 4.33415 12.9954 4.33415C12.2474 4.33415 11.641 4.94054 11.641 5.68857C11.641 6.43659 12.2474 7.04299 12.9954 7.04299ZM14.3498 10.0227C14.3498 10.7707 13.7434 11.3771 12.9954 11.3771C12.2474 11.3771 11.641 10.7707 11.641 10.0227C11.641 9.27468 12.2474 8.66829 12.9954 8.66829C13.7434 8.66829 14.3498 9.27468 14.3498 10.0227Z" />
</svg>