<svg viewBox="0 0 26 27" xmlns="http://www.w3.org/2000/svg">
<path d="M24.9146 11.3937C25.0585 11.3937 25.1965 11.3365 25.2983 11.2348C25.4 11.133 25.4572 10.995 25.4572 10.8511C25.4537 7.97429 24.3094 5.21626 22.2751 3.18203C20.2409 1.14779 17.4829 0.00344601 14.606 0C14.4621 0 14.3241 0.057162 14.2224 0.158911C14.1206 0.26066 14.0635 0.398662 14.0635 0.542556V10.3357C14.0638 10.6163 14.1753 10.8854 14.3736 11.0839C14.5719 11.2824 14.8409 11.3942 15.1215 11.3948L24.9146 11.3937Z" />
<path d="M25.4575 13.0213H15.1489C14.989 13.0009 14.8268 13.0336 14.6874 13.1145C14.5479 13.1954 14.4389 13.3199 14.3772 13.4689C14.3155 13.6178 14.3045 13.7829 14.3459 13.9387C14.3874 14.0945 14.4789 14.2324 14.6064 14.331L21.8962 21.6208C21.9979 21.7225 22.1359 21.7797 22.2798 21.7797C22.4236 21.7797 22.5616 21.7225 22.6633 21.6208C23.7245 20.5651 24.5659 19.3095 25.1386 17.9265C25.7114 16.5435 26.0042 15.0607 26.0001 13.5639C26.0001 13.42 25.9429 13.282 25.8412 13.1802C25.7394 13.0785 25.6014 13.0213 25.4575 13.0213Z" />
<path d="M11.4464 26.0425C12.9289 26.0393 14.396 25.7419 15.7627 25.1674C17.1293 24.593 18.3683 23.7529 19.4079 22.696C19.5096 22.5943 19.5667 22.4563 19.5667 22.3124C19.5667 22.1686 19.5096 22.0306 19.4079 21.9288L12.1181 14.639C11.9899 14.4852 11.9116 14.2959 11.8935 14.0965V3.78792C11.8935 3.64402 11.8363 3.50602 11.7346 3.40427C11.6328 3.30252 11.4948 3.24536 11.3509 3.24536C8.32784 3.25802 5.4336 4.47109 3.3049 6.61769C1.17621 8.76429 -0.0125626 11.6686 0.000100134 14.6917C0.0127629 17.7148 1.22582 20.609 3.37242 22.7377C5.51902 24.8664 8.42333 26.0552 11.4464 26.0425Z" />
</svg>
