<svg width="18" height="19" viewBox="0 0 18 19" xmlns="http://www.w3.org/2000/svg">
<path fill-rule="evenodd" clip-rule="evenodd" d="M14.0093 0.429814L17.5702 3.99076C17.7257 4.14632 17.8442 4.33479 17.9171 4.54228C17.9899 4.74977 18.0153 4.97098 17.9912 5.18957C17.9671 5.40817 17.8943 5.61857 17.7781 5.80524C17.6618 5.99192 17.5051 6.1501 17.3196 6.26813L11.962 9.30233C12.2244 10.1555 12.3122 11.0529 12.22 11.9408C12.1278 12.8287 11.8576 13.6889 11.4254 14.47C11.3122 14.6632 11.1563 14.8279 10.9696 14.9516C10.783 15.0753 10.5705 15.1547 10.3484 15.1837C10.126 15.207 9.9012 15.1817 9.68954 15.1095C9.47788 15.0373 9.28444 14.92 9.12262 14.7656L3.24024 8.8823C3.08139 8.72373 2.96099 8.53086 2.8883 8.3185C2.81561 8.10614 2.79257 7.87995 2.82093 7.65729C2.84929 7.43464 2.92831 7.22145 3.05192 7.0341C3.17553 6.84675 3.34043 6.69022 3.53397 6.57654C4.58482 6.00254 5.77963 5.74575 6.97351 5.83733C7.55553 5.83503 8.13582 5.90075 8.70259 6.03314L11.7319 0.680461C11.8499 0.4949 12.0081 0.338213 12.1948 0.221964C12.3815 0.105715 12.5919 0.0328736 12.8104 0.00881516C13.029 -0.0152432 13.2502 0.010096 13.4577 0.0829625C13.6652 0.155829 13.8537 0.274363 14.0093 0.429814ZM11.8699 5.07755L13.2544 2.99797V3.0009C13.3264 2.89288 13.3526 2.76066 13.3272 2.63332C13.3018 2.50598 13.2268 2.39396 13.1188 2.3219C13.0107 2.24985 12.8785 2.22365 12.7512 2.24908C12.6239 2.27451 12.5118 2.34949 12.4398 2.45751L11.0553 4.53416C11.0196 4.58763 10.9947 4.64764 10.9821 4.71074C10.9695 4.77384 10.9695 4.8388 10.982 4.90191C10.9946 4.96502 11.0195 5.02504 11.0552 5.07853C11.091 5.13202 11.1369 5.17793 11.1905 5.21365C11.2709 5.26683 11.3652 5.29541 11.4617 5.29589C11.5424 5.29601 11.622 5.27614 11.6932 5.23804C11.7645 5.19994 11.8252 5.14481 11.8699 5.07755ZM0.286664 16.4112L3.65537 13.0425C3.84003 12.8642 4.08735 12.7655 4.34406 12.7677C4.60078 12.77 4.84635 12.8729 5.02788 13.0545C5.20941 13.236 5.31238 13.4816 5.31461 13.7383C5.31684 13.995 5.21815 14.2423 5.0398 14.427L1.6711 17.7957C1.48565 17.9757 1.23735 18.0764 0.978881 18.0764C0.720414 18.0764 0.472116 17.9757 0.286664 17.7957C0.103113 17.6121 0 17.3631 0 17.1034C0 16.8438 0.103113 16.5948 0.286664 16.4112Z" />
</svg>
