<svg width="12" height="14" viewBox="0 0 12 14" xmlns="http://www.w3.org/2000/svg">
<path d="M1.38181 13.3319L11.5349 7.52981C11.6763 7.44865 11.7937 7.33165 11.8753 7.1906C11.957 7.04955 12 6.88945 12 6.72647C12 6.56349 11.957 6.4034 11.8753 6.26235C11.7937 6.1213 11.6763 6.00429 11.5349 5.92314L1.38181 0.121092C1.24135 0.0411136 1.08237 -0.000635435 0.920731 7.31082e-06C0.759095 0.000650057 0.600453 0.0436629 0.46063 0.124756C0.320808 0.205849 0.204694 0.322187 0.123869 0.462164C0.0430439 0.602142 0.000333034 0.760865 0 0.922501V12.5304C0.000333034 12.6921 0.0430439 12.8508 0.123869 12.9908C0.204694 13.1308 0.320808 13.2471 0.46063 13.3282C0.600453 13.4093 0.759095 13.4523 0.920731 13.4529C1.08237 13.4536 1.24135 13.4118 1.38181 13.3319Z" />
</svg>
