<svg viewBox="0 0 18 19" xmlns="http://www.w3.org/2000/svg">
<path fill-rule="evenodd" clip-rule="evenodd" d="M14.2826 2.34783H16.4348C16.8499 2.34783 17.248 2.51273 17.5416 2.80627C17.8351 3.0998 18 3.49792 18 3.91304V17.2174C18 17.6325 17.8351 18.0306 17.5416 18.3242C17.248 18.6177 16.8499 18.7826 16.4348 18.7826H1.56522C1.1501 18.7826 0.751977 18.6177 0.458442 18.3242C0.164906 18.0306 0 17.6325 0 17.2174V3.91304C0 3.49792 0.164906 3.0998 0.458442 2.80627C0.751977 2.51273 1.1501 2.34783 1.56522 2.34783H2.73913C2.84291 2.34783 2.94244 2.38905 3.01582 2.46244C3.08921 2.53582 3.13043 2.63535 3.13043 2.73913V4.5C3.13043 4.65567 3.19227 4.80497 3.30235 4.91504C3.41243 5.02512 3.56172 5.08696 3.71739 5.08696C3.87306 5.08696 4.02236 5.02512 4.13243 4.91504C4.24251 4.80497 4.30435 4.65567 4.30435 4.5V0.782609C4.30435 0.575048 4.3868 0.375988 4.53357 0.229221C4.68034 0.0824532 4.8794 0 5.08696 0C5.29452 0 5.49358 0.0824532 5.64034 0.229221C5.78711 0.375988 5.86957 0.575048 5.86957 0.782609V2.15296C5.86977 2.20471 5.89048 2.25428 5.92715 2.2908C5.96382 2.32732 6.01346 2.34783 6.06522 2.34783H10.9565C11.0603 2.34783 11.1598 2.38905 11.2332 2.46244C11.3066 2.53582 11.3478 2.63535 11.3478 2.73913V4.5C11.3478 4.65567 11.4097 4.80497 11.5197 4.91504C11.6298 5.02512 11.7791 5.08696 11.9348 5.08696C12.0905 5.08696 12.2397 5.02512 12.3498 4.91504C12.4599 4.80497 12.5217 4.65567 12.5217 4.5V0.782609C12.5217 0.575048 12.6042 0.375988 12.751 0.229221C12.8977 0.0824532 13.0968 0 13.3043 0C13.5119 0 13.711 0.0824532 13.8577 0.229221C14.0045 0.375988 14.087 0.575048 14.087 0.782609V2.15217C14.087 2.20406 14.1076 2.25383 14.1443 2.29052C14.181 2.32721 14.2307 2.34783 14.2826 2.34783ZM16.3202 17.1028C16.3936 17.0294 16.4348 16.9299 16.4348 16.8261V7.43478C16.4348 7.331 16.3936 7.23147 16.3202 7.15809C16.2468 7.0847 16.1473 7.04348 16.0435 7.04348H1.95652C1.85274 7.04348 1.75321 7.0847 1.67983 7.15809C1.60644 7.23147 1.56522 7.331 1.56522 7.43478V16.8261C1.56522 16.9299 1.60644 17.0294 1.67983 17.1028C1.75321 17.1762 1.85274 17.2174 1.95652 17.2174H16.0435C16.1473 17.2174 16.2468 17.1762 16.3202 17.1028ZM6.82603 8.87686C7.46953 8.44689 8.22608 8.21739 9 8.21739C10.0374 8.21863 11.032 8.6313 11.7656 9.36487C12.4991 10.0984 12.9118 11.093 12.913 12.1304C12.913 12.9044 12.6835 13.6609 12.2536 14.3044C11.8236 14.9479 11.2125 15.4494 10.4975 15.7456C9.78244 16.0418 8.99566 16.1193 8.2366 15.9683C7.47755 15.8173 6.78031 15.4446 6.23306 14.8974C5.68581 14.3501 5.31313 13.6529 5.16215 12.8938C5.01116 12.1348 5.08865 11.348 5.38482 10.633C5.68099 9.91796 6.18253 9.30683 6.82603 8.87686ZM9.78261 12.7174H10.5652C10.7209 12.7174 10.8702 12.6556 10.9803 12.5455C11.0903 12.4354 11.1522 12.2861 11.1522 12.1304C11.1522 11.9748 11.0903 11.8255 10.9803 11.7154C10.8702 11.6053 10.7209 11.5435 10.5652 11.5435H9.78261C9.73072 11.5435 9.68095 11.5229 9.64426 11.4862C9.60757 11.4495 9.58696 11.3997 9.58696 11.3478V10.5652C9.58696 10.4095 9.52512 10.2603 9.41504 10.1502C9.30497 10.0401 9.15567 9.97826 9 9.97826C8.84433 9.97826 8.69504 10.0401 8.58496 10.1502C8.47489 10.2603 8.41304 10.4095 8.41304 10.5652V11.3478C8.41304 11.3997 8.39243 11.4495 8.35574 11.4862C8.31905 11.5229 8.26928 11.5435 8.21739 11.5435H7.43478C7.27911 11.5435 7.12982 11.6053 7.01974 11.7154C6.90967 11.8255 6.84783 11.9748 6.84783 12.1304C6.84783 12.2861 6.90967 12.4354 7.01974 12.5455C7.12982 12.6556 7.27911 12.7174 7.43478 12.7174H8.21739C8.26928 12.7174 8.31905 12.738 8.35574 12.7747C8.39243 12.8114 8.41304 12.8612 8.41304 12.913V13.6957C8.41304 13.8513 8.47489 14.0006 8.58496 14.1107C8.69504 14.2208 8.84433 14.2826 9 14.2826C9.15567 14.2826 9.30497 14.2208 9.41504 14.1107C9.52512 14.0006 9.58696 13.8513 9.58696 13.6957V12.913C9.58696 12.8612 9.60757 12.8114 9.64426 12.7747C9.68095 12.738 9.73072 12.7174 9.78261 12.7174Z"  />
</svg>
