<svg width="24" height="24" viewBox="0 0 24 24" xmlns="http://www.w3.org/2000/svg">
<g clip-path="url(#clip0_508_9774)">
<path d="M17.5 11C16.2144 11 14.9577 11.3812 13.8888 12.0954C12.8199 12.8097 11.9868 13.8248 11.4948 15.0126C11.0028 16.2003 10.8741 17.5072 11.1249 18.7681C11.3757 20.029 11.9948 21.1872 12.9038 22.0962C13.8128 23.0052 14.971 23.6243 16.2319 23.8751C17.4928 24.1259 18.7997 23.9972 19.9874 23.5052C21.1752 23.0132 22.1903 22.1801 22.9046 21.1112C23.6188 20.0423 24 18.7856 24 17.5C23.9979 15.7767 23.3124 14.1247 22.0939 12.9061C20.8753 11.6876 19.2233 11.0021 17.5 11ZM16 21.249C15.8011 21.249 15.6103 21.17 15.4697 21.0293C15.329 20.8887 15.25 20.6979 15.25 20.499C15.25 20.3001 15.329 20.1093 15.4697 19.9687C15.6103 19.828 15.8011 19.749 16 19.749H18.033C18.1704 19.7489 18.3035 19.701 18.4094 19.6135C18.5154 19.526 18.5876 19.4045 18.6137 19.2696C18.6398 19.1347 18.6182 18.9949 18.5526 18.8742C18.487 18.7535 18.3814 18.6594 18.254 18.608L16.189 17.782C15.7714 17.6159 15.4186 17.3193 15.1834 16.9364C14.9481 16.5535 14.8429 16.1048 14.8835 15.6572C14.9241 15.2096 15.1083 14.7872 15.4086 14.4528C15.709 14.1185 16.1093 13.8902 16.55 13.802C16.6066 13.7906 16.6574 13.76 16.6939 13.7153C16.7304 13.6706 16.7502 13.6147 16.75 13.557V13.249C16.75 13.0501 16.829 12.8593 16.9697 12.7187C17.1103 12.578 17.3011 12.499 17.5 12.499C17.6989 12.499 17.8897 12.578 18.0303 12.7187C18.171 12.8593 18.25 13.0501 18.25 13.249V13.499C18.25 13.5653 18.2763 13.6289 18.3232 13.6758C18.3701 13.7227 18.4337 13.749 18.5 13.749H19C19.1989 13.749 19.3897 13.828 19.5303 13.9687C19.671 14.1093 19.75 14.3001 19.75 14.499C19.75 14.6979 19.671 14.8887 19.5303 15.0293C19.3897 15.17 19.1989 15.249 19 15.249H16.967C16.8296 15.2491 16.6965 15.297 16.5906 15.3845C16.4847 15.472 16.4124 15.5935 16.3863 15.7284C16.3602 15.8633 16.3818 16.0031 16.4474 16.1238C16.513 16.2445 16.6186 16.3386 16.746 16.39L18.811 17.216C19.2286 17.3821 19.5814 17.6787 19.8166 18.0616C20.0519 18.4445 20.1571 18.8932 20.1165 19.3408C20.0759 19.7884 19.8917 20.2108 19.5914 20.5452C19.291 20.8795 18.8907 21.1078 18.45 21.196C18.3934 21.2073 18.3426 21.238 18.3061 21.2827C18.2696 21.3274 18.2498 21.3833 18.25 21.441V21.749C18.25 21.9479 18.171 22.1387 18.0303 22.2793C17.8897 22.42 17.6989 22.499 17.5 22.499C17.3011 22.499 17.1103 22.42 16.9697 22.2793C16.829 22.1387 16.75 21.9479 16.75 21.749V21.5C16.75 21.4337 16.7237 21.3701 16.6768 21.3232C16.6299 21.2763 16.5663 21.25 16.5 21.25L16 21.249Z" />
<path d="M5.42194 19.5C5.60607 19.6853 5.82518 19.8322 6.06654 19.9321C6.30791 20.032 6.56671 20.083 6.82794 20.082H6.83994C7.10308 20.081 7.36337 20.0274 7.6055 19.9243C7.84764 19.8213 8.06674 19.6709 8.24994 19.482L9.46694 18.241C9.51346 18.1924 9.54953 18.1347 9.57292 18.0716C9.59631 18.0085 9.60653 17.9412 9.60294 17.874C9.5491 16.7754 9.72308 15.6774 10.114 14.6493C10.5048 13.6211 11.1042 12.6849 11.8743 11.8995C12.6444 11.1141 13.5686 10.4964 14.5889 10.0854C15.6092 9.67435 16.7034 9.47879 17.8029 9.511C17.87 9.51353 17.9369 9.50214 17.9994 9.47752C18.0619 9.45291 18.1186 9.41562 18.1659 9.368L19.1049 8.41C19.6925 7.7391 20.0379 6.89049 20.0859 6V2C20.0859 1.46957 19.8752 0.960859 19.5002 0.585786C19.1251 0.210714 18.6164 0 18.0859 0V0H13.8259C12.9279 0.0340926 12.0718 0.388871 11.4129 1L0.585939 11.834C0.210997 12.2091 0.000366211 12.7177 0.000366211 13.248C0.000366211 13.7783 0.210997 14.2869 0.585939 14.662L5.42194 19.5ZM12.5859 5.5C12.5859 5.10444 12.7032 4.71776 12.923 4.38886C13.1428 4.05996 13.4551 3.80362 13.8206 3.65224C14.186 3.50087 14.5882 3.46126 14.9761 3.53843C15.3641 3.6156 15.7204 3.80608 16.0002 4.08579C16.2799 4.36549 16.4703 4.72186 16.5475 5.10982C16.6247 5.49778 16.5851 5.89991 16.4337 6.26537C16.2823 6.63082 16.026 6.94318 15.6971 7.16294C15.3682 7.3827 14.9815 7.5 14.5859 7.5C14.0555 7.5 13.5468 7.28929 13.1717 6.91421C12.7967 6.53914 12.5859 6.03043 12.5859 5.5Z" />
</g>
<defs>
<clipPath id="clip0_508_9774">
<rect width="24" height="24" />
</clipPath>
</defs>
</svg>
