<svg viewBox="0 0 18 18" xmlns="http://www.w3.org/2000/svg">
<path fill-rule="evenodd" clip-rule="evenodd" d="M13.7204 9.97017C13.861 9.82951 14.0518 9.75049 14.2507 9.75049C14.4496 9.75049 14.6404 9.82951 14.7811 9.97017C14.9217 10.1108 15.0008 10.3016 15.0008 10.5005V12.7506C15 13.1483 14.842 13.5296 14.5612 13.8112L10.811 17.5614C10.6721 17.7012 10.5069 17.812 10.3248 17.8874C10.1428 17.9629 9.94755 18.0014 9.75049 18.0009H2.25011C1.65335 18.0009 1.08102 17.7638 0.659043 17.3419C0.237065 16.9199 0 16.3476 0 15.7508V2.25011C0 1.65335 0.237065 1.08102 0.659043 0.659043C1.08102 0.237065 1.65335 0 2.25011 0H7.50038C7.6993 0 7.89007 0.0790216 8.03073 0.219681C8.17139 0.36034 8.25041 0.551115 8.25041 0.750038C8.25041 0.94896 8.17139 1.13973 8.03073 1.28039C7.89007 1.42105 7.6993 1.50008 7.50038 1.50008H2.25011C2.05119 1.50008 1.86042 1.5791 1.71976 1.71976C1.5791 1.86042 1.50008 2.05119 1.50008 2.25011V15.7508C1.50008 15.9497 1.5791 16.1405 1.71976 16.2811C1.86042 16.4218 2.05119 16.5008 2.25011 16.5008H9.75049V14.2507C9.75049 13.8529 9.90853 13.4713 10.1899 13.19C10.4712 12.9087 10.8527 12.7506 11.2506 12.7506H13.5007V10.5005C13.5007 10.3016 13.5797 10.1108 13.7204 9.97017ZM6.37873 9.49076C6.42526 9.44318 6.48361 9.40883 6.5478 9.39125C6.6118 9.3736 6.67933 9.37326 6.74351 9.39026C6.80768 9.40726 6.8662 9.44099 6.91307 9.48801L8.4994 11.0841C8.54615 11.1311 8.5796 11.1897 8.59633 11.2539C8.61307 11.318 8.61249 11.3855 8.59465 11.4494C8.57679 11.513 8.54241 11.5709 8.49498 11.617C8.44757 11.6631 8.38879 11.6958 8.32464 11.7119L6.6693 12.1281L5.72126 13.0747C5.61511 13.1771 5.47299 13.2337 5.3255 13.2324C5.17801 13.231 5.03694 13.1718 4.9327 13.0675C4.82845 12.9631 4.76935 12.822 4.76814 12.6745C4.76693 12.527 4.8237 12.3849 4.92622 12.2789L5.86526 11.3398L6.28304 9.66201C6.29917 9.59745 6.3322 9.53834 6.37873 9.49076ZM17.7811 0.219784C17.6405 0.0791736 17.4497 0.000183115 17.2509 0.000183115C17.052 0.000183115 16.8612 0.0791736 16.7206 0.219784L16.0456 0.894818C15.8531 0.843625 15.6524 0.831055 15.455 0.857831C15.2577 0.884607 15.0676 0.950201 14.8957 1.05083L14.8567 1.01257C14.4344 0.592943 13.863 0.357797 13.2676 0.35864C12.6722 0.359484 12.1015 0.596248 11.6803 1.01707L8.9712 3.72096C8.83059 3.86161 8.7516 4.05235 8.7516 4.25124C8.7516 4.45012 8.83059 4.64086 8.9712 4.78151C9.11302 4.92018 9.3035 4.99783 9.50185 4.99783C9.7002 4.99783 9.89068 4.92018 10.0325 4.78151L12.7506 2.07088C12.8918 1.93256 13.0818 1.85553 13.2794 1.85651C13.477 1.85749 13.6662 1.93641 13.8059 2.07613L13.2757 2.6064C13.2054 2.67673 13.1659 2.7721 13.1659 2.87154C13.1659 2.97098 13.2054 3.06635 13.2757 3.13668L14.8642 4.72526C14.9346 4.79557 15.0299 4.83506 15.1294 4.83506C15.2288 4.83506 15.3242 4.79557 15.3945 4.72526L16.7206 3.39919C16.9065 3.21308 17.0401 2.98137 17.1082 2.7273C17.1763 2.47323 17.1763 2.20572 17.1084 1.95162L17.7834 1.27659C17.9226 1.13579 18.0004 0.945688 18 0.747722C17.9996 0.549756 17.9209 0.359984 17.7811 0.219784ZM9.56525 10.5553C9.49509 10.6257 9.39987 10.6653 9.30049 10.6656C9.20137 10.6651 9.10645 10.6255 9.03648 10.5553L7.44565 8.96447C7.37534 8.89414 7.33585 8.79877 7.33585 8.69933C7.33585 8.59989 7.37534 8.50452 7.44565 8.43419L12.2129 3.66696C12.2845 3.59912 12.3794 3.56131 12.478 3.56131C12.5767 3.56131 12.6716 3.59912 12.7432 3.66696L14.3325 5.25854C14.4028 5.32886 14.4423 5.42423 14.4423 5.52367C14.4423 5.62312 14.4028 5.71849 14.3325 5.78881L9.56525 10.5553Z"  />
</svg>
