<svg viewBox="0 0 18 18" xmlns="http://www.w3.org/2000/svg">
<path fill-rule="evenodd" clip-rule="evenodd" d="M7.71975 12.896C7.8604 13.0366 8.05113 13.1156 8.25 13.1156C8.44887 13.1156 8.6396 13.0366 8.78025 12.896C9.77176 11.9735 10.3847 10.7152 10.5 9.36578C10.4309 8.29413 10.1583 7.24544 9.69675 6.27578C9.31235 5.48016 9.07624 4.62111 9 3.74078C9.10364 2.78663 9.56029 1.9057 10.2802 1.27103C10.4169 1.12958 10.4925 0.940131 10.4908 0.743483C10.489 0.546835 10.4102 0.358726 10.2711 0.21967C10.1321 0.0806139 9.94395 0.00173717 9.7473 2.8352e-05C9.55065 -0.00168046 9.3612 0.0739153 9.21975 0.210534C8.22818 1.13303 7.61519 2.39136 7.5 3.74078C7.56915 4.81292 7.84175 5.86209 8.30325 6.83228C8.68772 7.62735 8.92384 8.48592 9 9.36578C8.89654 10.3202 8.43988 11.2014 7.71975 11.8363C7.57938 11.9769 7.50054 12.1675 7.50054 12.3662C7.50054 12.5648 7.57938 12.7554 7.71975 12.896ZM4.44607 9.78206C4.61775 9.49006 4.71534 9.16047 4.73032 8.82206C4.66699 8.13215 4.48028 7.45922 4.17907 6.83531C3.79838 6.0353 3.57483 5.16963 3.52057 4.28531C3.61421 3.15866 4.12378 2.10717 4.95007 1.33556C5.0197 1.26588 5.10238 1.2106 5.19338 1.17287C5.28438 1.13513 5.38192 1.1157 5.48043 1.11566C5.57894 1.11563 5.67649 1.135 5.76752 1.17266C5.85855 1.21033 5.94126 1.26556 6.01094 1.33519C6.08063 1.40482 6.13591 1.4875 6.17364 1.5785C6.21137 1.6695 6.23081 1.76704 6.23085 1.86555C6.23088 1.96406 6.21151 2.06161 6.17385 2.15264C6.13618 2.24367 6.08095 2.32638 6.01132 2.39606C5.46684 2.88665 5.11548 3.55559 5.02057 4.28231C5.0833 4.97329 5.27003 5.64731 5.57182 6.27206C5.9526 7.07205 6.17615 7.93774 6.23032 8.82206C6.21803 9.41122 6.05732 9.98775 5.76307 10.4983C5.71798 10.5882 5.65526 10.6682 5.57864 10.7334C5.50203 10.7985 5.41308 10.8477 5.3171 10.8778C5.22112 10.9079 5.12006 10.9184 5.01994 10.9086C4.91982 10.8989 4.82268 10.8691 4.73431 10.821C4.64594 10.7729 4.56814 10.7076 4.50554 10.6289C4.44294 10.5501 4.39682 10.4596 4.36993 10.3626C4.34304 10.2657 4.33592 10.1644 4.349 10.0646C4.36208 9.96488 4.39509 9.86878 4.44607 9.78206ZM12.6961 9.78279C12.8677 9.49052 12.965 9.16064 12.9796 8.82204C12.9167 8.13213 12.7302 7.45916 12.4291 6.83529C12.0483 6.03531 11.8247 5.16962 11.7706 4.28529C11.8635 3.15865 12.3732 2.10714 13.2001 1.33629C13.3422 1.20305 13.5305 1.13031 13.7253 1.13348C13.92 1.13664 14.1059 1.21545 14.2436 1.35323C14.3813 1.49102 14.46 1.67697 14.463 1.87173C14.466 2.06649 14.3932 2.2548 14.2598 2.39679C13.7151 2.88807 13.364 3.55786 13.2698 4.28529C13.3329 4.97645 13.5196 5.65066 13.8211 6.27579C14.2015 7.07458 14.425 7.93897 14.4796 8.82204C14.4673 9.41143 14.3066 9.98821 14.0123 10.499C13.9479 10.6177 13.8527 10.7168 13.7366 10.7858C13.6206 10.8549 13.4881 10.8913 13.3531 10.8913C13.2283 10.8914 13.1054 10.8599 12.9961 10.7998C12.8215 10.7047 12.6918 10.5441 12.6355 10.3534C12.5793 10.1627 12.6011 9.95745 12.6961 9.78279ZM16.3874 9.77032C16.4804 9.80709 16.5651 9.86208 16.6365 9.93205C17.0469 10.2794 17.3803 10.7086 17.6151 11.1923C17.8499 11.676 17.981 12.2035 18 12.7408C18 15.6846 14.046 17.9908 9 17.9908C3.954 17.9908 0 15.6846 0 12.7408C0.019323 12.2036 0.1505 11.6763 0.385149 11.1927C0.619797 10.7091 0.952757 10.2797 1.36275 9.93205C1.4347 9.86473 1.5192 9.81225 1.61143 9.77758C1.70367 9.74292 1.80182 9.72677 1.9003 9.73004C1.99878 9.73331 2.09564 9.75595 2.18537 9.79666C2.2751 9.83737 2.35593 9.89536 2.42325 9.9673C2.49057 10.0393 2.54306 10.1238 2.57772 10.216C2.61238 10.3082 2.62854 10.4064 2.62526 10.5049C2.62199 10.6033 2.59935 10.7002 2.55864 10.7899C2.51793 10.8797 2.45995 10.9605 2.388 11.0278C2.1289 11.2358 1.91607 11.4956 1.76316 11.7906C1.61025 12.0855 1.52062 12.4092 1.5 12.7408C1.5 14.7733 4.93425 16.4908 9 16.4908C13.0658 16.4908 16.5 14.7733 16.5 12.7408C16.4793 12.4093 16.3898 12.0857 16.237 11.7908C16.0842 11.4958 15.8716 11.236 15.6127 11.0278C15.5381 10.9613 15.4775 10.8805 15.4345 10.7903C15.3915 10.7 15.367 10.602 15.3624 10.5021C15.3578 10.4022 15.3733 10.3025 15.4078 10.2086C15.4424 10.1148 15.4953 10.0288 15.5636 9.95575C15.6318 9.88269 15.714 9.82402 15.8053 9.78318C15.8966 9.74234 15.9951 9.72016 16.0951 9.71796C16.195 9.71575 16.2944 9.73355 16.3874 9.77032Z"  />
</svg>
