<svg xmlns="http://www.w3.org/2000/svg" width="17" height="20" viewBox="0 0 17 20">
    <g fill="none" fill-rule="evenodd">
        <g>
            <g>
                <path d="M0 0H20V20H0z" transform="translate(-514 -531) translate(511.5 531)"/>
                <path fill="#7D8D9A" fill-rule="nonzero" d="M14.31 10.036c2.75.003 4.979 2.232 4.982 4.982 0 2.751-2.23 4.982-4.982 4.982-2.751 0-4.982-2.23-4.982-4.982 0-2.752 2.23-4.982 4.982-4.982zm2.12 3.071c-.203-.024-.405.062-.528.226l-2.094 2.793c-.033.044-.084.072-.14.076-.055.004-.11-.016-.149-.056l-.996-.996c-.226-.218-.584-.215-.806.006-.222.222-.225.58-.008.806l1.15 1.15c.215.216.506.337.81.339h.084c.335-.022.643-.19.843-.46l2.223-2.97c.126-.162.152-.38.072-.569-.081-.188-.256-.32-.46-.345zM6.07 2.06c.076 0 .14.049.163.117l.01.054v1.029c0 .075-.05.14-.118.162l-.054.01H4.528c-.166 0-.304.117-.336.273l-.007.069v10.972c0 .166.117.304.273.336l.07.007 3.98-.001.003.154c.015.419.076.827.176 1.219H4.185c-.713 0-1.3-.544-1.366-1.24l-.006-.132V3.43c0-.713.544-1.299 1.24-1.365l.132-.006H6.07zm2.744 8.915c.284 0 .514.23.514.514 0 .253-.182.463-.422.506l-.092.008H6.242c-.284 0-.514-.23-.514-.514 0-.252.182-.462.422-.506l.092-.008h2.572zm3.6-2.401c.284 0 .514.23.514.514 0 .122-.042.235-.114.323-.203.053-.4.117-.593.192H6.242c-.284 0-.514-.23-.514-.515 0-.252.182-.462.422-.506l.092-.008h6.172zm2.057-6.514c.713 0 1.3.543 1.366 1.239l.006.132V9.42c-.439-.12-.898-.19-1.371-.203V3.773c0-.166-.118-.304-.274-.336l-.07-.007h-1.542c-.076 0-.14-.05-.163-.117l-.009-.054v-1.03c0-.075.05-.14.117-.162l.055-.008h1.885zm-2.057 4.114c.284 0 .514.23.514.515 0 .252-.181.462-.421.506l-.093.008H6.242c-.284 0-.514-.23-.514-.514 0-.253.182-.463.422-.507l.092-.008h6.172zM10.571.42c.465.354.757.887.807 1.464l.007.175v1.714c0 .344-.253.63-.584.678l-.101.008H7.957c-.345 0-.63-.254-.679-.585l-.007-.101V2.118c-.018-.942.598-1.78 1.503-2.043.62-.172 1.285-.044 1.797.345zm-1.243.953c-.284 0-.514.23-.514.514 0 .136.054.267.15.364.097.096.228.15.364.15.284 0 .514-.23.514-.514 0-.284-.23-.514-.514-.514z" transform="translate(-514 -531) translate(511.5 531)"/>
            </g>
        </g>
    </g>
</svg>
