<svg viewBox="0 0 18 18" xmlns="http://www.w3.org/2000/svg">
<path fill-rule="evenodd" clip-rule="evenodd" d="M4.1249 8.24834H13.8729C14.2707 8.24834 14.6521 8.09034 14.9334 7.80909C15.2146 7.52784 15.3726 7.14639 15.3726 6.74864V1.4997C15.3726 1.10195 15.2146 0.7205 14.9334 0.439252C14.6521 0.158004 14.2707 0 13.8729 0H4.1249C3.72716 0 3.3457 0.158004 3.06446 0.439252C2.78321 0.7205 2.6252 1.10195 2.6252 1.4997V6.74864C2.6252 7.14639 2.78321 7.52784 3.06446 7.80909C3.3457 8.09034 3.72716 8.24834 4.1249 8.24834ZM11.9983 2.9994C12.2208 2.9994 12.4382 3.06536 12.6232 3.18896C12.8082 3.31255 12.9523 3.48821 13.0375 3.69374C13.1226 3.89926 13.1449 4.12542 13.1015 4.3436C13.0581 4.56179 12.951 4.7622 12.7937 4.91951C12.6364 5.07681 12.4359 5.18393 12.2178 5.22733C11.9996 5.27073 11.7734 5.24846 11.5679 5.16333C11.3624 5.0782 11.1867 4.93403 11.0631 4.74906C10.9395 4.56409 10.8735 4.34663 10.8735 4.12417C10.8735 3.82586 10.992 3.53977 11.203 3.32884C11.4139 3.1179 11.7 2.9994 11.9983 2.9994ZM5.99953 2.9994C6.22199 2.9994 6.43945 3.06536 6.62442 3.18896C6.80939 3.31255 6.95355 3.48821 7.03868 3.69374C7.12381 3.89926 7.14609 4.12542 7.10269 4.3436C7.05929 4.56179 6.95216 4.7622 6.79486 4.91951C6.63756 5.07681 6.43714 5.18393 6.21896 5.22733C6.00077 5.27073 5.77462 5.24846 5.56909 5.16333C5.36357 5.0782 5.1879 4.93403 5.06431 4.74906C4.94072 4.56409 4.87475 4.34663 4.87475 4.12417C4.87475 3.82586 4.99326 3.53977 5.20419 3.32884C5.41513 3.1179 5.70122 2.9994 5.99953 2.9994ZM7.87415 9.37312C7.67528 9.37312 7.48455 9.45212 7.34393 9.59274C7.2033 9.73337 7.1243 9.92409 7.1243 10.123C7.1243 10.3218 7.2033 10.5126 7.34393 10.6532C7.48455 10.7938 7.67528 10.8728 7.87415 10.8728H10.1237C10.3226 10.8728 10.5133 10.7938 10.6539 10.6532C10.7945 10.5126 10.8735 10.3218 10.8735 10.123C10.8735 9.92409 10.7945 9.73337 10.6539 9.59274C10.5133 9.45212 10.3226 9.37312 10.1237 9.37312H7.87415ZM16.9785 7.10635C17.1753 7.13447 17.353 7.23965 17.4723 7.39875C17.8629 7.91768 18.0473 8.56302 17.9896 9.20999C17.932 9.85696 17.6366 10.4596 17.1604 10.9013C17.0879 10.9687 17.0296 11.0498 16.9887 11.1399C16.9477 11.23 16.925 11.3273 16.9219 11.4262C16.9054 11.9799 16.7675 12.5232 16.5178 13.0177C16.2681 13.5121 15.9127 13.9457 15.4769 14.2876L14.9903 14.6625C14.8952 14.7367 14.8194 14.8326 14.7692 14.9422C14.7191 15.0519 14.6962 15.172 14.7023 15.2924C14.7172 15.5981 14.692 15.9044 14.6274 16.2035C14.6206 16.232 14.6131 16.2605 14.6034 16.289L14.2772 17.2375C14.201 17.459 14.0576 17.6511 13.867 17.7871C13.6764 17.9232 13.4481 17.9963 13.2139 17.9964H4.78409C4.5497 17.9964 4.32115 17.9232 4.13038 17.787C3.93961 17.6509 3.79615 17.4585 3.72005 17.2368L3.39387 16.2882C3.38412 16.2597 3.37662 16.2312 3.36987 16.2027C3.30522 15.9036 3.28001 15.5973 3.29489 15.2917C3.30107 15.1713 3.27812 15.0511 3.22799 14.9415C3.17787 14.8318 3.10204 14.7359 3.00695 14.6618L2.5203 14.2869C2.08449 13.9449 1.72917 13.5114 1.47947 13.0169C1.22978 12.5224 1.09181 11.9791 1.07534 11.4254C1.07219 11.3265 1.0495 11.2292 1.00857 11.1392C0.967645 11.0491 0.909295 10.968 0.836884 10.9005C0.362221 10.459 0.0677914 9.85735 0.0103333 9.2116C-0.0471249 8.56585 0.136455 7.92169 0.525696 7.40325C0.584779 7.32447 0.6588 7.2581 0.743532 7.20793C0.828264 7.15776 0.922049 7.12477 1.01953 7.11085C1.11701 7.09692 1.21628 7.10233 1.31167 7.12677C1.40706 7.15121 1.49671 7.1942 1.57548 7.25328C1.65426 7.31236 1.72063 7.38638 1.7708 7.47112C1.82097 7.55585 1.85396 7.64963 1.86789 7.74711C1.88181 7.8446 1.8764 7.94387 1.85196 8.03926C1.82753 8.13465 1.78454 8.22429 1.72545 8.30307C1.54647 8.54172 1.46962 8.84169 1.5118 9.137C1.55399 9.43231 1.71176 9.69877 1.95041 9.87775C2.18906 10.0567 2.48903 10.1336 2.78434 10.0914C2.93056 10.0705 3.07124 10.021 3.19834 9.94577C3.32544 9.87052 3.43647 9.77096 3.52509 9.6528C3.58418 9.57402 3.6582 9.50765 3.74293 9.45748C3.82766 9.40731 3.92145 9.37432 4.01893 9.36039C4.11641 9.34647 4.21568 9.35188 4.31107 9.37632C4.40646 9.40076 4.49611 9.44375 4.57488 9.50283C4.65366 9.56191 4.72003 9.63593 4.7702 9.72066C4.82037 9.8054 4.85336 9.89918 4.86729 9.99666C4.88121 10.0941 4.8758 10.1934 4.85136 10.2888C4.82692 10.3842 4.78394 10.4738 4.72485 10.5526C4.50052 10.8565 4.21233 11.1076 3.88056 11.2882C3.54879 11.4688 3.18149 11.5745 2.80449 11.5979C2.77748 11.5999 2.75124 11.6078 2.72753 11.6208C2.70383 11.6339 2.68323 11.652 2.66714 11.6738C2.65106 11.6956 2.63986 11.7206 2.63432 11.7471C2.62877 11.7736 2.62901 11.801 2.63502 11.8274C2.75166 12.3326 3.03804 12.7825 3.44636 13.1021L3.73655 13.3271C3.78546 13.3652 3.84739 13.3825 3.90898 13.3754C3.97056 13.3682 4.02686 13.3371 4.06573 13.2888C4.39032 12.8852 4.80139 12.5597 5.26861 12.3362C5.73583 12.1127 6.24727 11.997 6.76519 11.9976H11.2328C11.7505 11.996 12.2619 12.1107 12.7294 12.3332C13.1968 12.5556 13.6084 12.8801 13.9338 13.2828C13.9726 13.3311 14.0289 13.3622 14.0905 13.3694C14.1521 13.3765 14.214 13.3592 14.2629 13.3211L14.5531 13.0961C14.9622 12.7756 15.2486 12.3242 15.3645 11.8176C15.3705 11.7912 15.3707 11.7638 15.3652 11.7373C15.3596 11.7108 15.3484 11.6858 15.3323 11.664C15.3163 11.6422 15.2957 11.6242 15.272 11.6111C15.2483 11.598 15.222 11.5902 15.195 11.5882C14.8182 11.5655 14.4509 11.4607 14.1189 11.281C13.7869 11.1014 13.4982 10.8512 13.2731 10.5481C13.1538 10.389 13.1026 10.189 13.1307 9.99216C13.1588 9.79529 13.264 9.61765 13.4231 9.49833C13.5822 9.37901 13.7822 9.32777 13.9791 9.3559C14.1759 9.38402 14.3536 9.4892 14.4729 9.6483C14.6519 9.88695 14.9183 10.0447 15.2136 10.0869C15.509 10.1291 15.8089 10.0522 16.0476 9.87325C16.2862 9.69427 16.444 9.42781 16.4862 9.1325C16.5284 8.83719 16.4515 8.53722 16.2725 8.29857C16.1532 8.13947 16.102 7.93949 16.1301 7.74262C16.1582 7.54574 16.2634 7.3681 16.4225 7.24878C16.5816 7.12946 16.7816 7.07822 16.9785 7.10635Z" />
</svg>
