<svg viewBox="0 0 29 29" xmlns="http://www.w3.org/2000/svg">
<path d="M28 14.0001C28 13.8086 27.9623 13.619 27.889 13.4421C27.8157 13.2651 27.7083 13.1044 27.5729 12.9689C27.4374 12.8335 27.2767 12.7261 27.0997 12.6528C26.9228 12.5795 26.7332 12.5418 26.5417 12.5418H24.6808C24.3584 10.2102 23.2829 8.0479 21.618 6.38407C19.9531 4.72023 17.7901 3.64607 15.4583 3.32514V1.45614C15.4583 1.06936 15.3047 0.698429 15.0312 0.424939C14.7577 0.151448 14.3868 -0.00219727 14 -0.00219727C13.6132 -0.00219727 13.2423 0.151448 12.9688 0.424939C12.6953 0.698429 12.5417 1.06936 12.5417 1.45614V3.3228C10.2109 3.64491 8.04926 4.71959 6.38552 6.38333C4.72179 8.04706 3.64711 10.2087 3.325 12.5395H1.45833C1.07156 12.5395 0.700626 12.6931 0.427136 12.9666C0.153645 13.2401 0 13.611 0 13.9978C0 14.3846 0.153645 14.7555 0.427136 15.029C0.700626 15.3025 1.07156 15.4561 1.45833 15.4561H3.325C3.64711 17.7869 4.72179 19.9485 6.38552 21.6123C8.04926 23.276 10.2109 24.3507 12.5417 24.6728V26.5395C12.5417 26.9262 12.6953 27.2972 12.9688 27.5707C13.2423 27.8442 13.6132 27.9978 14 27.9978C14.3868 27.9978 14.7577 27.8442 15.0312 27.5707C15.3047 27.2972 15.4583 26.9262 15.4583 26.5395V24.6728C17.7901 24.3519 19.9531 23.2777 21.618 21.6139C23.2829 19.95 24.3584 17.7877 24.6808 15.4561H26.5417C26.928 15.4561 27.2986 15.3028 27.572 15.0298C27.8455 14.7568 27.9994 14.3865 28 14.0001ZM15.8177 21.6546C15.7748 21.6649 15.7302 21.6652 15.6872 21.6558C15.6442 21.6463 15.6039 21.6272 15.5693 21.5999C15.5348 21.5726 15.5068 21.5379 15.4876 21.4983C15.4684 21.4586 15.4584 21.4152 15.4583 21.3711V20.1228C15.4583 19.736 15.3047 19.3651 15.0312 19.0916C14.7577 18.8181 14.3868 18.6645 14 18.6645C13.6132 18.6645 13.2423 18.8181 12.9688 19.0916C12.6953 19.3651 12.5417 19.736 12.5417 20.1228V21.3711C12.5416 21.4152 12.5316 21.4586 12.5124 21.4983C12.4932 21.5379 12.4652 21.5726 12.4307 21.5999C12.3961 21.6272 12.3558 21.6463 12.3128 21.6558C12.2698 21.6652 12.2252 21.6649 12.1823 21.6546C10.7645 21.3158 9.46823 20.5908 8.43733 19.5601C7.40642 18.5294 6.68116 17.2332 6.342 15.8155C6.33176 15.7725 6.3314 15.7278 6.34094 15.6847C6.35048 15.6416 6.36968 15.6013 6.39709 15.5667C6.4245 15.5321 6.4594 15.5042 6.49917 15.485C6.53893 15.4659 6.58253 15.456 6.62667 15.4561H7.875C8.26177 15.4561 8.63271 15.3025 8.9062 15.029C9.17969 14.7555 9.33333 14.3846 9.33333 13.9978C9.33333 13.611 9.17969 13.2401 8.9062 12.9666C8.63271 12.6931 8.26177 12.5395 7.875 12.5395H6.62667C6.5819 12.54 6.53761 12.5303 6.49718 12.5111C6.45674 12.4918 6.42122 12.4637 6.39333 12.4286C6.36631 12.3939 6.34737 12.3536 6.33788 12.3106C6.3284 12.2676 6.32861 12.223 6.3385 12.1801C6.67784 10.7623 7.40313 9.46616 8.43399 8.4353C9.46485 7.40444 10.761 6.67914 12.1788 6.3398C12.2218 6.32982 12.2665 6.32967 12.3095 6.33937C12.3525 6.34906 12.3928 6.36836 12.4273 6.3958C12.4637 6.42284 12.4932 6.45805 12.5135 6.49857C12.5337 6.5391 12.5442 6.58382 12.544 6.62914V7.87747C12.544 8.26424 12.6976 8.63518 12.9711 8.90867C13.2446 9.18216 13.6156 9.3358 14.0023 9.3358C14.3891 9.3358 14.76 9.18216 15.0335 8.90867C15.307 8.63518 15.4607 8.26424 15.4607 7.87747V6.62447C15.4607 6.5804 15.4708 6.53692 15.49 6.49727C15.5092 6.45762 15.5371 6.42281 15.5717 6.39545C15.6062 6.36809 15.6465 6.34887 15.6895 6.33924C15.7325 6.3296 15.7771 6.3298 15.82 6.3398C17.2378 6.67914 18.534 7.40444 19.5648 8.4353C20.5957 9.46616 21.321 10.7623 21.6603 12.1801C21.6702 12.223 21.6704 12.2676 21.6609 12.3106C21.6515 12.3536 21.6325 12.3939 21.6055 12.4286C21.5776 12.4637 21.5421 12.4918 21.5017 12.5111C21.4612 12.5303 21.4169 12.54 21.3722 12.5395H20.125C19.7382 12.5395 19.3673 12.6931 19.0938 12.9666C18.8203 13.2401 18.6667 13.611 18.6667 13.9978C18.6667 14.3846 18.8203 14.7555 19.0938 15.029C19.3673 15.3025 19.7382 15.4561 20.125 15.4561H21.3733C21.4175 15.456 21.4611 15.4659 21.5008 15.485C21.5406 15.5042 21.5755 15.5321 21.6029 15.5667C21.6303 15.6013 21.6495 15.6416 21.6591 15.6847C21.6686 15.7278 21.6682 15.7725 21.658 15.8155C21.3188 17.2332 20.5936 18.5294 19.5627 19.5601C18.5318 20.5908 17.2355 21.3158 15.8177 21.6546Z" />
</svg>
