<svg viewBox="0 0 18 19" xmlns="http://www.w3.org/2000/svg">
<path fill-rule="evenodd" clip-rule="evenodd" d="M5.49483 1.89477C5.64559 1.89477 5.79017 1.83488 5.89677 1.72828C6.00338 1.62168 6.06326 1.4771 6.06326 1.32634V0.568431C6.06326 0.417674 6.00338 0.273091 5.89677 0.16649C5.79017 0.0598881 5.64559 0 5.49483 0C5.34408 0 5.19949 0.0598881 5.09289 0.16649C4.98629 0.273091 4.9264 0.417674 4.9264 0.568431V1.32634C4.9264 1.4771 4.98629 1.62168 5.09289 1.72828C5.19949 1.83488 5.34408 1.89477 5.49483 1.89477ZM3.55426 7.53051C3.48641 7.49587 3.42621 7.44796 3.37724 7.3896C3.06989 7.04627 2.85063 6.63337 2.73835 6.18647C2.62606 5.73956 2.62413 5.27206 2.7327 4.82424C2.84127 4.37642 3.0571 3.96171 3.36159 3.61585C3.66608 3.26999 4.05009 3.00335 4.48054 2.8389C4.911 2.67446 5.37498 2.61714 5.83251 2.67188C6.29004 2.72663 6.7274 2.8918 7.1069 3.15316C7.4864 3.41453 7.79666 3.76424 8.01095 4.17218C8.22525 4.58011 8.33714 5.03403 8.33699 5.49483C8.33699 5.64558 8.2771 5.79017 8.1705 5.89677C8.0639 6.00337 7.91931 6.06326 7.76856 6.06326C7.6178 6.06326 7.47322 6.00337 7.36662 5.89677C7.26001 5.79017 7.20013 5.64558 7.20013 5.49483C7.20013 5.2184 7.13294 4.94612 7.00434 4.70143C6.87574 4.45674 6.68958 4.24698 6.4619 4.09022C6.23422 3.93346 5.97185 3.83439 5.69738 3.80156C5.42291 3.76873 5.14457 3.80311 4.88634 3.90175C4.62811 4.00039 4.39773 4.16032 4.21504 4.36777C4.03235 4.57522 3.90284 4.82398 3.83764 5.09261C3.77245 5.36124 3.77354 5.64169 3.84081 5.9098C3.90809 6.17792 4.03953 6.42566 4.22382 6.63169C4.27643 6.68679 4.31742 6.7519 4.34437 6.82316C4.37131 6.89442 4.38366 6.97036 4.38068 7.04648C4.37769 7.12261 4.35944 7.19735 4.32699 7.26628C4.29455 7.33521 4.24859 7.39691 4.19183 7.44773C4.13507 7.49854 4.06868 7.53743 3.99659 7.56207C3.92451 7.58672 3.84821 7.59663 3.77222 7.59121C3.69623 7.58578 3.62211 7.56514 3.55426 7.53051ZM10.3076 8.52647V7.3896C10.3076 7.2891 10.3475 7.19271 10.4186 7.12164C10.4897 7.05057 10.5861 7.01065 10.6866 7.01065H13.8721C14.0072 7.01064 14.1398 7.04676 14.2563 7.11525C14.3728 7.18375 14.4688 7.28213 14.5345 7.40021L15.2166 8.62424C15.2326 8.6531 15.2407 8.68562 15.2402 8.7186C15.2398 8.75157 15.2307 8.78386 15.214 8.81226C15.1972 8.84066 15.1733 8.86419 15.1447 8.88053C15.116 8.89687 15.0836 8.90545 15.0506 8.90542H10.6866C10.5861 8.90542 10.4897 8.86549 10.4186 8.79443C10.3475 8.72336 10.3076 8.62697 10.3076 8.52647ZM9.17071 9.66333H4.28675C4.21919 9.66332 4.15286 9.68138 4.09463 9.71563C4.0364 9.74988 3.98838 9.79907 3.95555 9.85811L3.16429 11.2769C3.14833 11.3058 3.14017 11.3383 3.14064 11.3713C3.1411 11.4043 3.15016 11.4365 3.16693 11.4649C3.18369 11.4933 3.20758 11.5169 3.23623 11.5332C3.26487 11.5496 3.29729 11.5581 3.33027 11.5581H9.16616C9.26667 11.5581 9.36306 11.5182 9.43412 11.4471C9.50519 11.376 9.54512 11.2796 9.54512 11.1791V10.0423C9.54513 9.94256 9.50582 9.84685 9.43574 9.77592C9.36565 9.70498 9.27043 9.66452 9.17071 9.66333ZM10.3076 11.1791V10.0423C10.3076 9.94178 10.3475 9.84539 10.4186 9.77432C10.4897 9.70325 10.5861 9.66333 10.6866 9.66333H15.5683C15.6359 9.66319 15.7024 9.68118 15.7608 9.71544C15.8192 9.74969 15.8673 9.79896 15.9002 9.85811L16.6877 11.2769C16.7036 11.3057 16.7118 11.3382 16.7113 11.3711C16.7109 11.404 16.7019 11.4362 16.6852 11.4646C16.6686 11.493 16.6448 11.5165 16.6162 11.5329C16.5877 11.5493 16.5554 11.558 16.5225 11.5581H10.6866C10.5861 11.5581 10.4897 11.5182 10.4186 11.4471C10.3475 11.376 10.3076 11.2796 10.3076 11.1791ZM8.79181 15.3476H11.0655C11.2748 15.3476 11.4445 15.5173 11.4445 15.7266V17.8108C11.4445 18.0201 11.2748 18.1898 11.0655 18.1898H8.79181C8.58252 18.1898 8.41285 18.0201 8.41285 17.8108V15.7266C8.41285 15.5173 8.58252 15.3476 8.79181 15.3476ZM9.54972 7.3896C9.54972 7.2891 9.50979 7.19271 9.43872 7.12164C9.36766 7.05057 9.27127 7.01065 9.17076 7.01065H5.983C5.84781 7.01072 5.7151 7.04695 5.59863 7.11558C5.48215 7.18421 5.38616 7.28275 5.32059 7.40097L4.63847 8.62424C4.62254 8.65304 4.61439 8.6855 4.61482 8.71841C4.61525 8.75132 4.62424 8.78356 4.64092 8.81193C4.65759 8.84031 4.68137 8.86386 4.70992 8.88025C4.73846 8.89664 4.77078 8.90532 4.8037 8.90542H9.16773C9.26824 8.90542 9.36462 8.86549 9.43569 8.79443C9.50676 8.72336 9.54669 8.62697 9.54669 8.52647L9.54972 7.3896ZM17.3744 12.5108L17.9049 13.4642C17.9689 13.5796 18.0016 13.7096 17.9999 13.8415C17.9982 13.9734 17.9622 14.1026 17.8953 14.2162C17.8284 14.3299 17.733 14.4242 17.6185 14.4897C17.504 14.5552 17.3744 14.5897 17.2425 14.5897H10.6866C10.5861 14.5897 10.4897 14.5498 10.4186 14.4787C10.3475 14.4077 10.3076 14.3113 10.3076 14.2108V12.695C10.3076 12.5945 10.3475 12.4981 10.4186 12.427C10.4897 12.3559 10.5861 12.316 10.6866 12.316H17.0431C17.1107 12.316 17.177 12.3341 17.2353 12.3683C17.2935 12.4026 17.3415 12.4517 17.3744 12.5108ZM9.54962 14.2108V12.695C9.54962 12.5945 9.5097 12.4981 9.43863 12.427C9.36756 12.3559 9.27117 12.316 9.17067 12.316H2.81258C2.74502 12.316 2.67869 12.3341 2.62046 12.3683C2.56222 12.4026 2.5142 12.4517 2.48137 12.5108L1.95083 13.4642C1.88683 13.5796 1.85407 13.7098 1.85579 13.8417C1.85751 13.9737 1.89366 14.1029 1.96065 14.2166C2.02764 14.3303 2.12316 14.4245 2.23775 14.49C2.35234 14.5554 2.48204 14.5898 2.614 14.5897H9.16991C9.21974 14.5898 9.2691 14.5801 9.31516 14.5611C9.36123 14.5421 9.40309 14.5142 9.43836 14.479C9.47363 14.4438 9.50161 14.402 9.5207 14.356C9.53979 14.3099 9.54962 14.2606 9.54962 14.2108ZM9.38449 2.41317L8.84865 2.94901C8.74149 3.05261 8.59793 3.10997 8.44889 3.10875C8.29985 3.10752 8.15725 3.04781 8.05181 2.94247C7.94637 2.83713 7.88652 2.69458 7.88515 2.54554C7.88379 2.3965 7.94102 2.25289 8.04451 2.14563L8.58035 1.60979C8.63276 1.55548 8.69547 1.51214 8.7648 1.48232C8.83414 1.4525 8.90872 1.43678 8.9842 1.43609C9.05967 1.4354 9.13453 1.44975 9.2044 1.47829C9.27427 1.50684 9.33776 1.54902 9.39115 1.60237C9.44455 1.65571 9.48679 1.71916 9.5154 1.789C9.54402 1.85885 9.55843 1.93369 9.55781 2.00917C9.55719 2.08464 9.54155 2.15924 9.51179 2.2286C9.48203 2.29797 9.43876 2.36071 9.38449 2.41317ZM9.0949 5.49483C9.0949 5.64559 9.15479 5.79017 9.26139 5.89677C9.36799 6.00338 9.51257 6.06326 9.66333 6.06326H10.4212C10.572 6.06326 10.7166 6.00338 10.8232 5.89677C10.9298 5.79017 10.9897 5.64559 10.9897 5.49483C10.9897 5.34408 10.9298 5.19949 10.8232 5.09289C10.7166 4.98629 10.572 4.9264 10.4212 4.9264H9.66333C9.51257 4.9264 9.36799 4.98629 9.26139 5.09289C9.15479 5.19949 9.0949 5.34408 9.0949 5.49483ZM2.54315 3.10151C2.39589 3.10411 2.25336 3.04945 2.14561 2.94904L1.60977 2.4132C1.55392 2.36116 1.50913 2.2984 1.47806 2.22867C1.44699 2.15895 1.43028 2.08368 1.42894 2.00735C1.42759 1.93103 1.44163 1.85522 1.47022 1.78444C1.49881 1.71366 1.54136 1.64936 1.59534 1.59538C1.64932 1.54141 1.71361 1.49886 1.78439 1.47027C1.85517 1.44168 1.93098 1.42764 2.00731 1.42898C2.08363 1.43033 2.1589 1.44704 2.22863 1.4781C2.29836 1.50917 2.36111 1.55397 2.41315 1.60981L2.94899 2.14566C3.0494 2.25341 3.10406 2.39593 3.10146 2.5432C3.09887 2.69046 3.03921 2.83096 2.93506 2.93511C2.83092 3.03925 2.69041 3.09891 2.54315 3.10151ZM2.41315 9.37988L2.94899 8.84404C3.00484 8.792 3.04963 8.72924 3.0807 8.65951C3.11177 8.58979 3.12848 8.51452 3.12982 8.43819C3.13117 8.36187 3.11713 8.28606 3.08854 8.21528C3.05995 8.1445 3.0174 8.0802 2.96342 8.02622C2.90944 7.97225 2.84515 7.92969 2.77437 7.9011C2.70359 7.87252 2.62778 7.85848 2.55145 7.85982C2.47513 7.86117 2.39986 7.87787 2.33013 7.90894C2.2604 7.94001 2.19765 7.98481 2.14561 8.04065L1.60977 8.57649C1.55392 8.62853 1.50913 8.69129 1.47806 8.76101C1.44699 8.83074 1.43028 8.90601 1.42894 8.98234C1.42759 9.05866 1.44163 9.13447 1.47022 9.20525C1.49881 9.27603 1.54136 9.34033 1.59534 9.39431C1.64932 9.44828 1.71361 9.49084 1.78439 9.51942C1.85517 9.54801 1.93098 9.56205 2.00731 9.56071C2.08363 9.55936 2.1589 9.54265 2.22863 9.51159C2.29836 9.48052 2.36111 9.43572 2.41315 9.37988ZM1.72828 5.09289C1.83488 5.19949 1.89477 5.34408 1.89477 5.49483C1.89477 5.64559 1.83488 5.79017 1.72828 5.89677C1.62168 6.00338 1.4771 6.06326 1.32634 6.06326H0.568431C0.417674 6.06326 0.273091 6.00338 0.16649 5.89677C0.0598881 5.79017 0 5.64559 0 5.49483C0 5.34408 0.0598881 5.19949 0.16649 5.09289C0.273091 4.98629 0.417674 4.9264 0.568431 4.9264H1.32634C1.4771 4.9264 1.62168 4.98629 1.72828 5.09289Z"  />
</svg>
