<svg viewBox="0 0 18 19" xmlns="http://www.w3.org/2000/svg">
<path fill-rule="evenodd" clip-rule="evenodd" d="M14.2826 2.34783H16.4348C16.8499 2.34783 17.248 2.51273 17.5416 2.80627C17.8351 3.0998 18 3.49792 18 3.91304V17.2174C18 17.6325 17.8351 18.0306 17.5416 18.3242C17.248 18.6177 16.8499 18.7826 16.4348 18.7826H1.56522C1.1501 18.7826 0.751977 18.6177 0.458442 18.3242C0.164906 18.0306 0 17.6325 0 17.2174V3.91304C0 3.49792 0.164906 3.0998 0.458442 2.80627C0.751977 2.51273 1.1501 2.34783 1.56522 2.34783H2.73913C2.84291 2.34783 2.94244 2.38905 3.01582 2.46244C3.08921 2.53582 3.13043 2.63535 3.13043 2.73913V4.5C3.13043 4.65567 3.19227 4.80497 3.30235 4.91504C3.41243 5.02512 3.56172 5.08696 3.71739 5.08696C3.87306 5.08696 4.02236 5.02512 4.13243 4.91504C4.24251 4.80497 4.30435 4.65567 4.30435 4.5V0.782609C4.30435 0.575048 4.3868 0.375988 4.53357 0.229221C4.68034 0.0824532 4.8794 0 5.08696 0C5.29452 0 5.49358 0.0824532 5.64034 0.229221C5.78711 0.375988 5.86957 0.575048 5.86957 0.782609V2.15296C5.86977 2.20471 5.89048 2.25428 5.92715 2.2908C5.96382 2.32732 6.01346 2.34783 6.06522 2.34783H10.9565C11.0603 2.34783 11.1598 2.38905 11.2332 2.46244C11.3066 2.53582 11.3478 2.63535 11.3478 2.73913V4.5C11.3478 4.65567 11.4097 4.80497 11.5197 4.91504C11.6298 5.02512 11.7791 5.08696 11.9348 5.08696C12.0905 5.08696 12.2397 5.02512 12.3498 4.91504C12.4599 4.80497 12.5217 4.65567 12.5217 4.5V0.782609C12.5217 0.575048 12.6042 0.375988 12.751 0.229221C12.8977 0.0824532 13.0968 0 13.3043 0C13.5119 0 13.711 0.0824532 13.8577 0.229221C14.0045 0.375988 14.087 0.575048 14.087 0.782609V2.15217C14.087 2.20406 14.1076 2.25383 14.1443 2.29052C14.181 2.32721 14.2307 2.34783 14.2826 2.34783ZM16.3202 17.1028C16.3936 17.0294 16.4348 16.9299 16.4348 16.8261V7.43478C16.4348 7.331 16.3936 7.23147 16.3202 7.15809C16.2468 7.0847 16.1473 7.04348 16.0435 7.04348H1.95652C1.85274 7.04348 1.75321 7.0847 1.67983 7.15809C1.60644 7.23147 1.56522 7.331 1.56522 7.43478V16.8261C1.56522 16.9299 1.60644 17.0294 1.67983 17.1028C1.75321 17.1762 1.85274 17.2174 1.95652 17.2174H16.0435C16.1473 17.2174 16.2468 17.1762 16.3202 17.1028ZM10.548 10.6262H12.1524C12.3028 10.6221 12.4508 10.6638 12.577 10.7456C12.7032 10.8275 12.8016 10.9458 12.8591 11.0848C12.9148 11.2254 12.9274 11.3794 12.8952 11.5272C12.863 11.675 12.7875 11.8098 12.6783 11.9144L11.2602 13.1721L12.0428 14.9666C12.1083 15.1134 12.1252 15.2772 12.0912 15.4343C12.0571 15.5914 11.9738 15.7335 11.8534 15.84C11.7328 15.9512 11.5798 16.021 11.4167 16.039C11.2537 16.057 11.0891 16.0224 10.9472 15.9402L9.00003 14.8445L7.04586 15.9448C6.92827 16.0118 6.79534 16.0471 6.66003 16.0474C6.4674 16.0468 6.28188 15.9745 6.13959 15.8447C6.0193 15.7381 5.93608 15.596 5.90203 15.439C5.86797 15.2819 5.88485 15.1181 5.9502 14.9713L6.73281 13.1768L5.33116 11.9246C5.21837 11.82 5.13974 11.6839 5.10553 11.5339C5.07133 11.384 5.08314 11.2272 5.13942 11.0841C5.19652 10.9453 5.29448 10.8272 5.42028 10.7454C5.54608 10.6637 5.69378 10.6221 5.84377 10.6262H7.45281L8.30194 8.65954C8.36491 8.52899 8.46306 8.4186 8.58535 8.3408C8.70764 8.263 8.84922 8.22087 8.99415 8.21916C9.13909 8.21746 9.28162 8.25623 9.40571 8.33113C9.5298 8.40603 9.63053 8.51407 9.69655 8.64311L9.70438 8.65954L10.548 10.6262Z"  />
</svg>
