<svg viewBox="0 0 16 16" xmlns="http://www.w3.org/2000/svg">
<g clip-path="url(#clip0_62_3299)">
<path d="M8.00001 3.09668C7.03023 3.09668 6.08222 3.38426 5.27587 3.92304C4.46952 4.46183 3.84105 5.22762 3.46993 6.12359C3.0988 7.01956 3.0017 8.00545 3.1909 8.95661C3.38009 9.90776 3.84709 10.7814 4.53283 11.4672C5.21858 12.1529 6.09227 12.6199 7.04342 12.8091C7.99458 12.9983 8.98047 12.9012 9.87644 12.5301C10.7724 12.159 11.5382 11.5305 12.077 10.7242C12.6158 9.91781 12.9033 8.9698 12.9033 8.00001C12.9019 6.7 12.3849 5.45364 11.4656 4.53439C10.5464 3.61514 9.30003 3.09809 8.00001 3.09668ZM8.00001 11.57C7.29394 11.57 6.60371 11.3606 6.01663 10.9684C5.42955 10.5761 4.97197 10.0185 4.70176 9.36619C4.43156 8.71386 4.36086 7.99605 4.49861 7.30354C4.63636 6.61103 4.97637 5.97491 5.47564 5.47564C5.97492 4.97637 6.61103 4.63636 7.30354 4.49861C7.99605 4.36086 8.71386 4.43156 9.36619 4.70176C10.0185 4.97197 10.5761 5.42954 10.9684 6.01663C11.3606 6.60371 11.57 7.29393 11.57 8.00001C11.569 8.94651 11.1925 9.85394 10.5232 10.5232C9.85394 11.1925 8.94651 11.569 8.00001 11.57Z"  />
<path d="M8.00004 2.31133C8.17685 2.31133 8.34642 2.2411 8.47144 2.11607C8.59647 1.99105 8.66671 1.82148 8.66671 1.64467V0.666667C8.66671 0.489856 8.59647 0.320286 8.47144 0.195262C8.34642 0.0702379 8.17685 0 8.00004 0C7.82323 0 7.65366 0.0702379 7.52864 0.195262C7.40361 0.320286 7.33337 0.489856 7.33337 0.666667V1.64467C7.33337 1.82148 7.40361 1.99105 7.52864 2.11607C7.65366 2.2411 7.82323 2.31133 8.00004 2.31133Z"  />
<path d="M3.03472 3.97739C3.09622 4.04107 3.16979 4.09185 3.25112 4.12679C3.33246 4.16173 3.41994 4.18012 3.50846 4.18089C3.59698 4.18166 3.68476 4.16479 3.76669 4.13127C3.84863 4.09775 3.92306 4.04825 3.98566 3.98566C4.04825 3.92306 4.09775 3.84863 4.13127 3.76669C4.16479 3.68476 4.18166 3.59698 4.18089 3.50846C4.18012 3.41994 4.16173 3.33246 4.12679 3.25112C4.09185 3.16979 4.04107 3.09622 3.97739 3.03472L3.28606 2.34339C3.16032 2.22195 2.99192 2.15476 2.81712 2.15628C2.64233 2.15779 2.47512 2.22791 2.35151 2.35151C2.22791 2.47512 2.15779 2.64233 2.15628 2.81712C2.15476 2.99192 2.22195 3.16032 2.34339 3.28606L3.03472 3.97739Z"  />
<path d="M1.64467 7.33325H0.666667C0.489856 7.33325 0.320286 7.40349 0.195262 7.52851C0.0702379 7.65354 0 7.82311 0 7.99992C0 8.17673 0.0702379 8.3463 0.195262 8.47132C0.320286 8.59635 0.489856 8.66658 0.666667 8.66658H1.64467C1.82148 8.66658 1.99105 8.59635 2.11607 8.47132C2.2411 8.3463 2.31133 8.17673 2.31133 7.99992C2.31133 7.82311 2.2411 7.65354 2.11607 7.52851C1.99105 7.40349 1.82148 7.33325 1.64467 7.33325Z"  />
<path d="M3.03463 12.0226L2.3433 12.7139C2.27962 12.7754 2.22883 12.849 2.1939 12.9303C2.15896 13.0117 2.14056 13.0992 2.1398 13.1877C2.13903 13.2762 2.15589 13.364 2.18941 13.4459C2.22294 13.5279 2.27244 13.6023 2.33503 13.6649C2.39763 13.7275 2.47206 13.777 2.55399 13.8105C2.63592 13.844 2.72371 13.8609 2.81223 13.8601C2.90075 13.8593 2.98823 13.841 3.06957 13.806C3.1509 13.7711 3.22447 13.7203 3.28596 13.6566L3.9773 12.9653C4.04097 12.9038 4.09176 12.8302 4.1267 12.7489C4.16164 12.6676 4.18003 12.5801 4.1808 12.4916C4.18157 12.403 4.1647 12.3152 4.13118 12.2333C4.09766 12.1514 4.04815 12.0769 3.98556 12.0144C3.92296 11.9518 3.84853 11.9023 3.7666 11.8687C3.68467 11.8352 3.59688 11.8183 3.50836 11.8191C3.41984 11.8199 3.33236 11.8383 3.25103 11.8732C3.16969 11.9082 3.09613 11.9589 3.03463 12.0226Z"  />
<path d="M8.00004 13.6887C7.82323 13.6887 7.65366 13.759 7.52864 13.884C7.40361 14.009 7.33337 14.1786 7.33337 14.3554V15.3334C7.33337 15.5102 7.40361 15.6798 7.52864 15.8048C7.65366 15.9298 7.82323 16.0001 8.00004 16.0001C8.17685 16.0001 8.34642 15.9298 8.47144 15.8048C8.59647 15.6798 8.66671 15.5102 8.66671 15.3334V14.3554C8.66671 14.1786 8.59647 14.009 8.47144 13.884C8.34642 13.759 8.17685 13.6887 8.00004 13.6887Z"  />
<path d="M12.9654 12.0226C12.8396 11.9012 12.6712 11.834 12.4964 11.8355C12.3216 11.837 12.1544 11.9071 12.0308 12.0307C11.9072 12.1543 11.8371 12.3215 11.8356 12.4963C11.8341 12.6711 11.9013 12.8395 12.0227 12.9653L12.714 13.6566C12.8398 13.778 13.0082 13.8452 13.183 13.8437C13.3578 13.8422 13.525 13.7721 13.6486 13.6485C13.7722 13.5249 13.8423 13.3577 13.8438 13.1829C13.8453 13.0081 13.7782 12.8397 13.6567 12.7139L12.9654 12.0226Z"  />
<path d="M15.3334 7.33325H14.3554C14.1786 7.33325 14.009 7.40349 13.884 7.52851C13.759 7.65354 13.6887 7.82311 13.6887 7.99992C13.6887 8.17673 13.759 8.3463 13.884 8.47132C14.009 8.59635 14.1786 8.66658 14.3554 8.66658H15.3334C15.5102 8.66658 15.6798 8.59635 15.8048 8.47132C15.9298 8.3463 16.0001 8.17673 16.0001 7.99992C16.0001 7.82311 15.9298 7.65354 15.8048 7.52851C15.6798 7.40349 15.5102 7.33325 15.3334 7.33325Z"  />
<path d="M12.494 4.17272C12.6708 4.17269 12.8404 4.10242 12.9654 3.97739L13.6567 3.28606C13.7781 3.16032 13.8453 2.99192 13.8438 2.81712C13.8423 2.64233 13.7722 2.47512 13.6486 2.35151C13.525 2.22791 13.3578 2.15779 13.183 2.15628C13.0082 2.15476 12.8398 2.22195 12.714 2.34339L12.0227 3.03472C11.9295 3.12796 11.866 3.24673 11.8403 3.37604C11.8146 3.50534 11.8278 3.63936 11.8783 3.76116C11.9287 3.88296 12.0141 3.98707 12.1237 4.06033C12.2333 4.13358 12.3622 4.1727 12.494 4.17272Z"  />
</g>
<defs>
<clipPath id="clip0_62_3299">
<rect width="16" height="16"  />
</clipPath>
</defs>
</svg>
