<svg xmlns="http://www.w3.org/2000/svg" width="20" height="17" viewBox="0 0 20 17">
    <g fill="none" fill-rule="evenodd">
        <g fill="#7D8D9A" fill-rule="nonzero">
            <g>
                <path d="M16.989 7.519l.077.002c.13.015.245.09.31.203l2.068 3.58c.079.136.074.304-.012.435-.077.116-.207.185-.346.184h-.05l-.875-.105c-.1-.012-.195.05-.223.148-.836 2.91-3.158 5.153-6.094 5.889-2.894.686-5.93-.278-7.898-2.506-.255-.276-.34-.667-.224-1.024.116-.356.416-.622.784-.694.368-.072.746.061.988.348 1.464 1.657 3.721 2.373 5.872 1.863 2.066-.521 3.733-2.043 4.44-4.052.022-.06.015-.125-.018-.179-.033-.054-.089-.09-.152-.097l-1.528-.182c-.155-.02-.286-.125-.339-.272-.052-.147-.017-.312.09-.425l2.86-2.989c.088-.095.218-.142.347-.125zM8.132 2.145c2.893-.686 5.929.278 7.896 2.507.379.428.34 1.081-.088 1.46-.428.378-1.081.338-1.46-.09-1.463-1.657-3.72-2.373-5.872-1.862-2.065.524-3.732 2.046-4.44 4.055-.022.059-.015.124.017.177.032.054.086.09.148.099l1.553.191c.156.02.288.125.34.273.053.148.018.313-.092.426L3.26 12.352c-.078.08-.185.126-.297.126H2.91c-.13-.016-.244-.092-.309-.205L.554 8.682c-.077-.137-.071-.305.016-.435.085-.131.237-.201.392-.181l.854.107c.101.013.196-.05.225-.147.839-2.905 3.158-5.144 6.09-5.88z" transform="translate(-511 -632) translate(511 630.583)"/>
            </g>
        </g>
    </g>
</svg>
