<svg width="15" height="14" viewBox="0 0 15 14" xmlns="http://www.w3.org/2000/svg">
<path fill-rule="evenodd" clip-rule="evenodd" d="M5.61106 13.3878L5.92842 12.2794C5.93455 12.2582 5.93345 12.2356 5.92531 12.2151C5.91716 12.1946 5.90243 12.1775 5.88343 12.1663C5.86443 12.1551 5.84225 12.1506 5.8204 12.1534C5.79854 12.1563 5.77826 12.1663 5.76274 12.1819C5.65155 12.2879 5.50387 12.347 5.3503 12.347C5.19673 12.347 5.04904 12.2879 4.93785 12.1819L1.33729 8.57905C1.22793 8.46965 1.16649 8.32129 1.16649 8.1666C1.16649 8.01192 1.22793 7.86356 1.33729 7.75416L7.75436 1.33709C7.80844 1.28284 7.87273 1.23985 7.94353 1.21061C8.01432 1.18137 8.09021 1.16646 8.16681 1.16675H12.0591C12.1364 1.16675 12.2106 1.19748 12.2653 1.25218C12.32 1.30688 12.3507 1.38107 12.3507 1.45843V5.34951V5.39326C12.3492 5.41333 12.3518 5.43349 12.3585 5.45248C12.3651 5.47148 12.3756 5.48889 12.3893 5.50363C12.403 5.51837 12.4196 5.53012 12.4381 5.53813C12.4565 5.54614 12.4765 5.55025 12.4966 5.55019H12.5036C12.7789 5.54962 13.0523 5.59578 13.3121 5.6867C13.3327 5.69408 13.3547 5.6967 13.3764 5.69438C13.3981 5.69205 13.419 5.68484 13.4376 5.67328C13.4561 5.66185 13.4718 5.64645 13.4836 5.62818C13.4954 5.60992 13.503 5.58925 13.5058 5.56769C13.5147 5.4953 13.5192 5.42244 13.5192 5.34951V1.16675C13.5192 0.857308 13.3963 0.560544 13.1775 0.341737C12.9587 0.122931 12.6619 7.04681e-06 12.3525 7.04681e-06H8.16681C7.93689 -0.000647774 7.70914 0.0443403 7.49674 0.132363C7.28434 0.220387 7.09153 0.349694 6.92948 0.512789L0.512409 6.92986C0.184314 7.25805 0 7.70312 0 8.16719C0 8.63125 0.184314 9.07632 0.512409 9.40452L4.11297 13.0051C4.27535 13.1676 4.46825 13.2965 4.68059 13.3843C4.89293 13.4721 5.12052 13.5171 5.3503 13.5167C5.3923 13.5167 5.4343 13.5167 5.4763 13.512C5.50649 13.51 5.53527 13.4985 5.55861 13.4793C5.58194 13.46 5.59866 13.4339 5.6064 13.4047L5.61106 13.3878ZM10.0173 4.37471C10.5006 4.37471 10.8923 3.98293 10.8923 3.49965C10.8923 3.01637 10.5006 2.6246 10.0173 2.6246C9.53399 2.6246 9.14222 3.01637 9.14222 3.49965C9.14222 3.98293 9.53399 4.37471 10.0173 4.37471ZM7.45627 11.6934C7.42037 11.6573 7.37568 11.6313 7.32663 11.6179C7.27757 11.6045 7.22587 11.6041 7.17663 11.6169C7.1274 11.6296 7.08235 11.655 7.04596 11.6905C7.00957 11.726 6.98309 11.7705 6.96916 11.8194L6.45229 13.6278C6.43982 13.6713 6.43761 13.717 6.44584 13.7614C6.45408 13.8059 6.47253 13.8478 6.49974 13.8839C6.52695 13.92 6.56218 13.9493 6.60264 13.9694C6.6431 13.9896 6.68769 14 6.73289 14C6.75993 14.0001 6.78684 13.9964 6.81281 13.9889L8.62126 13.472C8.67029 13.4584 8.7149 13.4322 8.75066 13.396C8.78642 13.3598 8.8121 13.3149 8.82513 13.2657C8.83816 13.2165 8.8381 13.1648 8.82496 13.1156C8.81181 13.0665 8.78603 13.0216 8.75019 12.9855L7.45627 11.6934ZM10.769 7.6311C10.8463 7.6311 10.9205 7.66181 10.9752 7.7165L12.7276 9.46661C12.7823 9.52131 12.813 9.59548 12.813 9.67283C12.813 9.75017 12.7823 9.82435 12.7276 9.87905L9.80435 12.8017C9.74965 12.8564 9.67547 12.8871 9.59813 12.8871C9.52078 12.8871 9.4466 12.8564 9.39191 12.8017L7.6418 11.0516C7.58711 10.9969 7.55639 10.9227 7.55639 10.8454C7.55639 10.7681 7.58711 10.6939 7.6418 10.6392L10.5627 7.7165C10.6174 7.66181 10.6916 7.6311 10.769 7.6311ZM11.3252 6.98342C11.3404 6.94798 11.3624 6.91588 11.39 6.88898C11.6773 6.59651 12.0687 6.42974 12.4787 6.42514C12.8887 6.42055 13.2838 6.57852 13.5776 6.86448C13.8637 7.15161 14.0243 7.54042 14.0243 7.94576C14.0243 8.35109 13.8637 8.7399 13.5776 9.02703C13.5188 9.08564 13.4406 9.12071 13.3577 9.12562C13.2779 9.13046 13.1993 9.10481 13.1377 9.05387L11.3876 7.30376C11.3327 7.24836 11.3019 7.17351 11.3019 7.09549C11.3022 7.05696 11.3101 7.01887 11.3252 6.98342Z" />
</svg>
