<svg viewBox="0 0 16 18" xmlns="http://www.w3.org/2000/svg">
<path d="M15.9707 2.92406C15.9111 2.78077 15.7711 2.68744 15.616 2.68755H13.5043C13.4533 2.68775 13.4043 2.66759 13.3683 2.63154C13.3322 2.5955 13.3121 2.54655 13.3123 2.49557V0.383875C13.3122 0.228708 13.2188 0.0888134 13.0755 0.0293366C12.9322 -0.0301402 12.7672 0.00249368 12.6573 0.112042L10.8036 1.96573C10.4422 2.32492 10.2395 2.8138 10.2407 3.32336V4.61649C10.2408 4.6826 10.2069 4.74411 10.1509 4.77928C10.1259 4.79421 10.1027 4.81199 10.0818 4.83226L7.13679 7.77724C6.93717 7.97004 6.85712 8.25554 6.92739 8.52402C6.99766 8.7925 7.20733 9.00217 7.47581 9.07244C7.74429 9.14271 8.02979 9.06266 8.22259 8.86304L11.1676 5.91806C11.1883 5.89733 11.2063 5.87411 11.2213 5.84895C11.2568 5.79329 11.3181 5.75946 11.3841 5.75911H12.6765C13.186 5.76044 13.675 5.55775 14.0341 5.19624L15.8878 3.34256C15.9975 3.23267 16.0303 3.06749 15.9707 2.92406Z"  />
<path d="M7.67961 5.24855C8.1037 5.24855 8.4475 4.90475 8.4475 4.48066C8.4475 4.05656 8.1037 3.71277 7.67961 3.71277C5.13504 3.71277 3.07227 5.77555 3.07227 8.32011C3.07227 10.8647 5.13504 12.9275 7.67961 12.9275C10.2242 12.9275 12.2869 10.8647 12.2869 8.32011C12.2869 7.89602 11.9432 7.55222 11.5191 7.55222C11.095 7.55222 10.7512 7.89602 10.7512 8.32011C10.7512 10.0165 9.37598 11.3917 7.67961 11.3917C5.98323 11.3917 4.60805 10.0165 4.60805 8.32011C4.60805 6.62373 5.98323 5.24855 7.67961 5.24855Z"  />
<path d="M15.3585 8.32014C15.3585 7.89605 15.0147 7.55225 14.5906 7.55225C14.1665 7.55225 13.8227 7.89605 13.8227 8.32014C13.8227 11.7129 11.0724 14.4633 7.67962 14.4633C4.28687 14.4633 1.5365 11.7129 1.5365 8.32014C1.5365 4.92739 4.28687 2.17702 7.67962 2.17702C8.10372 2.17702 8.44751 1.83322 8.44751 1.40913C8.44751 0.985035 8.10372 0.641239 7.67962 0.641239C4.59246 0.63825 1.80424 2.48595 0.603889 5.33019C-0.596466 8.17443 0.0249058 11.4611 2.18076 13.6708C2.25008 13.7419 2.25374 13.8541 2.18921 13.9296L0.185781 16.2678C-0.0767595 16.591 -0.0338431 17.0646 0.282525 17.3354C0.598894 17.6061 1.07341 17.5754 1.35221 17.2661L3.39633 14.8818C3.45768 14.8097 3.56248 14.7934 3.64282 14.8434C6.11377 16.3832 9.24547 16.3832 11.7164 14.8434C11.797 14.7933 11.9021 14.8096 11.9637 14.8818L14.0078 17.2661C14.2866 17.5754 14.7611 17.6061 15.0775 17.3354C15.3939 17.0646 15.4368 16.591 15.1742 16.2678L13.1708 13.9296C13.1062 13.8546 13.1095 13.7426 13.1785 13.6716C14.5769 12.2414 15.3594 10.3204 15.3585 8.32014Z"  />
</svg>
