<svg width="18" height="15" viewBox="0 0 18 15" xmlns="http://www.w3.org/2000/svg">
   <path fill-rule="evenodd" clip-rule="evenodd"
      d="M14.5433 2.16823C14.1232 2.58839 13.8834 3.15586 13.8751 3.75V10.875C13.8771 11.0009 13.8899 11.1263 13.9133 11.25C14.0018 11.7731 14.2722 12.2482 14.6769 12.5913C15.0816 12.9344 15.5945 13.1234 16.1251 13.125C16.324 13.125 16.5148 13.204 16.6554 13.3447C16.7961 13.4853 16.8751 13.6761 16.8751 13.875C16.8751 14.0739 16.7961 14.2647 16.6554 14.4053C16.5148 14.546 16.324 14.625 16.1251 14.625C15.5814 14.6251 15.0441 14.5067 14.5508 14.2781C14.0574 14.0495 13.6198 13.7161 13.2683 13.3013C13.2505 13.2807 13.2285 13.2642 13.2038 13.2528C13.1791 13.2414 13.1523 13.2354 13.1251 13.2353C13.098 13.2352 13.0712 13.2411 13.0465 13.2525C13.0219 13.2639 13.0001 13.2805 12.9826 13.3013C12.631 13.7161 12.1932 14.0494 11.6997 14.278C11.2063 14.5066 10.6689 14.625 10.1251 14.625C9.92618 14.625 9.73542 14.546 9.59477 14.4053C9.45411 14.2647 9.3751 14.0739 9.3751 13.875C9.3751 13.6761 9.45411 13.4853 9.59477 13.3447C9.73542 13.204 9.92618 13.125 10.1251 13.125C10.6557 13.1234 11.1686 12.9344 11.5733 12.5913C11.978 12.2482 12.2484 11.7731 12.3368 11.25C12.3603 11.1263 12.3731 11.0009 12.3751 10.875V3.75C12.3668 3.15586 12.127 2.58839 11.7069 2.16823C11.2867 1.74807 10.7192 1.50834 10.1251 1.5C9.92618 1.5 9.73542 1.42098 9.59477 1.28033C9.45411 1.13968 9.3751 0.948912 9.3751 0.75C9.3751 0.551088 9.45411 0.360322 9.59477 0.21967C9.73542 0.0790179 9.92618 3.87924e-08 10.1251 3.87924e-08C10.6688 -7.82368e-05 11.2061 0.118303 11.6994 0.34691C12.1928 0.575516 12.6304 0.908859 12.9818 1.32375C12.9996 1.34442 13.0215 1.36102 13.0463 1.37241C13.071 1.3838 13.0979 1.38971 13.1251 1.38975C13.1522 1.38981 13.179 1.38393 13.2037 1.37253C13.2283 1.36113 13.2501 1.34448 13.2676 1.32375C13.6192 0.90888 14.057 0.575561 14.5505 0.346961C15.0439 0.118361 15.5813 -3.57225e-05 16.1251 3.87924e-08C16.324 3.87924e-08 16.5148 0.0790179 16.6554 0.21967C16.7961 0.360322 16.8751 0.551088 16.8751 0.75C16.8751 0.948912 16.7961 1.13968 16.6554 1.28033C16.5148 1.42098 16.324 1.5 16.1251 1.5C15.531 1.50834 14.9635 1.74807 14.5433 2.16823ZM0.81825 3.74946C0.610366 3.74071 0.407495 3.81475 0.254111 3.95534C0.100727 4.09593 0.00934588 4.2916 0 4.49946V9.74946C0.00934588 9.95732 0.100727 10.153 0.254111 10.2936C0.407495 10.4342 0.610366 10.5082 0.81825 10.4995H10.5C10.6989 10.4995 10.8897 10.4204 11.0303 10.2798C11.171 10.1391 11.25 9.94837 11.25 9.74946V4.49946C11.25 4.30055 11.171 4.10978 11.0303 3.96913C10.8897 3.82848 10.6989 3.74946 10.5 3.74946H0.81825ZM17.1818 3.74946H15.7501C15.5512 3.74946 15.3604 3.82848 15.2198 3.96913C15.0791 4.10978 15.0001 4.30055 15.0001 4.49946V9.74946C15.0001 9.94837 15.0791 10.1391 15.2198 10.2798C15.3604 10.4204 15.5512 10.4995 15.7501 10.4995H17.1818C17.3897 10.5082 17.5926 10.4342 17.746 10.2936C17.8994 10.153 17.9907 9.95732 18.0001 9.74946V4.49946C17.9907 4.2916 17.8994 4.09593 17.746 3.95534C17.5926 3.81475 17.3897 3.74071 17.1818 3.74946Z" />
</svg>