<svg viewBox="0 0 26 26" xmlns="http://www.w3.org/2000/svg">
<path d="M7.75492 13.6488C7.65498 13.5454 7.53544 13.4628 7.40327 13.4061C7.2711 13.3493 7.12895 13.3194 6.9851 13.3182C6.84126 13.3169 6.6986 13.3443 6.56547 13.3988C6.43233 13.4533 6.31137 13.5337 6.20965 13.6354C6.10794 13.7371 6.0275 13.8581 5.97303 13.9912C5.91855 14.1244 5.89114 14.267 5.89239 14.4109C5.89364 14.5547 5.92353 14.6969 5.98031 14.829C6.03708 14.9612 6.11961 15.0807 6.22308 15.1807L6.6055 15.5631C6.70705 15.6647 6.76409 15.8024 6.76409 15.9461C6.76409 16.0897 6.70705 16.2274 6.6055 16.329L0.635245 22.3014C0.33276 22.6044 0.126827 22.9903 0.0434427 23.4102C-0.0399417 23.8302 0.00296094 24.2654 0.166735 24.661C0.330508 25.0566 0.60781 25.3948 0.963634 25.6329C1.31946 25.871 1.73785 25.9983 2.166 25.9989C2.4509 25.9997 2.73314 25.944 2.99631 25.8348C3.25947 25.7256 3.4983 25.5652 3.69891 25.3629L9.66809 19.3938C9.76966 19.2922 9.90741 19.2352 10.051 19.2352C10.1947 19.2352 10.3324 19.2922 10.434 19.3938L10.8164 19.7762C10.917 19.8768 11.0364 19.9567 11.1679 20.0112C11.2993 20.0657 11.4402 20.0938 11.5825 20.0938C11.7248 20.0939 11.8657 20.0659 11.9972 20.0115C12.1287 19.9571 12.2481 19.8773 12.3488 19.7767C12.4494 19.6761 12.5293 19.5567 12.5838 19.4253C12.6383 19.2938 12.6664 19.1529 12.6664 19.0106C12.6665 18.8684 12.6385 18.7274 12.5841 18.596C12.5297 18.4645 12.4499 18.345 12.3493 18.2443L7.75492 13.6488Z" />
<path d="M22.136 6.70466C22.1815 6.70466 22.2259 6.70466 22.2714 6.70466C22.5381 6.68475 22.7973 6.60769 23.0315 6.47871C23.2658 6.34973 23.4695 6.17185 23.6288 5.95716L25.7609 3.10474C25.933 2.87339 26.0167 2.58807 25.9969 2.30036C25.977 2.01266 25.8549 1.74156 25.6525 1.53607L24.463 0.350903C24.2636 0.151957 24.0006 0.0294014 23.72 0.0046493C23.4395 -0.0201028 23.1591 0.0545221 22.9279 0.215486L20.0029 2.24674C19.7789 2.40197 19.5917 2.60465 19.4549 2.84038C19.318 3.07611 19.2347 3.3391 19.211 3.61066C19.1895 3.86173 19.2209 4.11453 19.3031 4.35274C19.3357 4.44859 19.3409 4.55167 19.3179 4.65029C19.2949 4.74891 19.2447 4.83911 19.1731 4.91066L10.93 13.144C10.7778 13.2963 10.6924 13.5029 10.6924 13.7182C10.6924 13.9335 10.7778 14.14 10.93 14.2923L11.697 15.0593C11.7725 15.1348 11.862 15.1947 11.9607 15.2356C12.0593 15.2765 12.165 15.2975 12.2717 15.2975C12.3785 15.2975 12.4842 15.2765 12.5828 15.2356C12.6814 15.1947 12.771 15.1348 12.8464 15.0593L21.1339 6.78049C21.2019 6.71165 21.2871 6.66227 21.3807 6.6375C21.4742 6.61274 21.5727 6.61348 21.6658 6.63966C21.819 6.68209 21.9771 6.70395 22.136 6.70466Z" />
<path d="M19.727 16.4146C19.6349 16.4393 19.538 16.4393 19.4459 16.4146C19.3538 16.3899 19.2699 16.3413 19.2026 16.2738L16.776 13.8471C16.6723 13.7496 16.5353 13.6953 16.393 13.6953C16.2507 13.6953 16.1137 13.7496 16.0101 13.8471L13.7123 16.1405C13.6108 16.2421 13.5537 16.3798 13.5537 16.5235C13.5537 16.6671 13.6108 16.8049 13.7123 16.9064L16.139 19.3342C16.2063 19.4016 16.2547 19.4855 16.2792 19.5776C16.3038 19.6696 16.3036 19.7666 16.2787 19.8585C16.0591 20.685 16.0605 21.5546 16.2827 22.3804C16.5049 23.2062 16.9401 23.9591 17.5448 24.5638C18.1495 25.1685 18.9024 25.6037 19.7282 25.8259C20.5539 26.0481 21.4236 26.0495 22.2501 25.8299C22.3421 25.8054 22.426 25.7572 22.4935 25.6899C22.5609 25.6227 22.6094 25.5389 22.6341 25.447C22.6588 25.355 22.6589 25.2582 22.6342 25.1662C22.6096 25.0742 22.5612 24.9904 22.4938 24.9231L20.8688 23.3046C20.7821 23.2168 20.7276 23.1023 20.7139 22.9796L20.5221 21.256C20.5132 21.1752 20.5225 21.0934 20.5495 21.0167C20.5764 20.94 20.6203 20.8703 20.6778 20.8129C20.7354 20.7555 20.8051 20.7117 20.8819 20.6849C20.9586 20.6581 21.0404 20.6489 21.1212 20.658L22.8437 20.8498C22.9666 20.8628 23.0812 20.9175 23.1687 21.0047L24.7937 22.6297C24.861 22.6968 24.9448 22.745 25.0366 22.7694C25.1285 22.7939 25.2251 22.7938 25.3169 22.7691C25.4087 22.7444 25.4923 22.696 25.5594 22.6287C25.6266 22.5615 25.6749 22.4777 25.6994 22.3859C25.9211 21.5592 25.9212 20.6887 25.6998 19.862C25.4783 19.0352 25.0431 18.2813 24.4379 17.6761C23.8327 17.0709 23.0788 16.6357 22.252 16.4142C21.4253 16.1928 20.5548 16.1929 19.7281 16.4146H19.727Z" />
<path d="M6.13771 9.72055C6.22977 9.69581 6.32673 9.69581 6.41879 9.72053C6.51086 9.74526 6.59477 9.79385 6.66204 9.86139L9.08871 12.2881C9.19029 12.3896 9.32804 12.4466 9.47167 12.4466C9.6153 12.4466 9.75305 12.3896 9.85463 12.2881L12.1524 9.9903C12.2539 9.88872 12.311 9.75097 12.311 9.60734C12.311 9.46371 12.2539 9.32596 12.1524 9.22438L9.72571 6.79663C9.65836 6.72925 9.60998 6.64529 9.58544 6.55323C9.56091 6.46117 9.56109 6.36427 9.58596 6.2723C9.80774 5.44549 9.8079 4.57485 9.58642 3.74796C9.36493 2.92107 8.92961 2.16708 8.32425 1.56182C7.71888 0.956563 6.96481 0.521382 6.13788 0.300047C5.31095 0.0787118 4.44031 0.0790264 3.61354 0.300959C3.52173 0.325504 3.438 0.373771 3.37074 0.440912C3.30349 0.508054 3.25508 0.591707 3.23039 0.683474C3.20569 0.77524 3.20557 0.871889 3.23004 0.963716C3.25451 1.05554 3.3027 1.13932 3.36979 1.20663L4.98937 2.83163C5.07696 2.91897 5.13201 3.03366 5.14537 3.15663L5.33604 4.87371C5.34498 4.95442 5.33566 5.03611 5.30877 5.11273C5.28187 5.18934 5.2381 5.25894 5.18068 5.31636C5.12326 5.37377 5.05367 5.41755 4.97705 5.44444C4.90043 5.47133 4.81875 5.48065 4.73804 5.47171L3.01446 5.27996C2.89163 5.26689 2.77696 5.21223 2.68945 5.12505L1.07204 3.50546C1.00473 3.43838 0.920953 3.39018 0.829126 3.36571C0.737298 3.34124 0.640649 3.34136 0.548883 3.36606C0.457117 3.39076 0.373463 3.43916 0.306322 3.50642C0.23918 3.57367 0.190914 3.65741 0.166369 3.74921C-0.0553255 4.57591 -0.0554584 5.44641 0.165983 6.27318C0.387425 7.09995 0.822636 7.85385 1.42786 8.45907C2.03308 9.06429 2.78697 9.4995 3.61374 9.72094C4.44051 9.94238 5.31101 9.94225 6.13771 9.72055Z" />
</svg>
