<svg width="16" height="16" viewBox="0 0 16 16" xmlns="http://www.w3.org/2000/svg">
   <g clip-path="url(#clip0_2582_479)">
      <path
         d="M15.6401 5.23673C15.6738 5.18656 15.6933 5.12817 15.6964 5.0678C15.6995 5.00743 15.6861 4.94735 15.6577 4.894C15.6292 4.84065 15.5868 4.79603 15.535 4.76492C15.4832 4.73381 15.4239 4.71738 15.3634 4.71739H14.2341C14.1491 4.71743 14.0673 4.685 14.0054 4.62673L12.9447 3.62673C12.9117 3.59556 12.8853 3.55796 12.8673 3.51623C12.8492 3.47449 12.8399 3.42952 12.8399 3.38406C12.8399 3.3386 12.8492 3.29362 12.8673 3.25189C12.8853 3.21016 12.9117 3.17256 12.9447 3.14139L14.0054 2.14139C14.0673 2.08312 14.1491 2.05069 14.2341 2.05073H15.3634C15.4235 2.0505 15.4825 2.034 15.534 2.00299C15.5855 1.97199 15.6277 1.92762 15.6561 1.87459C15.6844 1.82157 15.6979 1.76186 15.6951 1.70179C15.6923 1.64172 15.6733 1.58353 15.6401 1.53339C15.5185 1.35214 15.3797 1.18312 15.2254 1.02873C14.7171 0.51989 14.0578 0.189128 13.346 0.0858299C12.6342 -0.0174684 11.9081 0.112238 11.276 0.455583C10.644 0.798927 10.14 1.33749 9.83928 1.99085C9.53854 2.64422 9.45721 3.37733 9.60741 4.08073C9.61918 4.13519 9.61711 4.19173 9.60139 4.24519C9.58567 4.29865 9.55679 4.34731 9.51741 4.38673L3.37741 10.5267C3.34416 10.5599 3.30429 10.5856 3.2604 10.6023C3.21652 10.6189 3.16961 10.6261 3.12275 10.6234C2.58317 10.5921 2.04682 10.7255 1.58479 11.006C1.12275 11.2864 0.756838 11.7006 0.535538 12.1937C0.314237 12.6868 0.247998 13.2355 0.345598 13.7671C0.443198 14.2987 0.700029 14.7881 1.08206 15.1705C1.46408 15.5528 1.95327 15.81 2.48479 15.908C3.01631 16.0061 3.56507 15.9403 4.05835 15.7193C4.55163 15.4984 4.96613 15.1329 5.24694 14.671C5.52774 14.2092 5.66159 13.673 5.63075 13.1334C5.6282 13.0866 5.63555 13.0398 5.65232 12.996C5.6691 12.9522 5.69491 12.9125 5.72808 12.8794L11.8741 6.73406C11.9134 6.69467 11.9619 6.66573 12.0152 6.6499C12.0685 6.63406 12.125 6.63182 12.1794 6.64339C12.7223 6.75968 13.2858 6.73772 13.818 6.57953C14.3502 6.42135 14.8341 6.132 15.2254 5.73806C15.3795 5.58474 15.5184 5.41684 15.6401 5.23673ZM3.67608 13.9901C3.53624 14.1299 3.35806 14.2252 3.16407 14.2638C2.97008 14.3024 2.769 14.2826 2.58625 14.207C2.40351 14.1313 2.24731 14.0031 2.13742 13.8387C2.02752 13.6742 1.96887 13.4809 1.96887 13.2831C1.96887 13.0853 2.02752 12.8919 2.13742 12.7275C2.24731 12.563 2.40351 12.4348 2.58625 12.3591C2.769 12.2835 2.97008 12.2637 3.16407 12.3023C3.35806 12.3409 3.53624 12.4362 3.67608 12.5761C3.86355 12.7636 3.96887 13.0179 3.96887 13.2831C3.96887 13.5482 3.86355 13.8025 3.67608 13.9901Z" />
   </g>
   <defs>
      <clipPath id="clip0_2582_479">
         <rect width="16" height="16" />
      </clipPath>
   </defs>
</svg>