<svg xmlns="http://www.w3.org/2000/svg" width="20" height="21" viewBox="0 0 20 21">
    <g fill="none" fill-rule="evenodd">
        <g fill="#7D8D9A" fill-rule="nonzero">
            <g>
                <path d="M18.75 7.917h-1.552c-.154-.533-.367-1.048-.636-1.534l1.098-1.096c.235-.235.366-.553.366-.885 0-.331-.131-.65-.366-.884l-1.18-1.177c-.487-.488-1.279-.488-1.767 0l-1.098 1.097c-.485-.268-.999-.481-1.532-.635V1.25c0-.69-.56-1.25-1.25-1.25H9.167c-.69 0-1.25.56-1.25 1.25v1.553c-.533.154-1.047.367-1.533.635L5.286 2.341c-.488-.488-1.28-.488-1.768 0L2.34 3.519c-.234.235-.366.553-.366.884 0 .332.132.65.366.885l1.099 1.097c-.27.485-.482.999-.636 1.532H1.25c-.69 0-1.25.56-1.25 1.25v1.666c0 .69.56 1.25 1.25 1.25h1.552c.153.533.367 1.047.635 1.533l-1.099 1.099c-.488.488-.488 1.28 0 1.768l1.179 1.178c.496.469 1.272.469 1.768 0l1.098-1.098c.486.269 1 .482 1.534.637v1.55c0 .69.56 1.25 1.25 1.25h1.666c.69 0 1.25-.56 1.25-1.25V17.2c.533-.154 1.047-.368 1.533-.636l1.098 1.098c.488.488 1.28.488 1.768 0l1.178-1.179c.488-.488.488-1.279 0-1.767l-1.098-1.098c.27-.485.482-1 .636-1.533h1.552c.332 0 .65-.132.884-.367.235-.234.366-.553.366-.885V9.167c0-.69-.56-1.25-1.25-1.25zM10 14.167c-2.301 0-4.167-1.866-4.167-4.167C5.833 7.699 7.7 5.833 10 5.833c2.301 0 4.167 1.866 4.167 4.167-.003 2.3-1.867 4.164-4.167 4.167z" transform="translate(-511 -203) translate(511 203.5)"/>
            </g>
        </g>
    </g>
</svg>
