<svg viewBox="0 0 16 18" xmlns="http://www.w3.org/2000/svg">
<g id="bin-1 copy 8">
<path id="Shape" fill-rule="evenodd" clip-rule="evenodd" d="M13.4196 5.52564H2.57962C2.47723 5.52522 2.37941 5.56852 2.31019 5.64491C2.24097 5.72131 2.20677 5.82371 2.21599 5.92696L3.15199 16.3362C3.22008 17.0948 3.84834 17.6757 4.60071 17.6756H11.3985C12.1509 17.6757 12.7792 17.0948 12.8473 16.3362L13.7818 5.92696C13.7909 5.82402 13.7569 5.72194 13.688 5.64567C13.6191 5.56927 13.5218 5.52571 13.4196 5.52564ZM6.72871 15.0984C6.72871 15.4034 6.4845 15.6506 6.18326 15.6506C5.88201 15.6506 5.6378 15.4034 5.6378 15.0984V8.47109C5.6378 8.16608 5.88201 7.91882 6.18326 7.91882C6.4845 7.91882 6.72871 8.16608 6.72871 8.47109V15.0984ZM9.81962 15.6506C10.1209 15.6506 10.3651 15.4034 10.3651 15.0984V8.47109C10.3651 8.16608 10.1209 7.91882 9.81962 7.91882C9.51838 7.91882 9.27417 8.16608 9.27417 8.47109V15.0984C9.27417 15.4034 9.51838 15.6506 9.81962 15.6506Z"  />
<path id="Shape_2" fill-rule="evenodd" clip-rule="evenodd" d="M11.8182 2.94838H15.2727C15.6744 2.94838 16 3.27807 16 3.68475C16 4.09143 15.6744 4.42111 15.2727 4.42111H0.727273C0.325611 4.42111 0 4.09143 0 3.68475C0 3.27807 0.325611 2.94838 0.727273 2.94838H4.18182C4.23004 2.94838 4.27629 2.92899 4.31038 2.89447C4.34448 2.85994 4.36364 2.81312 4.36364 2.76429V1.84384C4.36364 0.827133 5.17766 0.00292969 6.18182 0.00292969H9.81818C10.8223 0.00292969 11.6364 0.827133 11.6364 1.84384V2.76429C11.6364 2.86596 11.7178 2.94838 11.8182 2.94838ZM5.81818 1.84384V2.76429C5.81818 2.86596 5.89958 2.94838 6 2.94838H10C10.1004 2.94838 10.1818 2.86596 10.1818 2.76429V1.84384C10.1818 1.6405 10.019 1.47566 9.81818 1.47566H6.18182C5.98099 1.47566 5.81818 1.6405 5.81818 1.84384Z"  />
</g>
</svg>
