<svg width="18" height="18" viewBox="0 0 18 18" xmlns="http://www.w3.org/2000/svg">
   <path fill-rule="evenodd" clip-rule="evenodd"
      d="M9.28785 8.91358C9.11204 9.0894 8.87358 9.18817 8.62494 9.18817C8.3763 9.18817 8.13784 9.0894 7.96203 8.91358C7.78621 8.73777 7.68744 8.49931 7.68744 8.25067V3.93817C7.68744 3.88844 7.66768 3.84075 7.63252 3.80559C7.59736 3.77042 7.54967 3.75067 7.49994 3.75067H5.62494C5.55067 3.7508 5.47804 3.72888 5.41625 3.68769C5.35446 3.64649 5.30629 3.58787 5.27785 3.51927C5.24941 3.45066 5.24198 3.37516 5.25651 3.30233C5.27104 3.2295 5.30686 3.16262 5.35944 3.11017L8.35944 0.11017C8.39427 0.0752479 8.43566 0.0475408 8.48121 0.0286359C8.52677 0.00973111 8.57561 0 8.62494 0C8.67426 0 8.72311 0.00973111 8.76866 0.0286359C8.81422 0.0475408 8.85561 0.0752479 8.89044 0.11017L11.8904 3.11017C11.943 3.16262 11.9788 3.2295 11.9934 3.30233C12.0079 3.37516 12.0005 3.45066 11.972 3.51927C11.9436 3.58787 11.8954 3.64649 11.8336 3.68769C11.7718 3.72888 11.6992 3.7508 11.6249 3.75067H9.74994C9.70021 3.75067 9.65252 3.77042 9.61736 3.80559C9.58219 3.84075 9.56244 3.88844 9.56244 3.93817V8.25067C9.56244 8.49931 9.46367 8.73777 9.28785 8.91358ZM1.5 11.25H16.5C17.3284 11.25 18 11.9216 18 12.75V16.125C18 16.9534 17.3284 17.625 16.5 17.625H1.5C0.671573 17.625 0 16.9534 0 16.125V12.75C0 11.9216 0.671573 11.25 1.5 11.25Z" />
</svg>