<svg width="18" height="18" viewBox="0 0 18 18" xmlns="http://www.w3.org/2000/svg">
   <path fill-rule="evenodd" clip-rule="evenodd"
      d="M1.5 0H16.5C17.3284 0 18 0.671573 18 1.5V4.875C18 5.70343 17.3284 6.375 16.5 6.375H1.5C0.671573 6.375 0 5.70343 0 4.875V1.5C0 0.671573 0.671573 0 1.5 0ZM8.71222 8.71301C8.88804 8.5372 9.1265 8.43843 9.37514 8.43843C9.62378 8.43843 9.86223 8.5372 10.038 8.71301C10.2139 8.88883 10.3126 9.12729 10.3126 9.37593V13.6884C10.3126 13.7382 10.3324 13.7858 10.3676 13.821C10.4027 13.8562 10.4504 13.8759 10.5001 13.8759H12.3751C12.4492 13.8759 12.5217 13.8979 12.5833 13.9391C12.645 13.9802 12.693 14.0387 12.7214 14.1072C12.7498 14.1756 12.7573 14.251 12.7429 14.3237C12.7286 14.3964 12.693 14.4632 12.6406 14.5157L9.64064 17.5157C9.57031 17.586 9.47495 17.6255 9.37551 17.6255C9.27607 17.6255 9.18071 17.586 9.11039 17.5157L6.11039 14.5157C6.05811 14.4632 6.02253 14.3965 6.00812 14.3239C5.99372 14.2512 6.00115 14.176 6.02946 14.1075C6.05778 14.0391 6.10571 13.9806 6.16723 13.9394C6.22875 13.8982 6.30109 13.8761 6.37514 13.8759H8.25014C8.29986 13.8759 8.34756 13.8562 8.38272 13.821C8.41788 13.7858 8.43764 13.7382 8.43764 13.6884V9.37593C8.43764 9.12729 8.53641 8.88883 8.71222 8.71301Z" />
</svg>