<svg xmlns="http://www.w3.org/2000/svg" width="20" height="20" viewBox="0 0 20 20">
    <g fill="none" fill-rule="evenodd">
        <g fill="#7D8D9A" fill-rule="nonzero">
            <g transform="translate(-511 -238) translate(511 238)">
                <rect width="1.667" height="6.667" x="12.083" y="4.583" rx=".5"/>
                <rect width="1.667" height="5" x="15" y="6.25" rx=".5"/>
                <path d="M12 15.592c-.063.414-.164.821-.303 1.216-.024.062-.016.132.022.187.038.055.1.088.168.088h6.446c.92 0 1.667-.746 1.667-1.666V3.678c0-.442-.176-.866-.488-1.178L17.5.488C17.187.176 16.763 0 16.32 0H6.668C5.747 0 5 .746 5 1.667v6.062c0 .113.089.206.202.208.305.006.865.029 1.237.069.059.007.117-.012.16-.052.044-.04.069-.096.068-.155V2.083c0-.23.186-.416.416-.416h9.066c.11 0 .216.043.294.121l1.769 1.769c.078.078.121.184.121.294V15c0 .23-.186.417-.416.417h-5.715c-.102 0-.188.075-.202.175z"/>
                <path d="M9.583 8.333c-.23 0-.416.187-.416.417v.19c.002.093.05.179.13.227.433.312.828.676 1.175 1.083.058.064.15.084.23.053.08-.032.132-.11.131-.196V8.75c0-.23-.186-.417-.416-.417h-.834zM5.417 20c2.991 0 5.416-2.425 5.416-5.417 0-2.991-2.425-5.416-5.416-5.416C2.425 9.167 0 11.592 0 14.583c.004 2.99 2.427 5.413 5.417 5.417zm-.758-8.5v-.007c.082-.011.142-.084.137-.166v-.292c0-.345.28-.625.625-.625s.625.28.625.625v.28c.003.075.065.136.14.137h.48c.346 0 .626.28.626.625s-.28.625-.625.625H4.973c-.236 0-.439.168-.484.4-.044.231.081.462.3.55l1.72.689c.729.283 1.178 1.02 1.095 1.798-.082.778-.676 1.404-1.448 1.528-.075.019-.123.09-.114.166v.295c0 .346-.28.625-.625.625-.346 0-.625-.28-.625-.625v-.278c-.002-.075-.062-.136-.137-.138h-.488c-.346 0-.625-.28-.625-.625 0-.346.28-.625.625-.625H5.86c.236 0 .438-.169.483-.4.045-.232-.081-.463-.3-.551l-1.719-.692c-.72-.285-1.164-1.013-1.087-1.784.078-.77.658-1.397 1.42-1.533l.001-.002z"/>
            </g>
        </g>
    </g>
</svg>
