<svg viewBox="0 0 18 16" xmlns="http://www.w3.org/2000/svg">
<path fill-rule="evenodd" clip-rule="evenodd" d="M13.0487 11.7333C13.3446 12.1689 13.5019 12.6838 13.5 13.2105V15.375C13.5 15.4745 13.4605 15.5698 13.3902 15.6402C13.3199 15.7105 13.2245 15.75 13.125 15.75H0.375016C0.27556 15.75 0.180177 15.7105 0.109851 15.6402C0.0395249 15.5698 1.60785e-05 15.4745 1.60785e-05 15.375V13.2165C-0.00182875 12.6906 0.155122 12.1765 0.450326 11.7413C0.745531 11.3061 1.16524 10.9702 1.65452 10.7775L4.75652 9.54225C4.79147 9.52852 4.82148 9.50458 4.84262 9.47354C4.86376 9.4425 4.87505 9.4058 4.87501 9.36825V8.205C4.87486 8.17464 4.86742 8.14477 4.85332 8.11789C4.83923 8.091 4.81889 8.06789 4.79401 8.0505C4.47596 7.80948 4.21765 7.49849 4.03908 7.14162C3.86051 6.78474 3.76648 6.39155 3.76427 5.9925C3.76212 5.96584 3.75433 5.93995 3.74139 5.91654C3.72846 5.89313 3.71069 5.87275 3.68927 5.85675C3.55077 5.73534 3.44222 5.58355 3.3721 5.41325C3.30197 5.24294 3.27217 5.05873 3.28502 4.875C3.282 4.63246 3.33948 4.39299 3.45227 4.17825C3.49359 4.10134 3.54589 4.03085 3.60752 3.969C3.63109 3.94552 3.64801 3.91622 3.65658 3.88408C3.66514 3.85193 3.66503 3.81809 3.65627 3.786C3.46352 3.105 3.19652 1.992 3.73127 1.41525C3.83455 1.30778 3.95934 1.22331 4.0975 1.16735C4.23565 1.11139 4.38405 1.0852 4.53302 1.0905C4.56378 1.0899 4.59394 1.0818 4.62086 1.0669C4.64779 1.052 4.67067 1.03075 4.68751 1.005C5.16751 0.2715 6.34351 0 7.31251 0C8.44201 0 9.85426 0.369 10.1138 1.40775C10.2388 2.20965 10.1519 3.0303 9.86176 3.78825C9.85171 3.82048 9.85052 3.85483 9.8583 3.88769C9.86609 3.92054 9.88257 3.9507 9.90601 3.975C10.1213 4.22388 10.232 4.54636 10.215 4.875C10.2279 5.05873 10.1981 5.24294 10.1279 5.41325C10.0578 5.58355 9.94926 5.73534 9.81076 5.85675C9.78934 5.87275 9.77157 5.89313 9.75863 5.91654C9.7457 5.93995 9.73791 5.96584 9.73576 5.9925C9.73355 6.39155 9.63952 6.78474 9.46095 7.14162C9.28238 7.49849 9.02407 7.80948 8.70601 8.0505C8.681 8.06776 8.66056 8.09084 8.64645 8.11775C8.63234 8.14467 8.62498 8.17461 8.62501 8.205V9.3675C8.62498 9.40505 8.63627 9.44175 8.65741 9.47279C8.67855 9.50383 8.70856 9.52777 8.74351 9.5415L11.8418 10.7692C12.332 10.9616 12.7527 11.2976 13.0487 11.7333ZM14.736 10.6808L16.887 11.6355C17.2185 11.783 17.5001 12.0235 17.6977 12.3278C17.8952 12.6321 18.0003 12.9872 18 13.35V15.375C18 15.4745 17.9605 15.5699 17.8902 15.6402C17.8198 15.7105 17.7245 15.75 17.625 15.75H14.8027C14.7764 15.7502 14.7502 15.7448 14.7261 15.7341C14.7019 15.7234 14.6803 15.7078 14.6627 15.6881C14.645 15.6685 14.6317 15.6454 14.6237 15.6202C14.6157 15.5951 14.613 15.5685 14.616 15.5423C14.6221 15.4867 14.6251 15.4309 14.625 15.375V13.2105C14.628 12.4586 14.4036 11.7233 13.9813 11.1011C13.5591 10.4789 12.9586 9.99878 12.2587 9.72379L10.5668 9.05329C10.543 9.04402 10.5215 9.02999 10.5034 9.01206C10.4854 8.99412 10.4712 8.97268 10.4618 8.94904C10.3543 8.67028 10.2859 8.37802 10.2585 8.08054C10.254 8.03981 10.263 7.99873 10.284 7.96354C10.553 7.50888 10.7313 7.00635 10.809 6.48379C10.8139 6.4523 10.8268 6.42259 10.8465 6.39754C11.1764 5.95937 11.3501 5.42341 11.34 4.87504C11.345 4.48707 11.2622 4.10299 11.0978 3.75154C11.0782 3.71117 11.0739 3.66507 11.0858 3.62179C11.0957 3.57849 11.1063 3.53422 11.1172 3.48905C11.1317 3.42861 11.1466 3.36657 11.1608 3.30304C11.168 3.27074 11.1837 3.24093 11.2062 3.21669C11.2287 3.19244 11.2573 3.17461 11.289 3.16504C11.7721 3.02556 12.2765 2.97474 12.7778 3.01504C13.9178 2.92504 15.3225 3.32629 15.588 4.40929C15.7027 4.84135 15.6613 5.30004 15.471 5.70454C15.4561 5.73671 15.4506 5.77243 15.4551 5.80759C15.4596 5.84275 15.474 5.87593 15.4965 5.90329C15.6614 6.12161 15.7455 6.39041 15.7343 6.66379C15.743 6.85717 15.7116 7.05025 15.6422 7.23094C15.5728 7.41163 15.4667 7.57602 15.3307 7.71379C15.3114 7.73036 15.2956 7.75065 15.2842 7.77345C15.2729 7.79626 15.2663 7.82112 15.2648 7.84654C15.2825 8.45695 15.0744 9.05244 14.6805 9.51904C14.6629 9.53635 14.6489 9.55701 14.6393 9.57981C14.6298 9.60261 14.6249 9.62708 14.625 9.65179V10.509C14.6251 10.5453 14.6356 10.5808 14.6553 10.6112C14.6749 10.6417 14.703 10.6658 14.736 10.6808Z" />
</svg>
