<svg viewBox="0 0 18 19" xmlns="http://www.w3.org/2000/svg">
<path fill-rule="evenodd" clip-rule="evenodd" d="M15.0827 7.58562C15.0403 7.58098 14.9975 7.59095 14.9616 7.61386C14.1033 8.15971 13.0739 8.36963 12.0705 8.20339C11.067 8.03715 10.1603 7.50644 9.52394 6.71299C8.88761 5.91953 8.56649 4.91915 8.62213 3.90358C8.67776 2.88801 9.10624 1.92869 9.82543 1.20949C10.5446 0.490299 11.5039 0.0618222 12.5195 0.00618676C13.5351 -0.0494487 14.5355 0.271671 15.3289 0.908C16.1224 1.54433 16.6531 2.4511 16.8193 3.45452C16.9856 4.45794 16.7756 5.48741 16.2298 6.34563C16.2069 6.38161 16.1969 6.42432 16.2016 6.46673C16.2062 6.50914 16.2252 6.54869 16.2553 6.57887L17.78 8.10286C17.8497 8.17249 17.905 8.25517 17.9427 8.34616C17.9805 8.43716 17.9999 8.5347 17.9999 8.63321C18 8.73172 17.9806 8.82928 17.9429 8.9203C17.9053 9.01132 17.85 9.09404 17.7804 9.16372C17.7108 9.2334 17.6281 9.28869 17.5371 9.32642C17.4461 9.36415 17.3486 9.38359 17.2501 9.38362C17.1515 9.38366 17.054 9.36429 16.963 9.32662C16.8719 9.28896 16.7892 9.23373 16.7195 9.1641L15.1948 7.63936C15.1646 7.60921 15.1251 7.59025 15.0827 7.58562ZM10.5673 2.67554C10.2788 3.10722 10.1249 3.61473 10.1249 4.1339C10.1249 4.83008 10.4014 5.49776 10.8937 5.99003C11.386 6.48231 12.0537 6.75887 12.7498 6.75887C13.269 6.75887 13.7765 6.60492 14.2082 6.31648C14.6399 6.02805 14.9763 5.61808 15.175 5.13843C15.3737 4.65878 15.4257 4.13099 15.3244 3.62179C15.2231 3.1126 14.9731 2.64487 14.606 2.27776C14.2389 1.91065 13.7711 1.66065 13.2619 1.55936C12.7527 1.45808 12.225 1.51006 11.7453 1.70874C11.2657 1.90742 10.8557 2.24387 10.5673 2.67554ZM7.49992 4.13396C7.49938 3.60978 7.5775 3.08848 7.73167 2.58748C7.73922 2.5627 7.74157 2.53664 7.73858 2.51091C7.73559 2.48519 7.72733 2.46036 7.7143 2.43797C7.70128 2.41559 7.68378 2.39613 7.6629 2.38082C7.64201 2.3655 7.61819 2.35467 7.59292 2.34898C7.31599 2.28872 7.03335 2.25854 6.74993 2.25898C6.25905 2.24504 5.77077 2.33512 5.31718 2.52332C4.86359 2.71152 4.45496 2.99357 4.11814 3.35093C3.78131 3.7083 3.52392 4.13289 3.36287 4.59682C3.20183 5.06074 3.14077 5.55349 3.18372 6.04269C3.18372 8.43142 3.87146 9.39966 4.5757 10.1766C4.58748 10.1899 4.59733 10.2048 4.60495 10.2209C4.75354 10.6858 4.76913 11.1831 4.64995 11.6564C4.59295 11.8484 4.5187 11.9361 4.46845 11.9564C4.31895 12.0113 4.16852 12.0649 4.01789 12.1185L4.01782 12.1185L3.89621 12.1619C2.07148 12.8069 0 13.5404 0 16.5088V17.6338C0 17.7333 0.0395084 17.8287 0.109834 17.899C0.180159 17.9693 0.275541 18.0088 0.374996 18.0088H13.1249C13.2243 18.0088 13.3197 17.9693 13.39 17.899C13.4604 17.8287 13.4999 17.7333 13.4999 17.6338V16.5088C13.4999 13.5479 11.4202 12.8076 9.58495 12.1544L9.5849 12.1544L9.03066 11.9549C8.98041 11.9361 8.90616 11.8484 8.84916 11.6549C8.7318 11.1836 8.74633 10.689 8.89116 10.2254C8.89911 10.2087 8.90947 10.1933 8.92191 10.1796C9.33028 9.75366 9.65672 9.25612 9.8849 8.71191C9.9011 8.6722 9.90308 8.62812 9.89051 8.58712C9.87793 8.54611 9.85158 8.51072 9.8159 8.48692C9.10295 8.00645 8.51891 7.35824 8.11509 6.59924C7.71127 5.84025 7.50003 4.9937 7.49992 4.13396ZM15.5377 9.66739C15.5402 9.63996 15.5367 9.61231 15.5273 9.58639C15.518 9.56047 15.5031 9.53692 15.4837 9.51739L14.9827 9.01639C14.9564 8.99011 14.9229 8.97223 14.8865 8.96502C14.85 8.95781 14.8122 8.96159 14.7779 8.97589C13.6138 9.4632 12.3135 9.51643 11.1135 9.12589C11.0691 9.11102 11.0208 9.11342 10.9781 9.1326C10.9354 9.15178 10.9015 9.18634 10.8832 9.22939C10.6945 9.66857 10.4505 10.0819 10.1572 10.4594C10.1398 10.4824 10.1279 10.5091 10.1223 10.5374C10.1167 10.5657 10.1176 10.595 10.125 10.6229C10.1748 10.8067 10.2379 10.9867 10.314 11.1614C10.3249 11.1843 10.3404 11.2047 10.3595 11.2215C10.3786 11.2382 10.4009 11.2509 10.425 11.2589C12.2512 11.9339 14.6287 13.0521 14.6287 16.5088V17.6338C14.6287 17.6894 14.6257 17.745 14.6197 17.8003C14.6168 17.8265 14.6195 17.8531 14.6276 17.8782C14.6357 17.9033 14.649 17.9265 14.6666 17.9461C14.6842 17.9658 14.7058 17.9816 14.7299 17.9923C14.7539 18.0031 14.78 18.0087 14.8064 18.0088H17.6249C17.7244 18.0088 17.8197 17.9693 17.8901 17.899C17.9604 17.8286 17.9999 17.7333 17.9999 17.6338V16.9941C17.9999 14.6691 16.3792 14.0908 14.9489 13.5816L14.5814 13.4488C14.5581 13.4405 14.5367 13.4275 14.5184 13.4108C14.5001 13.3941 14.4853 13.3739 14.4749 13.3513C14.4527 13.3033 14.4357 13.253 14.4239 13.2014C14.3616 12.894 14.3701 12.5765 14.4487 12.2729C14.4569 12.2479 14.4701 12.2249 14.4877 12.2054C15.1343 11.515 15.5076 10.6128 15.5377 9.66739Z"  />
</svg>
