<svg viewBox="0 0 18 9" xmlns="http://www.w3.org/2000/svg">
<path d="M13.04 0.0482907C12.3457 0.152861 11.6875 0.425502 11.1227 0.842489C10.5578 1.25948 10.1034 1.80818 9.79905 2.44085C9.49465 3.07352 9.34947 3.77099 9.37613 4.47257C9.4028 5.17416 9.60051 5.8586 9.95205 6.46633C9.96955 6.49429 9.97925 6.52642 9.98018 6.55938C9.9811 6.59235 9.9732 6.62497 9.9573 6.65386C9.94141 6.68275 9.91808 6.70688 9.88974 6.72374C9.86139 6.74061 9.82906 6.74959 9.79608 6.74978H8.20038C8.1674 6.74959 8.13507 6.74061 8.10673 6.72374C8.07839 6.70688 8.05506 6.68275 8.03916 6.65386C8.02326 6.62497 8.01536 6.59235 8.01629 6.55938C8.01721 6.52642 8.02692 6.49429 8.04441 6.46633C8.37876 5.88716 8.57379 5.23815 8.61406 4.57061C8.65433 3.90307 8.53874 3.23531 8.27644 2.62015C8.01413 2.00499 7.61231 1.45928 7.10273 1.02619C6.59316 0.593104 5.98982 0.284507 5.34041 0.124805C4.69101 -0.034896 4.01336 -0.041322 3.36104 0.106035C2.70872 0.253393 2.09964 0.550492 1.58194 0.97384C1.06425 1.39719 0.652145 1.93517 0.378223 2.54525C0.104301 3.15533 -0.023929 3.82077 0.00367415 4.48896C0.0790769 5.62188 0.586593 6.68261 1.42145 7.45216C2.25631 8.22172 3.35478 8.64135 4.49008 8.62443H13.5064C14.6423 8.64232 15.7417 8.22312 16.5774 7.45347C17.4131 6.68382 17.9211 5.62254 17.9965 4.48896C18.022 3.85365 17.9068 3.22058 17.6591 2.63498C17.4115 2.04938 17.0375 1.52574 16.5639 1.10147C16.0904 0.677204 15.5289 0.362801 14.9197 0.180738C14.3106 -0.00132548 13.6687 -0.0465522 13.04 0.0482907ZM1.87457 4.31274C1.87457 3.83074 2.0175 3.35956 2.28529 2.95879C2.55307 2.55802 2.93369 2.24566 3.379 2.06121C3.82431 1.87675 4.31432 1.82849 4.78706 1.92252C5.2598 2.01656 5.69404 2.24866 6.03486 2.58949C6.37569 2.93032 6.6078 3.36456 6.70183 3.8373C6.79586 4.31004 6.7476 4.80004 6.56315 5.24535C6.37869 5.69067 6.06633 6.07128 5.66556 6.33907C5.26479 6.60685 4.79362 6.74978 4.31161 6.74978C3.66551 6.74899 3.0461 6.49197 2.58924 6.03511C2.13238 5.57825 1.87537 4.95884 1.87457 4.31274ZM13.6849 6.74978C13.2028 6.74978 12.7317 6.60685 12.3309 6.33907C11.9301 6.07128 11.6178 5.69067 11.4333 5.24535C11.2489 4.80004 11.2006 4.31004 11.2946 3.8373C11.3887 3.36456 11.6208 2.93032 11.9616 2.58949C12.3024 2.24866 12.7367 2.01656 13.2094 1.92252C13.6821 1.82849 14.1722 1.87675 14.6175 2.06121C15.0628 2.24566 15.4434 2.55802 15.7112 2.95879C15.979 3.35956 16.1219 3.83074 16.1219 4.31274C16.1211 4.95884 15.8641 5.57825 15.4072 6.03511C14.9504 6.49197 14.331 6.74899 13.6849 6.74978Z"  />
</svg>
