<svg viewBox="0 0 29 29" xmlns="http://www.w3.org/2000/svg">
<path d="M28 4.08333C28 3.00037 27.5698 1.96176 26.804 1.19598C26.0382 0.430208 24.9996 1.38842e-06 23.9167 1.38842e-06H4.08333C3.54171 -0.000446072 3.00545 0.107266 2.506 0.316821C2.00656 0.526375 1.55399 0.833552 1.17483 1.22033C1.10931 1.26605 1.0544 1.32534 1.01384 1.39417C0.359603 2.13713 -0.000906735 3.09338 1.71272e-06 4.08333V19.25C0.0429 20.366 0.439762 21.4393 1.13316 22.3148C1.82656 23.1902 2.78052 23.8223 3.857 24.1197L16.8758 27.1775C17.1705 27.248 17.4724 27.284 17.7753 27.2848C18.5006 27.2935 19.207 27.0539 19.7773 26.6058C20.1739 26.2815 20.4905 25.8703 20.7025 25.4039C20.9145 24.9376 21.0163 24.4287 21 23.9167V21V12.6082C20.9985 11.523 20.6421 10.4682 19.9851 9.60451C19.3281 8.74086 18.4066 8.11585 17.3612 7.82483L4.732 4.34233C4.62131 4.31169 4.51773 4.25955 4.42719 4.18888C4.33665 4.11821 4.26092 4.0304 4.20431 3.93046C4.14771 3.83052 4.11134 3.72041 4.09729 3.60642C4.08324 3.49242 4.09178 3.37678 4.12242 3.26608C4.15306 3.15539 4.2052 3.05182 4.27587 2.96128C4.34654 2.87073 4.43436 2.795 4.53429 2.73839C4.63423 2.68179 4.74434 2.64542 4.85834 2.63137C4.97233 2.61732 5.08797 2.62586 5.19867 2.6565C5.19867 2.6565 8.8725 3.6715 9.282 3.7835C9.30667 3.7905 9.33219 3.79403 9.35783 3.794H23.9155C24.1476 3.794 24.3701 3.88619 24.5342 4.05028C24.6983 4.21438 24.7905 4.43694 24.7905 4.669C24.7905 4.90107 24.6983 5.12362 24.5342 5.28772C24.3701 5.45181 24.1476 5.544 23.9155 5.544H17.8092C17.7385 5.54385 17.6703 5.56934 17.617 5.61573C17.5637 5.66211 17.5291 5.72625 17.5196 5.79623C17.51 5.86621 17.5262 5.93728 17.5651 5.99624C17.604 6.05521 17.6629 6.09805 17.731 6.11683L17.8313 6.14367C19.1601 6.51289 20.3419 7.28437 21.2147 8.35217C21.2429 8.38663 21.2785 8.41428 21.3189 8.43307C21.3593 8.45185 21.4035 8.46128 21.448 8.46067H23.9167C24.1487 8.46067 24.3713 8.55285 24.5354 8.71695C24.6995 8.88104 24.7917 9.1036 24.7917 9.33567C24.7917 9.56773 24.6995 9.79029 24.5354 9.95439C24.3713 10.1185 24.1487 10.2107 23.9167 10.2107H22.7057C22.6604 10.2108 22.6158 10.2215 22.5754 10.2417C22.5349 10.2619 22.4996 10.2912 22.4723 10.3273C22.4452 10.3645 22.4274 10.4076 22.4203 10.4531C22.4132 10.4985 22.417 10.545 22.4315 10.5887C22.6459 11.2401 22.7565 11.9212 22.7593 12.607V20.7072C22.7593 20.7845 22.7901 20.8587 22.8448 20.9134C22.8995 20.9681 22.9736 20.9988 23.051 20.9988H23.9167C24.9996 20.9988 26.0382 20.5686 26.804 19.8029C27.5698 19.0371 28 17.9985 28 16.9155V4.08333ZM18.0833 17.5C18.0833 17.9615 17.9465 18.4126 17.6901 18.7963C17.4337 19.18 17.0693 19.4791 16.6429 19.6557C16.2166 19.8323 15.7474 19.8785 15.2948 19.7885C14.8422 19.6985 14.4264 19.4762 14.1001 19.1499C13.7738 18.8236 13.5515 18.4078 13.4615 17.9552C13.3715 17.5026 13.4177 17.0334 13.5943 16.6071C13.7709 16.1807 14.07 15.8163 14.4537 15.5599C14.8374 15.3035 15.2885 15.1667 15.75 15.1667C16.3688 15.1667 16.9623 15.4125 17.3999 15.8501C17.8375 16.2877 18.0833 16.8812 18.0833 17.5Z" />
</svg>
