<svg width="16" height="16" viewBox="0 0 16 16" xmlns="http://www.w3.org/2000/svg">
<path d="M15.4126 13.3333L9.18128 1.43332C9.06835 1.21782 8.8986 1.03732 8.69042 0.911382C8.48225 0.785446 8.24358 0.718872 8.00028 0.718872C7.75698 0.718872 7.51831 0.785446 7.31013 0.911382C7.10196 1.03732 6.93221 1.21782 6.81928 1.43332L0.587278 13.3333C0.480826 13.5366 0.428614 13.7638 0.435694 13.9931C0.442773 14.2224 0.508903 14.4461 0.627689 14.6423C0.746475 14.8386 0.913898 15.0009 1.11377 15.1136C1.31364 15.2262 1.53919 15.2854 1.76861 15.2853H14.2313C14.4607 15.2854 14.6863 15.2262 14.8861 15.1136C15.086 15.0009 15.2534 14.8386 15.3722 14.6423C15.491 14.4461 15.5571 14.2224 15.5642 13.9931C15.5713 13.7638 15.5191 13.5366 15.4126 13.3333ZM7.33328 5.61532C7.33328 5.43851 7.40352 5.26894 7.52854 5.14392C7.65357 5.01889 7.82314 4.94866 7.99995 4.94866C8.17676 4.94866 8.34633 5.01889 8.47135 5.14392C8.59638 5.26894 8.66661 5.43851 8.66661 5.61532V9.61532C8.66661 9.79214 8.59638 9.9617 8.47135 10.0867C8.34633 10.2118 8.17676 10.282 7.99995 10.282C7.82314 10.282 7.65357 10.2118 7.52854 10.0867C7.40352 9.9617 7.33328 9.79214 7.33328 9.61532V5.61532ZM8.03328 13.2887H8.01461C7.75171 13.2878 7.49931 13.1854 7.3102 13.0027C7.12109 12.8201 7.00992 12.5714 6.99995 12.3087C6.99514 12.178 7.01642 12.0477 7.06255 11.9253C7.10868 11.803 7.17873 11.6911 7.2686 11.5961C7.35847 11.5012 7.46637 11.4251 7.58599 11.3723C7.70561 11.3195 7.83455 11.291 7.96528 11.2887H7.98395C8.2468 11.289 8.49935 11.3909 8.68872 11.5732C8.8781 11.7555 8.98962 12.004 8.99995 12.2667C9.00512 12.3976 8.98406 12.5283 8.938 12.651C8.89195 12.7737 8.82183 12.886 8.73177 12.9812C8.64171 13.0764 8.53353 13.1526 8.41357 13.2054C8.29362 13.2582 8.16432 13.2865 8.03328 13.2887Z" />
</svg>
