<svg width="16" height="16" viewBox="0 0 16 16" xmlns="http://www.w3.org/2000/svg">
   <path
      d="M8 0C6.41775 0 4.87103 0.469192 3.55544 1.34824C2.23985 2.22729 1.21447 3.47672 0.608967 4.93853C0.0034663 6.40034 -0.15496 8.00887 0.153721 9.56072C0.462403 11.1126 1.22433 12.538 2.34315 13.6569C3.46197 14.7757 4.88743 15.5376 6.43928 15.8463C7.99113 16.155 9.59966 15.9965 11.0615 15.391C12.5233 14.7855 13.7727 13.7602 14.6518 12.4446C15.5308 11.129 16 9.58225 16 8C16 5.87827 15.1571 3.84344 13.6569 2.34315C12.1566 0.842855 10.1217 0 8 0V0ZM11.2727 12.3636C11.1298 12.3646 10.988 12.3371 10.8557 12.283C10.7234 12.2288 10.6031 12.1489 10.5018 12.048L8.25891 9.80073C8.19032 9.73304 8.09782 9.69509 8.00146 9.69509C7.90509 9.69509 7.8126 9.73304 7.744 9.80073L5.49964 12.0451C5.39977 12.1523 5.27933 12.2382 5.14551 12.2979C5.0117 12.3575 4.86724 12.3895 4.72076 12.3921C4.57429 12.3947 4.42879 12.3678 4.29295 12.3129C4.15711 12.258 4.03372 12.1764 3.93013 12.0728C3.82654 11.9692 3.74487 11.8458 3.69001 11.71C3.63514 11.5741 3.60819 11.4286 3.61078 11.2821C3.61336 11.1357 3.64542 10.9912 3.70505 10.8574C3.76467 10.7236 3.85064 10.6031 3.95782 10.5033L6.20218 8.25891C6.26987 8.19031 6.30782 8.09782 6.30782 8.00145C6.30782 7.90509 6.26987 7.81259 6.20218 7.744L3.95782 5.49964C3.85064 5.39976 3.76467 5.27933 3.70505 5.14551C3.64542 5.01169 3.61336 4.86724 3.61078 4.72076C3.60819 4.57428 3.63514 4.42879 3.69001 4.29295C3.74487 4.15711 3.82654 4.03372 3.93013 3.93013C4.03372 3.82653 4.15711 3.74487 4.29295 3.69C4.42879 3.63514 4.57429 3.60819 4.72076 3.61078C4.86724 3.61336 5.0117 3.64542 5.14551 3.70505C5.27933 3.76467 5.39977 3.85064 5.49964 3.95782L7.744 6.20218C7.8126 6.26987 7.90509 6.30782 8.00146 6.30782C8.09782 6.30782 8.19032 6.26987 8.25891 6.20218L10.5033 3.95782C10.7101 3.76512 10.9836 3.66021 11.2662 3.6652C11.5488 3.67019 11.8185 3.78468 12.0184 3.98455C12.2182 4.18442 12.3327 4.45407 12.3377 4.73669C12.3427 5.01931 12.2378 5.29284 12.0451 5.49964L9.80073 7.744C9.73304 7.81259 9.69509 7.90509 9.69509 8.00145C9.69509 8.09782 9.73304 8.19031 9.80073 8.25891L12.0451 10.5033C12.1981 10.6552 12.3024 10.8493 12.3448 11.0608C12.3872 11.2722 12.3656 11.4915 12.283 11.6907C12.2003 11.8899 12.0602 12.06 11.8806 12.1793C11.7009 12.2986 11.4898 12.3618 11.2742 12.3607L11.2727 12.3636Z" />
</svg>