<svg width="auto" height="auto" viewBox="0 0 18 18" fill="#D3DEE1" xmlns="http://www.w3.org/2000/svg">
<path id="cancel-x-2" d="M11.2047 9L17.5434 2.66136C18.1522 2.05254 18.1522 1.06544 17.5434 0.456618Lnan nanL17.5434 0.456618C16.9346 -0.152206 15.9475 -0.152206 15.3386 0.456618L9 6.79526L2.66136 0.456617C2.05254 -0.152206 1.06544 -0.152206 0.456618 0.456617Lnan nanL0.456618 0.456617C-0.152205 1.06544 -0.152206 2.05254 0.456617 2.66136L6.79526 9L0.456618 15.3386C-0.152205 15.9475 -0.152206 16.9346 0.456617 17.5434Lnan nanL0.456617 17.5434C1.06544 18.1522 2.05254 18.1522 2.66136 17.5434L9 11.2047L15.3386 17.5434C15.9475 18.1522 16.9346 18.1522 17.5434 17.5434Lnan nanL17.5434 17.5434C18.1522 16.9346 18.1522 15.9475 17.5434 15.3386L11.2047 9Z" fill="#D3DEE1"/>
</svg>
