<svg width="22" height="24" viewBox="0 0 22 24" fill="none" xmlns="http://www.w3.org/2000/svg">
<path d="M17.2071 9.79289C17.3946 9.98043 17.5 10.2348 17.5 10.5C17.5 10.7652 17.3946 11.0196 17.2071 11.2071C17.0196 11.3946 16.7652 11.5 16.5 11.5H5.5C5.23478 11.5 4.98043 11.3946 4.79289 11.2071C4.60536 11.0196 4.5 10.7652 4.5 10.5C4.5 10.2348 4.60536 9.98043 4.79289 9.79289C4.98043 9.60536 5.23478 9.5 5.5 9.5H16.5C16.7652 9.5 17.0196 9.60536 17.2071 9.79289Z" fill="#7E8F9C"/>
<path d="M17.2071 13.7929C17.3946 13.9804 17.5 14.2348 17.5 14.5C17.5 14.7652 17.3946 15.0196 17.2071 15.2071C17.0196 15.3946 16.7652 15.5 16.5 15.5H5.5C5.23478 15.5 4.98043 15.3946 4.79289 15.2071C4.60536 15.0196 4.5 14.7652 4.5 14.5C4.5 14.2348 4.60536 13.9804 4.79289 13.7929C4.98043 13.6054 5.23478 13.5 5.5 13.5H16.5C16.7652 13.5 17.0196 13.6054 17.2071 13.7929Z" fill="#7E8F9C"/>
<path d="M13.5 17.5H5.5C5.23478 17.5 4.98043 17.6054 4.79289 17.7929C4.60536 17.9804 4.5 18.2348 4.5 18.5C4.5 18.7652 4.60536 19.0196 4.79289 19.2071C4.98043 19.3946 5.23478 19.5 5.5 19.5H13.5C13.7652 19.5 14.0196 19.3946 14.2071 19.2071C14.3946 19.0196 14.5 18.7652 14.5 18.5C14.5 18.2348 14.3946 17.9804 14.2071 17.7929C14.0196 17.6054 13.7652 17.5 13.5 17.5Z" fill="#7E8F9C"/>
<path fill-rule="evenodd" clip-rule="evenodd" d="M21.4142 3.08579C21.7893 3.46086 22 3.96957 22 4.5V22C22 22.5304 21.7893 23.0391 21.4142 23.4142C21.0391 23.7893 20.5304 24 20 24H2C1.46957 24 0.960859 23.7893 0.585786 23.4142C0.210714 23.0391 0 22.5304 0 22V4.5C0 3.96957 0.210714 3.46086 0.585786 3.08579C0.960859 2.71071 1.46957 2.5 2 2.5H3.75C3.8163 2.5 3.87989 2.47366 3.92678 2.42678C3.97366 2.37989 4 2.3163 4 2.25V1C4 0.734784 4.10536 0.48043 4.29289 0.292893C4.48043 0.105357 4.73478 0 5 0C5.26522 0 5.51957 0.105357 5.70711 0.292893C5.89464 0.48043 6 0.734784 6 1V2.25C6 2.3163 6.02634 2.37989 6.07322 2.42678C6.12011 2.47366 6.1837 2.5 6.25 2.5H9.75C9.8163 2.5 9.87989 2.47366 9.92678 2.42678C9.97366 2.37989 10 2.3163 10 2.25V1C10 0.734784 10.1054 0.48043 10.2929 0.292893C10.4804 0.105357 10.7348 0 11 0C11.2652 0 11.5196 0.105357 11.7071 0.292893C11.8946 0.48043 12 0.734784 12 1V2.25C12 2.3163 12.0263 2.37989 12.0732 2.42678C12.1201 2.47366 12.1837 2.5 12.25 2.5H15.75C15.8163 2.5 15.8799 2.47366 15.9268 2.42678C15.9737 2.37989 16 2.3163 16 2.25V1C16 0.734784 16.1054 0.48043 16.2929 0.292893C16.4804 0.105357 16.7348 0 17 0C17.2652 0 17.5196 0.105357 17.7071 0.292893C17.8946 0.48043 18 0.734784 18 1V2.25C18 2.3163 18.0263 2.37989 18.0732 2.42678C18.1201 2.47366 18.1837 2.5 18.25 2.5H20C20.5304 2.5 21.0391 2.71071 21.4142 3.08579ZM19.9268 21.9268C19.9737 21.8799 20 21.8163 20 21.75L19.996 4.75C19.996 4.6837 19.9697 4.62011 19.9228 4.57322C19.8759 4.52634 19.8123 4.5 19.746 4.5H18.246C18.18 4.5 18.1166 4.52623 18.0699 4.57293C18.0232 4.61963 17.997 4.68296 17.997 4.749V5.5C17.997 5.76522 17.8916 6.01957 17.7041 6.20711C17.5166 6.39464 17.2622 6.5 16.997 6.5C16.7318 6.5 16.4774 6.39464 16.2899 6.20711C16.1024 6.01957 15.997 5.76522 15.997 5.5V4.75C15.997 4.6837 15.9707 4.62011 15.9238 4.57322C15.8769 4.52634 15.8133 4.5 15.747 4.5H12.247C12.1812 4.5 12.1181 4.52613 12.0716 4.57264C12.0251 4.61915 11.999 4.68223 11.999 4.748V5.5C11.999 5.76522 11.8936 6.01957 11.7061 6.20711C11.5186 6.39464 11.2642 6.5 10.999 6.5C10.7338 6.5 10.4794 6.39464 10.2919 6.20711C10.1044 6.01957 9.999 5.76522 9.999 5.5V4.75C9.999 4.6837 9.97266 4.62011 9.92578 4.57322C9.87889 4.52634 9.8153 4.5 9.749 4.5H6.249C6.18296 4.5 6.11963 4.52623 6.07293 4.57293C6.02623 4.61963 6 4.68296 6 4.749V5.5C6 5.76522 5.89464 6.01957 5.70711 6.20711C5.51957 6.39464 5.26522 6.5 5 6.5C4.73478 6.5 4.48043 6.39464 4.29289 6.20711C4.10536 6.01957 4 5.76522 4 5.5V4.75C4 4.6837 3.97366 4.62011 3.92678 4.57322C3.87989 4.52634 3.8163 4.5 3.75 4.5H2.25C2.1837 4.5 2.12011 4.52634 2.07322 4.57322C2.02634 4.62011 2 4.6837 2 4.75V21.75C2 21.8163 2.02634 21.8799 2.07322 21.9268C2.12011 21.9737 2.1837 22 2.25 22H19.75C19.8163 22 19.8799 21.9737 19.9268 21.9268Z" fill="#7E8F9C"/>
</svg>
